<?xml version="1.0" encoding="utf-8"?>
<!-- Generator: Adobe Illustrator 12.0.0, SVG Export Plug-In . SVG Version: 6.00 Build 51448)  -->
<!DOCTYPE svg PUBLIC "-//W3C//DTD SVG 1.1//EN" "http://www.w3.org/Graphics/SVG/1.1/DTD/svg11.dtd" [
	<!ENTITY ns_svg "http://www.w3.org/2000/svg">
	<!ENTITY ns_xlink "http://www.w3.org/1999/xlink">
]>
<svg  version="1.1" id="レイヤー_1" xmlns="&ns_svg;" xmlns:xlink="&ns_xlink;" width="143.865" height="35"
	 viewBox="0 0 143.865 35" overflow="visible" enable-background="new 0 0 143.865 35" xml:space="preserve">
<g>
	<g opacity="0.3">
		<path d="M16.75,29h3.5v-3.5h-3.5V29z M18.5,1C8.84,1,1,8.84,1,18.5C1,28.159,8.84,36,18.5,36C28.159,36,36,28.159,36,18.5
			C36,8.84,28.159,1,18.5,1z M18.5,32.5c-7.718,0-14-6.282-14-14s6.282-14,14-14s14,6.282,14,14S26.218,32.5,18.5,32.5z M18.5,8
			c-3.867,0-7,3.133-7,7H15c0-1.925,1.575-3.5,3.5-3.5c1.924,0,3.5,1.575,3.5,3.5c0,3.5-5.25,3.063-5.25,8.75h3.5
			c0-3.938,5.25-4.375,5.25-8.75C25.5,11.133,22.367,8,18.5,8z"/>
	</g>
	<g>
		<path fill="#FFFFFF" d="M15.75,28h3.5v-3.5h-3.5V28z M17.5,0C7.84,0,0,7.84,0,17.5C0,27.159,7.84,35,17.5,35
			C27.159,35,35,27.159,35,17.5C35,7.84,27.159,0,17.5,0z M17.5,31.5c-7.718,0-14-6.282-14-14s6.282-14,14-14s14,6.282,14,14
			S25.218,31.5,17.5,31.5z M17.5,7c-3.867,0-7,3.133-7,7H14c0-1.925,1.575-3.5,3.5-3.5c1.924,0,3.5,1.575,3.5,3.5
			c0,3.5-5.25,3.063-5.25,8.75h3.5c0-3.938,5.25-4.375,5.25-8.75C24.5,10.133,21.367,7,17.5,7z"/>
	</g>
</g>
<g>
	<g opacity="0.3">
		<path d="M52.008,11.898h2.25V7.68h2.648v4.219h1.781v2.719h-1.781v2.508c0.578-0.203,1.172-0.406,1.781-0.609v2.531l-1.781,0.656
			v7.102c0,1.047-0.281,1.695-0.844,1.945c-0.469,0.281-1.563,0.422-3.281,0.422c-0.047-0.719-0.305-1.563-0.773-2.531h2.156
			c0.063,0,0.094-0.156,0.094-0.469v-5.461l-1.969,0.773l-0.539-3c0.766-0.141,1.602-0.344,2.508-0.609v-3.258h-2.25V11.898z
			 M59.133,14.359h6v5.156h1.711v-5.156h6.375v5.156h-5.836v1.102h6.211v2.344h-4.922c1.781,1.297,3.734,2.398,5.859,3.305
			c-0.859,0.766-1.453,1.578-1.781,2.438c-1.359-0.703-2.547-1.445-3.563-2.227c-0.641-0.438-1.242-0.891-1.805-1.359v4.148h-2.789
			v-4.242c-0.484,0.422-0.953,0.797-1.406,1.125c-1.438,1.031-2.906,1.883-4.406,2.555c-0.203-0.875-0.648-1.719-1.336-2.531
			c1.813-0.641,3.688-1.711,5.625-3.211h-4.383v-2.344h5.906v-1.102h-5.461V14.359z M60.75,7.961h10.406v5.555H60.75V7.961z
			 M62.906,17.547v-1.313h-1.523v1.313H62.906z M68.414,11.453v-1.406h-4.969v1.406H68.414z M70.875,17.547v-1.313h-1.711v1.313
			H70.875z"/>
		<path d="M80.813,7.344l3.094,1.031C83.219,9.969,82.5,11.5,81.75,12.969v4.008c2.219-2.266,3.969-5.477,5.25-9.633l2.906,0.844
			c-0.406,1.172-0.836,2.289-1.289,3.352h9.164v2.742h-6.656v2.156h5.32v2.625h-5.32v2.156h5.719v2.602h-5.719v5.555h-3.094V14.281
			h-0.75c-1.109,2.047-2.359,3.797-3.75,5.25c-0.484-0.781-1.078-1.461-1.781-2.039v11.789h-3V18.195
			c-0.641,0.984-1.297,1.93-1.969,2.836c-0.266-1.422-0.609-2.609-1.031-3.563C77.453,15.172,79.141,11.797,80.813,7.344z"/>
		<path d="M100.008,11.359h9.375v2.227h-9.375V11.359z M105.844,27.93h-2.25v1.148h-2.719v-8.273h7.687v6.094
			c0.953-0.5,1.664-1.188,2.133-2.063c0.422-0.859,0.695-2.32,0.82-4.383h-1.734v-7.711h5.977l1.5-5.25l2.836,1.125l-1.688,4.125
			h2.344v7.711h-2.719v5.813c0.047,0.297,0.297,0.445,0.75,0.445c0.359,0,0.633-0.18,0.82-0.539c0.203-0.375,0.305-1,0.305-1.875
			c0.625,0.406,1.461,0.719,2.508,0.938c-0.094,1.094-0.445,2.117-1.055,3.07c-0.391,0.516-0.969,0.773-1.734,0.773h-1.688
			c-0.734,0-1.359-0.219-1.875-0.656c-0.454-0.328-0.68-1.047-0.68-2.156v-5.813h-1.172c-0.172,2.578-0.531,4.461-1.078,5.648
			c-0.703,1.469-1.82,2.648-3.352,3.539c-0.266-0.641-0.672-1.328-1.219-2.063v1.195h-2.718V27.93z M101.227,8.359h7.031v2.227
			h-7.031V8.359z M101.227,14.547h7.031v2.039h-7.031V14.547z M101.227,17.617h7.031v2.063h-7.031V17.617z M105.844,23.266h-2.25
			v2.414h2.25V23.266z M112.476,7.867c0.859,1.438,1.484,2.688,1.875,3.75l-2.508,0.938c-0.516-1.313-1.109-2.531-1.781-3.656
			L112.476,7.867z M117.938,18.109v-2.906h-5.461v2.906H117.938z"/>
		<path d="M125.039,9.219h8.156v14.25h-5.508v1.875h-2.648V9.219z M127.688,15.031h2.789V11.82h-2.789V15.031z M127.688,20.82h2.789
			v-3.352h-2.789V20.82z M135.258,8.375h9.586v14.508c0.094,3-0.125,4.781-0.656,5.344c-0.422,0.609-1.68,1.023-3.773,1.242
			c-0.031-0.859-0.344-1.828-0.938-2.906h1.875c0.453-0.031,0.648-0.32,0.586-0.867v-3.75h-4.852
			c-0.203,0.672-0.445,1.32-0.727,1.945c-0.875,2.156-2.422,4.102-4.641,5.836c-0.469-1.094-1.125-1.961-1.969-2.602
			c3.469-2.422,5.305-6.047,5.508-10.875V8.375z M137.648,19.531h4.289v-3.188h-4.031C137.906,17.422,137.82,18.484,137.648,19.531z
			 M137.906,13.883h4.031v-2.789h-4.031V13.883z"/>
	</g>
	<g>
		<g>
			<g>
				<path fill="#FFFFFF" d="M51.008,10.898h2.25V6.68h2.648v4.219h1.781v2.719h-1.781v2.508c0.578-0.203,1.172-0.406,1.781-0.609
					v2.531l-1.781,0.656v7.102c0,1.047-0.281,1.695-0.844,1.945c-0.469,0.281-1.563,0.422-3.281,0.422
					c-0.047-0.719-0.305-1.563-0.773-2.531h2.156c0.063,0,0.094-0.156,0.094-0.469v-5.461l-1.969,0.773l-0.539-3
					c0.766-0.141,1.602-0.344,2.508-0.609v-3.258h-2.25V10.898z M58.133,13.359h6v5.156h1.711v-5.156h6.375v5.156h-5.836v1.102
					h6.211v2.344h-4.922c1.781,1.297,3.734,2.398,5.859,3.305c-0.859,0.766-1.453,1.578-1.781,2.438
					c-1.359-0.703-2.547-1.445-3.563-2.227c-0.641-0.438-1.242-0.891-1.805-1.359v4.148h-2.789v-4.242
					c-0.484,0.422-0.953,0.797-1.406,1.125c-1.438,1.031-2.906,1.883-4.406,2.555c-0.203-0.875-0.648-1.719-1.336-2.531
					c1.813-0.641,3.688-1.711,5.625-3.211h-4.383v-2.344h5.906v-1.102h-5.461V13.359z M59.75,6.961h10.406v5.555H59.75V6.961z
					 M61.906,16.547v-1.313h-1.523v1.313H61.906z M67.414,10.453V9.047h-4.969v1.406H67.414z M69.875,16.547v-1.313h-1.711v1.313
					H69.875z"/>
			</g>
			<g>
				<path fill="#FFFFFF" d="M79.813,6.344l3.094,1.031C82.219,8.969,81.5,10.5,80.75,11.969v4.008
					c2.219-2.266,3.969-5.477,5.25-9.633l2.906,0.844c-0.406,1.172-0.836,2.289-1.289,3.352h9.164v2.742h-6.656v2.156h5.32v2.625
					h-5.32v2.156h5.719v2.602h-5.719v5.555h-3.094V13.281h-0.75c-1.109,2.047-2.359,3.797-3.75,5.25
					c-0.484-0.781-1.078-1.461-1.781-2.039v11.789h-3V17.195c-0.641,0.984-1.297,1.93-1.969,2.836
					c-0.266-1.422-0.609-2.609-1.031-3.563C76.453,14.172,78.141,10.797,79.813,6.344z"/>
			</g>
			<g>
				<path fill="#FFFFFF" d="M99.008,10.359h9.375v2.227h-9.375V10.359z M104.844,26.93h-2.25v1.148h-2.719v-8.273h7.687v6.094
					c0.953-0.5,1.664-1.188,2.133-2.063c0.422-0.859,0.695-2.32,0.82-4.383h-1.734v-7.711h5.977l1.5-5.25l2.836,1.125l-1.688,4.125
					h2.344v7.711h-2.719v5.813c0.047,0.297,0.297,0.445,0.75,0.445c0.359,0,0.633-0.18,0.82-0.539c0.203-0.375,0.305-1,0.305-1.875
					c0.625,0.406,1.461,0.719,2.508,0.938c-0.094,1.094-0.445,2.117-1.055,3.07c-0.391,0.516-0.969,0.773-1.734,0.773h-1.688
					c-0.734,0-1.36-0.219-1.875-0.656c-0.453-0.328-0.68-1.047-0.68-2.156v-5.813h-1.172c-0.172,2.578-0.531,4.461-1.078,5.648
					c-0.703,1.469-1.82,2.648-3.352,3.539c-0.266-0.641-0.672-1.328-1.219-2.063v1.195h-2.718V26.93z M100.227,7.359h7.031v2.227
					h-7.031V7.359z M100.227,13.547h7.031v2.039h-7.031V13.547z M100.227,16.617h7.031v2.063h-7.031V16.617z M104.844,22.266h-2.25
					v2.414h2.25V22.266z M111.476,6.867c0.859,1.438,1.484,2.688,1.875,3.75l-2.508,0.938c-0.516-1.313-1.109-2.531-1.781-3.656
					L111.476,6.867z M116.938,17.109v-2.906h-5.461v2.906H116.938z"/>
			</g>
			<g>
				<path fill="#FFFFFF" d="M124.039,8.219h8.156v14.25h-5.508v1.875h-2.648V8.219z M126.688,14.031h2.789V10.82h-2.789V14.031z
					 M126.688,19.82h2.789v-3.352h-2.789V19.82z M134.258,7.375h9.586v14.508c0.094,3-0.125,4.781-0.656,5.344
					c-0.422,0.609-1.68,1.023-3.773,1.242c-0.031-0.859-0.344-1.828-0.938-2.906h1.875c0.453-0.031,0.648-0.32,0.586-0.867v-3.75
					h-4.852c-0.203,0.672-0.445,1.32-0.727,1.945c-0.875,2.156-2.422,4.102-4.641,5.836c-0.469-1.094-1.125-1.961-1.969-2.602
					c3.469-2.422,5.305-6.047,5.508-10.875V7.375z M136.648,18.531h4.289v-3.188h-4.031
					C136.906,16.422,136.82,17.484,136.648,18.531z M136.906,12.883h4.031v-2.789h-4.031V12.883z"/>
			</g>
		</g>
	</g>
</g>
</svg>
