<?xml version="1.0" encoding="utf-8"?>
<!-- Generator: Adobe Illustrator 12.0.0, SVG Export Plug-In . SVG Version: 6.00 Build 51448)  -->
<!DOCTYPE svg PUBLIC "-//W3C//DTD SVG 1.1//EN" "http://www.w3.org/Graphics/SVG/1.1/DTD/svg11.dtd" [
	<!ENTITY ns_svg "http://www.w3.org/2000/svg">
	<!ENTITY ns_xlink "http://www.w3.org/1999/xlink">
]>
<svg  version="1.1" id="レイヤー_1" xmlns="&ns_svg;" xmlns:xlink="&ns_xlink;" width="143.422" height="35"
	 viewBox="0 0 143.422 35" overflow="visible" enable-background="new 0 0 143.422 35" xml:space="preserve">
<g>
	<g opacity="0.3">
		<path d="M1,36h34v-5.833H1V36z M1,21.416h34v-5.833H1V21.416z M1,1v5.833h34V1H1z"/>
	</g>
	<g>
		<path fill="#FFFFFF" d="M0,35h34v-5.833H0V35z M0,20.416h34v-5.833H0V20.416z M0,0v5.833h34V0H0z"/>
	</g>
</g>
<g>
	<g opacity="0.3">
		<path d="M71.156,20.867l-2.32,2.719c-0.672-0.719-2.016-1.867-4.031-3.445c-2.5,3.547-5.742,6.375-9.727,8.484
			c-0.453-1.125-1.141-2.063-2.063-2.813c4.438-2.125,7.484-4.609,9.141-7.453c-1.734-1.094-3.563-1.977-5.484-2.648l1.594-2.602
			c1.891,0.734,3.695,1.57,5.414,2.508c0.391-0.813,0.711-1.43,0.961-1.852c0.656-1.922,1.211-3.609,1.664-5.063l3.281,1.102
			c-0.438,0.938-0.727,1.695-0.867,2.273c-0.547,1.531-1.305,3.281-2.273,5.25C68.898,19.031,70.469,20.211,71.156,20.867z"/>
		<path d="M97.219,25.906H76.641v-3.188h20.578V25.906z M94.195,14.516H79.336v-3.094h14.859V14.516z"/>
		<path d="M119.344,27.859h-16.805v-2.93h9.585c0.141-1.891,0.328-4.031,0.563-6.422h-8.226v-2.906h11.789
			c-0.469,4.406-0.774,7.516-0.915,9.328h4.008V27.859z"/>
		<path d="M144.422,19.891h-18.867v-3.07h18.867V19.891z"/>
	</g>
	<g>
		<g>
			<g>
				<path fill="#FFFFFF" d="M70.156,19.867l-2.32,2.719c-0.672-0.719-2.016-1.867-4.031-3.445c-2.5,3.547-5.742,6.375-9.727,8.484
					c-0.453-1.125-1.141-2.063-2.063-2.813c4.438-2.125,7.484-4.609,9.141-7.453c-1.734-1.094-3.563-1.977-5.484-2.648l1.594-2.602
					c1.891,0.734,3.695,1.57,5.414,2.508c0.391-0.813,0.711-1.43,0.961-1.852c0.656-1.922,1.211-3.609,1.664-5.063l3.281,1.102
					c-0.438,0.938-0.727,1.695-0.867,2.273c-0.547,1.531-1.305,3.281-2.273,5.25C67.898,18.031,69.469,19.211,70.156,19.867z"/>
			</g>
			<g>
				<path fill="#FFFFFF" d="M96.219,24.906H75.641v-3.188h20.578V24.906z M93.195,13.516H78.336v-3.094h14.859V13.516z"/>
			</g>
			<g>
				<path fill="#FFFFFF" d="M118.344,26.859h-16.805v-2.93h9.585c0.141-1.891,0.328-4.031,0.563-6.422h-8.226v-2.906h11.789
					c-0.469,4.406-0.773,7.516-0.914,9.328h4.008V26.859z"/>
			</g>
			<g>
				<path fill="#FFFFFF" d="M143.422,18.891h-18.867v-3.07h18.867V18.891z"/>
			</g>
		</g>
	</g>
</g>
</svg>
