<?xml version="1.0" encoding="utf-8"?>
<!-- Generator: Adobe Illustrator 12.0.0, SVG Export Plug-In . SVG Version: 6.00 Build 51448)  -->
<!DOCTYPE svg PUBLIC "-//W3C//DTD SVG 1.1//EN" "http://www.w3.org/Graphics/SVG/1.1/DTD/svg11.dtd" [
	<!ENTITY ns_svg "http://www.w3.org/2000/svg">
	<!ENTITY ns_xlink "http://www.w3.org/1999/xlink">
]>
<svg  version="1.1" id="レイヤー_1" xmlns="&ns_svg;" xmlns:xlink="&ns_xlink;" width="96.969" height="35"
	 viewBox="0 0 96.969 35" overflow="visible" enable-background="new 0 0 96.969 35" xml:space="preserve">
<g>
	<g opacity="0.3">
		<path d="M51.938,11.281h9.352v2.25h-9.352V11.281z M57.844,27.852h-2.367v1.125h-2.602V20.82h7.57v6.117
			c2.016-0.719,3.609-1.492,4.781-2.32c-0.313-0.375-0.594-0.766-0.844-1.172c-0.719-1.125-1.242-2.313-1.57-3.563h-1.711v-2.32
			h0.914c-0.313-0.734-0.867-1.422-1.664-2.063c0.938-0.828,1.563-1.609,1.875-2.344c0.391-0.781,0.586-2.438,0.586-4.969h7.57
			v5.602c0.031,0.453,0.164,0.68,0.398,0.68h0.75c0.172,0,0.297-0.656,0.375-1.969c0.703,0.422,1.578,0.766,2.625,1.031
			c-0.234,1.25-0.57,2.164-1.008,2.742c-0.266,0.406-0.711,0.609-1.336,0.609h-2.344c-0.516,0-1.016-0.18-1.5-0.539
			c-0.438-0.281-0.656-1.133-0.656-2.555v-3.094H65.32c-0.125,2.094-0.359,3.492-0.703,4.195c-0.438,0.922-1.25,1.813-2.438,2.672
			h8.578l0.211-0.094l1.969,1.383c-0.797,1.922-1.719,3.555-2.766,4.898c-0.203,0.328-0.445,0.641-0.727,0.938
			c0.359,0.266,0.742,0.5,1.148,0.703c0.969,0.531,2.281,1.039,3.938,1.523c-1.047,0.688-1.828,1.508-2.344,2.461
			c-1.594-0.641-3.117-1.484-4.57-2.531c-0.109-0.078-0.211-0.148-0.305-0.211c-1.344,1.063-3.07,2.039-5.18,2.93
			c-0.297-0.688-0.859-1.469-1.688-2.344v1.406h-2.602V27.852z M53.133,8.281h7.031v2.156h-7.031V8.281z M53.133,14.375h7.031v2.156
			h-7.031V14.375z M53.133,17.563h7.031v2.133h-7.031V17.563z M57.844,23.094h-2.367v2.531h2.367V23.094z M65.695,19.883
			c0.391,1.172,0.938,2.148,1.641,2.93c0.375-0.375,0.703-0.789,0.984-1.242c0.375-0.547,0.672-1.109,0.891-1.688H65.695z"/>
		<path d="M79.875,14.172h13.969v2.508h-5.648v3h5.648v2.648h-5.648v3.82c0.969,0.141,2.305,0.211,4.008,0.211h5.766
			c-0.625,0.938-0.969,1.844-1.031,2.719h-4.734c-2.625,0-4.633-0.273-6.023-0.82c-1.313-0.328-2.547-0.953-3.703-1.875
			c-0.563-0.484-1.078-1.008-1.547-1.57c-0.922,1.922-1.961,3.555-3.117,4.898c-0.547-0.859-1.234-1.602-2.063-2.227
			c2-2.188,3.555-5.383,4.664-9.586l2.813,0.844c-0.344,1.234-0.734,2.391-1.172,3.469c0.578,0.828,1.289,1.578,2.133,2.25
			c0.406,0.297,0.805,0.555,1.195,0.773V16.68h-5.508V14.172z M85.195,7.586h3.398v2.156h8.344v5.813h-2.906v-3.352H79.688v3.352
			h-2.906V9.742h8.414V7.586z"/>
	</g>
	<g>
		<g>
			<g>
				<path fill="#FFFFFF" d="M50.938,10.281h9.352v2.25h-9.352V10.281z M56.844,26.852h-2.367v1.125h-2.602V19.82h7.57v6.117
					c2.016-0.719,3.609-1.492,4.781-2.32c-0.313-0.375-0.594-0.766-0.844-1.172c-0.719-1.125-1.242-2.313-1.57-3.563h-1.711v-2.32
					h0.914c-0.313-0.734-0.867-1.422-1.664-2.063c0.938-0.828,1.563-1.609,1.875-2.344c0.391-0.781,0.586-2.438,0.586-4.969h7.57
					v5.602c0.031,0.453,0.164,0.68,0.398,0.68h0.75c0.172,0,0.297-0.656,0.375-1.969c0.703,0.422,1.578,0.766,2.625,1.031
					c-0.234,1.25-0.57,2.164-1.008,2.742c-0.266,0.406-0.711,0.609-1.336,0.609h-2.344c-0.516,0-1.016-0.18-1.5-0.539
					c-0.438-0.281-0.656-1.133-0.656-2.555V9.695H64.32c-0.125,2.094-0.359,3.492-0.703,4.195c-0.438,0.922-1.25,1.813-2.438,2.672
					h8.578l0.211-0.094l1.969,1.383c-0.797,1.922-1.719,3.555-2.766,4.898c-0.203,0.328-0.445,0.641-0.727,0.938
					c0.359,0.266,0.742,0.5,1.148,0.703c0.969,0.531,2.281,1.039,3.938,1.523c-1.047,0.688-1.828,1.508-2.344,2.461
					c-1.594-0.641-3.117-1.484-4.57-2.531c-0.109-0.078-0.211-0.148-0.305-0.211c-1.344,1.063-3.07,2.039-5.18,2.93
					c-0.297-0.688-0.859-1.469-1.688-2.344v1.406h-2.602V26.852z M52.133,7.281h7.031v2.156h-7.031V7.281z M52.133,13.375h7.031
					v2.156h-7.031V13.375z M52.133,16.563h7.031v2.133h-7.031V16.563z M56.844,22.094h-2.367v2.531h2.367V22.094z M64.695,18.883
					c0.391,1.172,0.938,2.148,1.641,2.93c0.375-0.375,0.703-0.789,0.984-1.242c0.375-0.547,0.672-1.109,0.891-1.688H64.695z"/>
			</g>
			<g>
				<path fill="#FFFFFF" d="M78.875,13.172h13.969v2.508h-5.648v3h5.648v2.648h-5.648v3.82c0.969,0.141,2.305,0.211,4.008,0.211
					h5.766c-0.625,0.938-0.969,1.844-1.031,2.719h-4.734c-2.625,0-4.633-0.273-6.023-0.82c-1.313-0.328-2.547-0.953-3.703-1.875
					c-0.563-0.484-1.078-1.008-1.547-1.57c-0.922,1.922-1.961,3.555-3.117,4.898c-0.547-0.859-1.234-1.602-2.063-2.227
					c2-2.188,3.555-5.383,4.664-9.586l2.813,0.844c-0.344,1.234-0.734,2.391-1.172,3.469c0.578,0.828,1.289,1.578,2.133,2.25
					c0.406,0.297,0.805,0.555,1.195,0.773V15.68h-5.508V13.172z M84.195,6.586h3.398v2.156h8.344v5.813h-2.906v-3.352H78.688v3.352
					h-2.906V8.742h8.414V6.586z"/>
			</g>
		</g>
	</g>
</g>
<g>
	<g opacity="0.3">
		<path d="M31.029,20.216c0.071-0.561,0.123-1.121,0.123-1.716s-0.052-1.155-0.123-1.715l3.693-2.888
			c0.333-0.262,0.418-0.734,0.21-1.12l-3.5-6.055c-0.157-0.28-0.455-0.438-0.77-0.438c-0.105,0-0.212,0.017-0.299,0.052l-4.356,1.75
			c-0.91-0.7-1.89-1.277-2.958-1.715l-0.665-4.637C22.332,1.315,21.964,1,21.527,1h-7c-0.438,0-0.805,0.315-0.857,0.735
			l-0.666,4.637c-1.067,0.438-2.047,1.033-2.958,1.715l-4.357-1.75c-0.105-0.035-0.21-0.052-0.315-0.052
			c-0.297,0-0.595,0.157-0.752,0.438l-3.5,6.055c-0.228,0.386-0.123,0.858,0.21,1.12l3.692,2.888
			c-0.07,0.56-0.122,1.137-0.122,1.715c0,0.578,0.052,1.155,0.122,1.716l-3.692,2.887c-0.333,0.261-0.419,0.734-0.21,1.119
			l3.5,6.057c0.158,0.28,0.455,0.438,0.77,0.438c0.105,0,0.21-0.017,0.298-0.053l4.357-1.75c0.91,0.698,1.89,1.276,2.958,1.714
			l0.666,4.639c0.052,0.42,0.42,0.734,0.857,0.734h7c0.438,0,0.805-0.314,0.857-0.734l0.665-4.639
			c1.068-0.438,2.048-1.032,2.958-1.714l4.356,1.75c0.104,0.036,0.21,0.053,0.316,0.053c0.297,0,0.595-0.157,0.752-0.438l3.5-6.057
			c0.208-0.385,0.123-0.858-0.21-1.119L31.029,20.216z M27.565,17.223c0.069,0.542,0.087,0.91,0.087,1.277s-0.034,0.753-0.087,1.278
			l-0.245,1.976l1.558,1.227l1.888,1.471l-1.224,2.115l-2.222-0.893l-1.821-0.734l-1.574,1.189c-0.754,0.561-1.472,0.98-2.188,1.278
			l-1.854,0.752l-0.28,1.979l-0.35,2.361h-2.451l-0.333-2.361l-0.279-1.979l-1.855-0.752c-0.753-0.314-1.453-0.718-2.152-1.242
			l-1.593-1.226l-1.855,0.752l-2.222,0.894l-1.225-2.117l1.889-1.47l1.558-1.226l-0.245-1.978c-0.052-0.542-0.087-0.944-0.087-1.295
			s0.035-0.753,0.087-1.277l0.245-1.978L7.176,14.02l-1.889-1.47l1.225-2.118l2.222,0.892l1.82,0.735l1.575-1.189
			c0.753-0.561,1.471-0.98,2.188-1.277l1.855-0.753l0.28-1.977l0.35-2.363h2.432l0.334,2.363l0.28,1.977l1.854,0.753
			c0.752,0.314,1.453,0.717,2.153,1.242l1.593,1.225l1.854-0.752l2.224-0.893l1.224,2.117l-1.871,1.488l-1.558,1.225L27.565,17.223z
			 M18.027,11.5c-3.868,0-7,3.133-7,7s3.132,7,7,7c3.867,0,7-3.133,7-7S21.894,11.5,18.027,11.5z M18.027,22
			c-1.925,0-3.5-1.576-3.5-3.5c0-1.925,1.575-3.5,3.5-3.5c1.924,0,3.5,1.575,3.5,3.5C21.527,20.424,19.951,22,18.027,22z"/>
	</g>
	<g>
		<path fill="#FFFFFF" d="M30.029,19.216c0.071-0.561,0.123-1.121,0.123-1.716s-0.052-1.155-0.123-1.715l3.693-2.888
			c0.333-0.262,0.418-0.734,0.21-1.12l-3.5-6.055c-0.157-0.28-0.455-0.438-0.77-0.438c-0.105,0-0.212,0.017-0.299,0.052l-4.356,1.75
			c-0.91-0.7-1.89-1.277-2.958-1.715l-0.665-4.637C21.332,0.315,20.964,0,20.527,0h-7c-0.438,0-0.805,0.315-0.857,0.735
			l-0.666,4.637C10.937,5.81,9.957,6.405,9.046,7.087l-4.357-1.75c-0.105-0.035-0.21-0.052-0.315-0.052
			c-0.297,0-0.595,0.157-0.752,0.438l-3.5,6.055c-0.228,0.386-0.123,0.858,0.21,1.12l3.692,2.888
			c-0.07,0.56-0.122,1.137-0.122,1.715s0.052,1.155,0.122,1.716l-3.692,2.887c-0.333,0.261-0.419,0.734-0.21,1.119l3.5,6.057
			c0.158,0.28,0.455,0.438,0.77,0.438c0.105,0,0.21-0.017,0.298-0.053l4.357-1.75c0.91,0.698,1.89,1.276,2.958,1.714l0.666,4.639
			c0.052,0.42,0.42,0.734,0.857,0.734h7c0.438,0,0.805-0.314,0.857-0.734l0.665-4.639c1.068-0.438,2.048-1.032,2.958-1.714
			l4.356,1.75c0.104,0.036,0.21,0.053,0.316,0.053c0.297,0,0.595-0.157,0.752-0.438l3.5-6.057c0.208-0.385,0.123-0.858-0.21-1.119
			L30.029,19.216z M26.565,16.223c0.069,0.542,0.087,0.91,0.087,1.277s-0.034,0.753-0.087,1.278l-0.245,1.976l1.558,1.227
			l1.888,1.471l-1.224,2.115l-2.222-0.893l-1.821-0.734l-1.574,1.189c-0.754,0.561-1.472,0.98-2.188,1.278l-1.854,0.752l-0.28,1.979
			l-0.35,2.361h-2.451l-0.333-2.361l-0.279-1.979l-1.855-0.752c-0.753-0.314-1.453-0.718-2.152-1.242l-1.593-1.226l-1.855,0.752
			l-2.222,0.894l-1.225-2.117l1.889-1.47l1.558-1.226l-0.245-1.978c-0.052-0.542-0.087-0.944-0.087-1.295s0.035-0.753,0.087-1.277
			l0.245-1.978L6.176,13.02l-1.889-1.47l1.225-2.118l2.222,0.892l1.82,0.735l1.575-1.189c0.753-0.561,1.471-0.98,2.188-1.277
			l1.855-0.753l0.28-1.977l0.35-2.363h2.432l0.334,2.363l0.28,1.977l1.854,0.753c0.752,0.314,1.453,0.717,2.153,1.242l1.593,1.225
			l1.854-0.752l2.224-0.893l1.224,2.117l-1.871,1.488l-1.558,1.225L26.565,16.223z M17.027,10.5c-3.868,0-7,3.133-7,7s3.132,7,7,7
			c3.867,0,7-3.133,7-7S20.894,10.5,17.027,10.5z M17.027,21c-1.925,0-3.5-1.576-3.5-3.5c0-1.925,1.575-3.5,3.5-3.5
			c1.924,0,3.5,1.575,3.5,3.5C20.527,19.424,18.951,21,17.027,21z"/>
	</g>
</g>
</svg>
