<?xml version="1.0" encoding="utf-8"?>
<!-- Generator: Adobe Illustrator 12.0.0, SVG Export Plug-In . SVG Version: 6.00 Build 51448)  -->
<!DOCTYPE svg PUBLIC "-//W3C//DTD SVG 1.1//EN" "http://www.w3.org/Graphics/SVG/1.1/DTD/svg11.dtd" [
	<!ENTITY ns_svg "http://www.w3.org/2000/svg">
	<!ENTITY ns_xlink "http://www.w3.org/1999/xlink">
]>
<svg  version="1.1" id="レイヤー_1" xmlns="&ns_svg;" xmlns:xlink="&ns_xlink;" width="149.281" height="35"
	 viewBox="0 0 149.281 35" overflow="visible" enable-background="new 0 0 149.281 35" xml:space="preserve">
<g>
	<g opacity="0.3">
		<path d="M4.182,5.773c0-0.875,0.716-1.591,1.591-1.591h3.182V1H5.773C3.131,1,1,3.131,1,5.773v3.182h3.182V5.773z"/>
		<path d="M4.182,31.228v-3.182H1v3.182C1,33.868,3.131,36,5.773,36h3.182v-3.182H5.773C4.898,32.818,4.182,32.102,4.182,31.228z"/>
		<path d="M31.228,1h-3.182v3.182h3.182c0.874,0,1.591,0.716,1.591,1.591v3.182H36V5.773C36,3.131,33.868,1,31.228,1z"/>
		<path d="M32.818,31.228c0,0.874-0.717,1.591-1.591,1.591h-3.182V36h3.182C33.868,36,36,33.868,36,31.228v-3.182h-3.182V31.228z"/>
		<path d="M29.637,23.066v-9.132c0-1.145-0.604-2.195-1.591-2.752L20.091,6.6c-0.494-0.287-1.034-0.43-1.591-0.43
			s-1.098,0.143-1.591,0.43l-7.955,4.566c-0.987,0.573-1.591,1.623-1.591,2.768v9.132c0,1.145,0.604,2.195,1.591,2.751l7.955,4.583
			c0.493,0.286,1.034,0.429,1.591,0.429s1.097-0.143,1.591-0.429l7.955-4.583C29.032,25.262,29.637,24.211,29.637,23.066z
			 M16.909,26.725l-6.364-3.658V15.7l6.364,3.708V26.725z M18.5,16.654l-6.3-3.675l6.3-3.627l6.3,3.627L18.5,16.654z M26.454,23.066
			l-6.363,3.658v-7.317l6.363-3.708V23.066z"/>
	</g>
	<g>
		<g>
			<g>
				<path fill="#FFFFFF" d="M3.182,4.773c0-0.875,0.716-1.591,1.591-1.591h3.182V0H4.773C2.131,0,0,2.131,0,4.773v3.182h3.182V4.773
					z"/>
				<path fill="#FFFFFF" d="M3.182,30.228v-3.182H0v3.182C0,32.868,2.131,35,4.773,35h3.182v-3.182H4.773
					C3.898,31.818,3.182,31.102,3.182,30.228z"/>
				<path fill="#FFFFFF" d="M30.228,0h-3.182v3.182h3.182c0.874,0,1.591,0.716,1.591,1.591v3.182H35V4.773
					C35,2.131,32.868,0,30.228,0z"/>
				<path fill="#FFFFFF" d="M31.818,30.228c0,0.874-0.717,1.591-1.591,1.591h-3.182V35h3.182C32.868,35,35,32.868,35,30.228v-3.182
					h-3.182V30.228z"/>
				<path fill="#FFFFFF" d="M28.637,22.066v-9.132c0-1.145-0.604-2.195-1.591-2.752L19.091,5.6c-0.494-0.287-1.034-0.43-1.591-0.43
					s-1.098,0.143-1.591,0.43l-7.955,4.566c-0.987,0.573-1.591,1.623-1.591,2.768v9.132c0,1.145,0.604,2.195,1.591,2.751
					l7.955,4.583c0.493,0.286,1.034,0.429,1.591,0.429s1.097-0.143,1.591-0.429l7.955-4.583
					C28.032,24.262,28.637,23.211,28.637,22.066z M15.909,25.725l-6.364-3.658V14.7l6.364,3.708V25.725z M17.5,15.654l-6.3-3.675
					l6.3-3.627l6.3,3.627L17.5,15.654z M25.454,22.066l-6.363,3.658v-7.317l6.363-3.708V22.066z"/>
			</g>
		</g>
	</g>
</g>
<g>
	<g opacity="0.3">
		<path d="M67.172,9.922l-6.234,17.016h-3.094L51.609,9.922h3.352l4.383,13.195L63.82,9.922H67.172z"/>
		<path d="M81.352,26.938h-3.727l-3.844-6.797h-2.789v6.797h-2.883V9.922h5.883c4.531,0,6.797,1.75,6.797,5.25
			c0,2.266-1.313,3.789-3.938,4.57L81.352,26.938z M77.531,15.078c-0.078-1.563-1.172-2.344-3.281-2.344h-3.258v4.594h2.906
			C76.242,17.328,77.453,16.578,77.531,15.078z"/>
		<path d="M103.313,19.438H92.531v4.313c0,0.688,0.336,1.125,1.008,1.313c0.297,0.078,0.938,0.117,1.922,0.117h6.563v3.047h-6.211
			c-2.906,0-4.773-0.305-5.602-0.914c-0.547-0.438-0.82-1.227-0.82-2.367v-5.508h-6.375v-2.859h6.375v-4.031h-4.219v-3h15.141v3
			h-7.781v4.031h10.781V19.438z"/>
		<path d="M126.797,19.891h-18.868v-3.07h18.868V19.891z"/>
		<path d="M150.281,19.016l-1.781,2.93c-2.719-1.719-5.523-3.109-8.414-4.172v11.133h-3.375V8.141h3.375v6.375
			C143.523,15.594,146.922,17.094,150.281,19.016z M148.148,12.805l-1.359,1.406c-0.813-0.844-1.734-1.719-2.766-2.625l1.289-1.289
			C146.313,11.016,147.258,11.852,148.148,12.805z M150.281,10.672l-1.383,1.5c-0.938-1.031-1.906-1.906-2.906-2.625l1.383-1.406
			C148.484,8.922,149.453,9.766,150.281,10.672z"/>
	</g>
	<g>
		<g>
			<g>
				<path fill="#FFFFFF" d="M66.172,8.922l-6.234,17.016h-3.094L50.609,8.922h3.352l4.383,13.195L62.82,8.922H66.172z"/>
			</g>
			<g>
				<path fill="#FFFFFF" d="M80.352,25.938h-3.727l-3.844-6.797h-2.789v6.797h-2.883V8.922h5.883c4.531,0,6.797,1.75,6.797,5.25
					c0,2.266-1.313,3.789-3.938,4.57L80.352,25.938z M76.531,14.078c-0.078-1.563-1.172-2.344-3.281-2.344h-3.258v4.594h2.906
					C75.242,16.328,76.453,15.578,76.531,14.078z"/>
			</g>
			<g>
				<path fill="#FFFFFF" d="M102.313,18.438H91.531v4.313c0,0.688,0.336,1.125,1.008,1.313c0.297,0.078,0.938,0.117,1.922,0.117
					h6.563v3.047h-6.211c-2.906,0-4.773-0.305-5.602-0.914c-0.547-0.438-0.82-1.227-0.82-2.367v-5.508h-6.375v-2.859h6.375v-4.031
					h-4.219v-3h15.141v3h-7.781v4.031h10.781V18.438z"/>
			</g>
			<g>
				<path fill="#FFFFFF" d="M125.797,18.891h-18.868v-3.07h18.868V18.891z"/>
			</g>
			<g>
				<path fill="#FFFFFF" d="M149.281,18.016l-1.781,2.93c-2.719-1.719-5.523-3.109-8.414-4.172v11.133h-3.375V7.141h3.375v6.375
					C142.523,14.594,145.922,16.094,149.281,18.016z M147.148,11.805l-1.359,1.406c-0.813-0.844-1.734-1.719-2.766-2.625
					l1.289-1.289C145.313,10.016,146.258,10.852,147.148,11.805z M149.281,9.672l-1.383,1.5c-0.938-1.031-1.906-1.906-2.906-2.625
					l1.383-1.406C147.484,7.922,148.453,8.766,149.281,9.672z"/>
			</g>
		</g>
	</g>
</g>
</svg>
