<?xml version="1.0" encoding="utf-8"?>
<!-- Generator: Adobe Illustrator 12.0.0, SVG Export Plug-In . SVG Version: 6.00 Build 51448)  -->
<!DOCTYPE svg PUBLIC "-//W3C//DTD SVG 1.1//EN" "http://www.w3.org/Graphics/SVG/1.1/DTD/svg11.dtd" [
	<!ENTITY ns_svg "http://www.w3.org/2000/svg">
	<!ENTITY ns_xlink "http://www.w3.org/1999/xlink">
]>
<svg  version="1.1" id="レイヤー_1" xmlns="&ns_svg;" xmlns:xlink="&ns_xlink;" width="222.406" height="35"
	 viewBox="0 0 222.406 35" overflow="visible" enable-background="new 0 0 222.406 35" xml:space="preserve">
<g>
	<g opacity="0.3">
		<path d="M67.172,9.922l-6.234,17.016h-3.094L51.609,9.922h3.352l4.383,13.195L63.82,9.922H67.172z"/>
		<path d="M81.352,26.938h-3.727l-3.844-6.797h-2.789v6.797h-2.883V9.922h5.883c4.531,0,6.797,1.75,6.797,5.25
			c0,2.266-1.313,3.789-3.938,4.57L81.352,26.938z M77.531,15.078c-0.078-1.563-1.172-2.344-3.281-2.344h-3.258v4.594h2.906
			C76.242,17.328,77.453,16.578,77.531,15.078z"/>
		<path d="M103.313,19.438H92.531v4.313c0,0.688,0.336,1.125,1.008,1.313c0.297,0.078,0.938,0.117,1.922,0.117h6.563v3.047h-6.211
			c-2.906,0-4.773-0.305-5.602-0.914c-0.547-0.438-0.82-1.227-0.82-2.367v-5.508h-6.375v-2.859h6.375v-4.031h-4.219v-3h15.141v3
			h-7.781v4.031h10.781V19.438z"/>
		<path d="M126.797,19.891h-18.868v-3.07h18.868V19.891z"/>
		<path d="M150.281,19.016l-1.781,2.93c-2.719-1.719-5.523-3.109-8.414-4.172v11.133h-3.375V8.141h3.375v6.375
			C143.523,15.594,146.922,17.094,150.281,19.016z M148.148,12.805l-1.359,1.406c-0.813-0.844-1.734-1.719-2.766-2.625l1.289-1.289
			C146.313,11.016,147.258,11.852,148.148,12.805z M150.281,10.672l-1.383,1.5c-0.938-1.031-1.906-1.906-2.906-2.625l1.383-1.406
			C148.484,8.922,149.453,9.766,150.281,10.672z"/>
		<path d="M174.938,18.43c-2.953,0.75-5.281,1.43-6.984,2.039v3.281h-3v-2.227c-2.188,0.938-3.281,1.813-3.281,2.625
			c0,1.094,1.461,1.648,4.383,1.664c2.859,0.016,5.141-0.133,6.844-0.445v3.07c-2.109,0.188-3.828,0.281-5.156,0.281
			c-6-0.063-9-1.469-9-4.219c0-1.375,0.688-2.563,2.063-3.563c0.938-0.656,2.32-1.406,4.148-2.25c0-0.859-0.344-1.289-1.031-1.289
			c-1.141,0-2.234,0.43-3.281,1.289c-0.938,0.766-2.125,1.992-3.563,3.68l-2.063-2.063c2.031-1.656,3.961-3.781,5.789-6.375h-3.633
			v-2.883c1.5,0.141,2.523,0.211,3.07,0.211c0.969,0,1.719-0.039,2.25-0.117c0.594-1.156,1.125-2.313,1.594-3.469l3.094,1.219
			c-0.453,0.641-0.852,1.32-1.195,2.039c1.641-0.109,3.344-0.406,5.109-0.891l0.117,2.859c-2.875,0.516-5.25,0.805-7.125,0.867
			c-0.375,0.5-0.75,1.094-1.125,1.781c0.578-0.313,1.141-0.469,1.688-0.469c1.766,0,2.797,0.859,3.094,2.578
			c2-0.734,4.094-1.438,6.281-2.109L174.938,18.43z"/>
		<path d="M179.344,21.5l2.414,0.445c-0.281,1.938-0.742,3.938-1.383,6c-0.844-0.422-1.656-0.695-2.438-0.82
			C178.516,25.484,178.984,23.609,179.344,21.5z M181.758,7.063l2.367,1.313c-0.641,1.516-1.375,3.023-2.203,4.523
			c0.266,0.219,0.523,0.438,0.773,0.656c0.641-1.219,1.234-2.484,1.781-3.797l2.461,1.336c-1.203,2.313-2.578,4.602-4.125,6.867
			c0.641-0.063,1.305-0.117,1.992-0.164c-0.188-0.453-0.383-0.906-0.586-1.359l2.227-0.773c0.656,1.172,1.234,2.484,1.734,3.938
			c1.188-0.75,2.391-1.711,3.609-2.883c-0.516-0.641-1.063-1.367-1.641-2.18c-0.422,0.578-0.875,1.148-1.359,1.711
			c-0.594-0.719-1.398-1.375-2.414-1.969c2.219-2.031,3.813-4.438,4.781-7.219l2.602,1.219c-0.203,0.5-0.422,0.992-0.656,1.477
			h4.219l0.469-0.258l1.805,1.594c-1.438,2.188-2.781,4.016-4.031,5.484c1.453,1.031,3.297,1.984,5.531,2.859
			c-0.75,0.734-1.281,1.609-1.594,2.625c-2.563-1.172-4.516-2.313-5.859-3.422c-1.547,1.547-3.313,2.961-5.297,4.242
			c-0.188-0.688-0.695-1.523-1.523-2.508c0.156-0.078,0.297-0.156,0.422-0.234l-1.453,0.492c-0.078-0.25-0.156-0.508-0.234-0.773
			c-0.375,0.063-0.758,0.125-1.148,0.188v9.328h-2.648v-8.953c-1,0.125-2.031,0.227-3.094,0.305l-0.352-2.508
			c0.531-0.016,1.078-0.039,1.641-0.07c0.516-0.75,1.008-1.531,1.477-2.344c-1-0.844-2.133-1.602-3.398-2.273l1.219-2.344
			c0.234,0.109,0.477,0.234,0.727,0.375C180.648,10.172,181.242,8.672,181.758,7.063z M186.727,21.5
			c0.219,1.641,0.633,3.172,1.242,4.594l-2.367,0.563c-0.516-1.578-0.914-3.148-1.195-4.711L186.727,21.5z M188.906,24.219
			c1.375,0.188,2.961,0.516,4.758,0.984c1.938,0.484,3.727,1.094,5.367,1.828l-1.43,2.625c-1.75-0.797-3.438-1.391-5.063-1.781
			c-1.219-0.375-2.586-0.695-4.102-0.961L188.906,24.219z M192.375,19.883c1.453,0.484,2.852,1.172,4.195,2.063l-1.102,2.367
			c-1.203-0.781-2.641-1.469-4.313-2.063L192.375,19.883z M191.695,12.242c0.594,1.016,1.219,1.891,1.875,2.625
			c0.797-0.875,1.484-1.789,2.063-2.742h-3.844C191.758,12.172,191.727,12.211,191.695,12.242z"/>
		<path d="M203.414,8.617h17.719l0.211-0.094l2.063,1.898c-1.047,1-2.023,1.813-2.93,2.438c-1.047,0.828-2.016,1.523-2.906,2.086
			c-0.672,0.469-1.609,1.016-2.813,1.641v9.867c0,1.203-0.32,1.945-0.961,2.227c-0.531,0.328-1.828,0.492-3.891,0.492
			c-0.078-0.844-0.359-1.813-0.844-2.906h2.602c0.125,0,0.188-0.164,0.188-0.492V13.961h2.273c0.813-0.5,1.641-1.086,2.484-1.758
			c0.422-0.313,0.797-0.594,1.125-0.844h-14.32V8.617z"/>
	</g>
	<g>
		<g>
			<g>
				<path fill="#FFFFFF" d="M66.172,8.922l-6.234,17.016h-3.094L50.609,8.922h3.352l4.383,13.195L62.82,8.922H66.172z"/>
			</g>
			<g>
				<path fill="#FFFFFF" d="M80.352,25.938h-3.727l-3.844-6.797h-2.789v6.797h-2.883V8.922h5.883c4.531,0,6.797,1.75,6.797,5.25
					c0,2.266-1.313,3.789-3.938,4.57L80.352,25.938z M76.531,14.078c-0.078-1.563-1.172-2.344-3.281-2.344h-3.258v4.594h2.906
					C75.242,16.328,76.453,15.578,76.531,14.078z"/>
			</g>
			<g>
				<path fill="#FFFFFF" d="M102.313,18.438H91.531v4.313c0,0.688,0.336,1.125,1.008,1.313c0.297,0.078,0.938,0.117,1.922,0.117
					h6.563v3.047h-6.211c-2.906,0-4.773-0.305-5.602-0.914c-0.547-0.438-0.82-1.227-0.82-2.367v-5.508h-6.375v-2.859h6.375v-4.031
					h-4.219v-3h15.141v3h-7.781v4.031h10.781V18.438z"/>
			</g>
			<g>
				<path fill="#FFFFFF" d="M125.797,18.891h-18.868v-3.07h18.868V18.891z"/>
			</g>
			<g>
				<path fill="#FFFFFF" d="M149.281,18.016l-1.781,2.93c-2.719-1.719-5.523-3.109-8.414-4.172v11.133h-3.375V7.141h3.375v6.375
					C142.523,14.594,145.922,16.094,149.281,18.016z M147.148,11.805l-1.359,1.406c-0.813-0.844-1.734-1.719-2.766-2.625
					l1.289-1.289C145.313,10.016,146.258,10.852,147.148,11.805z M149.281,9.672l-1.383,1.5c-0.938-1.031-1.906-1.906-2.906-2.625
					l1.383-1.406C147.484,7.922,148.453,8.766,149.281,9.672z"/>
			</g>
			<g>
				<path fill="#FFFFFF" d="M173.938,17.43c-2.953,0.75-5.281,1.43-6.984,2.039v3.281h-3v-2.227
					c-2.188,0.938-3.281,1.813-3.281,2.625c0,1.094,1.461,1.648,4.383,1.664c2.859,0.016,5.141-0.133,6.844-0.445v3.07
					c-2.109,0.188-3.828,0.281-5.156,0.281c-6-0.063-9-1.469-9-4.219c0-1.375,0.688-2.563,2.063-3.563
					c0.938-0.656,2.32-1.406,4.148-2.25c0-0.859-0.344-1.289-1.031-1.289c-1.141,0-2.234,0.43-3.281,1.289
					c-0.938,0.766-2.125,1.992-3.563,3.68l-2.063-2.063c2.031-1.656,3.961-3.781,5.789-6.375h-3.633v-2.883
					c1.5,0.141,2.523,0.211,3.07,0.211c0.969,0,1.719-0.039,2.25-0.117c0.594-1.156,1.125-2.313,1.594-3.469l3.094,1.219
					c-0.453,0.641-0.852,1.32-1.195,2.039c1.641-0.109,3.344-0.406,5.109-0.891l0.117,2.859c-2.875,0.516-5.25,0.805-7.125,0.867
					c-0.375,0.5-0.75,1.094-1.125,1.781c0.578-0.313,1.141-0.469,1.688-0.469c1.766,0,2.797,0.859,3.094,2.578
					c2-0.734,4.094-1.438,6.281-2.109L173.938,17.43z"/>
			</g>
			<g>
				<path fill="#FFFFFF" d="M178.344,20.5l2.414,0.445c-0.281,1.938-0.742,3.938-1.383,6c-0.844-0.422-1.656-0.695-2.438-0.82
					C177.516,24.484,177.984,22.609,178.344,20.5z M180.758,6.063l2.367,1.313c-0.641,1.516-1.375,3.023-2.203,4.523
					c0.266,0.219,0.523,0.438,0.773,0.656c0.641-1.219,1.234-2.484,1.781-3.797l2.461,1.336c-1.203,2.313-2.578,4.602-4.125,6.867
					c0.641-0.063,1.305-0.117,1.992-0.164c-0.188-0.453-0.383-0.906-0.586-1.359l2.227-0.773c0.656,1.172,1.234,2.484,1.734,3.938
					c1.188-0.75,2.391-1.711,3.609-2.883c-0.516-0.641-1.063-1.367-1.641-2.18c-0.422,0.578-0.875,1.148-1.359,1.711
					c-0.594-0.719-1.398-1.375-2.414-1.969c2.219-2.031,3.813-4.438,4.781-7.219l2.602,1.219c-0.203,0.5-0.422,0.992-0.656,1.477
					h4.219l0.469-0.258l1.805,1.594c-1.438,2.188-2.781,4.016-4.031,5.484c1.453,1.031,3.297,1.984,5.531,2.859
					c-0.75,0.734-1.281,1.609-1.594,2.625c-2.563-1.172-4.516-2.313-5.859-3.422c-1.547,1.547-3.313,2.961-5.297,4.242
					c-0.188-0.688-0.695-1.523-1.523-2.508c0.156-0.078,0.297-0.156,0.422-0.234l-1.453,0.492c-0.078-0.25-0.156-0.508-0.234-0.773
					c-0.375,0.063-0.758,0.125-1.148,0.188v9.328h-2.648v-8.953c-1,0.125-2.031,0.227-3.094,0.305l-0.352-2.508
					c0.531-0.016,1.078-0.039,1.641-0.07c0.516-0.75,1.008-1.531,1.477-2.344c-1-0.844-2.133-1.602-3.398-2.273l1.219-2.344
					c0.234,0.109,0.477,0.234,0.727,0.375C179.648,9.172,180.242,7.672,180.758,6.063z M185.727,20.5
					c0.219,1.641,0.633,3.172,1.242,4.594l-2.367,0.563c-0.516-1.578-0.914-3.148-1.195-4.711L185.727,20.5z M187.906,23.219
					c1.375,0.188,2.961,0.516,4.758,0.984c1.938,0.484,3.727,1.094,5.367,1.828l-1.43,2.625c-1.75-0.797-3.438-1.391-5.063-1.781
					c-1.219-0.375-2.586-0.695-4.102-0.961L187.906,23.219z M191.375,18.883c1.453,0.484,2.852,1.172,4.195,2.063l-1.102,2.367
					c-1.203-0.781-2.641-1.469-4.313-2.063L191.375,18.883z M190.695,11.242c0.594,1.016,1.219,1.891,1.875,2.625
					c0.797-0.875,1.484-1.789,2.063-2.742h-3.844C190.758,11.172,190.727,11.211,190.695,11.242z"/>
			</g>
			<g>
				<path fill="#FFFFFF" d="M202.414,7.617h17.719l0.211-0.094l2.063,1.898c-1.047,1-2.023,1.813-2.93,2.438
					c-1.047,0.828-2.016,1.523-2.906,2.086c-0.672,0.469-1.609,1.016-2.813,1.641v9.867c0,1.203-0.32,1.945-0.961,2.227
					c-0.531,0.328-1.828,0.492-3.891,0.492c-0.078-0.844-0.359-1.813-0.844-2.906h2.602c0.125,0,0.188-0.164,0.188-0.492V12.961
					h2.273c0.813-0.5,1.641-1.086,2.484-1.758c0.422-0.313,0.797-0.594,1.125-0.844h-14.32V7.617z"/>
			</g>
		</g>
	</g>
</g>
<g>
	<g opacity="0.3">
		<path d="M28.223,10.722l-2.742,2.742l3.072,3.091H12.667v3.889h15.886l-3.072,3.072l2.742,2.761L36,18.5L28.223,10.722z
			 M4.889,4.889H18.5V1H4.889C2.75,1,1,2.75,1,4.889v27.223C1,34.249,2.75,36,4.889,36H18.5v-3.889H4.889V4.889z"/>
	</g>
	<g>
		<g>
			<path fill="#FFFFFF" d="M27.223,9.722l-2.742,2.742l3.072,3.091H11.667v3.889h15.886l-3.072,3.072l2.742,2.761L35,17.5
				L27.223,9.722z M3.889,3.889H17.5V0H3.889C1.75,0,0,1.75,0,3.889v27.223C0,33.249,1.75,35,3.889,35H17.5v-3.889H3.889V3.889z"/>
		</g>
	</g>
</g>
</svg>
