<?xml version="1.0" encoding="utf-8"?>
<!-- Generator: Adobe Illustrator 12.0.0, SVG Export Plug-In . SVG Version: 6.00 Build 51448)  -->
<!DOCTYPE svg PUBLIC "-//W3C//DTD SVG 1.1//EN" "http://www.w3.org/Graphics/SVG/1.1/DTD/svg11.dtd" [
	<!ENTITY ns_svg "http://www.w3.org/2000/svg">
	<!ENTITY ns_xlink "http://www.w3.org/1999/xlink">
]>
<svg  version="1.1" id="レイヤー_1" xmlns="&ns_svg;" xmlns:xlink="&ns_xlink;" width="339" height="153" viewBox="0 0 339 153"
	 overflow="visible" enable-background="new 0 0 339 153" xml:space="preserve">
<g>
	<g opacity="0.3">
		<rect x="2.5" y="2.5" fill="none" stroke="#000000" stroke-width="3" width="335" height="149"/>
	</g>
	<g>
		<rect x="1.5" y="1.5" fill="none" stroke="#FFFFFF" stroke-width="3" width="335" height="149"/>
	</g>
</g>
<g>
	<g opacity="0.3">
		<path d="M13.633,14.334H17.5v-1.781h3v1.781h5.906v-1.781H29.5v1.781h3.844v2.25H29.5v6.211h4.688v2.063h-4.547
			c0.344,0.328,0.68,0.648,1.008,0.961c0.953,0.891,2.313,1.781,4.078,2.672c-0.609,0.766-1.07,1.617-1.383,2.555
			c-1-0.469-2.125-1.234-3.375-2.297c-0.313-0.25-0.625-0.516-0.938-0.797v1.781h-4.055v1.406h7.617v2.25H14.852v-2.25h7.031v-1.406
			H18.25v-1.875c-1.406,1.344-2.945,2.438-4.617,3.281c-0.203-0.734-0.633-1.516-1.289-2.344c1.984-1.094,3.68-2.406,5.086-3.938
			h-4.547v-2.063H17.5v-6.211h-3.867V14.334z M18.531,27.553h3.352v-1.57h3.094v1.57h3.633c-0.781-0.734-1.633-1.633-2.555-2.695
			h-5.18C20.141,25.842,19.359,26.74,18.531,27.553z M20.5,17.521h5.906v-0.938H20.5V17.521z M20.5,20.17h5.906v-0.938H20.5V20.17z
			 M20.5,22.795h5.906v-0.938H20.5V22.795z"/>
		<path d="M36.883,16.209h9v-4.031h3v4.031h9.305v2.742h-8.109c1.344,2.031,2.617,3.672,3.82,4.922
			c1.531,1.641,3.273,3.031,5.227,4.172c-1.031,0.781-1.758,1.648-2.18,2.602c-1.422-0.969-2.695-2.023-3.82-3.164v2.25h-4.242
			v4.406h-3v-4.406H41.57v-2.414c-1.219,1.25-2.5,2.398-3.844,3.445c-0.438-1.031-0.961-1.938-1.57-2.719
			c3.641-2.688,6.492-5.719,8.555-9.094h-7.828V16.209z M41.875,27.014h4.008v-4.852C44.617,23.928,43.281,25.545,41.875,27.014z
			 M48.883,27.014h3.75c-0.234-0.266-0.469-0.523-0.703-0.773c-1.063-1.25-2.078-2.625-3.047-4.125V27.014z"/>
		<path d="M60.508,16.584h2.25v-4.219h2.648v4.219h1.781v2.719h-1.781v2.508c0.578-0.203,1.172-0.406,1.781-0.609v2.531
			l-1.781,0.656v7.102c0,1.047-0.281,1.695-0.844,1.945c-0.469,0.281-1.563,0.422-3.281,0.422c-0.047-0.719-0.305-1.563-0.773-2.531
			h2.156c0.063,0,0.094-0.156,0.094-0.469v-5.461l-1.969,0.773l-0.539-3c0.766-0.141,1.602-0.344,2.508-0.609v-3.258h-2.25V16.584z
			 M67.633,19.045h6v5.156h1.711v-5.156h6.375v5.156h-5.836v1.102h6.211v2.344h-4.922c1.781,1.297,3.734,2.398,5.859,3.305
			c-0.859,0.766-1.453,1.578-1.781,2.438c-1.359-0.703-2.547-1.445-3.563-2.227c-0.641-0.438-1.242-0.891-1.805-1.359v4.148h-2.789
			v-4.242c-0.484,0.422-0.953,0.797-1.406,1.125c-1.438,1.031-2.906,1.883-4.406,2.555c-0.203-0.875-0.648-1.719-1.336-2.531
			c1.813-0.641,3.688-1.711,5.625-3.211h-4.383v-2.344h5.906v-1.102h-5.461V19.045z M69.25,12.646h10.406v5.555H69.25V12.646z
			 M71.406,22.232V20.92h-1.523v1.313H71.406z M76.914,16.139v-1.406h-4.969v1.406H76.914z M79.375,22.232V20.92h-1.711v1.313
			H79.375z"/>
		<path d="M89.313,12.029l3.094,1.031c-0.688,1.594-1.406,3.125-2.156,4.594v4.008c2.219-2.266,3.969-5.477,5.25-9.633l2.906,0.844
			c-0.406,1.172-0.836,2.289-1.289,3.352h9.164v2.742h-6.656v2.156h5.32v2.625h-5.32v2.156h5.719v2.602h-5.719v5.555h-3.094V18.967
			h-0.75c-1.109,2.047-2.359,3.797-3.75,5.25c-0.484-0.781-1.078-1.461-1.781-2.039v11.789h-3V22.881
			c-0.641,0.984-1.297,1.93-1.969,2.836c-0.266-1.422-0.609-2.609-1.031-3.563C85.953,19.857,87.641,16.482,89.313,12.029z"/>
	</g>
	<g>
		<g>
			<g>
				<path fill="#FFFFFF" d="M12.633,13.334H16.5v-1.781h3v1.781h5.906v-1.781H28.5v1.781h3.844v2.25H28.5v6.211h4.688v2.063h-4.547
					c0.344,0.328,0.68,0.648,1.008,0.961c0.953,0.891,2.313,1.781,4.078,2.672c-0.609,0.766-1.07,1.617-1.383,2.555
					c-1-0.469-2.125-1.234-3.375-2.297c-0.313-0.25-0.625-0.516-0.938-0.797v1.781h-4.055v1.406h7.617v2.25H13.852v-2.25h7.031
					v-1.406H17.25v-1.875c-1.406,1.344-2.945,2.438-4.617,3.281c-0.203-0.734-0.633-1.516-1.289-2.344
					c1.984-1.094,3.68-2.406,5.086-3.938h-4.547v-2.063H16.5v-6.211h-3.867V13.334z M17.531,26.553h3.352v-1.57h3.094v1.57h3.633
					c-0.781-0.734-1.633-1.633-2.555-2.695h-5.18C19.141,24.842,18.359,25.74,17.531,26.553z M19.5,16.521h5.906v-0.938H19.5V16.521
					z M19.5,19.17h5.906v-0.938H19.5V19.17z M19.5,21.795h5.906v-0.938H19.5V21.795z"/>
			</g>
			<g>
				<path fill="#FFFFFF" d="M35.883,15.209h9v-4.031h3v4.031h9.305v2.742h-8.109c1.344,2.031,2.617,3.672,3.82,4.922
					c1.531,1.641,3.273,3.031,5.227,4.172c-1.031,0.781-1.758,1.648-2.18,2.602c-1.422-0.969-2.695-2.023-3.82-3.164v2.25h-4.242
					v4.406h-3v-4.406H40.57v-2.414c-1.219,1.25-2.5,2.398-3.844,3.445c-0.438-1.031-0.961-1.938-1.57-2.719
					c3.641-2.688,6.492-5.719,8.555-9.094h-7.828V15.209z M40.875,26.014h4.008v-4.852C43.617,22.928,42.281,24.545,40.875,26.014z
					 M47.883,26.014h3.75c-0.234-0.266-0.469-0.523-0.703-0.773c-1.063-1.25-2.078-2.625-3.047-4.125V26.014z"/>
			</g>
			<g>
				<path fill="#FFFFFF" d="M59.508,15.584h2.25v-4.219h2.648v4.219h1.781v2.719h-1.781v2.508c0.578-0.203,1.172-0.406,1.781-0.609
					v2.531l-1.781,0.656v7.102c0,1.047-0.281,1.695-0.844,1.945c-0.469,0.281-1.563,0.422-3.281,0.422
					c-0.047-0.719-0.305-1.563-0.773-2.531h2.156c0.063,0,0.094-0.156,0.094-0.469v-5.461l-1.969,0.773l-0.539-3
					c0.766-0.141,1.602-0.344,2.508-0.609v-3.258h-2.25V15.584z M66.633,18.045h6v5.156h1.711v-5.156h6.375v5.156h-5.836v1.102
					h6.211v2.344h-4.922c1.781,1.297,3.734,2.398,5.859,3.305c-0.859,0.766-1.453,1.578-1.781,2.438
					c-1.359-0.703-2.547-1.445-3.563-2.227c-0.641-0.438-1.242-0.891-1.805-1.359v4.148h-2.789v-4.242
					c-0.484,0.422-0.953,0.797-1.406,1.125c-1.438,1.031-2.906,1.883-4.406,2.555c-0.203-0.875-0.648-1.719-1.336-2.531
					c1.813-0.641,3.688-1.711,5.625-3.211h-4.383v-2.344h5.906v-1.102h-5.461V18.045z M68.25,11.646h10.406v5.555H68.25V11.646z
					 M70.406,21.232V19.92h-1.523v1.313H70.406z M75.914,15.139v-1.406h-4.969v1.406H75.914z M78.375,21.232V19.92h-1.711v1.313
					H78.375z"/>
			</g>
			<g>
				<path fill="#FFFFFF" d="M88.313,11.029l3.094,1.031c-0.688,1.594-1.406,3.125-2.156,4.594v4.008
					c2.219-2.266,3.969-5.477,5.25-9.633l2.906,0.844c-0.406,1.172-0.836,2.289-1.289,3.352h9.164v2.742h-6.656v2.156h5.32v2.625
					h-5.32v2.156h5.719v2.602h-5.719v5.555h-3.094V17.967h-0.75c-1.109,2.047-2.359,3.797-3.75,5.25
					c-0.484-0.781-1.078-1.461-1.781-2.039v11.789h-3V21.881c-0.641,0.984-1.297,1.93-1.969,2.836
					c-0.266-1.422-0.609-2.609-1.031-3.563C84.953,18.857,86.641,15.482,88.313,11.029z"/>
			</g>
		</g>
	</g>
</g>
<g>
	<g opacity="0.3">
		<rect x="12.55" y="45.81" width="47.5" height="20"/>
	</g>
	<g>
		<rect x="11.55" y="44.81" fill="#FFFFFF" width="47.5" height="20"/>
	</g>
</g>
<g>
	<g opacity="0.3">
		<path d="M130.094,49.193c0.51,0.52,0.943,1.14,1.299,1.859l-0.287,0.205h2.379l1.025-2.01l1.586,0.602l-0.766,1.408h3.281v1.436
			h-12.25v-1.436h3.268c-0.265-0.446-0.547-0.848-0.848-1.203L130.094,49.193z M129.096,53.404h3.295v4.963
			c0.045,1.75-0.064,2.789-0.328,3.117c-0.21,0.355-0.83,0.597-1.859,0.725c-0.019-0.501-0.205-1.066-0.561-1.695h0.834
			c0.209-0.018,0.301-0.187,0.273-0.506v-0.916h-2.146v2.953h-1.627v-8.641H129.096z M128.604,55.592h2.146v-0.779h-2.146V55.592z
			 M128.604,57.766h2.146v-0.861h-2.146V57.766z M133.539,53.787h1.572v5.961h-1.572V53.787z M136.438,53.295h1.641v7.369
			c0,0.638-0.173,1.03-0.52,1.176c-0.301,0.173-1.003,0.26-2.105,0.26c-0.037-0.438-0.187-0.948-0.451-1.531h1.436V53.295z"/>
		<path d="M145.734,49.07l1.518,0.834c-0.273,0.593-0.529,1.121-0.766,1.586h1.395c0.319-0.629,0.588-1.326,0.807-2.092l1.695,0.342
			c-0.191,0.565-0.465,1.148-0.82,1.75h2.994v1.422h-3.104v0.875h2.447V55.1h-2.447v0.861h2.447v1.326h-2.447v0.971h3.391v1.381
			h-6.686v0.369h-1.627v-5.51c-0.273,0.31-0.57,0.615-0.889,0.916c-0.073-0.246-0.178-0.492-0.314-0.738v4.73
			c0.355,0.319,0.715,0.547,1.08,0.684c0.629,0.246,1.376,0.406,2.242,0.479h6.453c-0.31,0.465-0.492,0.957-0.547,1.477h-5.906
			c-1.668-0.119-2.976-0.611-3.924-1.477l-1.982,1.75l-0.916-1.6l1.805-1.189v-3.391h-1.49v-1.641h3.063
			c-0.137-0.228-0.296-0.446-0.479-0.656c0.556-0.483,1.053-1.071,1.49-1.764C144.627,51.449,145.133,50.447,145.734,49.07z
			 M141.455,49.617c0.893,0.41,1.659,0.907,2.297,1.49l-0.916,1.408c-0.775-0.62-1.541-1.144-2.297-1.572L141.455,49.617z
			 M147.799,53.787v-0.875h-1.641v0.875H147.799z M147.799,55.961V55.1h-1.641v0.861H147.799z M146.158,58.258h1.641v-0.971h-1.641
			V58.258z"/>
	</g>
	<g>
		<g>
			<g>
				<path fill="#FFFFFF" d="M129.094,48.193c0.51,0.52,0.943,1.14,1.299,1.859l-0.287,0.205h2.379l1.025-2.01l1.586,0.602
					l-0.766,1.408h3.281v1.436h-12.25v-1.436h3.268c-0.265-0.446-0.547-0.848-0.848-1.203L129.094,48.193z M128.096,52.404h3.295
					v4.963c0.045,1.75-0.064,2.789-0.328,3.117c-0.21,0.355-0.83,0.597-1.859,0.725c-0.019-0.501-0.205-1.066-0.561-1.695h0.834
					c0.209-0.018,0.301-0.187,0.273-0.506v-0.916h-2.146v2.953h-1.627v-8.641H128.096z M127.604,54.592h2.146v-0.779h-2.146V54.592z
					 M127.604,56.766h2.146v-0.861h-2.146V56.766z M132.539,52.787h1.572v5.961h-1.572V52.787z M135.438,52.295h1.641v7.369
					c0,0.638-0.173,1.03-0.52,1.176c-0.301,0.173-1.003,0.26-2.105,0.26c-0.037-0.438-0.187-0.948-0.451-1.531h1.436V52.295z"/>
			</g>
			<g>
				<path fill="#FFFFFF" d="M144.734,48.07l1.518,0.834c-0.273,0.593-0.529,1.121-0.766,1.586h1.395
					c0.319-0.629,0.588-1.326,0.807-2.092l1.695,0.342c-0.191,0.565-0.465,1.148-0.82,1.75h2.994v1.422h-3.104v0.875h2.447V54.1
					h-2.447v0.861h2.447v1.326h-2.447v0.971h3.391v1.381h-6.686v0.369h-1.627v-5.51c-0.273,0.31-0.57,0.615-0.889,0.916
					c-0.073-0.246-0.178-0.492-0.314-0.738v4.73c0.355,0.319,0.715,0.547,1.08,0.684c0.629,0.246,1.376,0.406,2.242,0.479h6.453
					c-0.31,0.465-0.492,0.957-0.547,1.477h-5.906c-1.668-0.119-2.976-0.611-3.924-1.477l-1.982,1.75l-0.916-1.6l1.805-1.189v-3.391
					h-1.49v-1.641h3.063c-0.137-0.228-0.296-0.446-0.479-0.656c0.556-0.483,1.053-1.071,1.49-1.764
					C143.627,50.449,144.133,49.447,144.734,48.07z M140.455,48.617c0.893,0.41,1.659,0.907,2.297,1.49l-0.916,1.408
					c-0.775-0.62-1.541-1.144-2.297-1.572L140.455,48.617z M146.799,52.787v-0.875h-1.641v0.875H146.799z M146.799,54.961V54.1
					h-1.641v0.861H146.799z M145.158,57.258h1.641v-0.971h-1.641V57.258z"/>
			</g>
		</g>
	</g>
</g>
<g>
	<g opacity="0.3">
		<path d="M129.041,77.639l1.367,0.971c-0.465,0.647-0.935,1.244-1.408,1.791v6.754h-1.545V82c-0.283,0.273-0.57,0.529-0.861,0.766
			c-0.119-0.482-0.415-0.971-0.889-1.463C126.917,80.282,128.029,79.061,129.041,77.639z M129,74.357l1.203,1.039
			c-1.094,1.103-2.21,1.974-3.35,2.611c-0.191-0.438-0.497-0.87-0.916-1.299C126.922,76.144,127.942,75.36,129,74.357z
			 M132.992,74.139l1.518,0.82c-0.465,0.784-0.994,1.554-1.586,2.311c0.219,0.164,0.438,0.333,0.656,0.506
			c0.61-0.829,1.18-1.7,1.709-2.611l1.572,0.889c-0.802,1.167-1.709,2.32-2.721,3.459c0.729-0.018,1.49-0.045,2.283-0.082
			c-0.21-0.291-0.424-0.564-0.643-0.82l1.258-0.807c0.784,0.82,1.454,1.787,2.01,2.898l-1.354,0.971
			c-0.164-0.337-0.328-0.665-0.492-0.984c-1.03,0.092-2.083,0.169-3.158,0.232c-0.137,0.21-0.269,0.406-0.396,0.588h2.557
			l0.178-0.096l1.148,0.697c-0.647,1.222-1.235,2.088-1.764,2.598c-0.046,0.046-0.087,0.087-0.123,0.123
			c0.255,0.109,0.52,0.21,0.793,0.301c0.638,0.229,1.526,0.424,2.666,0.588c-0.492,0.474-0.816,0.971-0.971,1.49
			c-1.112-0.246-1.987-0.483-2.625-0.711c-0.456-0.183-0.884-0.388-1.285-0.615c-0.529,0.328-1.103,0.592-1.723,0.793
			c-1.012,0.355-1.764,0.583-2.256,0.684c-0.091-0.538-0.342-1.025-0.752-1.463c1.34-0.282,2.393-0.583,3.158-0.902
			c0.073-0.036,0.146-0.068,0.219-0.096c-0.337-0.318-0.679-0.697-1.025-1.135c-0.583,0.62-1.167,1.148-1.75,1.586
			c-0.292-0.51-0.643-0.947-1.053-1.313c0.756-0.465,1.376-0.979,1.859-1.545c0.328-0.346,0.706-0.829,1.135-1.449
			c-0.565,0.027-1.144,0.06-1.736,0.096l-0.205-1.531c0.62-0.009,1.276-0.022,1.969-0.041c0.2-0.209,0.387-0.419,0.561-0.629
			c-0.766-0.629-1.627-1.207-2.584-1.736l0.916-1.203c0.237,0.128,0.465,0.26,0.684,0.396
			C132.149,75.702,132.6,74.95,132.992,74.139z M132.732,82.766c0.52,0.538,1.012,0.971,1.477,1.299
			c0.109-0.1,0.209-0.195,0.301-0.287c0.337-0.328,0.615-0.665,0.834-1.012H132.732z"/>
		<path d="M140.143,79.553h3.186v4.949c0.355,0.273,0.711,0.475,1.066,0.602c0.629,0.21,1.376,0.347,2.242,0.41h6.412
			c-0.292,0.446-0.456,0.916-0.492,1.408h-5.92c-1.668-0.092-2.972-0.511-3.91-1.258l-1.982,1.6l-0.916-1.6l1.859-1.08V81.07h-1.545
			V79.553z M141.455,74.617c0.893,0.41,1.659,0.907,2.297,1.49l-0.861,1.354c-0.793-0.602-1.577-1.107-2.352-1.518L141.455,74.617z
			 M144.955,74.85h6.521v5.414h-1.887c0.118,0.438,0.264,0.825,0.438,1.162c0.656-0.4,1.299-0.879,1.928-1.436l0.943,1.367
			c-0.62,0.475-1.271,0.921-1.955,1.34c0.191,0.21,0.392,0.388,0.602,0.533c0.392,0.301,0.911,0.588,1.559,0.861
			c-0.574,0.383-1.007,0.839-1.299,1.367c-0.638-0.355-1.244-0.815-1.818-1.381c-0.583-0.61-1.007-1.244-1.271-1.9
			c-0.283-0.602-0.492-1.239-0.629-1.914h-1.531v2.707c0.656-0.137,1.349-0.291,2.078-0.465v1.531l-4.334,0.971l-0.492-1.586
			c0.374-0.045,0.756-0.1,1.148-0.164V74.85z M146.555,76.914h3.336v-0.711h-3.336V76.914z M146.555,78.896h3.336v-0.779h-3.336
			V78.896z"/>
	</g>
	<g>
		<g>
			<g>
				<path fill="#FFFFFF" d="M128.041,76.639l1.367,0.971c-0.465,0.647-0.935,1.244-1.408,1.791v6.754h-1.545V81
					c-0.283,0.273-0.57,0.529-0.861,0.766c-0.119-0.482-0.415-0.971-0.889-1.463C125.917,79.282,127.029,78.061,128.041,76.639z
					 M128,73.357l1.203,1.039c-1.094,1.103-2.21,1.974-3.35,2.611c-0.191-0.438-0.497-0.87-0.916-1.299
					C125.922,75.144,126.942,74.36,128,73.357z M131.992,73.139l1.518,0.82c-0.465,0.784-0.994,1.554-1.586,2.311
					c0.219,0.164,0.438,0.333,0.656,0.506c0.61-0.829,1.18-1.7,1.709-2.611l1.572,0.889c-0.802,1.167-1.709,2.32-2.721,3.459
					c0.729-0.018,1.49-0.045,2.283-0.082c-0.21-0.291-0.424-0.564-0.643-0.82l1.258-0.807c0.784,0.82,1.454,1.787,2.01,2.898
					l-1.354,0.971c-0.164-0.337-0.328-0.665-0.492-0.984c-1.03,0.092-2.083,0.169-3.158,0.232c-0.137,0.21-0.269,0.406-0.396,0.588
					h2.557l0.178-0.096l1.148,0.697c-0.647,1.222-1.235,2.088-1.764,2.598c-0.046,0.046-0.087,0.087-0.123,0.123
					c0.255,0.109,0.52,0.21,0.793,0.301c0.638,0.229,1.526,0.424,2.666,0.588c-0.492,0.474-0.816,0.971-0.971,1.49
					c-1.112-0.246-1.987-0.483-2.625-0.711c-0.456-0.183-0.884-0.388-1.285-0.615c-0.529,0.328-1.103,0.592-1.723,0.793
					c-1.012,0.355-1.764,0.583-2.256,0.684c-0.091-0.538-0.342-1.025-0.752-1.463c1.34-0.282,2.393-0.583,3.158-0.902
					c0.073-0.036,0.146-0.068,0.219-0.096c-0.337-0.318-0.679-0.697-1.025-1.135c-0.583,0.62-1.167,1.148-1.75,1.586
					c-0.292-0.51-0.643-0.947-1.053-1.313c0.756-0.465,1.376-0.979,1.859-1.545c0.328-0.346,0.706-0.829,1.135-1.449
					c-0.565,0.027-1.144,0.06-1.736,0.096l-0.205-1.531c0.62-0.009,1.276-0.022,1.969-0.041c0.2-0.209,0.387-0.419,0.561-0.629
					c-0.766-0.629-1.627-1.208-2.584-1.736l0.916-1.203c0.237,0.128,0.465,0.26,0.684,0.396
					C131.149,74.702,131.6,73.95,131.992,73.139z M131.732,81.766c0.52,0.538,1.012,0.971,1.477,1.299
					c0.109-0.1,0.209-0.195,0.301-0.287c0.337-0.328,0.615-0.665,0.834-1.012H131.732z"/>
			</g>
			<g>
				<path fill="#FFFFFF" d="M139.143,78.553h3.186v4.949c0.355,0.273,0.711,0.475,1.066,0.602c0.629,0.21,1.376,0.347,2.242,0.41
					h6.412c-0.292,0.446-0.456,0.916-0.492,1.408h-5.92c-1.668-0.092-2.972-0.511-3.91-1.258l-1.982,1.6l-0.916-1.6l1.859-1.08
					V80.07h-1.545V78.553z M140.455,73.617c0.893,0.41,1.659,0.907,2.297,1.49l-0.861,1.354c-0.793-0.602-1.577-1.107-2.352-1.518
					L140.455,73.617z M143.955,73.85h6.521v5.414h-1.887c0.118,0.438,0.264,0.825,0.438,1.162c0.656-0.4,1.299-0.879,1.928-1.436
					l0.943,1.367c-0.62,0.475-1.271,0.921-1.955,1.34c0.191,0.21,0.392,0.388,0.602,0.533c0.392,0.301,0.911,0.588,1.559,0.861
					c-0.574,0.383-1.007,0.839-1.299,1.367c-0.638-0.355-1.244-0.815-1.818-1.381c-0.583-0.61-1.007-1.244-1.271-1.9
					c-0.283-0.602-0.492-1.239-0.629-1.914h-1.531v2.707c0.656-0.137,1.349-0.291,2.078-0.465v1.531l-4.334,0.971l-0.492-1.586
					c0.374-0.045,0.756-0.1,1.148-0.164V73.85z M145.555,75.914h3.336v-0.711h-3.336V75.914z M145.555,77.896h3.336v-0.779h-3.336
					V77.896z"/>
			</g>
		</g>
	</g>
</g>
<g>
	<g opacity="0.3">
		<path d="M126.361,101.6h3.965c0.246-0.783,0.474-1.604,0.684-2.461l1.873,0.533c-0.191,0.666-0.383,1.309-0.574,1.928h6.248v1.641
			h-6.809c-0.273,0.748-0.556,1.454-0.848,2.119h6.85v1.545h-2.844v3.158h3.705v1.709H129v-1.709h4.102v-3.158h-2.898
			c-0.857,1.76-1.81,3.291-2.857,4.594c-0.347-0.565-0.779-1.043-1.299-1.436c1.467-1.731,2.711-4.006,3.732-6.822h-3.418V101.6z"/>
		<path d="M142.344,99.303l1.586,0.547c-0.009,0.019-0.014,0.037-0.014,0.055h4.17v8.955h-0.588
			c0.574,0.766,1.135,1.367,1.682,1.805c-0.438,0.438-0.729,0.856-0.875,1.258c-0.702-0.511-1.358-1.234-1.969-2.174l0.861-0.889
			h-3.336v-8.873c-0.319,0.912-0.679,1.801-1.08,2.666v8.408c0.684-0.61,1.285-1.285,1.805-2.023l1.313,0.711
			c-0.529,0.738-1.148,1.463-1.859,2.174c-0.374-0.338-0.793-0.602-1.258-0.793v0.916h-1.49v-6.549
			c-0.265,0.465-0.533,0.916-0.807,1.354c-0.155-0.729-0.396-1.33-0.725-1.805C140.79,103.231,141.651,101.317,142.344,99.303z
			 M145.352,102.406h1.244v-1.203h-1.244V102.406z M145.352,104.922h1.244v-1.203h-1.244V104.922z M146.596,107.506v-1.313h-1.244
			v1.313H146.596z M148.742,100.711h1.463v7.998h-1.463V100.711z M150.93,99.672h1.531v10.938c0,0.61-0.155,0.988-0.465,1.135
			c-0.255,0.164-0.871,0.246-1.846,0.246c-0.027-0.42-0.169-0.912-0.424-1.477h1.135c0.045,0,0.068-0.091,0.068-0.273V99.672z"/>
		<path d="M159.734,99.07l1.518,0.834c-0.273,0.593-0.529,1.121-0.766,1.586h1.395c0.319-0.629,0.588-1.326,0.807-2.092l1.695,0.342
			c-0.191,0.565-0.465,1.148-0.82,1.75h2.994v1.422h-3.104v0.875h2.447v1.313h-2.447v0.861h2.447v1.326h-2.447v0.971h3.391v1.381
			h-6.686v0.369h-1.627v-5.51c-0.273,0.311-0.57,0.615-0.889,0.916c-0.073-0.246-0.178-0.492-0.314-0.738v4.73
			c0.355,0.319,0.715,0.547,1.08,0.684c0.629,0.246,1.376,0.406,2.242,0.479h6.453c-0.31,0.465-0.492,0.957-0.547,1.477h-5.906
			c-1.668-0.119-2.976-0.611-3.924-1.477l-1.982,1.75l-0.916-1.6l1.805-1.189v-3.391h-1.49v-1.641h3.063
			c-0.137-0.228-0.296-0.446-0.479-0.656c0.556-0.482,1.053-1.07,1.49-1.764C158.627,101.449,159.133,100.447,159.734,99.07z
			 M155.455,99.617c0.893,0.41,1.659,0.907,2.297,1.49l-0.916,1.408c-0.775-0.619-1.541-1.144-2.297-1.572L155.455,99.617z
			 M161.799,103.787v-0.875h-1.641v0.875H161.799z M161.799,105.961V105.1h-1.641v0.861H161.799z M160.158,108.258h1.641v-0.971
			h-1.641V108.258z"/>
	</g>
	<g>
		<g>
			<g>
				<path fill="#FFFFFF" d="M125.361,100.6h3.965c0.246-0.783,0.474-1.604,0.684-2.461l1.873,0.533
					c-0.191,0.666-0.383,1.309-0.574,1.928h6.248v1.641h-6.809c-0.273,0.748-0.556,1.454-0.848,2.119h6.85v1.545h-2.844v3.158h3.705
					v1.709H128v-1.709h4.102v-3.158h-2.898c-0.857,1.76-1.81,3.291-2.857,4.594c-0.347-0.565-0.779-1.043-1.299-1.436
					c1.467-1.731,2.711-4.006,3.732-6.822h-3.418V100.6z"/>
			</g>
			<g>
				<path fill="#FFFFFF" d="M141.344,98.303l1.586,0.547c-0.009,0.019-0.014,0.037-0.014,0.055h4.17v8.955h-0.588
					c0.574,0.766,1.135,1.367,1.682,1.805c-0.438,0.438-0.729,0.856-0.875,1.258c-0.702-0.511-1.358-1.234-1.969-2.174l0.861-0.889
					h-3.336v-8.873c-0.319,0.912-0.679,1.801-1.08,2.666v8.408c0.684-0.61,1.285-1.285,1.805-2.023l1.313,0.711
					c-0.529,0.738-1.148,1.463-1.859,2.174c-0.374-0.338-0.793-0.602-1.258-0.793v0.916h-1.49v-6.549
					c-0.265,0.465-0.533,0.916-0.807,1.354c-0.155-0.729-0.396-1.33-0.725-1.805C139.79,102.231,140.651,100.317,141.344,98.303z
					 M144.352,101.406h1.244v-1.203h-1.244V101.406z M144.352,103.922h1.244v-1.203h-1.244V103.922z M145.596,106.506v-1.313h-1.244
					v1.313H145.596z M147.742,99.711h1.463v7.998h-1.463V99.711z M149.93,98.672h1.531v10.938c0,0.61-0.155,0.988-0.465,1.135
					c-0.255,0.164-0.871,0.246-1.846,0.246c-0.027-0.42-0.169-0.912-0.424-1.477h1.135c0.045,0,0.068-0.091,0.068-0.273V98.672z"/>
			</g>
			<g>
				<path fill="#FFFFFF" d="M158.734,98.07l1.518,0.834c-0.273,0.593-0.529,1.121-0.766,1.586h1.395
					c0.319-0.629,0.588-1.326,0.807-2.092l1.695,0.342c-0.191,0.565-0.465,1.148-0.82,1.75h2.994v1.422h-3.104v0.875h2.447v1.313
					h-2.447v0.861h2.447v1.326h-2.447v0.971h3.391v1.381h-6.686v0.369h-1.627v-5.51c-0.273,0.311-0.57,0.615-0.889,0.916
					c-0.073-0.246-0.178-0.492-0.314-0.738v4.73c0.355,0.319,0.715,0.547,1.08,0.684c0.629,0.246,1.376,0.406,2.242,0.479h6.453
					c-0.31,0.465-0.492,0.957-0.547,1.477h-5.906c-1.668-0.119-2.976-0.611-3.924-1.477l-1.982,1.75l-0.916-1.6l1.805-1.189v-3.391
					h-1.49v-1.641h3.063c-0.137-0.228-0.296-0.446-0.479-0.656c0.556-0.482,1.053-1.07,1.49-1.764
					C157.627,100.449,158.133,99.447,158.734,98.07z M154.455,98.617c0.893,0.41,1.659,0.907,2.297,1.49l-0.916,1.408
					c-0.775-0.619-1.541-1.144-2.297-1.572L154.455,98.617z M160.799,102.787v-0.875h-1.641v0.875H160.799z M160.799,104.961V104.1
					h-1.641v0.861H160.799z M159.158,107.258h1.641v-0.971h-1.641V107.258z"/>
			</g>
		</g>
	</g>
</g>
<g>
	<g opacity="0.3">
		<path d="M123.188,34.027l-0.391,0.344l-2.813-2.844l-2.789,2.836l-0.391-0.313l2.82-2.875l-2.82-2.797l0.391-0.352l2.789,2.789
			l2.813-2.789l0.391,0.352l-2.844,2.797L123.188,34.027z M118.289,31.176c0,0.162-0.06,0.305-0.18,0.43
			c-0.146,0.12-0.302,0.185-0.469,0.195c-0.198-0.016-0.352-0.081-0.461-0.195c-0.115-0.109-0.172-0.252-0.172-0.43
			c0-0.188,0.057-0.336,0.172-0.445c0.12-0.13,0.273-0.195,0.461-0.195c0.156,0,0.313,0.065,0.469,0.195
			C118.229,30.845,118.289,30.994,118.289,31.176z M120.617,28.832c-0.016,0.162-0.07,0.308-0.164,0.438
			c-0.156,0.136-0.313,0.203-0.469,0.203c-0.183,0-0.331-0.063-0.445-0.188c-0.125-0.114-0.188-0.266-0.188-0.453
			s0.06-0.338,0.18-0.453c0.114-0.125,0.266-0.188,0.453-0.188c0.151,0,0.307,0.068,0.469,0.203
			C120.547,28.504,120.602,28.65,120.617,28.832z M120.594,33.48c-0.031,0.167-0.089,0.31-0.172,0.43
			c-0.13,0.115-0.279,0.172-0.445,0.172c-0.177,0-0.32-0.057-0.43-0.172c-0.115-0.109-0.172-0.252-0.172-0.43
			c0-0.188,0.057-0.336,0.172-0.445c0.109-0.114,0.252-0.172,0.43-0.172c0.161,0,0.31,0.06,0.445,0.18
			C120.505,33.147,120.563,33.293,120.594,33.48z M122.898,31.176c0,0.162-0.058,0.305-0.172,0.43
			c-0.13,0.094-0.273,0.154-0.43,0.18c-0.412-0.042-0.617-0.245-0.617-0.609c0-0.188,0.057-0.336,0.172-0.445
			c0.114-0.114,0.263-0.172,0.445-0.172c0.151,0,0.294,0.058,0.43,0.172C122.841,30.84,122.898,30.988,122.898,31.176z"/>
		<path d="M124.336,28.801h3.008v0.742h-3.008V28.801z M126.25,34.293h-0.719v0.414h-0.906v-2.758h2.523v2.633h-0.898V34.293z
			 M124.711,30.863h2.344v0.711h-2.344V30.863z M124.742,27.738h2.313v0.781h-2.313V27.738z M124.742,29.801h2.313v0.742h-2.313
			V29.801z M126.25,32.77h-0.719v0.805h0.719V32.77z M128.492,27.512c0.302,0.417,0.521,0.781,0.656,1.094l-0.32,0.133h0.695
			l0.594-1.25L131,27.832l-0.461,0.906h0.891v0.867h-1.523v0.82h1.242v0.867h-1.242v0.914h1.719v0.844h-1.719v1.688h-0.969v-1.688
			h-1.57v-0.844h1.57v-0.914h-1.227v-0.867h1.227v-0.82h-1.445v-0.867h0.758c-0.156-0.317-0.336-0.612-0.539-0.883L128.492,27.512z"
			/>
		<path d="M133.461,27.395l0.758,0.406c-0.219,0.511-0.469,1.013-0.75,1.508c0.104,0.083,0.2,0.162,0.289,0.234
			c0.219-0.411,0.422-0.838,0.609-1.281l0.781,0.445c-0.391,0.771-0.844,1.531-1.359,2.281c0.219-0.01,0.445-0.021,0.68-0.031
			c-0.058-0.156-0.12-0.313-0.188-0.469l0.742-0.258c0.177,0.365,0.333,0.769,0.469,1.211v-3.492h3.914v6.688h-0.945v-0.523h-2.031
			v0.594h-0.938V31.66l-0.719,0.227c-0.016-0.067-0.034-0.135-0.055-0.203c-0.115,0.021-0.232,0.037-0.352,0.047v0.586l0.688-0.141
			c0.078,0.537,0.213,1.034,0.406,1.492l-0.75,0.195c-0.136-0.463-0.25-0.919-0.344-1.367v2.367h-0.906v-3.031
			c-0.333,0.037-0.677,0.065-1.031,0.086l-0.117-0.867c0.177-0.005,0.359-0.01,0.547-0.016c0.161-0.245,0.323-0.497,0.484-0.758
			c-0.333-0.292-0.719-0.565-1.156-0.82l0.406-0.719c0.078,0.047,0.153,0.091,0.227,0.133
			C133.065,28.413,133.278,27.921,133.461,27.395z M132.656,32.176l0.773,0.148c-0.094,0.646-0.248,1.313-0.461,2
			c-0.271-0.141-0.531-0.232-0.781-0.273C132.38,33.504,132.536,32.879,132.656,32.176z M136.43,30.574H137v-1.742h-0.57V30.574z
			 M136.43,33.23H137v-1.742h-0.57V33.23z M137.844,28.832v1.742h0.617v-1.742H137.844z M137.844,33.23h0.617v-1.742h-0.617V33.23z"
			/>
		<path d="M142.289,28.355c-0.349,1.167-0.523,2.359-0.523,3.578c0,0.875,0.083,1.695,0.25,2.461l-1.031,0.219
			c-0.167-0.864-0.25-1.739-0.25-2.625c0-1.349,0.167-2.672,0.5-3.969L142.289,28.355z M147.594,33.301l-0.656,0.844
			c-0.261-0.219-0.542-0.445-0.844-0.68c-0.037,0.38-0.201,0.648-0.492,0.805c-0.37,0.151-0.703,0.224-1,0.219
			c-0.641-0.016-1.102-0.144-1.383-0.383c-0.287-0.239-0.43-0.508-0.43-0.805c0-0.828,0.575-1.242,1.727-1.242
			c0.109,0,0.305,0.021,0.586,0.063c-0.031-0.567-0.063-1.18-0.094-1.836c-0.49,0.042-0.852,0.063-1.086,0.063
			c-0.245,0-0.612-0.021-1.102-0.063v-1.008c0.531,0.068,0.938,0.102,1.219,0.102c0.276,0,0.599-0.008,0.969-0.023
			c-0.026-0.385-0.039-0.867-0.039-1.445h1.086c-0.016,0.214-0.023,0.474-0.023,0.781v0.555c0.135-0.036,0.5-0.13,1.094-0.281
			l0.023,1c-0.318,0.058-0.701,0.133-1.148,0.227c0.016,0.797,0.047,1.531,0.094,2.203
			C146.755,32.712,147.255,33.015,147.594,33.301z M145.133,32.98c-0.266-0.057-0.508-0.086-0.727-0.086
			c-0.516,0-0.773,0.125-0.773,0.375c0,0.24,0.258,0.378,0.773,0.414c0.276-0.021,0.477-0.094,0.602-0.219
			C145.065,33.366,145.106,33.205,145.133,32.98z"/>
		<path d="M155.68,28.379h-2.172v5.609h-0.945v-6.547h3.117V28.379z"/>
		<path d="M156.336,28.98h0.75v-1.406h0.883v1.406h0.594v0.906h-0.594v0.836c0.192-0.067,0.391-0.135,0.594-0.203v0.844
			l-0.594,0.219v2.367c0,0.349-0.094,0.565-0.281,0.648c-0.156,0.094-0.521,0.141-1.094,0.141c-0.016-0.24-0.102-0.521-0.258-0.844
			h0.719c0.021,0,0.031-0.052,0.031-0.156v-1.82l-0.656,0.258l-0.18-1c0.255-0.047,0.534-0.114,0.836-0.203v-1.086h-0.75V28.98z
			 M158.711,29.801h2v1.719h0.57v-1.719h2.125v1.719h-1.945v0.367h2.07v0.781h-1.641c0.594,0.433,1.245,0.8,1.953,1.102
			c-0.287,0.255-0.484,0.526-0.594,0.813c-0.453-0.234-0.849-0.482-1.188-0.742c-0.214-0.146-0.414-0.297-0.602-0.453v1.383h-0.93
			v-1.414c-0.162,0.141-0.318,0.266-0.469,0.375c-0.479,0.344-0.969,0.627-1.469,0.852c-0.068-0.292-0.216-0.573-0.445-0.844
			c0.604-0.213,1.229-0.57,1.875-1.07h-1.461v-0.781h1.969V31.52h-1.82V29.801z M159.25,27.668h3.469v1.852h-3.469V27.668z
			 M159.969,30.863v-0.438h-0.508v0.438H159.969z M161.805,28.832v-0.469h-1.656v0.469H161.805z M162.625,30.863v-0.438h-0.57v0.438
			H162.625z"/>
		<path d="M165.938,27.457l1.031,0.344c-0.229,0.531-0.469,1.042-0.719,1.531v1.336c0.739-0.755,1.323-1.825,1.75-3.211l0.969,0.281
			c-0.136,0.391-0.279,0.763-0.43,1.117h3.055v0.914h-2.219v0.719h1.773v0.875h-1.773v0.719h1.906v0.867h-1.906v1.852h-1.031V29.77
			h-0.25c-0.37,0.683-0.787,1.266-1.25,1.75c-0.162-0.26-0.359-0.487-0.594-0.68v3.93h-1v-3.695
			c-0.214,0.328-0.433,0.644-0.656,0.945c-0.089-0.474-0.203-0.87-0.344-1.188C164.817,30.066,165.38,28.941,165.938,27.457z"/>
		<path d="M172.336,28.801h3.125v0.742h-3.125V28.801z M174.281,34.324h-0.75v0.383h-0.906v-2.758h2.563v2.031
			c0.317-0.167,0.555-0.396,0.711-0.688c0.141-0.286,0.231-0.773,0.273-1.461h-0.578v-2.57h1.992l0.5-1.75l0.945,0.375l-0.563,1.375
			h0.781v2.57h-0.906v1.938c0.016,0.099,0.099,0.148,0.25,0.148c0.119,0,0.211-0.06,0.273-0.18c0.067-0.125,0.102-0.333,0.102-0.625
			c0.208,0.136,0.486,0.24,0.836,0.313c-0.031,0.365-0.148,0.706-0.352,1.023c-0.131,0.172-0.323,0.258-0.578,0.258h-0.563
			c-0.245,0-0.453-0.073-0.625-0.219c-0.151-0.109-0.227-0.349-0.227-0.719v-1.938h-0.391c-0.058,0.859-0.178,1.487-0.359,1.883
			c-0.234,0.489-0.607,0.883-1.117,1.18c-0.089-0.214-0.225-0.443-0.406-0.688v0.398h-0.906V34.324z M172.742,27.801h2.344v0.742
			h-2.344V27.801z M172.742,29.863h2.344v0.68h-2.344V29.863z M172.742,30.887h2.344v0.688h-2.344V30.887z M174.281,32.77h-0.75
			v0.805h0.75V32.77z M176.492,27.637c0.286,0.479,0.494,0.896,0.625,1.25l-0.836,0.313c-0.172-0.438-0.37-0.844-0.594-1.219
			L176.492,27.637z M178.313,31.051v-0.969h-1.82v0.969H178.313z"/>
		<path d="M180.68,28.082h2.719v4.75h-1.836v0.625h-0.883V28.082z M181.563,30.02h0.93v-1.07h-0.93V30.02z M181.563,31.949h0.93
			v-1.117h-0.93V31.949z M184.086,27.801h3.195v4.836c0.031,1-0.042,1.594-0.219,1.781c-0.141,0.203-0.561,0.341-1.258,0.414
			c-0.011-0.287-0.115-0.609-0.313-0.969h0.625c0.15-0.01,0.216-0.106,0.195-0.289v-1.25h-1.617
			c-0.068,0.224-0.148,0.44-0.242,0.648c-0.292,0.719-0.808,1.367-1.547,1.945c-0.156-0.365-0.375-0.654-0.656-0.867
			c1.156-0.807,1.768-2.016,1.836-3.625V27.801z M184.883,31.52h1.43v-1.063h-1.344C184.969,30.816,184.939,31.171,184.883,31.52z
			 M184.969,29.637h1.344v-0.93h-1.344V29.637z"/>
		<path d="M191.422,34.863h-3.109v-0.938h2.164v-5.602h0.945V34.863z"/>
		<path d="M199.016,31.129c-0.5,1.099-1.073,1.998-1.719,2.695c-0.219-0.286-0.5-0.502-0.844-0.648
			c0.594-0.588,1.143-1.417,1.648-2.484L199.016,31.129z M203.375,30.191h-2.859v4.453h-1.047v-4.453h-2.766v-0.977h2.766v-1.523
			h1.047v1.523h2.859V30.191z M203.656,32.98c-0.225,0.115-0.381,0.222-0.469,0.32c-0.125,0.078-0.25,0.206-0.375,0.383
			c-0.776-0.667-1.391-1.542-1.844-2.625l0.914-0.5C202.263,31.491,202.854,32.298,203.656,32.98z M202.969,28.691l-0.43,0.438
			c-0.354-0.406-0.656-0.695-0.906-0.867l0.422-0.445C202.356,28.035,202.661,28.327,202.969,28.691z M203.656,28.035l-0.469,0.477
			c-0.261-0.328-0.57-0.612-0.93-0.852l0.461-0.469C203.041,27.431,203.354,27.712,203.656,28.035z"/>
		<path d="M210.938,29.379c-0.058,0.115-0.131,0.279-0.219,0.492c-0.995,2.484-2.742,4.107-5.242,4.867
			c-0.078-0.401-0.273-0.724-0.586-0.969c1.224-0.338,2.234-0.856,3.031-1.555c-0.375-0.375-0.805-0.719-1.289-1.031l0.656-0.719
			c0.505,0.297,0.95,0.623,1.336,0.977c0.349-0.463,0.674-1.044,0.977-1.742h-1.992c-0.584,0.839-1.409,1.617-2.477,2.336
			c-0.136-0.38-0.352-0.682-0.648-0.906c0.734-0.427,1.336-0.93,1.805-1.508c0.375-0.448,0.76-1.081,1.156-1.898l1.07,0.344
			c-0.12,0.219-0.234,0.451-0.344,0.695h2.055l0.086-0.07L210.938,29.379z"/>
		<path d="M215.719,29.449l-0.742,0.898c-0.578-0.547-1.203-1.039-1.875-1.477l0.664-0.836
			C214.438,28.421,215.088,28.892,215.719,29.449z M219.531,30.152c-1.125,1.599-2.795,2.94-5.008,4.023
			c-0.266,0.088-0.547,0.213-0.844,0.375l-0.547-1.086c2.313-0.771,4.195-2.141,5.648-4.109c0.078,0.115,0.182,0.266,0.313,0.453
			C219.156,29.887,219.302,30.001,219.531,30.152z"/>
		<path d="M225.219,30.645c0,0.948-0.219,1.906-0.656,2.875c-0.297,0.661-0.678,1.005-1.141,1.031
			c-0.386-0.026-0.792-0.352-1.219-0.977c0.244-0.198,0.439-0.432,0.586-0.703c0.213,0.38,0.403,0.578,0.57,0.594
			c0.135-0.021,0.31-0.333,0.523-0.938c0.224-0.635,0.352-1.239,0.383-1.813c-0.026-0.5-0.209-0.75-0.547-0.75
			c-0.1,0-0.273,0.023-0.523,0.07c-0.516,1.505-1.159,2.966-1.93,4.383l-0.969-0.523c0.369-0.479,0.836-1.383,1.398-2.711
			c0.083-0.208,0.219-0.531,0.406-0.969c-0.448,0.063-0.842,0.146-1.18,0.25l-0.156-1.055c0.453-0.026,0.992-0.091,1.617-0.195
			l0.406-1.523l1.094,0.328c-0.078,0.245-0.201,0.607-0.367,1.086c0.192-0.026,0.367-0.039,0.523-0.039
			c0.338,0,0.619,0.148,0.844,0.445C225.106,29.798,225.219,30.176,225.219,30.645z M227.656,31.832
			c-0.021,0.24-0.084,0.451-0.188,0.633c-0.156,0.172-0.396,0.263-0.719,0.273c-0.073-0.005-0.305-0.021-0.695-0.047
			c0.021-0.104,0.031-0.203,0.031-0.297c0-0.219-0.047-0.438-0.141-0.656c0.156,0.026,0.307,0.039,0.453,0.039
			c0.094-0.021,0.15-0.096,0.172-0.227c-0.021-0.578-0.472-1.325-1.352-2.242l0.688-0.547
			C227.057,29.819,227.641,30.843,227.656,31.832z"/>
		<path d="M234.906,32.238c0,0.823-0.436,1.458-1.305,1.906c-0.558,0.281-1.568,0.453-3.031,0.516
			c-0.016-0.333-0.109-0.659-0.281-0.977h0.688c0.927,0,1.646-0.159,2.156-0.477c0.422-0.26,0.638-0.57,0.648-0.93
			c0.005-0.229-0.076-0.414-0.242-0.555c-0.209-0.172-0.451-0.258-0.727-0.258c-0.475,0-0.982,0.144-1.523,0.43
			c-0.443,0.245-0.813,0.589-1.109,1.031l-0.758-0.398c0.078-1.229,0.234-2.352,0.469-3.367l1.055,0.289
			c-0.292,0.828-0.459,1.492-0.5,1.992c0.297-0.229,0.638-0.417,1.023-0.563c0.51-0.188,0.989-0.281,1.438-0.281
			c0.583,0,1.044,0.13,1.383,0.391C234.7,31.316,234.906,31.733,234.906,32.238z M233.219,28.277l-0.273,0.938
			c-0.995-0.188-1.881-0.5-2.656-0.938l0.406-0.859C231.481,27.798,232.322,28.085,233.219,28.277z"/>
		<path d="M242.75,34.238c-0.823,0.088-1.558,0.13-2.203,0.125c-1.401-0.011-2.37-0.177-2.906-0.5
			c-0.417-0.25-0.625-0.581-0.625-0.992c0-0.484,0.177-0.932,0.531-1.344l0.836,0.406c-0.229,0.313-0.344,0.563-0.344,0.75
			c0,0.203,0.114,0.349,0.344,0.438c0.427,0.136,1.063,0.203,1.906,0.203c0.766,0,1.552-0.067,2.359-0.203L242.75,34.238z
			 M242.031,29.621c-0.917,0.109-1.602,0.164-2.055,0.164c-0.896,0-1.675-0.106-2.336-0.32l0.25-0.93
			c0.755,0.167,1.377,0.25,1.867,0.25c0.354,0,1.083-0.063,2.188-0.188L242.031,29.621z M243.148,28.723l-0.461,0.383
			c-0.229-0.302-0.523-0.583-0.883-0.844l0.422-0.383C242.502,28.066,242.81,28.348,243.148,28.723z M243.844,28.098l-0.438,0.438
			c-0.292-0.307-0.592-0.588-0.898-0.844l0.43-0.406C243.25,27.509,243.552,27.78,243.844,28.098z"/>
		<path d="M245.43,30.863h5.031v2.656h-1.273v0.398c0.016,0.089,0.096,0.133,0.242,0.133h1.063c0.119,0,0.203-0.049,0.25-0.148
			c0.067-0.094,0.102-0.252,0.102-0.477c0.229,0.136,0.528,0.24,0.898,0.313c-0.031,0.292-0.156,0.565-0.375,0.82
			c-0.146,0.141-0.354,0.211-0.625,0.211h-1.594c-0.245,0-0.448-0.068-0.609-0.203c-0.151-0.099-0.227-0.323-0.227-0.672V33.52
			h-0.805c-0.172,0.412-0.428,0.706-0.766,0.883c-0.464,0.245-1.159,0.409-2.086,0.492c-0.073-0.271-0.188-0.552-0.344-0.844
			c0.807-0.021,1.356-0.086,1.648-0.195c0.208-0.073,0.369-0.185,0.484-0.336h-1.016V30.863z M248.148,27.668v0.594h-1.242v0.313
			h1.211v0.469c0.38-0.427,0.692-0.956,0.938-1.586l0.883,0.211c-0.104,0.224-0.203,0.433-0.297,0.625h1.852v0.789h-2.297
			c-0.141,0.214-0.281,0.398-0.422,0.555c-0.193-0.213-0.412-0.393-0.656-0.539v0.734h-1.211v0.281h1.281v0.523h-2.758v0.133h-0.898
			v-3.102H248.148z M245.43,28.574h0.656v-0.313h-0.656V28.574z M245.43,29.324h1.883v-0.242h-1.883V29.324z M245.43,30.113h0.656
			v-0.281h-0.656V30.113z M246.313,31.637h3.25v-0.273h-3.25V31.637z M246.313,32.324h3.25v-0.273h-3.25V32.324z M249.563,32.98
			v-0.273h-3.25v0.273H249.563z M248.625,29.738h2.656v0.75h-2.656V29.738z"/>
		<path d="M252.492,27.949h6.969v0.938h-3v0.922c0.885,0.474,1.646,0.979,2.281,1.516l-0.711,0.82
			c-0.453-0.406-0.977-0.789-1.57-1.148v3.641h-1.094v-5.75h-2.875V27.949z"/>
		<path d="M266.719,29.379c-0.396,0.125-0.979,0.289-1.75,0.492c0.411,0.724,0.911,1.294,1.5,1.711l-0.563,0.852
			c-0.49-0.297-1.151-0.445-1.984-0.445c-0.678,0-1.139,0.076-1.383,0.227c-0.203,0.12-0.305,0.287-0.305,0.5
			c0,0.172,0.146,0.344,0.438,0.516c0.344,0.214,0.974,0.32,1.891,0.32c0.385,0,0.93-0.039,1.633-0.117l0.031,0.984
			c-0.725,0.109-1.214,0.164-1.469,0.164c-1.433-0.021-2.412-0.229-2.938-0.625c-0.428-0.328-0.641-0.721-0.641-1.18
			c0-0.479,0.211-0.872,0.633-1.18c0.438-0.313,1.072-0.469,1.906-0.469c0.307,0,0.641,0.037,1,0.109
			c-0.276-0.333-0.542-0.727-0.797-1.18c-0.823,0.089-1.357,0.133-1.602,0.133c-0.229,0-0.654-0.031-1.273-0.094l0.055-0.992
			c0.369,0.031,0.775,0.06,1.219,0.086c0.489-0.026,0.864-0.047,1.125-0.063c-0.151-0.344-0.308-0.76-0.469-1.25l1.086-0.188
			c0.109,0.417,0.26,0.833,0.453,1.25c0.494-0.104,1.135-0.292,1.922-0.563L266.719,29.379z"/>
		<path d="M271.609,32.488c-0.219,0.583-0.398,0.992-0.539,1.227c-0.234,0.297-0.475,0.461-0.719,0.492
			c-0.328-0.031-0.62-0.299-0.875-0.805c-0.35-0.729-0.523-1.544-0.523-2.445c0-0.953,0.104-1.846,0.313-2.68l1.086,0.289
			c-0.266,0.833-0.398,1.641-0.398,2.422c0,0.531,0.049,1.013,0.148,1.445c0.063,0.255,0.146,0.388,0.25,0.398
			c0.088-0.01,0.244-0.331,0.469-0.961C271.08,32.168,271.344,32.374,271.609,32.488z M275.406,32.738l-1.094,0.32
			c-0.183-1.458-0.659-2.813-1.43-4.063l0.836-0.375C274.557,29.804,275.119,31.176,275.406,32.738z"/>
	</g>
	<g>
		<g>
			<g>
				<path fill="#FFFFFF" d="M122.188,33.027l-0.391,0.344l-2.813-2.844l-2.789,2.836l-0.391-0.313l2.82-2.875l-2.82-2.797
					l0.391-0.352l2.789,2.789l2.813-2.789l0.391,0.352l-2.844,2.797L122.188,33.027z M117.289,30.176c0,0.162-0.06,0.305-0.18,0.43
					c-0.146,0.12-0.302,0.185-0.469,0.195c-0.198-0.016-0.352-0.081-0.461-0.195c-0.115-0.109-0.172-0.252-0.172-0.43
					c0-0.188,0.057-0.336,0.172-0.445c0.12-0.13,0.273-0.195,0.461-0.195c0.156,0,0.313,0.065,0.469,0.195
					C117.229,29.845,117.289,29.994,117.289,30.176z M119.617,27.832c-0.016,0.162-0.07,0.308-0.164,0.438
					c-0.156,0.136-0.313,0.203-0.469,0.203c-0.183,0-0.331-0.063-0.445-0.188c-0.125-0.114-0.188-0.266-0.188-0.453
					s0.06-0.338,0.18-0.453c0.114-0.125,0.266-0.188,0.453-0.188c0.151,0,0.307,0.068,0.469,0.203
					C119.547,27.504,119.602,27.65,119.617,27.832z M119.594,32.48c-0.031,0.167-0.089,0.31-0.172,0.43
					c-0.13,0.115-0.279,0.172-0.445,0.172c-0.177,0-0.32-0.057-0.43-0.172c-0.115-0.109-0.172-0.252-0.172-0.43
					c0-0.188,0.057-0.336,0.172-0.445c0.109-0.114,0.252-0.172,0.43-0.172c0.161,0,0.31,0.06,0.445,0.18
					C119.505,32.147,119.563,32.293,119.594,32.48z M121.898,30.176c0,0.162-0.058,0.305-0.172,0.43
					c-0.13,0.094-0.273,0.154-0.43,0.18c-0.412-0.042-0.617-0.245-0.617-0.609c0-0.188,0.057-0.336,0.172-0.445
					c0.114-0.114,0.263-0.172,0.445-0.172c0.151,0,0.294,0.058,0.43,0.172C121.841,29.84,121.898,29.988,121.898,30.176z"/>
			</g>
			<g>
				<path fill="#FFFFFF" d="M123.336,27.801h3.008v0.742h-3.008V27.801z M125.25,33.293h-0.719v0.414h-0.906v-2.758h2.523v2.633
					h-0.898V33.293z M123.711,29.863h2.344v0.711h-2.344V29.863z M123.742,26.738h2.313v0.781h-2.313V26.738z M123.742,28.801h2.313
					v0.742h-2.313V28.801z M125.25,31.77h-0.719v0.805h0.719V31.77z M127.492,26.512c0.302,0.417,0.521,0.781,0.656,1.094
					l-0.32,0.133h0.695l0.594-1.25L130,26.832l-0.461,0.906h0.891v0.867h-1.523v0.82h1.242v0.867h-1.242v0.914h1.719v0.844h-1.719
					v1.688h-0.969v-1.688h-1.57v-0.844h1.57v-0.914h-1.227v-0.867h1.227v-0.82h-1.445v-0.867h0.758
					c-0.156-0.317-0.336-0.612-0.539-0.883L127.492,26.512z"/>
			</g>
			<g>
				<path fill="#FFFFFF" d="M132.461,26.395l0.758,0.406c-0.219,0.511-0.469,1.013-0.75,1.508c0.104,0.083,0.2,0.162,0.289,0.234
					c0.219-0.411,0.422-0.838,0.609-1.281l0.781,0.445c-0.391,0.771-0.844,1.531-1.359,2.281c0.219-0.01,0.445-0.021,0.68-0.031
					c-0.058-0.156-0.12-0.313-0.188-0.469l0.742-0.258c0.177,0.365,0.333,0.769,0.469,1.211v-3.492h3.914v6.688h-0.945v-0.523
					h-2.031v0.594h-0.938V30.66l-0.719,0.227c-0.016-0.067-0.034-0.135-0.055-0.203c-0.115,0.021-0.232,0.037-0.352,0.047v0.586
					l0.688-0.141c0.078,0.537,0.213,1.034,0.406,1.492l-0.75,0.195c-0.136-0.463-0.25-0.919-0.344-1.367v2.367h-0.906v-3.031
					c-0.333,0.037-0.677,0.065-1.031,0.086l-0.117-0.867c0.177-0.005,0.359-0.01,0.547-0.016c0.161-0.245,0.323-0.497,0.484-0.758
					c-0.333-0.292-0.719-0.565-1.156-0.82l0.406-0.719c0.078,0.047,0.153,0.091,0.227,0.133
					C132.065,27.413,132.278,26.921,132.461,26.395z M131.656,31.176l0.773,0.148c-0.094,0.646-0.248,1.313-0.461,2
					c-0.271-0.141-0.531-0.232-0.781-0.273C131.38,32.504,131.536,31.879,131.656,31.176z M135.43,29.574H136v-1.742h-0.57V29.574z
					 M135.43,32.23H136v-1.742h-0.57V32.23z M136.844,27.832v1.742h0.617v-1.742H136.844z M136.844,32.23h0.617v-1.742h-0.617V32.23
					z"/>
			</g>
			<g>
				<path fill="#FFFFFF" d="M141.289,27.355c-0.349,1.167-0.523,2.359-0.523,3.578c0,0.875,0.083,1.695,0.25,2.461l-1.031,0.219
					c-0.167-0.864-0.25-1.739-0.25-2.625c0-1.349,0.167-2.672,0.5-3.969L141.289,27.355z M146.594,32.301l-0.656,0.844
					c-0.261-0.219-0.542-0.445-0.844-0.68c-0.037,0.38-0.201,0.648-0.492,0.805c-0.37,0.151-0.703,0.224-1,0.219
					c-0.641-0.016-1.102-0.144-1.383-0.383c-0.287-0.239-0.43-0.508-0.43-0.805c0-0.828,0.575-1.242,1.727-1.242
					c0.109,0,0.305,0.021,0.586,0.063c-0.031-0.567-0.063-1.18-0.094-1.836c-0.49,0.042-0.852,0.063-1.086,0.063
					c-0.245,0-0.612-0.021-1.102-0.063v-1.008c0.531,0.068,0.938,0.102,1.219,0.102c0.276,0,0.599-0.008,0.969-0.023
					c-0.026-0.385-0.039-0.867-0.039-1.445h1.086c-0.016,0.214-0.023,0.474-0.023,0.781v0.555c0.135-0.036,0.5-0.13,1.094-0.281
					l0.023,1c-0.318,0.058-0.701,0.133-1.148,0.227c0.016,0.797,0.047,1.531,0.094,2.203
					C145.755,31.712,146.255,32.015,146.594,32.301z M144.133,31.98c-0.266-0.057-0.508-0.086-0.727-0.086
					c-0.516,0-0.773,0.125-0.773,0.375c0,0.24,0.258,0.378,0.773,0.414c0.276-0.021,0.477-0.094,0.602-0.219
					C144.065,32.366,144.106,32.205,144.133,31.98z"/>
			</g>
			<g>
				<path fill="#FFFFFF" d="M154.68,27.379h-2.172v5.609h-0.945v-6.547h3.117V27.379z"/>
			</g>
			<g>
				<path fill="#FFFFFF" d="M155.336,27.98h0.75v-1.406h0.883v1.406h0.594v0.906h-0.594v0.836c0.192-0.067,0.391-0.135,0.594-0.203
					v0.844l-0.594,0.219v2.367c0,0.349-0.094,0.565-0.281,0.648c-0.156,0.094-0.521,0.141-1.094,0.141
					c-0.016-0.24-0.102-0.521-0.258-0.844h0.719c0.021,0,0.031-0.052,0.031-0.156v-1.82l-0.656,0.258l-0.18-1
					c0.255-0.047,0.534-0.114,0.836-0.203v-1.086h-0.75V27.98z M157.711,28.801h2v1.719h0.57v-1.719h2.125v1.719h-1.945v0.367h2.07
					v0.781h-1.641c0.594,0.433,1.245,0.8,1.953,1.102c-0.287,0.255-0.484,0.526-0.594,0.813c-0.453-0.234-0.849-0.482-1.188-0.742
					c-0.214-0.146-0.414-0.297-0.602-0.453v1.383h-0.93v-1.414c-0.162,0.141-0.318,0.266-0.469,0.375
					c-0.479,0.344-0.969,0.627-1.469,0.852c-0.068-0.292-0.216-0.573-0.445-0.844c0.604-0.213,1.229-0.57,1.875-1.07h-1.461v-0.781
					h1.969V30.52h-1.82V28.801z M158.25,26.668h3.469v1.852h-3.469V26.668z M158.969,29.863v-0.438h-0.508v0.438H158.969z
					 M160.805,27.832v-0.469h-1.656v0.469H160.805z M161.625,29.863v-0.438h-0.57v0.438H161.625z"/>
			</g>
			<g>
				<path fill="#FFFFFF" d="M164.938,26.457l1.031,0.344c-0.229,0.531-0.469,1.042-0.719,1.531v1.336
					c0.739-0.755,1.323-1.825,1.75-3.211l0.969,0.281c-0.136,0.391-0.279,0.763-0.43,1.117h3.055v0.914h-2.219v0.719h1.773v0.875
					h-1.773v0.719h1.906v0.867h-1.906v1.852h-1.031V28.77h-0.25c-0.37,0.683-0.787,1.266-1.25,1.75
					c-0.162-0.26-0.359-0.487-0.594-0.68v3.93h-1v-3.695c-0.214,0.328-0.433,0.644-0.656,0.945c-0.089-0.474-0.203-0.87-0.344-1.188
					C163.817,29.066,164.38,27.941,164.938,26.457z"/>
			</g>
			<g>
				<path fill="#FFFFFF" d="M171.336,27.801h3.125v0.742h-3.125V27.801z M173.281,33.324h-0.75v0.383h-0.906v-2.758h2.563v2.031
					c0.317-0.167,0.555-0.396,0.711-0.688c0.141-0.286,0.231-0.773,0.273-1.461h-0.578v-2.57h1.992l0.5-1.75l0.945,0.375
					l-0.563,1.375h0.781v2.57h-0.906v1.938c0.016,0.099,0.099,0.148,0.25,0.148c0.119,0,0.211-0.06,0.273-0.18
					c0.067-0.125,0.102-0.333,0.102-0.625c0.208,0.136,0.486,0.24,0.836,0.313c-0.031,0.365-0.148,0.706-0.352,1.023
					c-0.131,0.172-0.323,0.258-0.578,0.258h-0.563c-0.245,0-0.453-0.073-0.625-0.219c-0.151-0.109-0.227-0.349-0.227-0.719v-1.938
					h-0.391c-0.058,0.859-0.178,1.487-0.359,1.883c-0.234,0.489-0.607,0.883-1.117,1.18c-0.089-0.214-0.225-0.443-0.406-0.688v0.398
					h-0.906V33.324z M171.742,26.801h2.344v0.742h-2.344V26.801z M171.742,28.863h2.344v0.68h-2.344V28.863z M171.742,29.887h2.344
					v0.688h-2.344V29.887z M173.281,31.77h-0.75v0.805h0.75V31.77z M175.492,26.637c0.286,0.479,0.494,0.896,0.625,1.25
					l-0.836,0.313c-0.172-0.438-0.37-0.844-0.594-1.219L175.492,26.637z M177.313,30.051v-0.969h-1.82v0.969H177.313z"/>
			</g>
			<g>
				<path fill="#FFFFFF" d="M179.68,27.082h2.719v4.75h-1.836v0.625h-0.883V27.082z M180.563,29.02h0.93v-1.07h-0.93V29.02z
					 M180.563,30.949h0.93v-1.117h-0.93V30.949z M183.086,26.801h3.195v4.836c0.031,1-0.042,1.594-0.219,1.781
					c-0.141,0.203-0.561,0.341-1.258,0.414c-0.011-0.287-0.115-0.609-0.313-0.969h0.625c0.15-0.01,0.216-0.106,0.195-0.289v-1.25
					h-1.617c-0.068,0.224-0.148,0.44-0.242,0.648c-0.292,0.719-0.808,1.367-1.547,1.945c-0.156-0.365-0.375-0.654-0.656-0.867
					c1.156-0.807,1.768-2.016,1.836-3.625V26.801z M183.883,30.52h1.43v-1.063h-1.344C183.969,29.816,183.939,30.171,183.883,30.52z
					 M183.969,28.637h1.344v-0.93h-1.344V28.637z"/>
			</g>
			<g>
				<path fill="#FFFFFF" d="M190.422,33.863h-3.109v-0.938h2.164v-5.602h0.945V33.863z"/>
			</g>
			<g>
				<path fill="#FFFFFF" d="M198.016,30.129c-0.5,1.099-1.073,1.998-1.719,2.695c-0.219-0.286-0.5-0.502-0.844-0.648
					c0.594-0.588,1.143-1.417,1.648-2.484L198.016,30.129z M202.375,29.191h-2.859v4.453h-1.047v-4.453h-2.766v-0.977h2.766v-1.523
					h1.047v1.523h2.859V29.191z M202.656,31.98c-0.225,0.115-0.381,0.222-0.469,0.32c-0.125,0.078-0.25,0.206-0.375,0.383
					c-0.776-0.667-1.391-1.542-1.844-2.625l0.914-0.5C201.263,30.491,201.854,31.298,202.656,31.98z M201.969,27.691l-0.43,0.438
					c-0.354-0.406-0.656-0.695-0.906-0.867l0.422-0.445C201.356,27.035,201.661,27.327,201.969,27.691z M202.656,27.035
					l-0.469,0.477c-0.261-0.328-0.57-0.612-0.93-0.852l0.461-0.469C202.041,26.431,202.354,26.712,202.656,27.035z"/>
			</g>
			<g>
				<path fill="#FFFFFF" d="M209.938,28.379c-0.058,0.115-0.131,0.279-0.219,0.492c-0.995,2.484-2.742,4.107-5.242,4.867
					c-0.078-0.401-0.273-0.724-0.586-0.969c1.224-0.338,2.234-0.856,3.031-1.555c-0.375-0.375-0.805-0.719-1.289-1.031l0.656-0.719
					c0.505,0.297,0.95,0.623,1.336,0.977c0.349-0.463,0.674-1.044,0.977-1.742h-1.992c-0.584,0.839-1.409,1.617-2.477,2.336
					c-0.136-0.38-0.352-0.682-0.648-0.906c0.734-0.427,1.336-0.93,1.805-1.508c0.375-0.448,0.76-1.081,1.156-1.898l1.07,0.344
					c-0.12,0.219-0.234,0.451-0.344,0.695h2.055l0.086-0.07L209.938,28.379z"/>
			</g>
			<g>
				<path fill="#FFFFFF" d="M214.719,28.449l-0.742,0.898c-0.578-0.547-1.203-1.039-1.875-1.477l0.664-0.836
					C213.438,27.421,214.088,27.892,214.719,28.449z M218.531,29.152c-1.125,1.599-2.795,2.94-5.008,4.023
					c-0.266,0.088-0.547,0.213-0.844,0.375l-0.547-1.086c2.313-0.771,4.195-2.141,5.648-4.109c0.078,0.115,0.182,0.266,0.313,0.453
					C218.156,28.887,218.302,29.001,218.531,29.152z"/>
			</g>
			<g>
				<path fill="#FFFFFF" d="M224.219,29.645c0,0.948-0.219,1.906-0.656,2.875c-0.297,0.661-0.678,1.005-1.141,1.031
					c-0.386-0.026-0.792-0.352-1.219-0.977c0.244-0.198,0.439-0.432,0.586-0.703c0.213,0.38,0.403,0.578,0.57,0.594
					c0.135-0.021,0.31-0.333,0.523-0.938c0.224-0.635,0.352-1.239,0.383-1.813c-0.026-0.5-0.209-0.75-0.547-0.75
					c-0.1,0-0.273,0.023-0.523,0.07c-0.516,1.505-1.159,2.966-1.93,4.383l-0.969-0.523c0.369-0.479,0.836-1.383,1.398-2.711
					c0.083-0.208,0.219-0.531,0.406-0.969c-0.448,0.063-0.842,0.146-1.18,0.25l-0.156-1.055c0.453-0.026,0.992-0.091,1.617-0.195
					l0.406-1.523l1.094,0.328c-0.078,0.245-0.201,0.607-0.367,1.086c0.192-0.026,0.367-0.039,0.523-0.039
					c0.338,0,0.619,0.148,0.844,0.445C224.106,28.798,224.219,29.176,224.219,29.645z M226.656,30.832
					c-0.021,0.24-0.084,0.451-0.188,0.633c-0.156,0.172-0.396,0.263-0.719,0.273c-0.073-0.005-0.305-0.021-0.695-0.047
					c0.021-0.104,0.031-0.203,0.031-0.297c0-0.219-0.047-0.438-0.141-0.656c0.156,0.026,0.307,0.039,0.453,0.039
					c0.094-0.021,0.15-0.096,0.172-0.227c-0.021-0.578-0.472-1.325-1.352-2.242l0.688-0.547
					C226.057,28.819,226.641,29.843,226.656,30.832z"/>
			</g>
			<g>
				<path fill="#FFFFFF" d="M233.906,31.238c0,0.823-0.436,1.458-1.305,1.906c-0.558,0.281-1.568,0.453-3.031,0.516
					c-0.016-0.333-0.109-0.659-0.281-0.977h0.688c0.927,0,1.646-0.159,2.156-0.477c0.422-0.26,0.638-0.57,0.648-0.93
					c0.005-0.229-0.076-0.414-0.242-0.555c-0.209-0.172-0.451-0.258-0.727-0.258c-0.475,0-0.982,0.144-1.523,0.43
					c-0.443,0.245-0.813,0.589-1.109,1.031l-0.758-0.398c0.078-1.229,0.234-2.352,0.469-3.367l1.055,0.289
					c-0.292,0.828-0.459,1.492-0.5,1.992c0.297-0.229,0.638-0.417,1.023-0.563c0.51-0.188,0.989-0.281,1.438-0.281
					c0.583,0,1.044,0.13,1.383,0.391C233.7,30.316,233.906,30.733,233.906,31.238z M232.219,27.277l-0.273,0.938
					c-0.995-0.188-1.881-0.5-2.656-0.938l0.406-0.859C230.481,26.798,231.322,27.085,232.219,27.277z"/>
			</g>
			<g>
				<path fill="#FFFFFF" d="M241.75,33.238c-0.823,0.088-1.558,0.13-2.203,0.125c-1.401-0.011-2.37-0.177-2.906-0.5
					c-0.417-0.25-0.625-0.581-0.625-0.992c0-0.484,0.177-0.932,0.531-1.344l0.836,0.406c-0.229,0.313-0.344,0.563-0.344,0.75
					c0,0.203,0.114,0.349,0.344,0.438c0.427,0.136,1.063,0.203,1.906,0.203c0.766,0,1.552-0.067,2.359-0.203L241.75,33.238z
					 M241.031,28.621c-0.917,0.109-1.602,0.164-2.055,0.164c-0.896,0-1.675-0.106-2.336-0.32l0.25-0.93
					c0.755,0.167,1.377,0.25,1.867,0.25c0.354,0,1.083-0.063,2.188-0.188L241.031,28.621z M242.148,27.723l-0.461,0.383
					c-0.229-0.302-0.523-0.583-0.883-0.844l0.422-0.383C241.502,27.066,241.81,27.348,242.148,27.723z M242.844,27.098l-0.438,0.438
					c-0.292-0.307-0.592-0.588-0.898-0.844l0.43-0.406C242.25,26.509,242.552,26.78,242.844,27.098z"/>
			</g>
			<g>
				<path fill="#FFFFFF" d="M244.43,29.863h5.031v2.656h-1.273v0.398c0.016,0.089,0.096,0.133,0.242,0.133h1.063
					c0.119,0,0.203-0.049,0.25-0.148c0.067-0.094,0.102-0.252,0.102-0.477c0.229,0.136,0.528,0.24,0.898,0.313
					c-0.031,0.292-0.156,0.565-0.375,0.82c-0.146,0.141-0.354,0.211-0.625,0.211h-1.594c-0.245,0-0.448-0.068-0.609-0.203
					c-0.151-0.099-0.227-0.323-0.227-0.672V32.52h-0.805c-0.172,0.412-0.428,0.706-0.766,0.883
					c-0.464,0.245-1.159,0.409-2.086,0.492c-0.073-0.271-0.188-0.552-0.344-0.844c0.807-0.021,1.356-0.086,1.648-0.195
					c0.208-0.073,0.369-0.185,0.484-0.336h-1.016V29.863z M247.148,26.668v0.594h-1.242v0.313h1.211v0.469
					c0.38-0.427,0.692-0.956,0.938-1.586l0.883,0.211c-0.104,0.224-0.203,0.433-0.297,0.625h1.852v0.789h-2.297
					c-0.141,0.214-0.281,0.398-0.422,0.555c-0.193-0.213-0.412-0.393-0.656-0.539v0.734h-1.211v0.281h1.281v0.523h-2.758v0.133
					h-0.898v-3.102H247.148z M244.43,27.574h0.656v-0.313h-0.656V27.574z M244.43,28.324h1.883v-0.242h-1.883V28.324z
					 M244.43,29.113h0.656v-0.281h-0.656V29.113z M245.313,30.637h3.25v-0.273h-3.25V30.637z M245.313,31.324h3.25v-0.273h-3.25
					V31.324z M248.563,31.98v-0.273h-3.25v0.273H248.563z M247.625,28.738h2.656v0.75h-2.656V28.738z"/>
			</g>
			<g>
				<path fill="#FFFFFF" d="M251.492,26.949h6.969v0.938h-3v0.922c0.885,0.474,1.646,0.979,2.281,1.516l-0.711,0.82
					c-0.453-0.406-0.977-0.789-1.57-1.148v3.641h-1.094v-5.75h-2.875V26.949z"/>
			</g>
			<g>
				<path fill="#FFFFFF" d="M265.719,28.379c-0.396,0.125-0.979,0.289-1.75,0.492c0.411,0.724,0.911,1.294,1.5,1.711l-0.563,0.852
					c-0.49-0.297-1.151-0.445-1.984-0.445c-0.678,0-1.139,0.076-1.383,0.227c-0.203,0.12-0.305,0.287-0.305,0.5
					c0,0.172,0.146,0.344,0.438,0.516c0.344,0.214,0.974,0.32,1.891,0.32c0.385,0,0.93-0.039,1.633-0.117l0.031,0.984
					c-0.725,0.109-1.214,0.164-1.469,0.164c-1.433-0.021-2.412-0.229-2.938-0.625c-0.428-0.328-0.641-0.721-0.641-1.18
					c0-0.479,0.211-0.872,0.633-1.18c0.438-0.313,1.072-0.469,1.906-0.469c0.307,0,0.641,0.037,1,0.109
					c-0.276-0.333-0.542-0.727-0.797-1.18c-0.823,0.089-1.357,0.133-1.602,0.133c-0.229,0-0.654-0.031-1.273-0.094l0.055-0.992
					c0.369,0.031,0.775,0.06,1.219,0.086c0.489-0.026,0.864-0.047,1.125-0.063c-0.151-0.344-0.308-0.76-0.469-1.25l1.086-0.188
					c0.109,0.417,0.26,0.833,0.453,1.25c0.494-0.104,1.135-0.292,1.922-0.563L265.719,28.379z"/>
			</g>
			<g>
				<path fill="#FFFFFF" d="M270.609,31.488c-0.219,0.583-0.398,0.992-0.539,1.227c-0.234,0.297-0.475,0.461-0.719,0.492
					c-0.328-0.031-0.62-0.299-0.875-0.805c-0.35-0.729-0.523-1.544-0.523-2.445c0-0.953,0.104-1.846,0.313-2.68l1.086,0.289
					c-0.266,0.833-0.398,1.641-0.398,2.422c0,0.531,0.049,1.013,0.148,1.445c0.063,0.255,0.146,0.388,0.25,0.398
					c0.088-0.01,0.244-0.331,0.469-0.961C270.08,31.168,270.344,31.374,270.609,31.488z M274.406,31.738l-1.094,0.32
					c-0.183-1.458-0.659-2.813-1.43-4.063l0.836-0.375C273.557,28.804,274.119,30.176,274.406,31.738z"/>
			</g>
		</g>
	</g>
</g>
<g>
	<g opacity="0.3">
		<path d="M119.68,21.107h-2.648v-7.359h2.648v0.5c-0.917,0.912-1.375,1.974-1.375,3.188c0,1.198,0.458,2.255,1.375,3.172V21.107z"
			/>
		<path d="M125.391,14.576l-2.078,5.672h-1.031l-2.078-5.672h1.117l1.461,4.398l1.492-4.398H125.391z"/>
		<path d="M130.117,20.248h-1.242l-1.281-2.266h-0.93v2.266h-0.961v-5.672h1.961c1.51,0,2.266,0.583,2.266,1.75
			c0,0.755-0.438,1.263-1.313,1.523L130.117,20.248z M128.844,16.295c-0.026-0.521-0.391-0.781-1.094-0.781h-1.086v1.531h0.969
			C128.414,17.045,128.817,16.795,128.844,16.295z"/>
		<path d="M139.438,17.748h-3.594v1.438c0,0.229,0.112,0.375,0.336,0.438c0.099,0.026,0.313,0.039,0.641,0.039h2.188v1.016h-2.07
			c-0.969,0-1.591-0.102-1.867-0.305c-0.183-0.146-0.273-0.409-0.273-0.789v-1.836h-2.125v-0.953h2.125v-1.344h-1.406v-1h5.047v1
			h-2.594v1.344h3.594V17.748z"/>
		<path d="M147.266,17.904h-6.289v-1.023h6.289V17.904z"/>
		<path d="M155.094,17.607l-0.594,0.977c-0.906-0.573-1.841-1.036-2.805-1.391v3.711h-1.125v-6.922h1.125v2.125
			C152.841,16.467,153.974,16.967,155.094,17.607z M154.383,15.537l-0.453,0.469c-0.271-0.281-0.578-0.573-0.922-0.875l0.43-0.43
			C153.771,14.941,154.086,15.22,154.383,15.537z M155.094,14.826l-0.461,0.5c-0.313-0.344-0.636-0.635-0.969-0.875l0.461-0.469
			C154.495,14.243,154.817,14.524,155.094,14.826z"/>
		<path d="M159.086,21.107h-2.648v-0.5c0.917-0.917,1.375-1.974,1.375-3.172c0-1.213-0.458-2.276-1.375-3.188v-0.5h2.648V21.107z"/>
	</g>
	<g>
		<g>
			<g>
				<path fill="#FFFFFF" d="M118.68,20.107h-2.648v-7.359h2.648v0.5c-0.917,0.912-1.375,1.974-1.375,3.188
					c0,1.198,0.458,2.255,1.375,3.172V20.107z"/>
			</g>
			<g>
				<path fill="#FFFFFF" d="M124.391,13.576l-2.078,5.672h-1.031l-2.078-5.672h1.117l1.461,4.398l1.492-4.398H124.391z"/>
			</g>
			<g>
				<path fill="#FFFFFF" d="M129.117,19.248h-1.242l-1.281-2.266h-0.93v2.266h-0.961v-5.672h1.961c1.51,0,2.266,0.583,2.266,1.75
					c0,0.755-0.438,1.263-1.313,1.523L129.117,19.248z M127.844,15.295c-0.026-0.521-0.391-0.781-1.094-0.781h-1.086v1.531h0.969
					C127.414,16.045,127.817,15.795,127.844,15.295z"/>
			</g>
			<g>
				<path fill="#FFFFFF" d="M138.438,16.748h-3.594v1.438c0,0.229,0.112,0.375,0.336,0.438c0.099,0.026,0.313,0.039,0.641,0.039
					h2.188v1.016h-2.07c-0.969,0-1.591-0.102-1.867-0.305c-0.183-0.146-0.273-0.409-0.273-0.789v-1.836h-2.125v-0.953h2.125v-1.344
					h-1.406v-1h5.047v1h-2.594v1.344h3.594V16.748z"/>
			</g>
			<g>
				<path fill="#FFFFFF" d="M146.266,16.904h-6.289v-1.023h6.289V16.904z"/>
			</g>
			<g>
				<path fill="#FFFFFF" d="M154.094,16.607l-0.594,0.977c-0.906-0.573-1.841-1.036-2.805-1.391v3.711h-1.125v-6.922h1.125v2.125
					C151.841,15.467,152.974,15.967,154.094,16.607z M153.383,14.537l-0.453,0.469c-0.271-0.281-0.578-0.573-0.922-0.875l0.43-0.43
					C152.771,13.941,153.086,14.22,153.383,14.537z M154.094,13.826l-0.461,0.5c-0.313-0.344-0.636-0.635-0.969-0.875l0.461-0.469
					C153.495,13.243,153.817,13.524,154.094,13.826z"/>
			</g>
			<g>
				<path fill="#FFFFFF" d="M158.086,20.107h-2.648v-0.5c0.917-0.917,1.375-1.974,1.375-3.172c0-1.213-0.458-2.276-1.375-3.188v-0.5
					h2.648V20.107z"/>
			</g>
		</g>
	</g>
</g>
<g>
	<g opacity="0.3">
		<rect x="65.55" y="45.81" width="47.5" height="20"/>
	</g>
	<g>
		<rect x="64.55" y="44.81" fill="#FFFFFF" width="47.5" height="20"/>
	</g>
</g>
<g>
	<path d="M37.085,52.227l-0.957,0.738l-1.559-1.859v10.104h-1.066v-10.09l-1.545,1.846l-0.957-0.738l3.049-3.828L37.085,52.227z"/>
</g>
<g>
	<path d="M95.997,49.793l-2.625,9.939H91.69l-1.641-6.809l-1.805,6.809h-1.682l-2.461-9.939h1.9l1.449,6.781l1.736-6.781h1.668
		l1.709,6.713l1.518-6.713H95.997z"/>
</g>
<g>
	<g opacity="0.3">
		<rect x="12.55" y="70.81" width="47.5" height="20"/>
	</g>
	<g>
		<rect x="11.55" y="69.81" fill="#FFFFFF" width="47.5" height="20"/>
	</g>
</g>
<g>
	<g opacity="0.3">
		<rect x="65.55" y="70.81" width="47.5" height="20"/>
	</g>
	<g>
		<rect x="64.55" y="69.81" fill="#FFFFFF" width="47.5" height="20"/>
	</g>
</g>
<g>
	<path d="M37.085,82.381l-3.035,3.828l-3.049-3.828l0.957-0.752l1.559,1.859v-10.09h1.066v10.076l1.545-1.846L37.085,82.381z"/>
</g>
<g>
	<path d="M93.919,82.1c0,0.939-0.383,1.673-1.148,2.201c-0.62,0.429-1.527,0.643-2.721,0.643c-2.279,0-3.578-1.016-3.896-3.049
		h2.078c0,0.976,0.633,1.463,1.9,1.463c0.602,0,1.084-0.132,1.449-0.396c0.246-0.246,0.387-0.533,0.424-0.861
		c-0.037-0.52-0.406-0.934-1.107-1.244l-2.064-0.943c-1.486-0.646-2.229-1.535-2.229-2.666c0-0.866,0.355-1.54,1.066-2.023
		c0.62-0.428,1.376-0.643,2.27-0.643c2.178,0,3.422,0.907,3.732,2.721h-2.051c-0.119-0.829-0.666-1.244-1.641-1.244
		c-0.383,0-0.711,0.087-0.984,0.26c-0.328,0.201-0.492,0.474-0.492,0.82c0,0.447,0.255,0.793,0.766,1.039l2.939,1.49
		C93.358,80.223,93.928,81.033,93.919,82.1z"/>
</g>
<g>
	<g opacity="0.3">
		<rect x="12.55" y="95.811" width="47.5" height="20"/>
	</g>
	<g>
		<rect x="11.55" y="94.811" fill="#FFFFFF" width="47.5" height="20"/>
	</g>
</g>
<g>
	<g opacity="0.3">
		<rect x="65.55" y="95.811" width="47.5" height="20"/>
	</g>
	<g>
		<rect x="64.55" y="94.811" fill="#FFFFFF" width="47.5" height="20"/>
	</g>
</g>
<g>
	<path d="M40.448,105.33h-10.09l1.859,1.559l-0.752,0.957l-3.828-3.035l3.828-3.049l0.752,0.957l-1.846,1.545h10.076V105.33z"/>
</g>
<g>
	<path d="M94.958,109.732h-2.064l-0.875-2.352h-4.047l-0.93,2.352h-1.9l3.924-9.939h1.791L94.958,109.732z M91.417,105.795
		l-1.463-3.65l-1.449,3.65H91.417z"/>
</g>
<g>
	<g opacity="0.3">
		<rect x="12.55" y="120.811" width="47.5" height="20"/>
	</g>
	<g>
		<rect x="11.55" y="119.811" fill="#FFFFFF" width="47.5" height="20"/>
	</g>
</g>
<g>
	<g opacity="0.3">
		<rect x="65.55" y="120.811" width="47.5" height="20"/>
	</g>
	<g>
		<rect x="64.55" y="119.811" fill="#FFFFFF" width="47.5" height="20"/>
	</g>
</g>
<g>
	<path d="M40.448,129.811l-3.828,3.035l-0.738-0.957l1.859-1.559H27.638v-1.066h10.09l-1.846-1.545l0.738-0.957L40.448,129.811z"/>
</g>
<g>
	<path d="M94.302,129.77c0,1.395-0.456,2.562-1.367,3.5c-0.939,0.976-2.411,1.463-4.416,1.463h-2.721v-9.939h3.158
		c1.577,0,2.889,0.479,3.938,1.436C93.832,127.104,94.302,128.284,94.302,129.77z M92.333,129.879c0-1.057-0.301-1.891-0.902-2.502
		c-0.602-0.629-1.427-0.943-2.475-0.943h-1.408v6.672h1.094c1.094,0,2-0.291,2.721-0.875
		C92.009,131.538,92.333,130.754,92.333,129.879z"/>
</g>
<g>
	<g opacity="0.3">
		<path d="M126.307,126.6h4.129c0.228-0.72,0.442-1.504,0.643-2.352l2.023,0.369c-0.228,0.702-0.451,1.363-0.67,1.982h6.248v1.641
			h-6.891c-0.337,0.793-0.679,1.481-1.025,2.064h6.59v6.74h-1.846v-0.725H130.9v0.725h-1.859v-4.402
			c-0.738,0.839-1.522,1.559-2.352,2.16c-0.183-0.592-0.492-1.107-0.93-1.545c1.449-1.148,2.557-2.342,3.322-3.582
			c0.264-0.419,0.51-0.897,0.738-1.436h-3.514V126.6z M130.9,134.639h4.607v-2.68H130.9V134.639z"/>
		<path d="M142.344,124.303l1.586,0.547c-0.009,0.019-0.014,0.037-0.014,0.055h4.17v8.955h-0.588
			c0.574,0.766,1.135,1.367,1.682,1.805c-0.438,0.438-0.729,0.856-0.875,1.258c-0.702-0.511-1.358-1.234-1.969-2.174l0.861-0.889
			h-3.336v-8.873c-0.319,0.912-0.679,1.801-1.08,2.666v8.408c0.684-0.61,1.285-1.285,1.805-2.023l1.313,0.711
			c-0.529,0.738-1.148,1.463-1.859,2.174c-0.374-0.338-0.793-0.602-1.258-0.793v0.916h-1.49v-6.549
			c-0.265,0.465-0.533,0.916-0.807,1.354c-0.155-0.729-0.396-1.33-0.725-1.805C140.79,128.231,141.651,126.317,142.344,124.303z
			 M145.352,127.406h1.244v-1.203h-1.244V127.406z M145.352,129.922h1.244v-1.203h-1.244V129.922z M146.596,132.506v-1.313h-1.244
			v1.313H146.596z M148.742,125.711h1.463v7.998h-1.463V125.711z M150.93,124.672h1.531v10.938c0,0.61-0.155,0.988-0.465,1.135
			c-0.255,0.164-0.871,0.246-1.846,0.246c-0.027-0.42-0.169-0.912-0.424-1.477h1.135c0.045,0,0.068-0.091,0.068-0.273V124.672z"/>
		<path d="M159.734,124.07l1.518,0.834c-0.273,0.593-0.529,1.121-0.766,1.586h1.395c0.319-0.629,0.588-1.326,0.807-2.092
			l1.695,0.342c-0.191,0.565-0.465,1.148-0.82,1.75h2.994v1.422h-3.104v0.875h2.447v1.313h-2.447v0.861h2.447v1.326h-2.447v0.971
			h3.391v1.381h-6.686v0.369h-1.627v-5.51c-0.273,0.311-0.57,0.615-0.889,0.916c-0.073-0.246-0.178-0.492-0.314-0.738v4.73
			c0.355,0.319,0.715,0.547,1.08,0.684c0.629,0.246,1.376,0.406,2.242,0.479h6.453c-0.31,0.465-0.492,0.957-0.547,1.477h-5.906
			c-1.668-0.119-2.976-0.611-3.924-1.477l-1.982,1.75l-0.916-1.6l1.805-1.189v-3.391h-1.49v-1.641h3.063
			c-0.137-0.228-0.296-0.446-0.479-0.656c0.556-0.482,1.053-1.07,1.49-1.764C158.627,126.449,159.133,125.447,159.734,124.07z
			 M155.455,124.617c0.893,0.41,1.659,0.907,2.297,1.49l-0.916,1.408c-0.775-0.619-1.541-1.144-2.297-1.572L155.455,124.617z
			 M161.799,128.787v-0.875h-1.641v0.875H161.799z M161.799,130.961V130.1h-1.641v0.861H161.799z M160.158,133.258h1.641v-0.971
			h-1.641V133.258z"/>
	</g>
	<g>
		<g>
			<g>
				<path fill="#FFFFFF" d="M125.307,125.6h4.129c0.228-0.72,0.442-1.504,0.643-2.352l2.023,0.369
					c-0.228,0.702-0.451,1.363-0.67,1.982h6.248v1.641h-6.891c-0.337,0.793-0.679,1.481-1.025,2.064h6.59v6.74h-1.846v-0.725H129.9
					v0.725h-1.859v-4.402c-0.738,0.839-1.522,1.559-2.352,2.16c-0.183-0.592-0.492-1.107-0.93-1.545
					c1.449-1.148,2.557-2.342,3.322-3.582c0.264-0.419,0.51-0.897,0.738-1.436h-3.514V125.6z M129.9,133.639h4.607v-2.68H129.9
					V133.639z"/>
			</g>
			<g>
				<path fill="#FFFFFF" d="M141.344,123.303l1.586,0.547c-0.009,0.019-0.014,0.037-0.014,0.055h4.17v8.955h-0.588
					c0.574,0.766,1.135,1.367,1.682,1.805c-0.438,0.438-0.729,0.856-0.875,1.258c-0.702-0.511-1.358-1.234-1.969-2.174l0.861-0.889
					h-3.336v-8.873c-0.319,0.912-0.679,1.801-1.08,2.666v8.408c0.684-0.61,1.285-1.285,1.805-2.023l1.313,0.711
					c-0.529,0.738-1.148,1.463-1.859,2.174c-0.374-0.338-0.793-0.602-1.258-0.793v0.916h-1.49v-6.549
					c-0.265,0.465-0.533,0.916-0.807,1.354c-0.155-0.729-0.396-1.33-0.725-1.805C139.79,127.231,140.651,125.317,141.344,123.303z
					 M144.352,126.406h1.244v-1.203h-1.244V126.406z M144.352,128.922h1.244v-1.203h-1.244V128.922z M145.596,131.506v-1.313h-1.244
					v1.313H145.596z M147.742,124.711h1.463v7.998h-1.463V124.711z M149.93,123.672h1.531v10.938c0,0.61-0.155,0.988-0.465,1.135
					c-0.255,0.164-0.871,0.246-1.846,0.246c-0.027-0.42-0.169-0.912-0.424-1.477h1.135c0.045,0,0.068-0.091,0.068-0.273V123.672z"/>
			</g>
			<g>
				<path fill="#FFFFFF" d="M158.734,123.07l1.518,0.834c-0.273,0.593-0.529,1.121-0.766,1.586h1.395
					c0.319-0.629,0.588-1.326,0.807-2.092l1.695,0.342c-0.191,0.565-0.465,1.148-0.82,1.75h2.994v1.422h-3.104v0.875h2.447v1.313
					h-2.447v0.861h2.447v1.326h-2.447v0.971h3.391v1.381h-6.686v0.369h-1.627v-5.51c-0.273,0.311-0.57,0.615-0.889,0.916
					c-0.073-0.246-0.178-0.492-0.314-0.738v4.73c0.355,0.319,0.715,0.547,1.08,0.684c0.629,0.246,1.376,0.406,2.242,0.479h6.453
					c-0.31,0.465-0.492,0.957-0.547,1.477h-5.906c-1.668-0.119-2.976-0.611-3.924-1.477l-1.982,1.75l-0.916-1.6l1.805-1.189v-3.391
					h-1.49v-1.641h3.063c-0.137-0.228-0.296-0.446-0.479-0.656c0.556-0.482,1.053-1.07,1.49-1.764
					C157.627,125.449,158.133,124.447,158.734,123.07z M154.455,123.617c0.893,0.41,1.659,0.907,2.297,1.49l-0.916,1.408
					c-0.775-0.619-1.541-1.144-2.297-1.572L154.455,123.617z M160.799,127.787v-0.875h-1.641v0.875H160.799z M160.799,129.961V129.1
					h-1.641v0.861H160.799z M159.158,132.258h1.641v-0.971h-1.641V132.258z"/>
			</g>
		</g>
	</g>
</g>
<g>
	<g opacity="0.3">
		<rect x="195" y="45.75" width="100" height="20"/>
	</g>
	<g>
		<rect x="194" y="44.75" fill="#FFFFFF" width="100" height="20"/>
	</g>
</g>
<g>
	<path d="M222.016,51.66c-0.301,0.255-0.538,0.511-0.711,0.766c-1.432,1.486-2.881,2.88-4.348,4.184
		c0.656,0.684,1.271,1.399,1.846,2.146L217.422,60c-1.449-1.914-3.131-3.591-5.045-5.031l1.121-1.299
		c0.646,0.547,1.354,1.112,2.119,1.695c1.258-1.139,2.406-2.288,3.445-3.445h-8.723v-1.736h10.254l0.273-0.096L222.016,51.66z"/>
	<path d="M234.922,50.996c-0.046,3.382-0.734,5.797-2.064,7.246c-1.085,1.176-2.926,2.042-5.523,2.598
		c-0.055-0.583-0.36-1.176-0.916-1.777c2.023-0.31,3.49-0.815,4.402-1.518c1.33-1.012,2.01-2.666,2.037-4.963h-6.002v3.145h-1.873
		v-4.73h3.938v-2.297h1.9v2.297H234.922z"/>
	<path d="M249.852,59.385l-1.586,1.217c-1.249-1.795-2.488-3.231-3.719-4.307c-1.869,1.951-3.751,3.327-5.646,4.129
		c-0.082-0.164-0.215-0.433-0.396-0.807c-0.164-0.209-0.438-0.483-0.82-0.82c3.354-1.221,5.961-3.6,7.82-7.137h-6.166v-1.75h7.232
		l0.232-0.096l1.203,1.313c-0.164,0.164-0.314,0.392-0.451,0.684c-0.656,1.24-1.276,2.256-1.859,3.049
		C247.208,56.099,248.594,57.607,249.852,59.385z"/>
	<path d="M255.744,48.242l0.834,1.408c-0.584,0.255-1.167,0.46-1.75,0.615v1.791h1.313v1.545h-1.313v0.465
		c0.602,0.62,1.185,1.117,1.75,1.49c-0.465,0.465-0.775,0.907-0.93,1.326c-0.283-0.219-0.557-0.469-0.82-0.752v5.072h-1.586v-3.965
		c-0.328,0.638-0.68,1.208-1.053,1.709c-0.137-0.647-0.424-1.23-0.861-1.75c0.438-0.428,0.807-0.971,1.107-1.627
		c0.282-0.565,0.537-1.221,0.766-1.969h-1.559v-1.545h1.6v-1.436c-0.401,0.055-0.803,0.096-1.203,0.123
		c-0.082-0.474-0.246-0.943-0.492-1.408C253.014,49.208,254.413,48.844,255.744,48.242z M258.861,48.078l1.586,0.479
		c-0.137,0.246-0.287,0.488-0.451,0.725h2.311l0.178-0.123l0.916,1.148c-0.948,1.34-1.919,2.347-2.912,3.021
		c-0.082,0.055-0.164,0.109-0.246,0.164l1.586,0.492c-0.229,0.328-0.47,0.634-0.725,0.916h2.352l1.094,0.889
		c-0.812,1.313-1.627,2.283-2.447,2.912c-0.574,0.529-1.276,0.989-2.105,1.381c-1.003,0.52-2.165,0.925-3.486,1.217
		c-0.174-0.483-0.461-0.935-0.861-1.354c1.513-0.337,2.748-0.738,3.705-1.203c-0.301-0.41-0.643-0.774-1.025-1.094l1.148-0.766
		c0.428,0.319,0.802,0.693,1.121,1.121c0.674-0.501,1.239-1.094,1.695-1.777h-2.475c-0.848,0.738-1.805,1.376-2.871,1.914
		c-0.265-0.446-0.611-0.829-1.039-1.148c1.841-0.802,3.281-1.964,4.32-3.486c-1.012,0.656-2.211,1.199-3.596,1.627
		c-0.046-0.392-0.265-0.852-0.656-1.381c0.975-0.255,1.813-0.547,2.516-0.875c-0.256-0.328-0.533-0.62-0.834-0.875l1.148-0.752
		c0.337,0.273,0.638,0.579,0.902,0.916c0.036-0.036,0.068-0.063,0.096-0.082c0.638-0.465,1.144-0.979,1.518-1.545h-2.297
		c-0.702,0.775-1.5,1.427-2.393,1.955c-0.273-0.446-0.62-0.829-1.039-1.148C256.988,50.599,258.077,49.509,258.861,48.078z"/>
	<path d="M271.494,48.242l0.711,1.258c-0.711,0.146-1.436,0.273-2.174,0.383v0.656h2.352v1.203h-2.352v0.602h2.352v4.252h-2.352
		v0.506h2.229v1.148h-2.229v0.547c0.656-0.091,1.344-0.205,2.064-0.342v0.438c0.482-0.656,0.856-1.29,1.121-1.9
		c0.438-0.902,0.692-2.306,0.766-4.211h-1.381v-1.436h1.408v-2.953h1.641v2.953h2.406c-0.055,4.184-0.164,6.745-0.328,7.684
		c-0.092,0.875-0.251,1.413-0.479,1.613c-0.137,0.209-0.853,0.378-2.146,0.506c0.027-0.501-0.174-1.048-0.602-1.641h1.436
		c0.091-0.018,0.146-0.109,0.164-0.273c0.219-1.467,0.328-3.618,0.328-6.453h-0.793c-0.082,2.023-0.352,3.605-0.807,4.744
		c-0.465,1.304-1.281,2.579-2.447,3.828c-0.42-0.447-0.898-0.812-1.436-1.094c0.137-0.128,0.264-0.26,0.383-0.396
		c-1.769,0.428-3.628,0.761-5.578,0.998l-0.26-1.572c0.92-0.045,1.937-0.141,3.049-0.287V58.25h-2.68v-1.148h2.68v-0.506h-2.393
		v-4.252h2.393v-0.602h-2.734v-1.203h2.734v-0.479c-0.721,0.073-1.449,0.119-2.188,0.137c-0.073-0.438-0.237-0.87-0.492-1.299
		C267.839,48.826,269.717,48.607,271.494,48.242z M267.68,53.984h0.861v-0.547h-0.861V53.984z M268.541,55.502v-0.547h-0.861v0.547
		H268.541z M270.031,53.438v0.547h0.82v-0.547H270.031z M270.852,55.502v-0.547h-0.82v0.547H270.852z"/>
</g>
<g>
	<g opacity="0.3">
		<path d="M197.4,74.789h10.609v8.75c0.063,1.668-0.06,2.661-0.369,2.98c-0.237,0.328-0.948,0.556-2.133,0.684
			c-0.019-0.483-0.205-1.035-0.561-1.654h1.148c0.228-0.009,0.323-0.154,0.287-0.438v-8.859H199v3.842
			c0,1.468-0.142,2.821-0.424,4.061c-0.237,1.131-0.666,2.164-1.285,3.104c-0.283-0.684-0.684-1.217-1.203-1.6
			c0.829-1.23,1.267-3.085,1.313-5.564V74.789z M199.643,77.4h2.037v-0.916h1.682V77.4h2.42v1.381h-2.42v0.916h2.734v1.381h-6.836
			v-1.381h2.42v-0.916h-2.037V77.4z M199.643,81.68h5.701v3.555h-4.102v0.82h-1.6V81.68z M201.242,83.908h2.557v-0.916h-2.557
			V83.908z"/>
		<path d="M210.307,79.438h3.131v4.676c0.373,0.319,0.742,0.547,1.107,0.684c0.602,0.229,1.33,0.374,2.188,0.438h6.316
			c-0.319,0.502-0.502,1.025-0.547,1.572h-5.77c-1.632-0.101-2.912-0.588-3.842-1.463l-1.982,1.914l-0.971-1.654l1.914-1.299V81.01
			h-1.545V79.438z M211.688,74.611c0.82,0.41,1.526,0.907,2.119,1.49l-0.861,1.299c-0.721-0.602-1.436-1.107-2.146-1.518
			L211.688,74.611z M214.203,74.994h8.039c0,3.674-0.101,6.244-0.301,7.711c-0.092,0.647-0.297,1.099-0.615,1.354
			c-0.283,0.237-0.998,0.41-2.146,0.52c0-0.51-0.183-1.057-0.547-1.641h1.203c0.236,0,0.383-0.191,0.438-0.574
			c0.146-1.084,0.219-3.025,0.219-5.824h-2.461c-0.064,2.188-0.333,3.855-0.807,5.004c-0.438,1.131-1.213,2.102-2.324,2.912
			c-0.256-0.52-0.62-1.007-1.094-1.463c0.92-0.629,1.581-1.417,1.982-2.365c0.328-0.774,0.506-2.137,0.533-4.088h-2.119V74.994z"/>
		<path d="M236.078,80.701c-1.723,0.438-3.081,0.834-4.074,1.189v1.914h-1.75v-1.299c-1.276,0.547-1.914,1.058-1.914,1.531
			c0,0.639,0.852,0.962,2.557,0.971c1.668,0.01,2.998-0.077,3.992-0.26v1.791c-1.23,0.109-2.233,0.164-3.008,0.164
			c-3.5-0.037-5.25-0.857-5.25-2.461c0-0.802,0.4-1.494,1.203-2.078c0.547-0.383,1.354-0.82,2.42-1.313
			c0-0.501-0.201-0.752-0.602-0.752c-0.666,0-1.304,0.251-1.914,0.752c-0.547,0.447-1.24,1.162-2.078,2.146l-1.203-1.203
			c1.185-0.966,2.311-2.205,3.377-3.719h-2.119v-1.682c0.875,0.082,1.472,0.123,1.791,0.123c0.564,0,1.002-0.022,1.313-0.068
			c0.346-0.674,0.656-1.349,0.93-2.023l1.805,0.711c-0.265,0.374-0.497,0.771-0.697,1.189c0.957-0.063,1.95-0.237,2.98-0.52
			l0.068,1.668c-1.678,0.301-3.063,0.47-4.156,0.506c-0.219,0.292-0.438,0.639-0.656,1.039c0.337-0.182,0.665-0.273,0.984-0.273
			c1.029,0,1.631,0.502,1.805,1.504c1.166-0.428,2.388-0.838,3.664-1.23L236.078,80.701z"/>
		<path d="M240.18,74.734h8.518v7.916h-1.955v2.639c0,0.174,0.068,0.26,0.205,0.26h1.914c0.228,0,0.369-0.173,0.424-0.52
			c0.027-0.209,0.068-0.506,0.123-0.889c0.501,0.347,1.048,0.584,1.641,0.711c0,0.246-0.101,0.598-0.301,1.053
			c-0.183,0.4-0.396,0.674-0.643,0.82c-0.255,0.137-0.524,0.205-0.807,0.205h-2.994c-0.419,0-0.733-0.073-0.943-0.219
			c-0.173-0.146-0.26-0.42-0.26-0.82v-3.24h-1.545c-0.155,1.322-0.538,2.242-1.148,2.762c-0.812,0.747-2.015,1.289-3.609,1.627
			c-0.137-0.565-0.405-1.076-0.807-1.531c1.386-0.236,2.379-0.602,2.98-1.094c0.456-0.364,0.747-0.952,0.875-1.764h-1.668V74.734z
			 M241.93,76.977h4.977v-0.93h-4.977V76.977z M241.93,79.096h4.977V78.18h-4.977V79.096z M246.906,81.352v-1.053h-4.977v1.053
			H246.906z"/>
		<path d="M262.383,86.15h-7.834v0.834h-1.695V75.158h11.225V86.93h-1.695V86.15z M262.383,76.689h-7.834v7.998h7.834V76.689z
			 M259.539,82.992h-2.352v0.766h-1.586v-5.701h5.51v5.482h-1.572V82.992z M259.539,79.492h-2.352v2.119h2.352V79.492z"/>
		<path d="M278.406,78.008c-1.13,0-2.593,0.027-4.389,0.082c-0.019,0.538-0.027,1.44-0.027,2.707c0,0.229-0.022,0.447-0.068,0.656
			c0.109,0.574,0.164,1.09,0.164,1.545c-0.009,1.14-0.538,2.078-1.586,2.816c-0.729,0.492-1.728,0.916-2.994,1.271
			c-0.292-0.748-0.615-1.316-0.971-1.709c1.923-0.2,3.14-0.742,3.65-1.627c-0.292,0.109-0.583,0.16-0.875,0.15
			c-0.72-0.009-1.285-0.246-1.695-0.711c-0.429-0.455-0.643-1.053-0.643-1.791c0-0.802,0.21-1.449,0.629-1.941
			c0.401-0.52,0.971-0.779,1.709-0.779c0.347,0,0.665,0.073,0.957,0.219v-0.725c-1.641,0.082-3.541,0.201-5.701,0.355v-1.764
			c1.395-0.027,3.003-0.091,4.826-0.191l0.889-0.041v-1.887h1.873c-0.055,0.301-0.091,0.898-0.109,1.791
			c1.759-0.073,3.213-0.109,4.361-0.109V78.008z M272.227,80.852c-0.173-0.474-0.405-0.711-0.697-0.711
			c-0.364,0-0.638,0.128-0.82,0.383c-0.191,0.219-0.287,0.511-0.287,0.875c0,0.292,0.077,0.547,0.232,0.766
			c0.164,0.273,0.383,0.42,0.656,0.438c0.328-0.009,0.565-0.219,0.711-0.629C272.104,81.772,272.172,81.398,272.227,80.852z"/>
	</g>
	<g>
		<g>
			<g>
				<path fill="#FFFFFF" d="M196.4,73.789h10.609v8.75c0.063,1.668-0.06,2.661-0.369,2.98c-0.237,0.328-0.948,0.556-2.133,0.684
					c-0.019-0.483-0.205-1.035-0.561-1.654h1.148c0.228-0.009,0.323-0.154,0.287-0.438v-8.859H198v3.842
					c0,1.468-0.142,2.821-0.424,4.061c-0.237,1.131-0.666,2.164-1.285,3.104c-0.283-0.684-0.684-1.217-1.203-1.6
					c0.829-1.23,1.267-3.085,1.313-5.564V73.789z M198.643,76.4h2.037v-0.916h1.682V76.4h2.42v1.381h-2.42v0.916h2.734v1.381h-6.836
					v-1.381h2.42v-0.916h-2.037V76.4z M198.643,80.68h5.701v3.555h-4.102v0.82h-1.6V80.68z M200.242,82.908h2.557v-0.916h-2.557
					V82.908z"/>
			</g>
			<g>
				<path fill="#FFFFFF" d="M209.307,78.438h3.131v4.676c0.373,0.319,0.742,0.547,1.107,0.684c0.602,0.229,1.33,0.374,2.188,0.438
					h6.316c-0.319,0.502-0.502,1.025-0.547,1.572h-5.77c-1.632-0.101-2.912-0.588-3.842-1.463l-1.982,1.914l-0.971-1.654
					l1.914-1.299V80.01h-1.545V78.438z M210.688,73.611c0.82,0.41,1.526,0.907,2.119,1.49l-0.861,1.299
					c-0.721-0.602-1.436-1.107-2.146-1.518L210.688,73.611z M213.203,73.994h8.039c0,3.674-0.101,6.244-0.301,7.711
					c-0.092,0.647-0.297,1.099-0.615,1.354c-0.283,0.237-0.998,0.41-2.146,0.52c0-0.51-0.183-1.057-0.547-1.641h1.203
					c0.236,0,0.383-0.191,0.438-0.574c0.146-1.084,0.219-3.025,0.219-5.824h-2.461c-0.064,2.188-0.333,3.855-0.807,5.004
					c-0.438,1.131-1.213,2.102-2.324,2.912c-0.256-0.52-0.62-1.007-1.094-1.463c0.92-0.629,1.581-1.417,1.982-2.365
					c0.328-0.774,0.506-2.137,0.533-4.088h-2.119V73.994z"/>
			</g>
			<g>
				<path fill="#FFFFFF" d="M235.078,79.701c-1.723,0.438-3.081,0.834-4.074,1.189v1.914h-1.75v-1.299
					c-1.276,0.547-1.914,1.058-1.914,1.531c0,0.639,0.852,0.962,2.557,0.971c1.668,0.01,2.998-0.077,3.992-0.26v1.791
					c-1.23,0.109-2.233,0.164-3.008,0.164c-3.5-0.037-5.25-0.857-5.25-2.461c0-0.802,0.4-1.494,1.203-2.078
					c0.547-0.383,1.354-0.82,2.42-1.313c0-0.501-0.201-0.752-0.602-0.752c-0.666,0-1.304,0.251-1.914,0.752
					c-0.547,0.447-1.24,1.162-2.078,2.146l-1.203-1.203c1.185-0.966,2.311-2.205,3.377-3.719h-2.119v-1.682
					c0.875,0.082,1.472,0.123,1.791,0.123c0.564,0,1.002-0.022,1.313-0.068c0.346-0.674,0.656-1.349,0.93-2.023l1.805,0.711
					c-0.265,0.374-0.497,0.771-0.697,1.189c0.957-0.063,1.95-0.237,2.98-0.52l0.068,1.668c-1.678,0.301-3.063,0.47-4.156,0.506
					c-0.219,0.292-0.438,0.639-0.656,1.039c0.337-0.182,0.665-0.273,0.984-0.273c1.029,0,1.631,0.502,1.805,1.504
					c1.166-0.428,2.388-0.838,3.664-1.23L235.078,79.701z"/>
			</g>
			<g>
				<path fill="#FFFFFF" d="M239.18,73.734h8.518v7.916h-1.955v2.639c0,0.174,0.068,0.26,0.205,0.26h1.914
					c0.228,0,0.369-0.173,0.424-0.52c0.027-0.209,0.068-0.506,0.123-0.889c0.501,0.347,1.048,0.584,1.641,0.711
					c0,0.246-0.101,0.598-0.301,1.053c-0.183,0.4-0.396,0.674-0.643,0.82c-0.255,0.137-0.524,0.205-0.807,0.205h-2.994
					c-0.419,0-0.733-0.073-0.943-0.219c-0.173-0.146-0.26-0.42-0.26-0.82v-3.24h-1.545c-0.155,1.322-0.538,2.242-1.148,2.762
					c-0.812,0.747-2.015,1.289-3.609,1.627c-0.137-0.565-0.405-1.076-0.807-1.531c1.386-0.236,2.379-0.602,2.98-1.094
					c0.456-0.364,0.747-0.952,0.875-1.764h-1.668V73.734z M240.93,75.977h4.977v-0.93h-4.977V75.977z M240.93,78.096h4.977V77.18
					h-4.977V78.096z M245.906,80.352v-1.053h-4.977v1.053H245.906z"/>
			</g>
			<g>
				<path fill="#FFFFFF" d="M261.383,85.15h-7.834v0.834h-1.695V74.158h11.225V85.93h-1.695V85.15z M261.383,75.689h-7.834v7.998
					h7.834V75.689z M258.539,81.992h-2.352v0.766h-1.586v-5.701h5.51v5.482h-1.572V81.992z M258.539,78.492h-2.352v2.119h2.352
					V78.492z"/>
			</g>
			<g>
				<path fill="#FFFFFF" d="M277.406,77.008c-1.13,0-2.593,0.027-4.389,0.082c-0.019,0.538-0.027,1.44-0.027,2.707
					c0,0.229-0.022,0.447-0.068,0.656c0.109,0.574,0.164,1.09,0.164,1.545c-0.009,1.14-0.538,2.078-1.586,2.816
					c-0.729,0.492-1.728,0.916-2.994,1.271c-0.292-0.748-0.615-1.316-0.971-1.709c1.923-0.2,3.14-0.742,3.65-1.627
					c-0.292,0.109-0.583,0.16-0.875,0.15c-0.72-0.009-1.285-0.246-1.695-0.711c-0.429-0.455-0.643-1.053-0.643-1.791
					c0-0.802,0.21-1.449,0.629-1.941c0.401-0.52,0.971-0.779,1.709-0.779c0.347,0,0.665,0.073,0.957,0.219v-0.725
					c-1.641,0.082-3.541,0.201-5.701,0.355v-1.764c1.395-0.027,3.003-0.091,4.826-0.191l0.889-0.041v-1.887h1.873
					c-0.055,0.301-0.091,0.898-0.109,1.791c1.759-0.073,3.213-0.109,4.361-0.109V77.008z M271.227,79.852
					c-0.173-0.474-0.405-0.711-0.697-0.711c-0.364,0-0.638,0.128-0.82,0.383c-0.191,0.219-0.287,0.511-0.287,0.875
					c0,0.292,0.077,0.547,0.232,0.766c0.164,0.273,0.383,0.42,0.656,0.438c0.328-0.009,0.565-0.219,0.711-0.629
					C271.104,80.772,271.172,80.398,271.227,79.852z"/>
			</g>
		</g>
	</g>
</g>
<g>
	<g opacity="0.3">
		<rect x="195" y="120.75" width="47.5" height="20"/>
	</g>
	<g>
		<rect x="194" y="119.75" fill="#FFFFFF" width="47.5" height="20"/>
	</g>
</g>
<g>
	<path d="M213.857,134.672h-7.424v-9.939h7.191v1.695h-5.318v2.352h4.088v1.627h-4.088v2.639h5.551V134.672z"/>
	<path d="M221.268,132.867c-0.055,0.574-0.333,1.058-0.834,1.449c-0.511,0.383-1.213,0.574-2.105,0.574
		c-0.82,0-1.495-0.2-2.023-0.602c-0.593-0.438-0.921-1.053-0.984-1.846h1.9c0.027,0.656,0.41,0.998,1.148,1.025
		c0.328-0.027,0.605-0.096,0.834-0.205c0.137-0.146,0.219-0.314,0.246-0.506c-0.037-0.31-0.201-0.547-0.492-0.711l-2.064-1.08
		c-0.839-0.446-1.258-0.993-1.258-1.641c0-0.656,0.296-1.18,0.889-1.572c0.52-0.337,1.121-0.506,1.805-0.506
		c0.711,0,1.326,0.169,1.846,0.506c0.547,0.328,0.875,0.885,0.984,1.668h-1.764c-0.174-0.528-0.479-0.793-0.916-0.793
		c-0.684,0-1.025,0.232-1.025,0.697c0,0.219,0.154,0.42,0.465,0.602l2.242,1.244C220.844,131.555,221.213,132.12,221.268,132.867z"
		/>
	<path d="M229.49,132.389c-0.119,0.711-0.41,1.295-0.875,1.75c-0.529,0.511-1.249,0.761-2.16,0.752
		c-1.167-0.019-2.074-0.383-2.721-1.094c-0.62-0.674-0.93-1.604-0.93-2.789c0-1.111,0.355-2.051,1.066-2.816
		c0.592-0.629,1.376-0.943,2.352-0.943c0.902,0,1.645,0.242,2.229,0.725c0.583,0.475,0.897,1.039,0.943,1.695h-1.914
		c-0.146-0.665-0.547-0.998-1.203-0.998c-0.456,0-0.834,0.188-1.135,0.561c-0.338,0.393-0.506,1.008-0.506,1.846
		c0,0.757,0.141,1.326,0.424,1.709c0.282,0.383,0.72,0.593,1.313,0.629c0.674-0.036,1.075-0.378,1.203-1.025H229.49z"/>
</g>
<g>
	<g opacity="0.3">
		<path d="M257.078,135.625l-2.113-9.437h2.029l0.672,4.074c0.168,1.008,0.364,2.17,0.49,3.276h0.027
			c0.127-1.121,0.281-2.254,0.449-3.318l0.644-4.032h2.016l-2.155,9.437H257.078z"/>
		<path d="M262.09,126.328c0.574-0.111,1.303-0.182,2.002-0.182c1.008,0,1.904,0.141,2.521,0.7c0.574,0.519,0.742,1.147,0.742,1.96
			c0,1.008-0.49,1.918-1.456,2.365v0.029c0.645,0.252,0.966,0.854,1.148,1.861c0.182,1.05,0.434,2.212,0.602,2.563h-1.918
			c-0.112-0.267-0.322-1.219-0.463-2.254c-0.168-1.177-0.461-1.513-1.077-1.513h-0.267v3.767h-1.834V126.328z M263.924,130.444
			h0.322c0.799,0,1.26-0.644,1.26-1.47c0-0.798-0.322-1.372-1.147-1.4c-0.154,0-0.336,0.014-0.435,0.057V130.444z"/>
		<path d="M274.283,131.412h-2.68v3.213c0,0.292,0.224,0.438,0.67,0.438c0.42,0,0.976-0.018,1.668-0.055v1.695
			c-0.93,0.037-1.472,0.055-1.627,0.055c-0.774,0-1.321-0.082-1.641-0.246c-0.465-0.246-0.697-0.711-0.697-1.395v-3.705h-1.736
			v-1.518h1.736v-2.611h-1.094v-1.531h4.799v1.531h-2.078v2.611h2.68V131.412z"/>
		<path d="M281.119,131.568h-5.564v-1.518h5.564V131.568z"/>
		<path d="M288.488,131.412l-1.08,1.313c-0.674-0.756-1.398-1.467-2.174-2.133v6.33h-1.641v-11.936h1.641v3.596
			C286.256,129.266,287.34,130.209,288.488,131.412z"/>
		<path d="M290.785,126.387l-0.656,0.656c-0.41-0.528-0.807-1.034-1.189-1.518l0.643-0.656
			C289.975,125.298,290.375,125.804,290.785,126.387z M291.742,125.402l-0.656,0.656c-0.282-0.446-0.679-0.943-1.189-1.49
			l0.643-0.643C290.995,124.382,291.396,124.874,291.742,125.402z"/>
		<path d="M297.006,132.656l1.409,0.26c-0.164,1.131-0.434,2.297-0.807,3.5c-0.493-0.246-0.967-0.405-1.423-0.479
			C296.523,134.98,296.797,133.887,297.006,132.656z M298.415,124.234l1.381,0.766c-0.374,0.885-0.803,1.764-1.285,2.639
			c0.154,0.128,0.305,0.256,0.451,0.383c0.373-0.711,0.72-1.449,1.039-2.215l1.436,0.779c-0.702,1.35-1.504,2.685-2.406,4.006
			c0.373-0.036,0.761-0.068,1.162-0.096c-0.109-0.264-0.224-0.528-0.342-0.793l1.299-0.451c0.383,0.684,0.72,1.449,1.012,2.297
			c0.692-0.438,1.395-0.998,2.105-1.682c-0.301-0.373-0.62-0.797-0.957-1.271c-0.246,0.338-0.511,0.67-0.793,0.998
			c-0.347-0.419-0.816-0.802-1.408-1.148c1.294-1.185,2.224-2.588,2.789-4.211l1.518,0.711c-0.119,0.292-0.246,0.579-0.383,0.861
			h2.461l0.273-0.15l1.053,0.93c-0.839,1.276-1.623,2.343-2.352,3.199c0.848,0.602,1.923,1.158,3.227,1.668
			c-0.438,0.429-0.748,0.939-0.93,1.531c-1.495-0.684-2.635-1.349-3.418-1.996c-0.902,0.902-1.933,1.728-3.09,2.475
			c-0.109-0.4-0.406-0.889-0.889-1.463c0.091-0.045,0.173-0.091,0.246-0.137l-0.848,0.287c-0.046-0.146-0.092-0.296-0.137-0.451
			c-0.219,0.037-0.442,0.073-0.67,0.109v5.441h-1.545v-5.223c-0.584,0.073-1.186,0.133-1.806,0.178l-0.205-1.463
			c0.311-0.009,0.629-0.022,0.957-0.041c0.302-0.438,0.589-0.893,0.862-1.367c-0.584-0.492-1.245-0.934-1.983-1.326l0.711-1.367
			c0.137,0.064,0.278,0.137,0.424,0.219C297.768,126.049,298.114,125.174,298.415,124.234z M301.313,132.656
			c0.127,0.957,0.369,1.851,0.725,2.68l-1.381,0.328c-0.301-0.92-0.533-1.836-0.697-2.748L301.313,132.656z M302.585,134.242
			c0.802,0.109,1.727,0.301,2.775,0.574c1.13,0.283,2.174,0.639,3.131,1.066l-0.834,1.531c-1.021-0.465-2.006-0.811-2.953-1.039
			c-0.711-0.219-1.509-0.405-2.393-0.561L302.585,134.242z M304.608,131.713c0.848,0.283,1.663,0.684,2.447,1.203l-0.643,1.381
			c-0.702-0.455-1.541-0.856-2.516-1.203L304.608,131.713z M304.212,127.256c0.346,0.593,0.711,1.104,1.094,1.531
			c0.465-0.51,0.865-1.043,1.203-1.6h-2.242C304.248,127.215,304.229,127.238,304.212,127.256z"/>
		<path d="M311.048,125.15h10.336l0.123-0.055l1.203,1.107c-0.61,0.584-1.181,1.058-1.709,1.422
			c-0.61,0.483-1.176,0.889-1.695,1.217c-0.392,0.273-0.938,0.593-1.641,0.957v5.756c0,0.702-0.187,1.135-0.561,1.299
			c-0.31,0.191-1.066,0.287-2.27,0.287c-0.046-0.492-0.21-1.057-0.492-1.695h1.518c0.073,0,0.109-0.096,0.109-0.287v-6.891h1.326
			c0.474-0.291,0.957-0.633,1.449-1.025c0.246-0.182,0.465-0.346,0.656-0.492h-8.354V125.15z"/>
	</g>
	<g>
		<g>
			<g>
				<path fill="#FFFFFF" d="M256.078,134.625l-2.113-9.437h2.029l0.672,4.074c0.168,1.008,0.364,2.17,0.49,3.276h0.027
					c0.127-1.121,0.281-2.254,0.449-3.318l0.644-4.032h2.016l-2.155,9.437H256.078z"/>
			</g>
			<g>
				<path fill="#FFFFFF" d="M261.09,125.328c0.574-0.111,1.303-0.182,2.002-0.182c1.008,0,1.904,0.141,2.521,0.7
					c0.574,0.519,0.742,1.147,0.742,1.96c0,1.008-0.49,1.918-1.456,2.365v0.029c0.645,0.252,0.966,0.854,1.148,1.861
					c0.182,1.05,0.434,2.212,0.602,2.563h-1.918c-0.112-0.267-0.322-1.219-0.463-2.254c-0.168-1.177-0.461-1.513-1.077-1.513h-0.267
					v3.767h-1.834V125.328z M262.924,129.444h0.322c0.799,0,1.26-0.644,1.26-1.47c0-0.798-0.322-1.372-1.147-1.4
					c-0.154,0-0.336,0.014-0.435,0.057V129.444z"/>
			</g>
			<g>
				<path fill="#FFFFFF" d="M273.283,130.412h-2.68v3.213c0,0.292,0.224,0.438,0.67,0.438c0.42,0,0.976-0.018,1.668-0.055v1.695
					c-0.93,0.037-1.472,0.055-1.627,0.055c-0.774,0-1.321-0.082-1.641-0.246c-0.465-0.246-0.697-0.711-0.697-1.395v-3.705h-1.736
					v-1.518h1.736v-2.611h-1.094v-1.531h4.799v1.531h-2.078v2.611h2.68V130.412z"/>
			</g>
			<g>
				<path fill="#FFFFFF" d="M280.119,130.568h-5.564v-1.518h5.564V130.568z"/>
			</g>
			<g>
				<path fill="#FFFFFF" d="M287.488,130.412l-1.08,1.313c-0.674-0.756-1.398-1.467-2.174-2.133v6.33h-1.641v-11.936h1.641v3.596
					C285.256,128.266,286.34,129.209,287.488,130.412z"/>
			</g>
			<g>
				<path fill="#FFFFFF" d="M289.785,125.387l-0.656,0.656c-0.41-0.528-0.807-1.034-1.189-1.518l0.643-0.656
					C288.975,124.298,289.375,124.804,289.785,125.387z M290.742,124.402l-0.656,0.656c-0.282-0.446-0.679-0.943-1.189-1.49
					l0.643-0.643C289.995,123.382,290.396,123.874,290.742,124.402z"/>
			</g>
			<g>
				<path fill="#FFFFFF" d="M296.006,131.656l1.409,0.26c-0.164,1.131-0.434,2.297-0.807,3.5c-0.493-0.246-0.967-0.405-1.423-0.479
					C295.523,133.98,295.797,132.887,296.006,131.656z M297.415,123.234l1.381,0.766c-0.374,0.885-0.803,1.764-1.285,2.639
					c0.154,0.128,0.305,0.256,0.451,0.383c0.373-0.711,0.72-1.449,1.039-2.215l1.436,0.779c-0.702,1.35-1.504,2.685-2.406,4.006
					c0.373-0.036,0.761-0.068,1.162-0.096c-0.109-0.264-0.224-0.528-0.342-0.793l1.299-0.451c0.383,0.684,0.72,1.449,1.012,2.297
					c0.692-0.438,1.395-0.998,2.105-1.682c-0.301-0.373-0.62-0.797-0.957-1.271c-0.246,0.338-0.511,0.67-0.793,0.998
					c-0.347-0.419-0.816-0.802-1.408-1.148c1.294-1.185,2.224-2.588,2.789-4.211l1.518,0.711c-0.119,0.292-0.246,0.579-0.383,0.861
					h2.461l0.273-0.15l1.053,0.93c-0.839,1.276-1.623,2.343-2.352,3.199c0.848,0.602,1.923,1.158,3.227,1.668
					c-0.438,0.429-0.748,0.939-0.93,1.531c-1.495-0.684-2.635-1.349-3.418-1.996c-0.902,0.902-1.933,1.728-3.09,2.475
					c-0.109-0.4-0.406-0.889-0.889-1.463c0.091-0.045,0.173-0.091,0.246-0.137l-0.848,0.287c-0.046-0.146-0.092-0.296-0.137-0.451
					c-0.219,0.037-0.442,0.073-0.67,0.109v5.441h-1.545v-5.223c-0.584,0.073-1.186,0.133-1.806,0.178l-0.205-1.463
					c0.311-0.009,0.629-0.022,0.957-0.041c0.302-0.438,0.589-0.893,0.862-1.367c-0.584-0.492-1.245-0.934-1.983-1.326l0.711-1.367
					c0.137,0.064,0.278,0.137,0.424,0.219C296.768,125.049,297.114,124.174,297.415,123.234z M300.313,131.656
					c0.127,0.957,0.369,1.851,0.725,2.68l-1.381,0.328c-0.301-0.92-0.533-1.836-0.697-2.748L300.313,131.656z M301.585,133.242
					c0.802,0.109,1.727,0.301,2.775,0.574c1.13,0.283,2.174,0.639,3.131,1.066l-0.834,1.531c-1.021-0.465-2.006-0.811-2.953-1.039
					c-0.711-0.219-1.509-0.405-2.393-0.561L301.585,133.242z M303.608,130.713c0.848,0.283,1.663,0.684,2.447,1.203l-0.643,1.381
					c-0.702-0.455-1.541-0.856-2.516-1.203L303.608,130.713z M303.212,126.256c0.346,0.593,0.711,1.104,1.094,1.531
					c0.465-0.51,0.865-1.043,1.203-1.6h-2.242C303.248,126.215,303.229,126.238,303.212,126.256z"/>
			</g>
			<g>
				<path fill="#FFFFFF" d="M310.048,124.15h10.336l0.123-0.055l1.203,1.107c-0.61,0.584-1.181,1.058-1.709,1.422
					c-0.61,0.483-1.176,0.889-1.695,1.217c-0.392,0.273-0.938,0.593-1.641,0.957v5.756c0,0.702-0.187,1.135-0.561,1.299
					c-0.31,0.191-1.066,0.287-2.27,0.287c-0.046-0.492-0.21-1.057-0.492-1.695h1.518c0.073,0,0.109-0.096,0.109-0.287v-6.891h1.326
					c0.474-0.291,0.957-0.633,1.449-1.025c0.246-0.182,0.465-0.346,0.656-0.492h-8.354V124.15z"/>
			</g>
		</g>
	</g>
</g>
</svg>
