<?xml version="1.0" encoding="utf-8"?>
<!-- Generator: Adobe Illustrator 12.0.0, SVG Export Plug-In . SVG Version: 6.00 Build 51448)  -->
<!DOCTYPE svg PUBLIC "-//W3C//DTD SVG 1.1//EN" "http://www.w3.org/Graphics/SVG/1.1/DTD/svg11.dtd" [
	<!ENTITY ns_svg "http://www.w3.org/2000/svg">
	<!ENTITY ns_xlink "http://www.w3.org/1999/xlink">
]>
<svg  version="1.1" id="レイヤー_1" xmlns="&ns_svg;" xmlns:xlink="&ns_xlink;" width="339" height="129" viewBox="0 0 339 129"
	 overflow="visible" enable-background="new 0 0 339 129" xml:space="preserve">
<g>
	<g opacity="0.3">
		<rect x="2.5" y="2.5" fill="none" stroke="#000000" stroke-width="3" width="335" height="125"/>
	</g>
	<g>
		<rect x="1.5" y="1.5" fill="none" stroke="#FFFFFF" stroke-width="3" width="335" height="125"/>
	</g>
</g>
<g>
	<g opacity="0.3">
		<path d="M13.633,15.273H17.5v-1.781h3v1.781h5.906v-1.781H29.5v1.781h3.844v2.25H29.5v6.211h4.688v2.063h-4.547
			c0.344,0.328,0.68,0.648,1.008,0.961c0.953,0.891,2.313,1.781,4.078,2.672c-0.609,0.766-1.07,1.617-1.383,2.555
			c-1-0.469-2.125-1.234-3.375-2.297c-0.313-0.25-0.625-0.516-0.938-0.797v1.781h-4.055v1.406h7.617v2.25H14.852v-2.25h7.031v-1.406
			H18.25v-1.875c-1.406,1.344-2.945,2.438-4.617,3.281c-0.203-0.734-0.633-1.516-1.289-2.344c1.984-1.094,3.68-2.406,5.086-3.938
			h-4.547v-2.063H17.5v-6.211h-3.867V15.273z M18.531,28.492h3.352v-1.57h3.094v1.57h3.633c-0.781-0.734-1.633-1.633-2.555-2.695
			h-5.18C20.141,26.781,19.359,27.68,18.531,28.492z M20.5,18.461h5.906v-0.938H20.5V18.461z M20.5,21.109h5.906v-0.938H20.5V21.109
			z M20.5,23.734h5.906v-0.938H20.5V23.734z"/>
		<path d="M36.883,17.148h9v-4.031h3v4.031h9.305v2.742h-8.109c1.344,2.031,2.617,3.672,3.82,4.922
			c1.531,1.641,3.273,3.031,5.227,4.172c-1.031,0.781-1.758,1.648-2.18,2.602c-1.422-0.969-2.695-2.023-3.82-3.164v2.25h-4.242
			v4.406h-3v-4.406H41.57v-2.414c-1.219,1.25-2.5,2.398-3.844,3.445c-0.438-1.031-0.961-1.938-1.57-2.719
			c3.641-2.688,6.492-5.719,8.555-9.094h-7.828V17.148z M41.875,27.953h4.008v-4.852C44.617,24.867,43.281,26.484,41.875,27.953z
			 M48.883,27.953h3.75c-0.234-0.266-0.469-0.523-0.703-0.773c-1.063-1.25-2.078-2.625-3.047-4.125V27.953z"/>
		<path d="M60.508,17.523h2.25v-4.219h2.648v4.219h1.781v2.719h-1.781v2.508c0.578-0.203,1.172-0.406,1.781-0.609v2.531
			l-1.781,0.656v7.102c0,1.047-0.281,1.695-0.844,1.945c-0.469,0.281-1.563,0.422-3.281,0.422c-0.047-0.719-0.305-1.563-0.773-2.531
			h2.156c0.063,0,0.094-0.156,0.094-0.469v-5.461l-1.969,0.773l-0.539-3c0.766-0.141,1.602-0.344,2.508-0.609v-3.258h-2.25V17.523z
			 M67.633,19.984h6v5.156h1.711v-5.156h6.375v5.156h-5.836v1.102h6.211v2.344h-4.922c1.781,1.297,3.734,2.398,5.859,3.305
			c-0.859,0.766-1.453,1.578-1.781,2.438c-1.359-0.703-2.547-1.445-3.563-2.227c-0.641-0.438-1.242-0.891-1.805-1.359v4.148h-2.789
			v-4.242c-0.484,0.422-0.953,0.797-1.406,1.125c-1.438,1.031-2.906,1.883-4.406,2.555c-0.203-0.875-0.648-1.719-1.336-2.531
			c1.813-0.641,3.688-1.711,5.625-3.211h-4.383v-2.344h5.906v-1.102h-5.461V19.984z M69.25,13.586h10.406v5.555H69.25V13.586z
			 M71.406,23.172v-1.313h-1.523v1.313H71.406z M76.914,17.078v-1.406h-4.969v1.406H76.914z M79.375,23.172v-1.313h-1.711v1.313
			H79.375z"/>
		<path d="M89.313,12.969L92.406,14c-0.688,1.594-1.406,3.125-2.156,4.594v4.008c2.219-2.266,3.969-5.477,5.25-9.633l2.906,0.844
			c-0.406,1.172-0.836,2.289-1.289,3.352h9.164v2.742h-6.656v2.156h5.32v2.625h-5.32v2.156h5.719v2.602h-5.719V35h-3.094V19.906
			h-0.75c-1.109,2.047-2.359,3.797-3.75,5.25c-0.484-0.781-1.078-1.461-1.781-2.039v11.789h-3V23.82
			c-0.641,0.984-1.297,1.93-1.969,2.836c-0.266-1.422-0.609-2.609-1.031-3.563C85.953,20.797,87.641,17.422,89.313,12.969z"/>
	</g>
	<g>
		<g>
			<g>
				<path fill="#FFFFFF" d="M12.633,14.273H16.5v-1.781h3v1.781h5.906v-1.781H28.5v1.781h3.844v2.25H28.5v6.211h4.688v2.063h-4.547
					c0.344,0.328,0.68,0.648,1.008,0.961c0.953,0.891,2.313,1.781,4.078,2.672c-0.609,0.766-1.07,1.617-1.383,2.555
					c-1-0.469-2.125-1.234-3.375-2.297c-0.313-0.25-0.625-0.516-0.938-0.797v1.781h-4.055v1.406h7.617v2.25H13.852v-2.25h7.031
					v-1.406H17.25v-1.875c-1.406,1.344-2.945,2.438-4.617,3.281c-0.203-0.734-0.633-1.516-1.289-2.344
					c1.984-1.094,3.68-2.406,5.086-3.938h-4.547v-2.063H16.5v-6.211h-3.867V14.273z M17.531,27.492h3.352v-1.57h3.094v1.57h3.633
					c-0.781-0.734-1.633-1.633-2.555-2.695h-5.18C19.141,25.781,18.359,26.68,17.531,27.492z M19.5,17.461h5.906v-0.938H19.5V17.461
					z M19.5,20.109h5.906v-0.938H19.5V20.109z M19.5,22.734h5.906v-0.938H19.5V22.734z"/>
			</g>
			<g>
				<path fill="#FFFFFF" d="M35.883,16.148h9v-4.031h3v4.031h9.305v2.742h-8.109c1.344,2.031,2.617,3.672,3.82,4.922
					c1.531,1.641,3.273,3.031,5.227,4.172c-1.031,0.781-1.758,1.648-2.18,2.602c-1.422-0.969-2.695-2.023-3.82-3.164v2.25h-4.242
					v4.406h-3v-4.406H40.57v-2.414c-1.219,1.25-2.5,2.398-3.844,3.445c-0.438-1.031-0.961-1.938-1.57-2.719
					c3.641-2.688,6.492-5.719,8.555-9.094h-7.828V16.148z M40.875,26.953h4.008v-4.852C43.617,23.867,42.281,25.484,40.875,26.953z
					 M47.883,26.953h3.75c-0.234-0.266-0.469-0.523-0.703-0.773c-1.063-1.25-2.078-2.625-3.047-4.125V26.953z"/>
			</g>
			<g>
				<path fill="#FFFFFF" d="M59.508,16.523h2.25v-4.219h2.648v4.219h1.781v2.719h-1.781v2.508c0.578-0.203,1.172-0.406,1.781-0.609
					v2.531l-1.781,0.656v7.102c0,1.047-0.281,1.695-0.844,1.945c-0.469,0.281-1.563,0.422-3.281,0.422
					c-0.047-0.719-0.305-1.563-0.773-2.531h2.156c0.063,0,0.094-0.156,0.094-0.469v-5.461l-1.969,0.773l-0.539-3
					c0.766-0.141,1.602-0.344,2.508-0.609v-3.258h-2.25V16.523z M66.633,18.984h6v5.156h1.711v-5.156h6.375v5.156h-5.836v1.102
					h6.211v2.344h-4.922c1.781,1.297,3.734,2.398,5.859,3.305c-0.859,0.766-1.453,1.578-1.781,2.438
					c-1.359-0.703-2.547-1.445-3.563-2.227c-0.641-0.438-1.242-0.891-1.805-1.359v4.148h-2.789v-4.242
					c-0.484,0.422-0.953,0.797-1.406,1.125c-1.438,1.031-2.906,1.883-4.406,2.555c-0.203-0.875-0.648-1.719-1.336-2.531
					c1.813-0.641,3.688-1.711,5.625-3.211h-4.383v-2.344h5.906v-1.102h-5.461V18.984z M68.25,12.586h10.406v5.555H68.25V12.586z
					 M70.406,22.172v-1.313h-1.523v1.313H70.406z M75.914,16.078v-1.406h-4.969v1.406H75.914z M78.375,22.172v-1.313h-1.711v1.313
					H78.375z"/>
			</g>
			<g>
				<path fill="#FFFFFF" d="M88.313,11.969L91.406,13c-0.688,1.594-1.406,3.125-2.156,4.594v4.008
					c2.219-2.266,3.969-5.477,5.25-9.633l2.906,0.844c-0.406,1.172-0.836,2.289-1.289,3.352h9.164v2.742h-6.656v2.156h5.32v2.625
					h-5.32v2.156h5.719v2.602h-5.719V34h-3.094V18.906h-0.75c-1.109,2.047-2.359,3.797-3.75,5.25
					c-0.484-0.781-1.078-1.461-1.781-2.039v11.789h-3V22.82c-0.641,0.984-1.297,1.93-1.969,2.836
					c-0.266-1.422-0.609-2.609-1.031-3.563C84.953,19.797,86.641,16.422,88.313,11.969z"/>
			</g>
		</g>
	</g>
</g>
<g>
	<g opacity="0.3">
		<rect x="12.5" y="46.75" width="100" height="20"/>
	</g>
	<g>
		<rect x="11.5" y="45.75" fill="#FFFFFF" width="100" height="20"/>
	</g>
</g>
<g>
	<path d="M46.352,60.273l-1.586,1.217c-1.249-1.795-2.488-3.231-3.719-4.307c-1.869,1.951-3.751,3.327-5.646,4.129
		c-0.082-0.164-0.214-0.433-0.396-0.807c-0.164-0.209-0.438-0.483-0.82-0.82c3.354-1.221,5.961-3.6,7.82-7.137h-6.166v-1.75h7.232
		l0.232-0.096l1.203,1.313c-0.164,0.164-0.314,0.392-0.451,0.684c-0.656,1.24-1.276,2.256-1.859,3.049
		C43.708,56.988,45.094,58.496,46.352,60.273z"/>
	<path d="M59.49,50.703c-0.082,3.117-0.725,5.528-1.928,7.232c-0.711,1.012-1.495,1.791-2.352,2.338
		c-1.076,0.72-2.033,1.208-2.871,1.463c-0.146-0.41-0.287-0.72-0.424-0.93s-0.365-0.469-0.684-0.779
		c2.251-0.72,3.814-1.709,4.689-2.967c0.419-0.556,0.711-1.112,0.875-1.668c0.301-0.966,0.501-1.946,0.602-2.939h-5.92v3.691h-1.914
		v-5.441H59.49z"/>
	<path d="M73.135,50.736c-1.103,1.185-2.174,2.201-3.213,3.049v7.861H67.98v-6.344c-1.586,1.148-3.19,2.064-4.813,2.748
		c-0.21-0.692-0.556-1.239-1.039-1.641c3.545-1.431,6.69-3.76,9.434-6.986L73.135,50.736z"/>
	<path d="M87.094,52.199c-0.164,0.283-0.273,0.574-0.328,0.875c-1.404,4.503-4.257,7.378-8.559,8.627
		c-0.119-0.492-0.21-0.802-0.273-0.93c-0.082-0.191-0.283-0.483-0.602-0.875c3.792-0.993,6.28-3.322,7.465-6.986h-8.012v-1.791
		h8.832l0.178-0.109L87.094,52.199z M89.336,50.299c0,0.447-0.146,0.83-0.438,1.148c-0.265,0.292-0.647,0.438-1.148,0.438
		c-0.465,0-0.848-0.141-1.148-0.424c-0.292-0.282-0.438-0.651-0.438-1.107c0-0.483,0.164-0.884,0.492-1.203
		c0.301-0.292,0.647-0.438,1.039-0.438c0.492,0,0.889,0.142,1.189,0.424C89.186,49.419,89.336,49.807,89.336,50.299z M88.461,50.299
		c0-0.474-0.237-0.711-0.711-0.711c-0.246,0-0.41,0.055-0.492,0.164c-0.146,0.137-0.219,0.319-0.219,0.547
		c0,0.191,0.073,0.374,0.219,0.547c0.1,0.109,0.282,0.164,0.547,0.164c0.2,0,0.36-0.059,0.479-0.178
		C88.401,50.677,88.461,50.5,88.461,50.299z"/>
</g>
<g>
	<g opacity="0.3">
		<path d="M138.297,57.289h-6.289v2.516c0,0.401,0.196,0.656,0.588,0.766c0.173,0.046,0.547,0.068,1.121,0.068h3.828v1.777h-3.623
			c-1.695,0-2.785-0.178-3.268-0.533c-0.319-0.255-0.479-0.715-0.479-1.381v-3.213h-3.719v-1.668h3.719V53.27h-2.461v-1.75h8.832
			v1.75h-4.539v2.352h6.289V57.289z"/>
		<path d="M152.406,56.25h-4.854c-0.164,1.723-0.36,2.853-0.588,3.391c-0.656,1.486-2.206,2.67-4.648,3.555
			c-0.091-0.255-0.219-0.57-0.383-0.943c-0.091-0.191-0.31-0.483-0.656-0.875c2.005-0.52,3.235-1.276,3.691-2.27
			c0.319-0.692,0.506-1.645,0.561-2.857h-5.236v-1.736h12.113V56.25z M150.055,53.119h-7.738v-1.818h7.738V53.119z M152.297,52.395
			l-0.807,0.725c-0.447-0.592-0.912-1.125-1.395-1.6l0.793-0.656C151.444,51.401,151.914,51.912,152.297,52.395z M153.336,51.301
			l-0.82,0.779c-0.492-0.574-0.984-1.089-1.477-1.545l0.82-0.711C152.352,50.216,152.844,50.708,153.336,51.301z"/>
		<path d="M158.818,52.121c-0.109,3.063-0.214,4.876-0.314,5.441c-0.392,2.124-1.595,3.855-3.609,5.195
			c-0.146-0.383-0.269-0.656-0.369-0.82c-0.064-0.055-0.324-0.323-0.779-0.807c1.686-0.948,2.688-2.256,3.008-3.924
			c0.146-0.766,0.219-2.461,0.219-5.086H158.818z M167.227,56.756c-1.012,1.723-2.935,3.578-5.77,5.564l-1.162-1.258l0.123-0.164
			v-9.762h1.9v8.299c1.395-1.066,2.557-2.36,3.486-3.883C166.26,56.036,166.734,56.437,167.227,56.756z"/>
		<path d="M180.406,56.818c0,1.859-0.802,3.368-2.406,4.525c-0.647,0.465-1.741,0.884-3.281,1.258
			c-0.128-0.729-0.374-1.313-0.738-1.75c1.513-0.2,2.644-0.661,3.391-1.381c0.757-0.711,1.135-1.613,1.135-2.707
			c0-1.258-0.401-2.206-1.203-2.844c-0.528-0.401-1.203-0.651-2.023-0.752c-0.374,2.105-0.943,3.919-1.709,5.441
			c-0.93,1.896-1.868,2.844-2.816,2.844c-0.665,0-1.23-0.415-1.695-1.244c-0.438-0.784-0.656-1.718-0.656-2.803
			c0-1.449,0.561-2.757,1.682-3.924c0.948-0.966,2.097-1.549,3.445-1.75c0.265-0.036,0.647-0.055,1.148-0.055
			c1.695,0,3.071,0.438,4.129,1.313C179.873,53.865,180.406,55.142,180.406,56.818z M173.529,53.277
			c-2.251,0.611-3.377,1.974-3.377,4.088c0,0.602,0.096,1.107,0.287,1.518c0.155,0.383,0.351,0.583,0.588,0.602
			c0.383-0.018,0.82-0.674,1.313-1.969C172.841,56.212,173.237,54.8,173.529,53.277z"/>
		<path d="M192.383,62.15h-7.834v0.834h-1.695V51.158h11.225V62.93h-1.695V62.15z M192.383,52.689h-7.834v7.998h7.834V52.689z
			 M189.539,58.992h-2.352v0.766h-1.586v-5.701h5.51v5.482h-1.572V58.992z M189.539,55.492h-2.352v2.119h2.352V55.492z"/>
		<path d="M196.197,51.596h1.914v-1.148h1.531v1.148h1.914v1.313h-1.914v0.725h1.805v5.305h-1.805v0.711h2.037v1.299h-2.037v2.092
			h-1.531v-2.092h-1.914v-1.299h1.914v-0.711h-1.75v-5.305h1.75v-0.725h-1.914V51.596z M197.742,55.643h0.547v-0.697h-0.547V55.643z
			 M198.289,57.611v-0.807h-0.547v0.807H198.289z M199.547,54.945v0.697h0.547v-0.697H199.547z M200.094,57.611v-0.807h-0.547v0.807
			H200.094z M201.734,55h6.822v1.477h-3.336c-0.392,1.604-0.843,3.158-1.354,4.662c0.829-0.091,1.718-0.2,2.666-0.328
			c-0.319-0.793-0.661-1.545-1.025-2.256l1.477-0.656c0.848,1.687,1.468,3.181,1.859,4.484l-1.545,0.547
			c-0.082-0.265-0.169-0.529-0.26-0.793c-1.777,0.355-3.659,0.638-5.646,0.848l-0.26-1.641c0.31-0.018,0.634-0.036,0.971-0.055
			c0.438-1.203,0.925-2.807,1.463-4.813h-1.832V55z M202.104,51.049h5.975v1.545h-5.975V51.049z"/>
	</g>
	<g>
		<g>
			<g>
				<path fill="#FFFFFF" d="M137.297,56.289h-6.289v2.516c0,0.401,0.196,0.656,0.588,0.766c0.173,0.046,0.547,0.068,1.121,0.068
					h3.828v1.777h-3.623c-1.695,0-2.785-0.178-3.268-0.533c-0.319-0.255-0.479-0.715-0.479-1.381v-3.213h-3.719v-1.668h3.719V52.27
					h-2.461v-1.75h8.832v1.75h-4.539v2.352h6.289V56.289z"/>
			</g>
			<g>
				<path fill="#FFFFFF" d="M151.406,55.25h-4.854c-0.164,1.723-0.36,2.853-0.588,3.391c-0.656,1.486-2.206,2.67-4.648,3.555
					c-0.091-0.255-0.219-0.57-0.383-0.943c-0.091-0.191-0.31-0.483-0.656-0.875c2.005-0.52,3.235-1.276,3.691-2.27
					c0.319-0.692,0.506-1.645,0.561-2.857h-5.236v-1.736h12.113V55.25z M149.055,52.119h-7.738v-1.818h7.738V52.119z
					 M151.297,51.395l-0.807,0.725c-0.447-0.592-0.912-1.125-1.395-1.6l0.793-0.656C150.444,50.401,150.914,50.912,151.297,51.395z
					 M152.336,50.301l-0.82,0.779c-0.492-0.574-0.984-1.089-1.477-1.545l0.82-0.711C151.352,49.216,151.844,49.708,152.336,50.301z"
					/>
			</g>
			<g>
				<path fill="#FFFFFF" d="M157.818,51.121c-0.109,3.063-0.214,4.876-0.314,5.441c-0.392,2.124-1.595,3.855-3.609,5.195
					c-0.146-0.383-0.269-0.656-0.369-0.82c-0.064-0.055-0.324-0.323-0.779-0.807c1.686-0.948,2.688-2.256,3.008-3.924
					c0.146-0.766,0.219-2.461,0.219-5.086H157.818z M166.227,55.756c-1.012,1.723-2.935,3.578-5.77,5.564l-1.162-1.258l0.123-0.164
					v-9.762h1.9v8.299c1.395-1.066,2.557-2.36,3.486-3.883C165.26,55.036,165.734,55.437,166.227,55.756z"/>
			</g>
			<g>
				<path fill="#FFFFFF" d="M179.406,55.818c0,1.859-0.802,3.368-2.406,4.525c-0.647,0.465-1.741,0.884-3.281,1.258
					c-0.128-0.729-0.374-1.313-0.738-1.75c1.513-0.2,2.644-0.661,3.391-1.381c0.757-0.711,1.135-1.613,1.135-2.707
					c0-1.258-0.401-2.206-1.203-2.844c-0.528-0.401-1.203-0.651-2.023-0.752c-0.374,2.105-0.943,3.919-1.709,5.441
					c-0.93,1.896-1.868,2.844-2.816,2.844c-0.665,0-1.23-0.415-1.695-1.244c-0.438-0.784-0.656-1.718-0.656-2.803
					c0-1.449,0.561-2.757,1.682-3.924c0.948-0.966,2.097-1.549,3.445-1.75c0.265-0.036,0.647-0.055,1.148-0.055
					c1.695,0,3.071,0.438,4.129,1.313C178.873,52.865,179.406,54.142,179.406,55.818z M172.529,52.277
					c-2.251,0.611-3.377,1.974-3.377,4.088c0,0.602,0.096,1.107,0.287,1.518c0.155,0.383,0.351,0.583,0.588,0.602
					c0.383-0.018,0.82-0.674,1.313-1.969C171.841,55.212,172.237,53.8,172.529,52.277z"/>
			</g>
			<g>
				<path fill="#FFFFFF" d="M191.383,61.15h-7.834v0.834h-1.695V50.158h11.225V61.93h-1.695V61.15z M191.383,51.689h-7.834v7.998
					h7.834V51.689z M188.539,57.992h-2.352v0.766h-1.586v-5.701h5.51v5.482h-1.572V57.992z M188.539,54.492h-2.352v2.119h2.352
					V54.492z"/>
			</g>
			<g>
				<path fill="#FFFFFF" d="M195.197,50.596h1.914v-1.148h1.531v1.148h1.914v1.313h-1.914v0.725h1.805v5.305h-1.805v0.711h2.037
					v1.299h-2.037v2.092h-1.531v-2.092h-1.914v-1.299h1.914v-0.711h-1.75v-5.305h1.75v-0.725h-1.914V50.596z M196.742,54.643h0.547
					v-0.697h-0.547V54.643z M197.289,56.611v-0.807h-0.547v0.807H197.289z M198.547,53.945v0.697h0.547v-0.697H198.547z
					 M199.094,56.611v-0.807h-0.547v0.807H199.094z M200.734,54h6.822v1.477h-3.336c-0.392,1.604-0.843,3.158-1.354,4.662
					c0.829-0.091,1.718-0.2,2.666-0.328c-0.319-0.793-0.661-1.545-1.025-2.256l1.477-0.656c0.848,1.687,1.468,3.181,1.859,4.484
					l-1.545,0.547c-0.082-0.265-0.169-0.529-0.26-0.793c-1.777,0.355-3.659,0.638-5.646,0.848l-0.26-1.641
					c0.31-0.018,0.634-0.036,0.971-0.055c0.438-1.203,0.925-2.807,1.463-4.813h-1.832V54z M201.104,50.049h5.975v1.545h-5.975
					V50.049z"/>
			</g>
		</g>
	</g>
</g>
<g>
	<g opacity="0.3">
		<rect x="12.5" y="71.75" width="100" height="20"/>
	</g>
	<g>
		<rect x="11.5" y="70.75" fill="#FFFFFF" width="100" height="20"/>
	</g>
</g>
<g>
	<path d="M25.967,85.561h-6.604c0.063-1.039,0.323-1.928,0.779-2.666c0.474-0.783,1.344-1.658,2.611-2.625
		c0.848-0.638,1.28-1.289,1.299-1.955c0.009-0.4-0.123-0.738-0.396-1.012c-0.273-0.264-0.611-0.396-1.012-0.396
		c-0.392,0-0.72,0.142-0.984,0.424c-0.255,0.292-0.383,0.766-0.383,1.422h-1.969c0.027-1.002,0.355-1.818,0.984-2.447
		c0.565-0.583,1.367-0.875,2.406-0.875c0.975,0,1.754,0.27,2.338,0.807c0.583,0.538,0.875,1.268,0.875,2.188
		c0,1.158-0.761,2.283-2.283,3.377c-1.285,0.912-1.978,1.623-2.078,2.133h4.416V85.561z"/>
	<path d="M27.293,76.578h5.25v-2.352h1.75v2.352h5.428v1.6h-4.73c0.784,1.186,1.526,2.143,2.229,2.871
		c0.893,0.957,1.909,1.769,3.049,2.434c-0.602,0.456-1.025,0.962-1.271,1.518c-0.83-0.564-1.572-1.18-2.229-1.846v1.313h-2.475v2.57
		h-1.75v-2.57h-2.516v-1.408c-0.711,0.729-1.458,1.399-2.242,2.01c-0.255-0.602-0.561-1.13-0.916-1.586
		c2.124-1.567,3.787-3.336,4.99-5.305h-4.566V76.578z M30.205,82.881h2.338v-2.83C31.805,81.081,31.025,82.024,30.205,82.881z
		 M34.293,82.881h2.188c-0.137-0.154-0.273-0.305-0.41-0.451c-0.62-0.729-1.212-1.531-1.777-2.406V82.881z"/>
	<path d="M41.184,76.975h1.545v-2.584h1.641v2.584h1.203v1.572h-1.203v1.586c0.383-0.118,0.784-0.246,1.203-0.383v1.49l-1.203,0.41
		v3.787c0,0.638-0.169,1.029-0.506,1.176c-0.283,0.173-0.957,0.26-2.023,0.26c-0.027-0.438-0.169-0.948-0.424-1.531h1.313v-3.145
		l-1.381,0.451l-0.314-1.682c0.51-0.1,1.075-0.228,1.695-0.383v-2.037h-1.545V76.975z M52.135,74.828l0.861,1.49
		c-1.65,0.557-3.322,0.902-5.018,1.039v0.82c0.027,0.174,0.191,0.26,0.492,0.26h3.322c0.191,0,0.323-0.091,0.396-0.273
		c0.1-0.182,0.15-0.492,0.15-0.93c0.41,0.273,0.961,0.475,1.654,0.602c-0.064,0.574-0.278,1.104-0.643,1.586
		c-0.246,0.265-0.602,0.396-1.066,0.396h-4.361c-0.474,0-0.875-0.127-1.203-0.383c-0.292-0.2-0.438-0.619-0.438-1.258v-3.787h1.695
		v1.531C49.418,75.73,50.804,75.366,52.135,74.828z M51.137,86.271h-3.158v0.602h-1.695V80.42h6.563v6.453h-1.709V86.271z
		 M51.137,81.732h-3.158v0.984h3.158V81.732z M51.137,83.975h-3.158v0.971h3.158V83.975z"/>
	<path d="M66.832,77.158c-0.812,0-1.882,0.051-3.213,0.15c-1.987,1.186-2.98,2.611-2.98,4.279c0,1.741,1.426,2.739,4.279,2.994
		l-0.041,1.9c-4.001-0.42-6.002-2.005-6.002-4.758c0-1.485,0.651-2.88,1.955-4.184c-1.851,0.137-3.792,0.393-5.824,0.766
		l-0.109-1.859c4.229-0.337,8.176-0.701,11.84-1.094L66.832,77.158z M66.203,80.207l-0.889,0.725
		c-0.465-0.646-0.953-1.198-1.463-1.654l0.807-0.711C65.178,79.004,65.692,79.551,66.203,80.207z M67.502,79.182l-0.875,0.766
		c-0.419-0.574-0.907-1.121-1.463-1.641l0.861-0.697C66.563,78.084,67.055,78.607,67.502,79.182z"/>
	<path d="M77.77,86.1c-1.376,0.082-2.466,0.118-3.268,0.109c-2.726-0.019-4.416-0.196-5.072-0.533
		c-0.547-0.282-0.82-0.797-0.82-1.545v-9.023h1.914v3.678c2.06-0.301,3.983-0.843,5.77-1.627l1.053,1.682
		c-2.397,0.848-4.671,1.418-6.822,1.709v2.885c0,0.328,0.068,0.547,0.205,0.656c0.301,0.174,1.03,0.26,2.188,0.26h1.859
		c1.203,0,2.201-0.055,2.994-0.164V86.1z M79.055,75.736c-0.019,0.42-0.16,0.803-0.424,1.148c-0.283,0.265-0.661,0.406-1.135,0.424
		c-0.538-0.018-0.939-0.168-1.203-0.451c-0.246-0.301-0.369-0.656-0.369-1.066c0-0.482,0.164-0.884,0.492-1.203
		c0.292-0.291,0.638-0.438,1.039-0.438c0.474,0,0.866,0.146,1.176,0.438C78.895,74.871,79.036,75.254,79.055,75.736z M78.207,75.736
		c-0.046-0.228-0.101-0.392-0.164-0.492c-0.146-0.146-0.328-0.219-0.547-0.219c-0.465,0-0.697,0.237-0.697,0.711
		c0,0.475,0.25,0.711,0.752,0.711c0.2-0.018,0.364-0.096,0.492-0.232C78.106,76.078,78.161,75.919,78.207,75.736z"/>
	<path d="M84.332,77.609l-1.299,1.572c-1.012-0.957-2.105-1.818-3.281-2.584l1.162-1.463C82.09,75.81,83.229,76.635,84.332,77.609z
		 M91.004,78.84c-1.969,2.799-4.89,5.146-8.764,7.041c-0.465,0.154-0.957,0.373-1.477,0.656l-0.957-1.9
		c4.047-1.349,7.342-3.746,9.885-7.191c0.137,0.201,0.319,0.465,0.547,0.793C90.348,78.375,90.603,78.576,91.004,78.84z"/>
	<path d="M103.979,80.645h-5.018c-0.037,3.063-1.764,5.154-5.182,6.275c-0.191-0.584-0.574-1.181-1.148-1.791
		c2.871-0.537,4.32-2.032,4.348-4.484h-5.168v-1.736h5.25v-1.75c-0.93,0.183-2.151,0.333-3.664,0.451
		c-0.091-0.766-0.31-1.354-0.656-1.764c3.272-0.2,6.047-0.692,8.326-1.477l1.039,1.641c-0.866,0.265-1.9,0.533-3.104,0.807v2.092
		h4.977V80.645z"/>
</g>
<g>
	<g opacity="0.3">
		<path d="M138.297,82.289h-6.289v2.516c0,0.401,0.196,0.656,0.588,0.766c0.173,0.046,0.547,0.068,1.121,0.068h3.828v1.777h-3.623
			c-1.695,0-2.785-0.178-3.268-0.533c-0.319-0.255-0.479-0.715-0.479-1.381v-3.213h-3.719v-1.668h3.719V78.27h-2.461v-1.75h8.832
			v1.75h-4.539v2.352h6.289V82.289z"/>
		<path d="M152.406,81.25h-4.854c-0.164,1.723-0.36,2.854-0.588,3.391c-0.656,1.486-2.206,2.67-4.648,3.555
			c-0.091-0.256-0.219-0.57-0.383-0.943c-0.091-0.191-0.31-0.482-0.656-0.875c2.005-0.52,3.235-1.275,3.691-2.27
			c0.319-0.692,0.506-1.645,0.561-2.857h-5.236v-1.736h12.113V81.25z M150.055,78.119h-7.738v-1.818h7.738V78.119z M152.297,77.395
			l-0.807,0.725c-0.447-0.592-0.912-1.125-1.395-1.6l0.793-0.656C151.444,76.401,151.914,76.912,152.297,77.395z M153.336,76.301
			l-0.82,0.779c-0.492-0.574-0.984-1.089-1.477-1.545l0.82-0.711C152.352,75.217,152.844,75.709,153.336,76.301z"/>
		<path d="M158.818,77.121c-0.109,3.063-0.214,4.877-0.314,5.441c-0.392,2.124-1.595,3.855-3.609,5.195
			c-0.146-0.383-0.269-0.656-0.369-0.82c-0.064-0.055-0.324-0.323-0.779-0.807c1.686-0.947,2.688-2.256,3.008-3.924
			c0.146-0.766,0.219-2.461,0.219-5.086H158.818z M167.227,81.756c-1.012,1.723-2.935,3.578-5.77,5.564l-1.162-1.258l0.123-0.164
			v-9.762h1.9v8.299c1.395-1.066,2.557-2.36,3.486-3.883C166.26,81.036,166.734,81.438,167.227,81.756z"/>
		<path d="M180.406,81.818c0,1.859-0.802,3.368-2.406,4.525c-0.647,0.465-1.741,0.884-3.281,1.258
			c-0.128-0.729-0.374-1.313-0.738-1.75c1.513-0.2,2.644-0.66,3.391-1.381c0.757-0.711,1.135-1.613,1.135-2.707
			c0-1.258-0.401-2.205-1.203-2.844c-0.528-0.4-1.203-0.651-2.023-0.752c-0.374,2.105-0.943,3.92-1.709,5.441
			c-0.93,1.896-1.868,2.844-2.816,2.844c-0.665,0-1.23-0.414-1.695-1.244c-0.438-0.783-0.656-1.718-0.656-2.803
			c0-1.449,0.561-2.757,1.682-3.924c0.948-0.966,2.097-1.549,3.445-1.75c0.265-0.036,0.647-0.055,1.148-0.055
			c1.695,0,3.071,0.438,4.129,1.313C179.873,78.865,180.406,80.142,180.406,81.818z M173.529,78.277
			c-2.251,0.611-3.377,1.974-3.377,4.088c0,0.602,0.096,1.107,0.287,1.518c0.155,0.383,0.351,0.584,0.588,0.602
			c0.383-0.018,0.82-0.674,1.313-1.969C172.841,81.213,173.237,79.8,173.529,78.277z"/>
		<path d="M182.088,78.031h1.545v-2.584h1.572v2.584h1.271v1.572h-1.271v1.6c0.401-0.137,0.825-0.287,1.271-0.451v1.49l-1.271,0.492
			v3.719c0.966-1.021,1.481-2.479,1.545-4.375v-4.594h3.104v-2.092h1.75v2.092h3.076v1.518h-6.344v3.076
			c0,1.268-0.178,2.434-0.533,3.5c-0.055,0.183-0.123,0.36-0.205,0.533c0.347-0.018,0.702-0.041,1.066-0.068
			c0.629-1.923,1.14-4.105,1.531-6.549l1.75,0.396c-0.364,1.951-0.916,3.956-1.654,6.016c0.692-0.072,1.427-0.164,2.201-0.273
			c-0.364-0.802-0.766-1.586-1.203-2.352l1.572-0.547c0.829,1.395,1.559,2.98,2.188,4.758l-1.572,0.547
			c-0.128-0.355-0.26-0.702-0.396-1.039c-1.659,0.373-3.423,0.66-5.291,0.861l-0.26-1.572c-0.31,0.711-0.752,1.367-1.326,1.969
			c-0.255-0.574-0.588-1.044-0.998-1.408c-0.019,0.556-0.178,0.906-0.479,1.053c-0.282,0.164-0.943,0.246-1.982,0.246
			c-0.027-0.438-0.173-0.953-0.438-1.545h1.271c0.036,0,0.055-0.086,0.055-0.26v-2.98l-1.326,0.52l-0.369-1.75
			c0.511-0.109,1.075-0.255,1.695-0.438v-2.092h-1.545V78.031z"/>
		<path d="M196.361,78.633h4.99c0.027-0.492,0.041-1.002,0.041-1.531v-1.654h1.914v1.654c0,0.529-0.014,1.039-0.041,1.531h5.414
			v1.695h-5.1c0.419,1.276,0.971,2.334,1.654,3.172c0.875,1.14,2.097,2.174,3.664,3.104c-0.593,0.564-0.957,1.116-1.094,1.654
			c-0.766-0.393-1.518-0.943-2.256-1.654c-0.766-0.738-1.458-1.622-2.078-2.652c-0.319-0.528-0.61-1.103-0.875-1.723
			c-0.273,0.784-0.62,1.468-1.039,2.051c-0.976,1.432-2.483,2.771-4.525,4.02c-0.337-0.602-0.738-1.09-1.203-1.463
			c1.933-1.048,3.304-2.191,4.115-3.432c0.556-0.793,0.952-1.818,1.189-3.076h-4.771V78.633z"/>
		<path d="M222.898,76.021L210.854,88.08l-0.766-0.711l12.031-12.031L222.898,76.021z"/>
		<path d="M225.947,75.242l1.313,0.697c-0.328,0.82-0.716,1.627-1.162,2.42c0.137,0.101,0.273,0.205,0.41,0.314
			c0.292-0.619,0.565-1.258,0.82-1.914l1.367,0.779c-0.474,1.003-1.003,2.006-1.586,3.008l1.367-0.506
			c0.21,0.529,0.405,1.112,0.588,1.75c0.146-0.228,0.282-0.469,0.41-0.725c0.237-0.419,0.506-1.012,0.807-1.777h-1.436V76.65h3.008
			v-1.203h1.695v1.203h3.063v2.639h-0.479v0.916h-1.217l-0.273,1.094h1.818v6.74h-1.6v-0.656h-1.572v0.711h-1.586v-6.795h1.354
			l0.301-1.094h-1.326v-1.053c-0.355,0.866-0.665,1.577-0.93,2.133v6.754h-1.49v-4.361c-0.137,0.183-0.278,0.355-0.424,0.52
			c-0.164-0.482-0.442-0.952-0.834-1.408l-0.492,0.164c-0.027-0.118-0.055-0.236-0.082-0.355c-0.173,0.037-0.347,0.068-0.52,0.096
			v5.4h-1.518v-3.432c-0.146,0.775-0.328,1.572-0.547,2.393c-0.474-0.256-0.93-0.424-1.367-0.506c0.292-0.93,0.528-2,0.711-3.213
			l1.203,0.232v-0.67c-0.501,0.064-1.017,0.114-1.545,0.15l-0.205-1.518c0.31-0.009,0.638-0.018,0.984-0.027
			c0.282-0.465,0.556-0.938,0.82-1.422c-0.62-0.474-1.317-0.902-2.092-1.285l0.725-1.367c0.164,0.073,0.328,0.15,0.492,0.232
			C225.305,76.915,225.646,76.108,225.947,75.242z M227.41,81.367c-0.101-0.273-0.205-0.547-0.314-0.82
			c-0.164,0.292-0.337,0.579-0.52,0.861C226.85,81.399,227.128,81.386,227.41,81.367z M228.531,83.336
			c0.082,0.866,0.241,1.668,0.479,2.406l-1.258,0.26c-0.2-0.802-0.364-1.604-0.492-2.406L228.531,83.336z M232.031,78.975v-0.123
			h3.063v-0.875h-4.703v0.998c0.082-0.228,0.169-0.469,0.26-0.725L232.031,78.975z M233.289,83.76h1.572v-1.148h-1.572V83.76z
			 M233.289,86.18h1.572v-1.203h-1.572V86.18z"/>
		<path d="M240.658,78.291l1.75,0.451c-1.012,3.018-2.032,5.314-3.063,6.891c-0.41-0.465-0.88-0.848-1.408-1.148
			C239.04,82.816,239.947,80.752,240.658,78.291z M243.502,75.611h1.805v10.842c0,0.701-0.2,1.135-0.602,1.299
			c-0.347,0.191-1.167,0.287-2.461,0.287c-0.027-0.483-0.191-1.049-0.492-1.695h1.695c0.036,0,0.055-0.096,0.055-0.287V75.611z
			 M248.096,78.141c1.249,2.434,2.165,4.585,2.748,6.453l-1.695,0.656c-0.766-2.324-1.663-4.457-2.693-6.398L248.096,78.141z"/>
	</g>
	<g>
		<g>
			<g>
				<path fill="#FFFFFF" d="M137.297,81.289h-6.289v2.516c0,0.401,0.196,0.656,0.588,0.766c0.173,0.046,0.547,0.068,1.121,0.068
					h3.828v1.777h-3.623c-1.695,0-2.785-0.178-3.268-0.533c-0.319-0.255-0.479-0.715-0.479-1.381v-3.213h-3.719v-1.668h3.719V77.27
					h-2.461v-1.75h8.832v1.75h-4.539v2.352h6.289V81.289z"/>
			</g>
			<g>
				<path fill="#FFFFFF" d="M151.406,80.25h-4.854c-0.164,1.723-0.36,2.854-0.588,3.391c-0.656,1.486-2.206,2.67-4.648,3.555
					c-0.091-0.256-0.219-0.57-0.383-0.943c-0.091-0.191-0.31-0.482-0.656-0.875c2.005-0.52,3.235-1.275,3.691-2.27
					c0.319-0.692,0.506-1.645,0.561-2.857h-5.236v-1.736h12.113V80.25z M149.055,77.119h-7.738v-1.818h7.738V77.119z
					 M151.297,76.395l-0.807,0.725c-0.447-0.592-0.912-1.125-1.395-1.6l0.793-0.656C150.444,75.401,150.914,75.912,151.297,76.395z
					 M152.336,75.301l-0.82,0.779c-0.492-0.574-0.984-1.089-1.477-1.545l0.82-0.711C151.352,74.217,151.844,74.709,152.336,75.301z"
					/>
			</g>
			<g>
				<path fill="#FFFFFF" d="M157.818,76.121c-0.109,3.063-0.214,4.877-0.314,5.441c-0.392,2.124-1.595,3.855-3.609,5.195
					c-0.146-0.383-0.269-0.656-0.369-0.82c-0.064-0.055-0.324-0.323-0.779-0.807c1.686-0.947,2.688-2.256,3.008-3.924
					c0.146-0.766,0.219-2.461,0.219-5.086H157.818z M166.227,80.756c-1.012,1.723-2.935,3.578-5.77,5.564l-1.162-1.258l0.123-0.164
					v-9.762h1.9v8.299c1.395-1.066,2.557-2.36,3.486-3.883C165.26,80.036,165.734,80.438,166.227,80.756z"/>
			</g>
			<g>
				<path fill="#FFFFFF" d="M179.406,80.818c0,1.859-0.802,3.368-2.406,4.525c-0.647,0.465-1.741,0.884-3.281,1.258
					c-0.128-0.729-0.374-1.313-0.738-1.75c1.513-0.2,2.644-0.66,3.391-1.381c0.757-0.711,1.135-1.613,1.135-2.707
					c0-1.258-0.401-2.205-1.203-2.844c-0.528-0.4-1.203-0.651-2.023-0.752c-0.374,2.105-0.943,3.92-1.709,5.441
					c-0.93,1.896-1.868,2.844-2.816,2.844c-0.665,0-1.23-0.414-1.695-1.244c-0.438-0.783-0.656-1.718-0.656-2.803
					c0-1.449,0.561-2.757,1.682-3.924c0.948-0.966,2.097-1.549,3.445-1.75c0.265-0.036,0.647-0.055,1.148-0.055
					c1.695,0,3.071,0.438,4.129,1.313C178.873,77.865,179.406,79.142,179.406,80.818z M172.529,77.277
					c-2.251,0.611-3.377,1.974-3.377,4.088c0,0.602,0.096,1.107,0.287,1.518c0.155,0.383,0.351,0.584,0.588,0.602
					c0.383-0.018,0.82-0.674,1.313-1.969C171.841,80.213,172.237,78.8,172.529,77.277z"/>
			</g>
			<g>
				<path fill="#FFFFFF" d="M181.088,77.031h1.545v-2.584h1.572v2.584h1.271v1.572h-1.271v1.6c0.401-0.137,0.825-0.287,1.271-0.451
					v1.49l-1.271,0.492v3.719c0.966-1.021,1.481-2.479,1.545-4.375v-4.594h3.104v-2.092h1.75v2.092h3.076v1.518h-6.344v3.076
					c0,1.268-0.178,2.434-0.533,3.5c-0.055,0.183-0.123,0.36-0.205,0.533c0.347-0.018,0.702-0.041,1.066-0.068
					c0.629-1.923,1.14-4.105,1.531-6.549l1.75,0.396c-0.364,1.951-0.916,3.956-1.654,6.016c0.692-0.072,1.427-0.164,2.201-0.273
					c-0.364-0.802-0.766-1.586-1.203-2.352l1.572-0.547c0.829,1.395,1.559,2.98,2.188,4.758l-1.572,0.547
					c-0.128-0.355-0.26-0.702-0.396-1.039c-1.659,0.373-3.423,0.66-5.291,0.861l-0.26-1.572c-0.31,0.711-0.752,1.367-1.326,1.969
					c-0.255-0.574-0.588-1.044-0.998-1.408c-0.019,0.556-0.178,0.906-0.479,1.053c-0.282,0.164-0.943,0.246-1.982,0.246
					c-0.027-0.438-0.173-0.953-0.438-1.545h1.271c0.036,0,0.055-0.086,0.055-0.26v-2.98l-1.326,0.52l-0.369-1.75
					c0.511-0.109,1.075-0.255,1.695-0.438v-2.092h-1.545V77.031z"/>
			</g>
			<g>
				<path fill="#FFFFFF" d="M195.361,77.633h4.99c0.027-0.492,0.041-1.002,0.041-1.531v-1.654h1.914v1.654
					c0,0.529-0.014,1.039-0.041,1.531h5.414v1.695h-5.1c0.419,1.276,0.971,2.334,1.654,3.172c0.875,1.14,2.097,2.174,3.664,3.104
					c-0.593,0.564-0.957,1.116-1.094,1.654c-0.766-0.393-1.518-0.943-2.256-1.654c-0.766-0.738-1.458-1.622-2.078-2.652
					c-0.319-0.528-0.61-1.103-0.875-1.723c-0.273,0.784-0.62,1.468-1.039,2.051c-0.976,1.432-2.483,2.771-4.525,4.02
					c-0.337-0.602-0.738-1.09-1.203-1.463c1.933-1.048,3.304-2.191,4.115-3.432c0.556-0.793,0.952-1.818,1.189-3.076h-4.771V77.633z
					"/>
			</g>
			<g>
				<path fill="#FFFFFF" d="M221.898,75.021L209.854,87.08l-0.766-0.711l12.031-12.031L221.898,75.021z"/>
			</g>
			<g>
				<path fill="#FFFFFF" d="M224.947,74.242l1.313,0.697c-0.328,0.82-0.716,1.627-1.162,2.42c0.137,0.101,0.273,0.205,0.41,0.314
					c0.292-0.619,0.565-1.258,0.82-1.914l1.367,0.779c-0.474,1.003-1.003,2.006-1.586,3.008l1.367-0.506
					c0.21,0.529,0.405,1.112,0.588,1.75c0.146-0.228,0.282-0.469,0.41-0.725c0.237-0.419,0.506-1.012,0.807-1.777h-1.436V75.65
					h3.008v-1.203h1.695v1.203h3.063v2.639h-0.479v0.916h-1.217l-0.273,1.094h1.818v6.74h-1.6v-0.656h-1.572v0.711h-1.586v-6.795
					h1.354l0.301-1.094h-1.326v-1.053c-0.355,0.866-0.665,1.577-0.93,2.133v6.754h-1.49v-4.361c-0.137,0.183-0.278,0.355-0.424,0.52
					c-0.164-0.482-0.442-0.952-0.834-1.408l-0.492,0.164c-0.027-0.118-0.055-0.236-0.082-0.355c-0.173,0.037-0.347,0.068-0.52,0.096
					v5.4h-1.518v-3.432c-0.146,0.775-0.328,1.572-0.547,2.393c-0.474-0.256-0.93-0.424-1.367-0.506c0.292-0.93,0.528-2,0.711-3.213
					l1.203,0.232v-0.67c-0.501,0.064-1.017,0.114-1.545,0.15l-0.205-1.518c0.31-0.009,0.638-0.018,0.984-0.027
					c0.282-0.465,0.556-0.938,0.82-1.422c-0.62-0.474-1.317-0.902-2.092-1.285l0.725-1.367c0.164,0.073,0.328,0.15,0.492,0.232
					C224.305,75.915,224.646,75.108,224.947,74.242z M226.41,80.367c-0.101-0.273-0.205-0.547-0.314-0.82
					c-0.164,0.292-0.337,0.579-0.52,0.861C225.85,80.399,226.128,80.386,226.41,80.367z M227.531,82.336
					c0.082,0.866,0.241,1.668,0.479,2.406l-1.258,0.26c-0.2-0.802-0.364-1.604-0.492-2.406L227.531,82.336z M231.031,77.975v-0.123
					h3.063v-0.875h-4.703v0.998c0.082-0.228,0.169-0.469,0.26-0.725L231.031,77.975z M232.289,82.76h1.572v-1.148h-1.572V82.76z
					 M232.289,85.18h1.572v-1.203h-1.572V85.18z"/>
			</g>
			<g>
				<path fill="#FFFFFF" d="M239.658,77.291l1.75,0.451c-1.012,3.018-2.032,5.314-3.063,6.891c-0.41-0.465-0.88-0.848-1.408-1.148
					C238.04,81.816,238.947,79.752,239.658,77.291z M242.502,74.611h1.805v10.842c0,0.701-0.2,1.135-0.602,1.299
					c-0.347,0.191-1.167,0.287-2.461,0.287c-0.027-0.483-0.191-1.049-0.492-1.695h1.695c0.036,0,0.055-0.096,0.055-0.287V74.611z
					 M247.096,77.141c1.249,2.434,2.165,4.585,2.748,6.453l-1.695,0.656c-0.766-2.324-1.663-4.457-2.693-6.398L247.096,77.141z"/>
			</g>
		</g>
	</g>
</g>
<g>
	<g opacity="0.3">
		<rect x="12.5" y="96.75" width="100" height="20"/>
	</g>
	<g>
		<rect x="11.5" y="95.75" fill="#FFFFFF" width="100" height="20"/>
	</g>
</g>
<g>
	<path d="M21.477,107.785c-0.009,0.729-0.31,1.418-0.902,2.064c-0.666,0.62-1.518,0.93-2.557,0.93c-0.994,0-1.777-0.273-2.352-0.82
		c-0.62-0.583-0.966-1.381-1.039-2.393h1.955c0.064,1.03,0.561,1.572,1.49,1.627c0.392-0.027,0.72-0.132,0.984-0.314
		c0.346-0.328,0.52-0.733,0.52-1.217c0-0.528-0.16-0.943-0.479-1.244c-0.346-0.318-0.802-0.479-1.367-0.479h-1.299v-1.326h1.354
		c0.438,0,0.802-0.164,1.094-0.492c0.219-0.301,0.346-0.624,0.383-0.971c-0.037-0.318-0.146-0.61-0.328-0.875
		c-0.283-0.291-0.606-0.438-0.971-0.438c-0.41,0-0.725,0.133-0.943,0.396c-0.209,0.265-0.314,0.588-0.314,0.971h-1.736
		c0-0.893,0.314-1.59,0.943-2.092c0.583-0.455,1.335-0.684,2.256-0.684c0.884,0,1.6,0.256,2.146,0.766
		c0.529,0.511,0.793,1.107,0.793,1.791c0,0.976-0.451,1.719-1.354,2.229C20.912,105.726,21.486,106.582,21.477,107.785z"/>
	<path d="M22.224,101.578h5.25v-2.352h1.75v2.352h5.428v1.6h-4.73c0.784,1.186,1.526,2.143,2.229,2.871
		c0.893,0.957,1.909,1.769,3.049,2.434c-0.602,0.456-1.025,0.962-1.271,1.518c-0.83-0.564-1.572-1.18-2.229-1.846v1.313h-2.475v2.57
		h-1.75v-2.57h-2.516v-1.408c-0.711,0.729-1.458,1.399-2.242,2.01c-0.255-0.602-0.561-1.13-0.916-1.586
		c2.124-1.567,3.787-3.336,4.99-5.305h-4.566V101.578z M25.136,107.881h2.338v-2.83C26.735,106.081,25.956,107.024,25.136,107.881z
		 M29.224,107.881h2.188c-0.137-0.154-0.273-0.305-0.41-0.451c-0.62-0.729-1.212-1.531-1.777-2.406V107.881z"/>
	<path d="M35.655,101.975H37.2v-2.584h1.641v2.584h1.203v1.572H38.84v1.586c0.383-0.118,0.784-0.246,1.203-0.383v1.49l-1.203,0.41
		v3.787c0,0.638-0.168,1.029-0.506,1.176c-0.283,0.173-0.957,0.26-2.023,0.26c-0.027-0.438-0.168-0.948-0.424-1.531H37.2v-3.145
		l-1.381,0.451l-0.314-1.682c0.51-0.1,1.076-0.228,1.695-0.383v-2.037h-1.545V101.975z M46.606,99.828l0.861,1.49
		c-1.65,0.557-3.322,0.902-5.018,1.039v0.82c0.027,0.174,0.191,0.26,0.492,0.26h3.322c0.191,0,0.324-0.091,0.396-0.273
		c0.1-0.182,0.15-0.492,0.15-0.93c0.41,0.273,0.961,0.475,1.654,0.602c-0.064,0.574-0.278,1.104-0.643,1.586
		c-0.246,0.265-0.602,0.396-1.066,0.396h-4.361c-0.474,0-0.875-0.127-1.203-0.383c-0.292-0.2-0.438-0.619-0.438-1.258v-3.787h1.695
		v1.531C43.89,100.73,45.275,100.366,46.606,99.828z M45.608,111.271H42.45v0.602h-1.695v-6.453h6.563v6.453h-1.709V111.271z
		 M45.608,106.732H42.45v0.984h3.158V106.732z M45.608,108.975H42.45v0.971h3.158V108.975z"/>
	<path d="M60.762,102.158c-0.812,0-1.882,0.051-3.213,0.15c-1.987,1.186-2.98,2.611-2.98,4.279c0,1.741,1.426,2.739,4.279,2.994
		l-0.041,1.9c-4.001-0.42-6.002-2.005-6.002-4.758c0-1.485,0.651-2.88,1.955-4.184c-1.851,0.137-3.792,0.393-5.824,0.766
		l-0.109-1.859c4.229-0.337,8.176-0.701,11.84-1.094L60.762,102.158z M60.133,105.207l-0.889,0.725
		c-0.465-0.646-0.953-1.198-1.463-1.654l0.807-0.711C59.107,104.004,59.622,104.551,60.133,105.207z M61.432,104.182l-0.875,0.766
		c-0.419-0.574-0.907-1.121-1.463-1.641l0.861-0.697C60.493,103.084,60.985,103.607,61.432,104.182z"/>
	<path d="M73.928,110.273l-1.586,1.217c-1.249-1.795-2.488-3.23-3.719-4.307c-1.869,1.951-3.751,3.327-5.646,4.129
		c-0.082-0.164-0.214-0.434-0.396-0.807c-0.164-0.209-0.438-0.482-0.82-0.82c3.354-1.221,5.961-3.6,7.82-7.137h-6.166v-1.75h7.232
		l0.232-0.096l1.203,1.313c-0.164,0.164-0.314,0.393-0.451,0.684c-0.656,1.24-1.276,2.256-1.859,3.049
		C71.284,106.988,72.67,108.496,73.928,110.273z"/>
	<path d="M84.296,100.703c-0.082,3.117-0.725,5.528-1.928,7.232c-0.711,1.012-1.495,1.791-2.352,2.338
		c-1.076,0.72-2.033,1.207-2.871,1.463c-0.146-0.41-0.287-0.721-0.424-0.93s-0.365-0.469-0.684-0.779
		c2.251-0.72,3.814-1.709,4.689-2.967c0.419-0.556,0.711-1.111,0.875-1.668c0.301-0.966,0.501-1.945,0.602-2.939h-5.92v3.691h-1.914
		v-5.441H84.296z"/>
	<path d="M95.63,100.736c-1.103,1.186-2.174,2.201-3.213,3.049v7.861h-1.941v-6.344c-1.586,1.148-3.19,2.064-4.813,2.748
		c-0.209-0.692-0.556-1.239-1.039-1.641c3.545-1.431,6.69-3.76,9.434-6.986L95.63,100.736z"/>
	<path d="M106.273,102.199c-0.164,0.283-0.273,0.574-0.328,0.875c-1.404,4.503-4.256,7.379-8.559,8.627
		c-0.119-0.492-0.209-0.803-0.273-0.93c-0.082-0.191-0.283-0.482-0.602-0.875c3.792-0.993,6.28-3.322,7.465-6.986h-8.012v-1.791
		h8.832l0.178-0.109L106.273,102.199z M108.515,100.299c0,0.447-0.146,0.83-0.438,1.148c-0.264,0.292-0.647,0.438-1.148,0.438
		c-0.465,0-0.848-0.141-1.148-0.424c-0.292-0.282-0.438-0.651-0.438-1.107c0-0.482,0.164-0.884,0.492-1.203
		c0.301-0.291,0.647-0.438,1.039-0.438c0.492,0,0.889,0.142,1.189,0.424C108.365,99.42,108.515,99.807,108.515,100.299z
		 M107.64,100.299c0-0.474-0.237-0.711-0.711-0.711c-0.246,0-0.41,0.055-0.492,0.164c-0.146,0.137-0.219,0.319-0.219,0.547
		c0,0.191,0.073,0.374,0.219,0.547c0.1,0.109,0.283,0.164,0.547,0.164c0.201,0,0.36-0.059,0.479-0.178
		C107.581,100.678,107.64,100.5,107.64,100.299z"/>
</g>
<g>
	<g opacity="0.3">
		<path d="M138.297,107.289h-6.289v2.516c0,0.401,0.196,0.656,0.588,0.766c0.173,0.046,0.547,0.068,1.121,0.068h3.828v1.777h-3.623
			c-1.695,0-2.785-0.178-3.268-0.533c-0.319-0.255-0.479-0.715-0.479-1.381v-3.213h-3.719v-1.668h3.719v-2.352h-2.461v-1.75h8.832
			v1.75h-4.539v2.352h6.289V107.289z"/>
		<path d="M152.406,106.25h-4.854c-0.164,1.723-0.36,2.854-0.588,3.391c-0.656,1.486-2.206,2.67-4.648,3.555
			c-0.091-0.256-0.219-0.57-0.383-0.943c-0.091-0.191-0.31-0.482-0.656-0.875c2.005-0.52,3.235-1.275,3.691-2.27
			c0.319-0.692,0.506-1.645,0.561-2.857h-5.236v-1.736h12.113V106.25z M150.055,103.119h-7.738v-1.818h7.738V103.119z
			 M152.297,102.395l-0.807,0.725c-0.447-0.592-0.912-1.125-1.395-1.6l0.793-0.656C151.444,101.401,151.914,101.912,152.297,102.395
			z M153.336,101.301l-0.82,0.779c-0.492-0.574-0.984-1.089-1.477-1.545l0.82-0.711
			C152.352,100.217,152.844,100.709,153.336,101.301z"/>
		<path d="M158.818,102.121c-0.109,3.063-0.214,4.877-0.314,5.441c-0.392,2.124-1.595,3.855-3.609,5.195
			c-0.146-0.383-0.269-0.656-0.369-0.82c-0.064-0.055-0.324-0.323-0.779-0.807c1.686-0.947,2.688-2.256,3.008-3.924
			c0.146-0.766,0.219-2.461,0.219-5.086H158.818z M167.227,106.756c-1.012,1.723-2.935,3.578-5.77,5.564l-1.162-1.258l0.123-0.164
			v-9.762h1.9v8.299c1.395-1.066,2.557-2.36,3.486-3.883C166.26,106.036,166.734,106.438,167.227,106.756z"/>
		<path d="M180.406,106.818c0,1.859-0.802,3.368-2.406,4.525c-0.647,0.465-1.741,0.884-3.281,1.258
			c-0.128-0.729-0.374-1.313-0.738-1.75c1.513-0.2,2.644-0.66,3.391-1.381c0.757-0.711,1.135-1.613,1.135-2.707
			c0-1.258-0.401-2.205-1.203-2.844c-0.528-0.4-1.203-0.651-2.023-0.752c-0.374,2.105-0.943,3.92-1.709,5.441
			c-0.93,1.896-1.868,2.844-2.816,2.844c-0.665,0-1.23-0.414-1.695-1.244c-0.438-0.783-0.656-1.718-0.656-2.803
			c0-1.449,0.561-2.757,1.682-3.924c0.948-0.966,2.097-1.549,3.445-1.75c0.265-0.036,0.647-0.055,1.148-0.055
			c1.695,0,3.071,0.438,4.129,1.313C179.873,103.865,180.406,105.142,180.406,106.818z M173.529,103.277
			c-2.251,0.611-3.377,1.974-3.377,4.088c0,0.602,0.096,1.107,0.287,1.518c0.155,0.383,0.351,0.584,0.588,0.602
			c0.383-0.018,0.82-0.674,1.313-1.969C172.841,106.213,173.237,104.8,173.529,103.277z"/>
		<path d="M187.393,100.68h1.764v3.979h4.252v1.695h-4.252v4.703h5.4v1.695h-12.305v-1.695h5.141V100.68z"/>
		<path d="M196.361,101.104h12.195v1.641h-5.25v1.613c1.55,0.83,2.88,1.714,3.992,2.652l-1.244,1.436
			c-0.793-0.711-1.709-1.381-2.748-2.01v6.371h-1.914v-10.063h-5.031V101.104z"/>
		<path d="M210.361,102.539h3.965c0.246-0.783,0.474-1.604,0.684-2.461l1.873,0.533c-0.191,0.666-0.383,1.309-0.574,1.928h6.248
			v1.641h-6.809c-0.273,0.748-0.556,1.454-0.848,2.119h6.85v1.545h-2.844v3.158h3.705v1.709H213v-1.709h4.102v-3.158h-2.898
			c-0.856,1.76-1.81,3.291-2.857,4.594c-0.347-0.565-0.779-1.043-1.299-1.436c1.468-1.731,2.712-4.006,3.732-6.822h-3.418V102.539z"
			/>
		<path d="M224.307,102.539h4.129c0.228-0.72,0.442-1.504,0.643-2.352l2.023,0.369c-0.228,0.702-0.451,1.363-0.67,1.982h6.248v1.641
			h-6.891c-0.337,0.793-0.679,1.481-1.025,2.064h6.59v6.74h-1.846v-0.725H228.9v0.725h-1.859v-4.402
			c-0.738,0.839-1.522,1.559-2.352,2.16c-0.183-0.592-0.492-1.107-0.93-1.545c1.449-1.148,2.557-2.342,3.322-3.582
			c0.265-0.419,0.511-0.897,0.738-1.436h-3.514V102.539z M228.9,110.578h4.607v-2.68H228.9V110.578z"/>
		<path d="M242.244,100.242l0.834,1.408c-0.583,0.256-1.167,0.461-1.75,0.615v1.791h1.313v1.545h-1.313v0.465
			c0.602,0.62,1.185,1.117,1.75,1.49c-0.465,0.465-0.774,0.907-0.93,1.326c-0.282-0.219-0.556-0.469-0.82-0.752v5.072h-1.586v-3.965
			c-0.328,0.639-0.679,1.208-1.053,1.709c-0.137-0.646-0.424-1.23-0.861-1.75c0.438-0.428,0.807-0.971,1.107-1.627
			c0.282-0.564,0.538-1.221,0.766-1.969h-1.559v-1.545h1.6v-1.436c-0.401,0.055-0.802,0.096-1.203,0.123
			c-0.082-0.474-0.246-0.943-0.492-1.408C239.515,101.209,240.913,100.844,242.244,100.242z M245.361,100.078l1.586,0.479
			c-0.137,0.246-0.287,0.488-0.451,0.725h2.311l0.178-0.123l0.916,1.148c-0.948,1.34-1.919,2.348-2.912,3.021
			c-0.082,0.055-0.164,0.109-0.246,0.164l1.586,0.492c-0.228,0.328-0.47,0.634-0.725,0.916h2.352l1.094,0.889
			c-0.812,1.313-1.627,2.283-2.447,2.912c-0.574,0.529-1.276,0.989-2.105,1.381c-1.003,0.52-2.165,0.925-3.486,1.217
			c-0.173-0.483-0.46-0.935-0.861-1.354c1.513-0.337,2.748-0.738,3.705-1.203c-0.301-0.41-0.643-0.774-1.025-1.094l1.148-0.766
			c0.429,0.319,0.802,0.693,1.121,1.121c0.675-0.501,1.239-1.094,1.695-1.777h-2.475c-0.848,0.738-1.805,1.377-2.871,1.914
			c-0.265-0.446-0.61-0.829-1.039-1.148c1.841-0.802,3.281-1.964,4.32-3.486c-1.012,0.656-2.21,1.199-3.596,1.627
			c-0.046-0.392-0.265-0.852-0.656-1.381c0.976-0.255,1.813-0.547,2.516-0.875c-0.255-0.328-0.533-0.619-0.834-0.875l1.148-0.752
			c0.337,0.273,0.638,0.579,0.902,0.916c0.036-0.036,0.068-0.063,0.096-0.082c0.638-0.465,1.144-0.979,1.518-1.545h-2.297
			c-0.702,0.775-1.499,1.427-2.393,1.955c-0.273-0.446-0.62-0.829-1.039-1.148C243.488,102.599,244.577,101.51,245.361,100.078z"/>
		<path d="M257.994,100.242l0.711,1.258c-0.711,0.146-1.436,0.273-2.174,0.383v0.656h2.352v1.203h-2.352v0.602h2.352v4.252h-2.352
			v0.506h2.229v1.148h-2.229v0.547c0.656-0.091,1.345-0.205,2.064-0.342v0.438c0.483-0.656,0.856-1.289,1.121-1.9
			c0.438-0.902,0.692-2.306,0.766-4.211h-1.381v-1.436h1.408v-2.953h1.641v2.953h2.406c-0.055,4.184-0.164,6.745-0.328,7.684
			c-0.091,0.875-0.251,1.412-0.479,1.613c-0.137,0.209-0.853,0.378-2.146,0.506c0.027-0.502-0.173-1.049-0.602-1.641h1.436
			c0.091-0.018,0.146-0.109,0.164-0.273c0.219-1.467,0.328-3.618,0.328-6.453h-0.793c-0.082,2.023-0.351,3.605-0.807,4.744
			c-0.465,1.304-1.28,2.579-2.447,3.828c-0.419-0.447-0.897-0.812-1.436-1.094c0.137-0.128,0.265-0.26,0.383-0.396
			c-1.769,0.428-3.628,0.761-5.578,0.998l-0.26-1.572c0.921-0.045,1.937-0.141,3.049-0.287v-0.752h-2.68v-1.148h2.68v-0.506h-2.393
			v-4.252h2.393v-0.602h-2.734v-1.203h2.734v-0.479c-0.72,0.073-1.449,0.119-2.188,0.137c-0.073-0.438-0.237-0.87-0.492-1.299
			C254.339,100.826,256.217,100.607,257.994,100.242z M254.18,105.984h0.861v-0.547h-0.861V105.984z M255.041,107.502v-0.547h-0.861
			v0.547H255.041z M256.531,105.438v0.547h0.82v-0.547H256.531z M257.352,107.502v-0.547h-0.82v0.547H257.352z"/>
	</g>
	<g>
		<g>
			<g>
				<path fill="#FFFFFF" d="M137.297,106.289h-6.289v2.516c0,0.401,0.196,0.656,0.588,0.766c0.173,0.046,0.547,0.068,1.121,0.068
					h3.828v1.777h-3.623c-1.695,0-2.785-0.178-3.268-0.533c-0.319-0.255-0.479-0.715-0.479-1.381v-3.213h-3.719v-1.668h3.719v-2.352
					h-2.461v-1.75h8.832v1.75h-4.539v2.352h6.289V106.289z"/>
			</g>
			<g>
				<path fill="#FFFFFF" d="M151.406,105.25h-4.854c-0.164,1.723-0.36,2.854-0.588,3.391c-0.656,1.486-2.206,2.67-4.648,3.555
					c-0.091-0.256-0.219-0.57-0.383-0.943c-0.091-0.191-0.31-0.482-0.656-0.875c2.005-0.52,3.235-1.275,3.691-2.27
					c0.319-0.692,0.506-1.645,0.561-2.857h-5.236v-1.736h12.113V105.25z M149.055,102.119h-7.738v-1.818h7.738V102.119z
					 M151.297,101.395l-0.807,0.725c-0.447-0.592-0.912-1.125-1.395-1.6l0.793-0.656
					C150.444,100.401,150.914,100.912,151.297,101.395z M152.336,100.301l-0.82,0.779c-0.492-0.574-0.984-1.089-1.477-1.545
					l0.82-0.711C151.352,99.217,151.844,99.709,152.336,100.301z"/>
			</g>
			<g>
				<path fill="#FFFFFF" d="M157.818,101.121c-0.109,3.063-0.214,4.877-0.314,5.441c-0.392,2.124-1.595,3.855-3.609,5.195
					c-0.146-0.383-0.269-0.656-0.369-0.82c-0.064-0.055-0.324-0.323-0.779-0.807c1.686-0.947,2.688-2.256,3.008-3.924
					c0.146-0.766,0.219-2.461,0.219-5.086H157.818z M166.227,105.756c-1.012,1.723-2.935,3.578-5.77,5.564l-1.162-1.258l0.123-0.164
					v-9.762h1.9v8.299c1.395-1.066,2.557-2.36,3.486-3.883C165.26,105.036,165.734,105.438,166.227,105.756z"/>
			</g>
			<g>
				<path fill="#FFFFFF" d="M179.406,105.818c0,1.859-0.802,3.368-2.406,4.525c-0.647,0.465-1.741,0.884-3.281,1.258
					c-0.128-0.729-0.374-1.313-0.738-1.75c1.513-0.2,2.644-0.66,3.391-1.381c0.757-0.711,1.135-1.613,1.135-2.707
					c0-1.258-0.401-2.205-1.203-2.844c-0.528-0.4-1.203-0.651-2.023-0.752c-0.374,2.105-0.943,3.92-1.709,5.441
					c-0.93,1.896-1.868,2.844-2.816,2.844c-0.665,0-1.23-0.414-1.695-1.244c-0.438-0.783-0.656-1.718-0.656-2.803
					c0-1.449,0.561-2.757,1.682-3.924c0.948-0.966,2.097-1.549,3.445-1.75c0.265-0.036,0.647-0.055,1.148-0.055
					c1.695,0,3.071,0.438,4.129,1.313C178.873,102.865,179.406,104.142,179.406,105.818z M172.529,102.277
					c-2.251,0.611-3.377,1.974-3.377,4.088c0,0.602,0.096,1.107,0.287,1.518c0.155,0.383,0.351,0.584,0.588,0.602
					c0.383-0.018,0.82-0.674,1.313-1.969C171.841,105.213,172.237,103.8,172.529,102.277z"/>
			</g>
			<g>
				<path fill="#FFFFFF" d="M186.393,99.68h1.764v3.979h4.252v1.695h-4.252v4.703h5.4v1.695h-12.305v-1.695h5.141V99.68z"/>
			</g>
			<g>
				<path fill="#FFFFFF" d="M195.361,100.104h12.195v1.641h-5.25v1.613c1.55,0.83,2.88,1.714,3.992,2.652l-1.244,1.436
					c-0.793-0.711-1.709-1.381-2.748-2.01v6.371h-1.914v-10.063h-5.031V100.104z"/>
			</g>
			<g>
				<path fill="#FFFFFF" d="M209.361,101.539h3.965c0.246-0.783,0.474-1.604,0.684-2.461l1.873,0.533
					c-0.191,0.666-0.383,1.309-0.574,1.928h6.248v1.641h-6.809c-0.273,0.748-0.556,1.454-0.848,2.119h6.85v1.545h-2.844v3.158h3.705
					v1.709H212v-1.709h4.102v-3.158h-2.898c-0.856,1.76-1.81,3.291-2.857,4.594c-0.347-0.565-0.779-1.043-1.299-1.436
					c1.468-1.731,2.712-4.006,3.732-6.822h-3.418V101.539z"/>
			</g>
			<g>
				<path fill="#FFFFFF" d="M223.307,101.539h4.129c0.228-0.72,0.442-1.504,0.643-2.352l2.023,0.369
					c-0.228,0.702-0.451,1.363-0.67,1.982h6.248v1.641h-6.891c-0.337,0.793-0.679,1.481-1.025,2.064h6.59v6.74h-1.846v-0.725H227.9
					v0.725h-1.859v-4.402c-0.738,0.839-1.522,1.559-2.352,2.16c-0.183-0.592-0.492-1.107-0.93-1.545
					c1.449-1.148,2.557-2.342,3.322-3.582c0.265-0.419,0.511-0.897,0.738-1.436h-3.514V101.539z M227.9,109.578h4.607v-2.68H227.9
					V109.578z"/>
			</g>
			<g>
				<path fill="#FFFFFF" d="M241.244,99.242l0.834,1.408c-0.583,0.256-1.167,0.461-1.75,0.615v1.791h1.313v1.545h-1.313v0.465
					c0.602,0.62,1.185,1.117,1.75,1.49c-0.465,0.465-0.774,0.907-0.93,1.326c-0.282-0.219-0.556-0.469-0.82-0.752v5.072h-1.586
					v-3.965c-0.328,0.639-0.679,1.208-1.053,1.709c-0.137-0.646-0.424-1.23-0.861-1.75c0.438-0.428,0.807-0.971,1.107-1.627
					c0.282-0.564,0.538-1.221,0.766-1.969h-1.559v-1.545h1.6v-1.436c-0.401,0.055-0.802,0.096-1.203,0.123
					c-0.082-0.474-0.246-0.943-0.492-1.408C238.515,100.209,239.913,99.844,241.244,99.242z M244.361,99.078l1.586,0.479
					c-0.137,0.246-0.287,0.488-0.451,0.725h2.311l0.178-0.123l0.916,1.148c-0.948,1.34-1.919,2.348-2.912,3.021
					c-0.082,0.055-0.164,0.109-0.246,0.164l1.586,0.492c-0.228,0.328-0.47,0.634-0.725,0.916h2.352l1.094,0.889
					c-0.812,1.313-1.627,2.283-2.447,2.912c-0.574,0.529-1.276,0.989-2.105,1.381c-1.003,0.52-2.165,0.925-3.486,1.217
					c-0.173-0.483-0.46-0.935-0.861-1.354c1.513-0.337,2.748-0.738,3.705-1.203c-0.301-0.41-0.643-0.774-1.025-1.094l1.148-0.766
					c0.429,0.319,0.802,0.693,1.121,1.121c0.675-0.501,1.239-1.094,1.695-1.777h-2.475c-0.848,0.738-1.805,1.377-2.871,1.914
					c-0.265-0.446-0.61-0.829-1.039-1.148c1.841-0.802,3.281-1.964,4.32-3.486c-1.012,0.656-2.21,1.199-3.596,1.627
					c-0.046-0.392-0.265-0.852-0.656-1.381c0.976-0.255,1.813-0.547,2.516-0.875c-0.255-0.328-0.533-0.619-0.834-0.875l1.148-0.752
					c0.337,0.273,0.638,0.579,0.902,0.916c0.036-0.036,0.068-0.063,0.096-0.082c0.638-0.465,1.144-0.979,1.518-1.545h-2.297
					c-0.702,0.775-1.499,1.427-2.393,1.955c-0.273-0.446-0.62-0.829-1.039-1.148C242.488,101.599,243.577,100.51,244.361,99.078z"/>
			</g>
			<g>
				<path fill="#FFFFFF" d="M256.994,99.242l0.711,1.258c-0.711,0.146-1.436,0.273-2.174,0.383v0.656h2.352v1.203h-2.352v0.602
					h2.352v4.252h-2.352v0.506h2.229v1.148h-2.229v0.547c0.656-0.091,1.345-0.205,2.064-0.342v0.438
					c0.483-0.656,0.856-1.289,1.121-1.9c0.438-0.902,0.692-2.306,0.766-4.211h-1.381v-1.436h1.408v-2.953h1.641v2.953h2.406
					c-0.055,4.184-0.164,6.745-0.328,7.684c-0.091,0.875-0.251,1.412-0.479,1.613c-0.137,0.209-0.853,0.378-2.146,0.506
					c0.027-0.502-0.173-1.049-0.602-1.641h1.436c0.091-0.018,0.146-0.109,0.164-0.273c0.219-1.467,0.328-3.618,0.328-6.453h-0.793
					c-0.082,2.023-0.351,3.605-0.807,4.744c-0.465,1.304-1.28,2.579-2.447,3.828c-0.419-0.447-0.897-0.812-1.436-1.094
					c0.137-0.128,0.265-0.26,0.383-0.396c-1.769,0.428-3.628,0.761-5.578,0.998l-0.26-1.572c0.921-0.045,1.937-0.141,3.049-0.287
					v-0.752h-2.68v-1.148h2.68v-0.506h-2.393v-4.252h2.393v-0.602h-2.734v-1.203h2.734v-0.479c-0.72,0.073-1.449,0.119-2.188,0.137
					c-0.073-0.438-0.237-0.87-0.492-1.299C253.339,99.826,255.217,99.607,256.994,99.242z M253.18,104.984h0.861v-0.547h-0.861
					V104.984z M254.041,106.502v-0.547h-0.861v0.547H254.041z M255.531,104.438v0.547h0.82v-0.547H255.531z M256.352,106.502v-0.547
					h-0.82v0.547H256.352z"/>
			</g>
		</g>
	</g>
</g>
<g>
	<g opacity="0.3">
		<path d="M123.188,34.967l-0.391,0.344l-2.813-2.844l-2.789,2.836l-0.391-0.313l2.82-2.875l-2.82-2.797l0.391-0.352l2.789,2.789
			l2.813-2.789l0.391,0.352l-2.844,2.797L123.188,34.967z M118.289,32.115c0,0.162-0.06,0.305-0.18,0.43
			c-0.146,0.12-0.302,0.185-0.469,0.195c-0.198-0.016-0.352-0.081-0.461-0.195c-0.115-0.109-0.172-0.252-0.172-0.43
			c0-0.188,0.057-0.336,0.172-0.445c0.12-0.13,0.273-0.195,0.461-0.195c0.156,0,0.313,0.065,0.469,0.195
			C118.229,31.785,118.289,31.933,118.289,32.115z M120.617,29.771c-0.016,0.162-0.07,0.308-0.164,0.438
			c-0.156,0.136-0.313,0.203-0.469,0.203c-0.183,0-0.331-0.063-0.445-0.188c-0.125-0.114-0.188-0.266-0.188-0.453
			s0.06-0.338,0.18-0.453c0.114-0.125,0.266-0.188,0.453-0.188c0.151,0,0.307,0.068,0.469,0.203
			C120.547,29.443,120.602,29.589,120.617,29.771z M120.594,34.42c-0.031,0.167-0.089,0.31-0.172,0.43
			c-0.13,0.115-0.279,0.172-0.445,0.172c-0.177,0-0.32-0.057-0.43-0.172c-0.115-0.109-0.172-0.252-0.172-0.43
			c0-0.188,0.057-0.336,0.172-0.445c0.109-0.114,0.252-0.172,0.43-0.172c0.161,0,0.31,0.06,0.445,0.18
			C120.505,34.087,120.563,34.232,120.594,34.42z M122.898,32.115c0,0.162-0.058,0.305-0.172,0.43
			c-0.13,0.094-0.273,0.154-0.43,0.18c-0.412-0.042-0.617-0.245-0.617-0.609c0-0.188,0.057-0.336,0.172-0.445
			c0.114-0.114,0.263-0.172,0.445-0.172c0.151,0,0.294,0.058,0.43,0.172C122.841,31.779,122.898,31.928,122.898,32.115z"/>
		<path d="M124.336,29.74h3.008v0.742h-3.008V29.74z M126.25,35.232h-0.719v0.414h-0.906v-2.758h2.523v2.633h-0.898V35.232z
			 M124.711,31.803h2.344v0.711h-2.344V31.803z M124.742,28.678h2.313v0.781h-2.313V28.678z M124.742,30.74h2.313v0.742h-2.313
			V30.74z M126.25,33.709h-0.719v0.805h0.719V33.709z M128.492,28.451c0.302,0.417,0.521,0.781,0.656,1.094l-0.32,0.133h0.695
			l0.594-1.25L131,28.771l-0.461,0.906h0.891v0.867h-1.523v0.82h1.242v0.867h-1.242v0.914h1.719v0.844h-1.719v1.688h-0.969V33.99
			h-1.57v-0.844h1.57v-0.914h-1.227v-0.867h1.227v-0.82h-1.445v-0.867h0.758c-0.156-0.317-0.336-0.612-0.539-0.883L128.492,28.451z"
			/>
		<path d="M133.461,28.334l0.758,0.406c-0.219,0.511-0.469,1.013-0.75,1.508c0.104,0.083,0.2,0.162,0.289,0.234
			c0.219-0.411,0.422-0.838,0.609-1.281l0.781,0.445c-0.391,0.771-0.844,1.531-1.359,2.281c0.219-0.01,0.445-0.021,0.68-0.031
			c-0.058-0.156-0.12-0.313-0.188-0.469l0.742-0.258c0.177,0.365,0.333,0.769,0.469,1.211v-3.492h3.914v6.688h-0.945v-0.523h-2.031
			v0.594h-0.938V32.6l-0.719,0.227c-0.016-0.067-0.034-0.135-0.055-0.203c-0.115,0.021-0.232,0.037-0.352,0.047v0.586l0.688-0.141
			c0.078,0.537,0.213,1.034,0.406,1.492l-0.75,0.195c-0.136-0.463-0.25-0.919-0.344-1.367v2.367h-0.906v-3.031
			c-0.333,0.037-0.677,0.065-1.031,0.086l-0.117-0.867c0.177-0.005,0.359-0.01,0.547-0.016c0.161-0.245,0.323-0.497,0.484-0.758
			c-0.333-0.292-0.719-0.565-1.156-0.82l0.406-0.719c0.078,0.047,0.153,0.091,0.227,0.133
			C133.065,29.353,133.278,28.86,133.461,28.334z M132.656,33.115l0.773,0.148c-0.094,0.646-0.248,1.313-0.461,2
			c-0.271-0.141-0.531-0.232-0.781-0.273C132.38,34.443,132.536,33.818,132.656,33.115z M136.43,31.514H137v-1.742h-0.57V31.514z
			 M136.43,34.17H137v-1.742h-0.57V34.17z M137.844,29.771v1.742h0.617v-1.742H137.844z M137.844,34.17h0.617v-1.742h-0.617V34.17z"
			/>
		<path d="M142.289,29.295c-0.349,1.167-0.523,2.359-0.523,3.578c0,0.875,0.083,1.695,0.25,2.461l-1.031,0.219
			c-0.167-0.864-0.25-1.739-0.25-2.625c0-1.349,0.167-2.672,0.5-3.969L142.289,29.295z M147.594,34.24l-0.656,0.844
			c-0.261-0.219-0.542-0.445-0.844-0.68c-0.037,0.38-0.201,0.648-0.492,0.805c-0.37,0.151-0.703,0.224-1,0.219
			c-0.641-0.016-1.102-0.144-1.383-0.383c-0.287-0.239-0.43-0.508-0.43-0.805c0-0.828,0.575-1.242,1.727-1.242
			c0.109,0,0.305,0.021,0.586,0.063c-0.031-0.567-0.063-1.18-0.094-1.836c-0.49,0.042-0.852,0.063-1.086,0.063
			c-0.245,0-0.612-0.021-1.102-0.063v-1.008c0.531,0.068,0.938,0.102,1.219,0.102c0.276,0,0.599-0.008,0.969-0.023
			c-0.026-0.385-0.039-0.867-0.039-1.445h1.086c-0.016,0.214-0.023,0.474-0.023,0.781v0.555c0.135-0.036,0.5-0.13,1.094-0.281
			l0.023,1c-0.318,0.058-0.701,0.133-1.148,0.227c0.016,0.797,0.047,1.531,0.094,2.203C146.755,33.652,147.255,33.954,147.594,34.24
			z M145.133,33.92c-0.266-0.057-0.508-0.086-0.727-0.086c-0.516,0-0.773,0.125-0.773,0.375c0,0.24,0.258,0.378,0.773,0.414
			c0.276-0.021,0.477-0.094,0.602-0.219C145.065,34.306,145.106,34.144,145.133,33.92z"/>
		<path d="M154.719,32.904l-0.773,0.906c-0.224-0.239-0.672-0.622-1.344-1.148c-0.833,1.183-1.914,2.125-3.242,2.828
			c-0.151-0.375-0.38-0.688-0.688-0.938c1.479-0.708,2.495-1.536,3.047-2.484c-0.578-0.364-1.188-0.659-1.828-0.883l0.531-0.867
			c0.63,0.245,1.231,0.523,1.805,0.836c0.13-0.271,0.237-0.477,0.32-0.617c0.219-0.641,0.403-1.203,0.555-1.688l1.094,0.367
			c-0.146,0.313-0.242,0.565-0.289,0.758c-0.183,0.511-0.435,1.094-0.758,1.75C153.966,32.292,154.489,32.686,154.719,32.904z"/>
		<path d="M163.406,34.584h-6.859v-1.063h6.859V34.584z M162.398,30.787h-4.953v-1.031h4.953V30.787z"/>
		<path d="M170.781,35.24h-5.602v-0.977h3.195c0.047-0.63,0.109-1.344,0.188-2.141h-2.742v-0.969h3.93
			c-0.156,1.469-0.258,2.505-0.305,3.109h1.336V35.24z"/>
		<path d="M179.141,32.584h-6.289v-1.023h6.289V32.584z"/>
		<path d="M191.656,32.115l-2.188,1.734l-0.422-0.547l1.063-0.891h-5.773v-0.609h5.766l-1.055-0.883l0.422-0.547L191.656,32.115z"/>
		<path d="M199.68,29.318h-2.172v5.609h-0.945v-6.547h3.117V29.318z"/>
		<path d="M200.336,29.92h0.75v-1.406h0.883v1.406h0.594v0.906h-0.594v0.836c0.192-0.067,0.391-0.135,0.594-0.203v0.844
			l-0.594,0.219v2.367c0,0.349-0.094,0.565-0.281,0.648c-0.156,0.094-0.521,0.141-1.094,0.141c-0.016-0.24-0.102-0.521-0.258-0.844
			h0.719c0.021,0,0.031-0.052,0.031-0.156v-1.82l-0.656,0.258l-0.18-1c0.255-0.047,0.533-0.114,0.836-0.203v-1.086h-0.75V29.92z
			 M202.711,30.74h2v1.719h0.57V30.74h2.125v1.719h-1.945v0.367h2.07v0.781h-1.641c0.594,0.433,1.244,0.8,1.953,1.102
			c-0.287,0.255-0.484,0.526-0.594,0.813c-0.453-0.234-0.85-0.482-1.188-0.742c-0.214-0.146-0.414-0.297-0.602-0.453v1.383h-0.93
			v-1.414c-0.162,0.141-0.318,0.266-0.469,0.375c-0.479,0.344-0.969,0.627-1.469,0.852c-0.068-0.292-0.217-0.573-0.445-0.844
			c0.604-0.213,1.229-0.57,1.875-1.07h-1.461v-0.781h1.969v-0.367h-1.82V30.74z M203.25,28.607h3.469v1.852h-3.469V28.607z
			 M203.969,31.803v-0.438h-0.508v0.438H203.969z M205.805,29.771v-0.469h-1.656v0.469H205.805z M206.625,31.803v-0.438h-0.57v0.438
			H206.625z"/>
		<path d="M209.938,28.396l1.031,0.344c-0.229,0.531-0.469,1.042-0.719,1.531v1.336c0.739-0.755,1.322-1.825,1.75-3.211l0.969,0.281
			c-0.136,0.391-0.279,0.763-0.43,1.117h3.055v0.914h-2.219v0.719h1.773v0.875h-1.773v0.719h1.906v0.867h-1.906v1.852h-1.031v-5.031
			h-0.25c-0.37,0.683-0.787,1.266-1.25,1.75c-0.162-0.26-0.359-0.487-0.594-0.68v3.93h-1v-3.695
			c-0.214,0.328-0.433,0.644-0.656,0.945c-0.089-0.474-0.203-0.87-0.344-1.188C208.817,31.006,209.38,29.881,209.938,28.396z"/>
		<path d="M216.336,29.74h3.125v0.742h-3.125V29.74z M218.281,35.264h-0.75v0.383h-0.906v-2.758h2.563v2.031
			c0.317-0.167,0.555-0.396,0.711-0.688c0.141-0.286,0.231-0.773,0.273-1.461h-0.578v-2.57h1.992l0.5-1.75l0.945,0.375l-0.563,1.375
			h0.781v2.57h-0.906v1.938c0.016,0.099,0.099,0.148,0.25,0.148c0.119,0,0.211-0.06,0.273-0.18c0.067-0.125,0.102-0.333,0.102-0.625
			c0.208,0.136,0.486,0.24,0.836,0.313c-0.031,0.365-0.148,0.706-0.352,1.023c-0.131,0.172-0.323,0.258-0.578,0.258h-0.563
			c-0.245,0-0.453-0.073-0.625-0.219c-0.151-0.109-0.227-0.349-0.227-0.719v-1.938h-0.391c-0.058,0.859-0.178,1.487-0.359,1.883
			c-0.234,0.489-0.607,0.883-1.117,1.18c-0.089-0.214-0.225-0.443-0.406-0.688v0.398h-0.906V35.264z M216.742,28.74h2.344v0.742
			h-2.344V28.74z M216.742,30.803h2.344v0.68h-2.344V30.803z M216.742,31.826h2.344v0.688h-2.344V31.826z M218.281,33.709h-0.75
			v0.805h0.75V33.709z M220.492,28.576c0.286,0.479,0.494,0.896,0.625,1.25l-0.836,0.313c-0.172-0.438-0.37-0.844-0.594-1.219
			L220.492,28.576z M222.313,31.99v-0.969h-1.82v0.969H222.313z"/>
		<path d="M224.68,29.021h2.719v4.75h-1.836v0.625h-0.883V29.021z M225.563,30.959h0.93v-1.07h-0.93V30.959z M225.563,32.889h0.93
			v-1.117h-0.93V32.889z M228.086,28.74h3.195v4.836c0.031,1-0.042,1.594-0.219,1.781c-0.141,0.203-0.561,0.341-1.258,0.414
			c-0.011-0.287-0.115-0.609-0.313-0.969h0.625c0.15-0.01,0.216-0.106,0.195-0.289v-1.25h-1.617
			c-0.068,0.224-0.148,0.44-0.242,0.648c-0.292,0.719-0.808,1.367-1.547,1.945c-0.156-0.365-0.375-0.654-0.656-0.867
			c1.156-0.807,1.768-2.016,1.836-3.625V28.74z M228.883,32.459h1.43v-1.063h-1.344C228.969,31.756,228.939,32.11,228.883,32.459z
			 M228.969,30.576h1.344v-0.93h-1.344V30.576z"/>
		<path d="M235.422,35.803h-3.109v-0.938h2.164v-5.602h0.945V35.803z"/>
		<path d="M243.016,32.068c-0.5,1.099-1.073,1.998-1.719,2.695c-0.219-0.286-0.5-0.502-0.844-0.648
			c0.594-0.588,1.143-1.417,1.648-2.484L243.016,32.068z M247.375,31.131h-2.859v4.453h-1.047v-4.453h-2.766v-0.977h2.766v-1.523
			h1.047v1.523h2.859V31.131z M247.656,33.92c-0.225,0.115-0.381,0.222-0.469,0.32c-0.125,0.078-0.25,0.206-0.375,0.383
			c-0.776-0.667-1.391-1.542-1.844-2.625l0.914-0.5C246.263,32.431,246.854,33.238,247.656,33.92z M246.969,29.631l-0.43,0.438
			c-0.354-0.406-0.656-0.695-0.906-0.867l0.422-0.445C246.356,28.975,246.661,29.267,246.969,29.631z M247.656,28.975l-0.469,0.477
			c-0.261-0.328-0.57-0.612-0.93-0.852l0.461-0.469C247.041,28.371,247.354,28.652,247.656,28.975z"/>
		<path d="M254.938,30.318c-0.058,0.115-0.131,0.279-0.219,0.492c-0.995,2.484-2.742,4.107-5.242,4.867
			c-0.078-0.401-0.273-0.724-0.586-0.969c1.224-0.338,2.234-0.856,3.031-1.555c-0.375-0.375-0.805-0.719-1.289-1.031l0.656-0.719
			c0.505,0.297,0.95,0.623,1.336,0.977c0.349-0.463,0.674-1.044,0.977-1.742h-1.992c-0.584,0.839-1.409,1.617-2.477,2.336
			c-0.136-0.38-0.352-0.682-0.648-0.906c0.734-0.427,1.336-0.93,1.805-1.508c0.375-0.448,0.76-1.081,1.156-1.898l1.07,0.344
			c-0.12,0.219-0.234,0.451-0.344,0.695h2.055l0.086-0.07L254.938,30.318z"/>
		<path d="M259.719,30.389l-0.742,0.898c-0.578-0.547-1.203-1.039-1.875-1.477l0.664-0.836
			C258.438,29.36,259.088,29.832,259.719,30.389z M263.531,31.092c-1.125,1.599-2.795,2.94-5.008,4.023
			c-0.266,0.088-0.547,0.213-0.844,0.375l-0.547-1.086c2.313-0.771,4.195-2.141,5.648-4.109c0.078,0.115,0.182,0.266,0.313,0.453
			C263.156,30.826,263.302,30.941,263.531,31.092z"/>
		<path d="M269.219,31.584c0,0.948-0.219,1.906-0.656,2.875c-0.297,0.661-0.678,1.005-1.141,1.031
			c-0.386-0.026-0.792-0.352-1.219-0.977c0.244-0.198,0.439-0.432,0.586-0.703c0.213,0.38,0.403,0.578,0.57,0.594
			c0.135-0.021,0.31-0.333,0.523-0.938c0.224-0.635,0.352-1.239,0.383-1.813c-0.026-0.5-0.209-0.75-0.547-0.75
			c-0.1,0-0.273,0.023-0.523,0.07c-0.516,1.505-1.159,2.966-1.93,4.383l-0.969-0.523c0.369-0.479,0.836-1.383,1.398-2.711
			c0.083-0.208,0.219-0.531,0.406-0.969c-0.448,0.063-0.842,0.146-1.18,0.25l-0.156-1.055c0.453-0.026,0.992-0.091,1.617-0.195
			l0.406-1.523l1.094,0.328c-0.078,0.245-0.201,0.607-0.367,1.086c0.192-0.026,0.367-0.039,0.523-0.039
			c0.338,0,0.619,0.148,0.844,0.445C269.106,30.738,269.219,31.115,269.219,31.584z M271.656,32.771
			c-0.021,0.24-0.084,0.451-0.188,0.633c-0.156,0.172-0.396,0.263-0.719,0.273c-0.073-0.005-0.305-0.021-0.695-0.047
			c0.021-0.104,0.031-0.203,0.031-0.297c0-0.219-0.047-0.438-0.141-0.656c0.156,0.026,0.307,0.039,0.453,0.039
			c0.094-0.021,0.15-0.096,0.172-0.227c-0.021-0.578-0.472-1.325-1.352-2.242l0.688-0.547
			C271.057,30.759,271.641,31.782,271.656,32.771z"/>
		<path d="M278.906,33.178c0,0.823-0.436,1.458-1.305,1.906c-0.558,0.281-1.568,0.453-3.031,0.516
			c-0.016-0.333-0.109-0.659-0.281-0.977h0.688c0.927,0,1.646-0.159,2.156-0.477c0.422-0.26,0.638-0.57,0.648-0.93
			c0.005-0.229-0.076-0.414-0.242-0.555c-0.209-0.172-0.451-0.258-0.727-0.258c-0.475,0-0.982,0.144-1.523,0.43
			c-0.443,0.245-0.813,0.589-1.109,1.031l-0.758-0.398c0.078-1.229,0.234-2.352,0.469-3.367l1.055,0.289
			c-0.292,0.828-0.459,1.492-0.5,1.992c0.297-0.229,0.638-0.417,1.023-0.563c0.51-0.188,0.989-0.281,1.438-0.281
			c0.583,0,1.044,0.13,1.383,0.391C278.7,32.256,278.906,32.673,278.906,33.178z M277.219,29.217l-0.273,0.938
			c-0.995-0.188-1.881-0.5-2.656-0.938l0.406-0.859C275.481,28.738,276.322,29.024,277.219,29.217z"/>
		<path d="M286.75,35.178c-0.823,0.088-1.558,0.13-2.203,0.125c-1.401-0.011-2.37-0.177-2.906-0.5
			c-0.417-0.25-0.625-0.581-0.625-0.992c0-0.484,0.177-0.932,0.531-1.344l0.836,0.406c-0.229,0.313-0.344,0.563-0.344,0.75
			c0,0.203,0.114,0.349,0.344,0.438c0.427,0.136,1.063,0.203,1.906,0.203c0.766,0,1.552-0.067,2.359-0.203L286.75,35.178z
			 M286.031,30.561c-0.917,0.109-1.602,0.164-2.055,0.164c-0.896,0-1.675-0.106-2.336-0.32l0.25-0.93
			c0.755,0.167,1.377,0.25,1.867,0.25c0.354,0,1.083-0.063,2.188-0.188L286.031,30.561z M287.148,29.662l-0.461,0.383
			c-0.229-0.302-0.523-0.583-0.883-0.844l0.422-0.383C286.502,29.006,286.81,29.287,287.148,29.662z M287.844,29.037l-0.438,0.438
			c-0.292-0.307-0.592-0.588-0.898-0.844l0.43-0.406C287.25,28.449,287.552,28.72,287.844,29.037z"/>
		<path d="M289.43,31.803h5.031v2.656h-1.273v0.398c0.016,0.089,0.097,0.133,0.242,0.133h1.063c0.12,0,0.203-0.049,0.25-0.148
			c0.067-0.094,0.102-0.252,0.102-0.477c0.229,0.136,0.528,0.24,0.898,0.313c-0.031,0.292-0.156,0.565-0.375,0.82
			c-0.146,0.141-0.354,0.211-0.625,0.211h-1.594c-0.245,0-0.448-0.068-0.609-0.203c-0.151-0.099-0.227-0.323-0.227-0.672v-0.375
			h-0.805c-0.172,0.412-0.427,0.706-0.766,0.883c-0.464,0.245-1.159,0.409-2.086,0.492c-0.073-0.271-0.188-0.552-0.344-0.844
			c0.808-0.021,1.356-0.086,1.648-0.195c0.208-0.073,0.37-0.185,0.484-0.336h-1.016V31.803z M292.148,28.607v0.594h-1.242v0.313
			h1.211v0.469c0.38-0.427,0.692-0.956,0.938-1.586l0.883,0.211c-0.104,0.224-0.203,0.433-0.297,0.625h1.852v0.789h-2.297
			c-0.141,0.214-0.281,0.398-0.422,0.555c-0.192-0.213-0.411-0.393-0.656-0.539v0.734h-1.211v0.281h1.281v0.523h-2.758v0.133h-0.898
			v-3.102H292.148z M289.43,29.514h0.656v-0.313h-0.656V29.514z M289.43,30.264h1.883v-0.242h-1.883V30.264z M289.43,31.053h0.656
			v-0.281h-0.656V31.053z M290.313,32.576h3.25v-0.273h-3.25V32.576z M290.313,33.264h3.25V32.99h-3.25V33.264z M293.563,33.92
			v-0.273h-3.25v0.273H293.563z M292.625,30.678h2.656v0.75h-2.656V30.678z"/>
		<path d="M296.492,28.889h6.969v0.938h-3v0.922c0.886,0.474,1.646,0.979,2.281,1.516l-0.711,0.82
			c-0.453-0.406-0.977-0.789-1.57-1.148v3.641h-1.094v-5.75h-2.875V28.889z"/>
		<path d="M310.719,30.318c-0.396,0.125-0.979,0.289-1.75,0.492c0.411,0.724,0.911,1.294,1.5,1.711l-0.563,0.852
			c-0.489-0.297-1.151-0.445-1.984-0.445c-0.677,0-1.138,0.076-1.383,0.227c-0.203,0.12-0.305,0.287-0.305,0.5
			c0,0.172,0.146,0.344,0.438,0.516c0.344,0.214,0.974,0.32,1.891,0.32c0.386,0,0.93-0.039,1.633-0.117l0.031,0.984
			c-0.724,0.109-1.214,0.164-1.469,0.164c-1.433-0.021-2.411-0.229-2.938-0.625c-0.427-0.328-0.641-0.721-0.641-1.18
			c0-0.479,0.211-0.872,0.633-1.18c0.438-0.313,1.073-0.469,1.906-0.469c0.308,0,0.641,0.037,1,0.109
			c-0.276-0.333-0.542-0.727-0.797-1.18c-0.823,0.089-1.356,0.133-1.602,0.133c-0.229,0-0.653-0.031-1.273-0.094l0.055-0.992
			c0.37,0.031,0.776,0.06,1.219,0.086c0.489-0.026,0.864-0.047,1.125-0.063c-0.151-0.344-0.308-0.76-0.469-1.25l1.086-0.188
			c0.109,0.417,0.261,0.833,0.453,1.25c0.495-0.104,1.136-0.292,1.922-0.563L310.719,30.318z"/>
		<path d="M315.609,33.428c-0.219,0.583-0.398,0.992-0.539,1.227c-0.234,0.297-0.474,0.461-0.719,0.492
			c-0.328-0.031-0.62-0.299-0.875-0.805c-0.349-0.729-0.523-1.544-0.523-2.445c0-0.953,0.104-1.846,0.313-2.68l1.086,0.289
			c-0.266,0.833-0.398,1.641-0.398,2.422c0,0.531,0.05,1.013,0.148,1.445c0.063,0.255,0.146,0.388,0.25,0.398
			c0.089-0.01,0.245-0.331,0.469-0.961C315.081,33.107,315.344,33.313,315.609,33.428z M319.406,33.678l-1.094,0.32
			c-0.183-1.458-0.659-2.813-1.43-4.063l0.836-0.375C318.558,30.743,319.12,32.115,319.406,33.678z"/>
	</g>
	<g>
		<g>
			<g>
				<path fill="#FFFFFF" d="M122.188,33.967l-0.391,0.344l-2.813-2.844l-2.789,2.836l-0.391-0.313l2.82-2.875l-2.82-2.797
					l0.391-0.352l2.789,2.789l2.813-2.789l0.391,0.352l-2.844,2.797L122.188,33.967z M117.289,31.115c0,0.162-0.06,0.305-0.18,0.43
					c-0.146,0.12-0.302,0.185-0.469,0.195c-0.198-0.016-0.352-0.081-0.461-0.195c-0.115-0.109-0.172-0.252-0.172-0.43
					c0-0.188,0.057-0.336,0.172-0.445c0.12-0.13,0.273-0.195,0.461-0.195c0.156,0,0.313,0.065,0.469,0.195
					C117.229,30.785,117.289,30.933,117.289,31.115z M119.617,28.771c-0.016,0.162-0.07,0.308-0.164,0.438
					c-0.156,0.136-0.313,0.203-0.469,0.203c-0.183,0-0.331-0.063-0.445-0.188c-0.125-0.114-0.188-0.266-0.188-0.453
					s0.06-0.338,0.18-0.453c0.114-0.125,0.266-0.188,0.453-0.188c0.151,0,0.307,0.068,0.469,0.203
					C119.547,28.443,119.602,28.589,119.617,28.771z M119.594,33.42c-0.031,0.167-0.089,0.31-0.172,0.43
					c-0.13,0.115-0.279,0.172-0.445,0.172c-0.177,0-0.32-0.057-0.43-0.172c-0.115-0.109-0.172-0.252-0.172-0.43
					c0-0.188,0.057-0.336,0.172-0.445c0.109-0.114,0.252-0.172,0.43-0.172c0.161,0,0.31,0.06,0.445,0.18
					C119.505,33.087,119.563,33.232,119.594,33.42z M121.898,31.115c0,0.162-0.058,0.305-0.172,0.43
					c-0.13,0.094-0.273,0.154-0.43,0.18c-0.412-0.042-0.617-0.245-0.617-0.609c0-0.188,0.057-0.336,0.172-0.445
					c0.114-0.114,0.263-0.172,0.445-0.172c0.151,0,0.294,0.058,0.43,0.172C121.841,30.779,121.898,30.928,121.898,31.115z"/>
			</g>
			<g>
				<path fill="#FFFFFF" d="M123.336,28.74h3.008v0.742h-3.008V28.74z M125.25,34.232h-0.719v0.414h-0.906v-2.758h2.523v2.633
					h-0.898V34.232z M123.711,30.803h2.344v0.711h-2.344V30.803z M123.742,27.678h2.313v0.781h-2.313V27.678z M123.742,29.74h2.313
					v0.742h-2.313V29.74z M125.25,32.709h-0.719v0.805h0.719V32.709z M127.492,27.451c0.302,0.417,0.521,0.781,0.656,1.094
					l-0.32,0.133h0.695l0.594-1.25L130,27.771l-0.461,0.906h0.891v0.867h-1.523v0.82h1.242v0.867h-1.242v0.914h1.719v0.844h-1.719
					v1.688h-0.969V32.99h-1.57v-0.844h1.57v-0.914h-1.227v-0.867h1.227v-0.82h-1.445v-0.867h0.758
					c-0.156-0.317-0.336-0.612-0.539-0.883L127.492,27.451z"/>
			</g>
			<g>
				<path fill="#FFFFFF" d="M132.461,27.334l0.758,0.406c-0.219,0.511-0.469,1.013-0.75,1.508c0.104,0.083,0.2,0.162,0.289,0.234
					c0.219-0.411,0.422-0.838,0.609-1.281l0.781,0.445c-0.391,0.771-0.844,1.531-1.359,2.281c0.219-0.01,0.445-0.021,0.68-0.031
					c-0.058-0.156-0.12-0.313-0.188-0.469l0.742-0.258c0.177,0.365,0.333,0.769,0.469,1.211v-3.492h3.914v6.688h-0.945v-0.523
					h-2.031v0.594h-0.938V31.6l-0.719,0.227c-0.016-0.067-0.034-0.135-0.055-0.203c-0.115,0.021-0.232,0.037-0.352,0.047v0.586
					l0.688-0.141c0.078,0.537,0.213,1.034,0.406,1.492l-0.75,0.195c-0.136-0.463-0.25-0.919-0.344-1.367v2.367h-0.906v-3.031
					c-0.333,0.037-0.677,0.065-1.031,0.086l-0.117-0.867c0.177-0.005,0.359-0.01,0.547-0.016c0.161-0.245,0.323-0.497,0.484-0.758
					c-0.333-0.292-0.719-0.565-1.156-0.82l0.406-0.719c0.078,0.047,0.153,0.091,0.227,0.133
					C132.065,28.353,132.278,27.86,132.461,27.334z M131.656,32.115l0.773,0.148c-0.094,0.646-0.248,1.313-0.461,2
					c-0.271-0.141-0.531-0.232-0.781-0.273C131.38,33.443,131.536,32.818,131.656,32.115z M135.43,30.514H136v-1.742h-0.57V30.514z
					 M135.43,33.17H136v-1.742h-0.57V33.17z M136.844,28.771v1.742h0.617v-1.742H136.844z M136.844,33.17h0.617v-1.742h-0.617V33.17
					z"/>
			</g>
			<g>
				<path fill="#FFFFFF" d="M141.289,28.295c-0.349,1.167-0.523,2.359-0.523,3.578c0,0.875,0.083,1.695,0.25,2.461l-1.031,0.219
					c-0.167-0.864-0.25-1.739-0.25-2.625c0-1.349,0.167-2.672,0.5-3.969L141.289,28.295z M146.594,33.24l-0.656,0.844
					c-0.261-0.219-0.542-0.445-0.844-0.68c-0.037,0.38-0.201,0.648-0.492,0.805c-0.37,0.151-0.703,0.224-1,0.219
					c-0.641-0.016-1.102-0.144-1.383-0.383c-0.287-0.239-0.43-0.508-0.43-0.805c0-0.828,0.575-1.242,1.727-1.242
					c0.109,0,0.305,0.021,0.586,0.063c-0.031-0.567-0.063-1.18-0.094-1.836c-0.49,0.042-0.852,0.063-1.086,0.063
					c-0.245,0-0.612-0.021-1.102-0.063v-1.008c0.531,0.068,0.938,0.102,1.219,0.102c0.276,0,0.599-0.008,0.969-0.023
					c-0.026-0.385-0.039-0.867-0.039-1.445h1.086c-0.016,0.214-0.023,0.474-0.023,0.781v0.555c0.135-0.036,0.5-0.13,1.094-0.281
					l0.023,1c-0.318,0.058-0.701,0.133-1.148,0.227c0.016,0.797,0.047,1.531,0.094,2.203
					C145.755,32.652,146.255,32.954,146.594,33.24z M144.133,32.92c-0.266-0.057-0.508-0.086-0.727-0.086
					c-0.516,0-0.773,0.125-0.773,0.375c0,0.24,0.258,0.378,0.773,0.414c0.276-0.021,0.477-0.094,0.602-0.219
					C144.065,33.306,144.106,33.144,144.133,32.92z"/>
			</g>
			<g>
				<path fill="#FFFFFF" d="M153.719,31.904l-0.773,0.906c-0.224-0.239-0.672-0.622-1.344-1.148
					c-0.833,1.183-1.914,2.125-3.242,2.828c-0.151-0.375-0.38-0.688-0.688-0.938c1.479-0.708,2.495-1.536,3.047-2.484
					c-0.578-0.364-1.188-0.659-1.828-0.883l0.531-0.867c0.63,0.245,1.231,0.523,1.805,0.836c0.13-0.271,0.237-0.477,0.32-0.617
					c0.219-0.641,0.403-1.203,0.555-1.688l1.094,0.367c-0.146,0.313-0.242,0.565-0.289,0.758c-0.183,0.511-0.435,1.094-0.758,1.75
					C152.966,31.292,153.489,31.686,153.719,31.904z"/>
			</g>
			<g>
				<path fill="#FFFFFF" d="M162.406,33.584h-6.859v-1.063h6.859V33.584z M161.398,29.787h-4.953v-1.031h4.953V29.787z"/>
			</g>
			<g>
				<path fill="#FFFFFF" d="M169.781,34.24h-5.602v-0.977h3.195c0.047-0.63,0.109-1.344,0.188-2.141h-2.742v-0.969h3.93
					c-0.156,1.469-0.258,2.505-0.305,3.109h1.336V34.24z"/>
			</g>
			<g>
				<path fill="#FFFFFF" d="M178.141,31.584h-6.289v-1.023h6.289V31.584z"/>
			</g>
			<g>
				<path fill="#FFFFFF" d="M190.656,31.115l-2.188,1.734l-0.422-0.547l1.063-0.891h-5.773v-0.609h5.766l-1.055-0.883l0.422-0.547
					L190.656,31.115z"/>
			</g>
			<g>
				<path fill="#FFFFFF" d="M198.68,28.318h-2.172v5.609h-0.945v-6.547h3.117V28.318z"/>
			</g>
			<g>
				<path fill="#FFFFFF" d="M199.336,28.92h0.75v-1.406h0.883v1.406h0.594v0.906h-0.594v0.836c0.192-0.067,0.391-0.135,0.594-0.203
					v0.844l-0.594,0.219v2.367c0,0.349-0.094,0.565-0.281,0.648c-0.156,0.094-0.521,0.141-1.094,0.141
					c-0.016-0.24-0.102-0.521-0.258-0.844h0.719c0.021,0,0.031-0.052,0.031-0.156v-1.82l-0.656,0.258l-0.18-1
					c0.255-0.047,0.533-0.114,0.836-0.203v-1.086h-0.75V28.92z M201.711,29.74h2v1.719h0.57V29.74h2.125v1.719h-1.945v0.367h2.07
					v0.781h-1.641c0.594,0.433,1.244,0.8,1.953,1.102c-0.287,0.255-0.484,0.526-0.594,0.813c-0.453-0.234-0.85-0.482-1.188-0.742
					c-0.214-0.146-0.414-0.297-0.602-0.453v1.383h-0.93v-1.414c-0.162,0.141-0.318,0.266-0.469,0.375
					c-0.479,0.344-0.969,0.627-1.469,0.852c-0.068-0.292-0.217-0.573-0.445-0.844c0.604-0.213,1.229-0.57,1.875-1.07h-1.461v-0.781
					h1.969v-0.367h-1.82V29.74z M202.25,27.607h3.469v1.852h-3.469V27.607z M202.969,30.803v-0.438h-0.508v0.438H202.969z
					 M204.805,28.771v-0.469h-1.656v0.469H204.805z M205.625,30.803v-0.438h-0.57v0.438H205.625z"/>
			</g>
			<g>
				<path fill="#FFFFFF" d="M208.938,27.396l1.031,0.344c-0.229,0.531-0.469,1.042-0.719,1.531v1.336
					c0.739-0.755,1.322-1.825,1.75-3.211l0.969,0.281c-0.136,0.391-0.279,0.763-0.43,1.117h3.055v0.914h-2.219v0.719h1.773v0.875
					h-1.773v0.719h1.906v0.867h-1.906v1.852h-1.031v-5.031h-0.25c-0.37,0.683-0.787,1.266-1.25,1.75
					c-0.162-0.26-0.359-0.487-0.594-0.68v3.93h-1v-3.695c-0.214,0.328-0.433,0.644-0.656,0.945c-0.089-0.474-0.203-0.87-0.344-1.188
					C207.817,30.006,208.38,28.881,208.938,27.396z"/>
			</g>
			<g>
				<path fill="#FFFFFF" d="M215.336,28.74h3.125v0.742h-3.125V28.74z M217.281,34.264h-0.75v0.383h-0.906v-2.758h2.563v2.031
					c0.317-0.167,0.555-0.396,0.711-0.688c0.141-0.286,0.231-0.773,0.273-1.461h-0.578v-2.57h1.992l0.5-1.75l0.945,0.375
					l-0.563,1.375h0.781v2.57h-0.906v1.938c0.016,0.099,0.099,0.148,0.25,0.148c0.119,0,0.211-0.06,0.273-0.18
					c0.067-0.125,0.102-0.333,0.102-0.625c0.208,0.136,0.486,0.24,0.836,0.313c-0.031,0.365-0.148,0.706-0.352,1.023
					c-0.131,0.172-0.323,0.258-0.578,0.258h-0.563c-0.245,0-0.453-0.073-0.625-0.219c-0.151-0.109-0.227-0.349-0.227-0.719v-1.938
					h-0.391c-0.058,0.859-0.178,1.487-0.359,1.883c-0.234,0.489-0.607,0.883-1.117,1.18c-0.089-0.214-0.225-0.443-0.406-0.688v0.398
					h-0.906V34.264z M215.742,27.74h2.344v0.742h-2.344V27.74z M215.742,29.803h2.344v0.68h-2.344V29.803z M215.742,30.826h2.344
					v0.688h-2.344V30.826z M217.281,32.709h-0.75v0.805h0.75V32.709z M219.492,27.576c0.286,0.479,0.494,0.896,0.625,1.25
					l-0.836,0.313c-0.172-0.438-0.37-0.844-0.594-1.219L219.492,27.576z M221.313,30.99v-0.969h-1.82v0.969H221.313z"/>
			</g>
			<g>
				<path fill="#FFFFFF" d="M223.68,28.021h2.719v4.75h-1.836v0.625h-0.883V28.021z M224.563,29.959h0.93v-1.07h-0.93V29.959z
					 M224.563,31.889h0.93v-1.117h-0.93V31.889z M227.086,27.74h3.195v4.836c0.031,1-0.042,1.594-0.219,1.781
					c-0.141,0.203-0.561,0.341-1.258,0.414c-0.011-0.287-0.115-0.609-0.313-0.969h0.625c0.15-0.01,0.216-0.106,0.195-0.289v-1.25
					h-1.617c-0.068,0.224-0.148,0.44-0.242,0.648c-0.292,0.719-0.808,1.367-1.547,1.945c-0.156-0.365-0.375-0.654-0.656-0.867
					c1.156-0.807,1.768-2.016,1.836-3.625V27.74z M227.883,31.459h1.43v-1.063h-1.344C227.969,30.756,227.939,31.11,227.883,31.459z
					 M227.969,29.576h1.344v-0.93h-1.344V29.576z"/>
			</g>
			<g>
				<path fill="#FFFFFF" d="M234.422,34.803h-3.109v-0.938h2.164v-5.602h0.945V34.803z"/>
			</g>
			<g>
				<path fill="#FFFFFF" d="M242.016,31.068c-0.5,1.099-1.073,1.998-1.719,2.695c-0.219-0.286-0.5-0.502-0.844-0.648
					c0.594-0.588,1.143-1.417,1.648-2.484L242.016,31.068z M246.375,30.131h-2.859v4.453h-1.047v-4.453h-2.766v-0.977h2.766v-1.523
					h1.047v1.523h2.859V30.131z M246.656,32.92c-0.225,0.115-0.381,0.222-0.469,0.32c-0.125,0.078-0.25,0.206-0.375,0.383
					c-0.776-0.667-1.391-1.542-1.844-2.625l0.914-0.5C245.263,31.431,245.854,32.238,246.656,32.92z M245.969,28.631l-0.43,0.438
					c-0.354-0.406-0.656-0.695-0.906-0.867l0.422-0.445C245.356,27.975,245.661,28.267,245.969,28.631z M246.656,27.975
					l-0.469,0.477c-0.261-0.328-0.57-0.612-0.93-0.852l0.461-0.469C246.041,27.371,246.354,27.652,246.656,27.975z"/>
			</g>
			<g>
				<path fill="#FFFFFF" d="M253.938,29.318c-0.058,0.115-0.131,0.279-0.219,0.492c-0.995,2.484-2.742,4.107-5.242,4.867
					c-0.078-0.401-0.273-0.724-0.586-0.969c1.224-0.338,2.234-0.856,3.031-1.555c-0.375-0.375-0.805-0.719-1.289-1.031l0.656-0.719
					c0.505,0.297,0.95,0.623,1.336,0.977c0.349-0.463,0.674-1.044,0.977-1.742h-1.992c-0.584,0.839-1.409,1.617-2.477,2.336
					c-0.136-0.38-0.352-0.682-0.648-0.906c0.734-0.427,1.336-0.93,1.805-1.508c0.375-0.448,0.76-1.081,1.156-1.898l1.07,0.344
					c-0.12,0.219-0.234,0.451-0.344,0.695h2.055l0.086-0.07L253.938,29.318z"/>
			</g>
			<g>
				<path fill="#FFFFFF" d="M258.719,29.389l-0.742,0.898c-0.578-0.547-1.203-1.039-1.875-1.477l0.664-0.836
					C257.438,28.36,258.088,28.832,258.719,29.389z M262.531,30.092c-1.125,1.599-2.795,2.94-5.008,4.023
					c-0.266,0.088-0.547,0.213-0.844,0.375l-0.547-1.086c2.313-0.771,4.195-2.141,5.648-4.109c0.078,0.115,0.182,0.266,0.313,0.453
					C262.156,29.826,262.302,29.941,262.531,30.092z"/>
			</g>
			<g>
				<path fill="#FFFFFF" d="M268.219,30.584c0,0.948-0.219,1.906-0.656,2.875c-0.297,0.661-0.678,1.005-1.141,1.031
					c-0.386-0.026-0.792-0.352-1.219-0.977c0.244-0.198,0.439-0.432,0.586-0.703c0.213,0.38,0.403,0.578,0.57,0.594
					c0.135-0.021,0.31-0.333,0.523-0.938c0.224-0.635,0.352-1.239,0.383-1.813c-0.026-0.5-0.209-0.75-0.547-0.75
					c-0.1,0-0.273,0.023-0.523,0.07c-0.516,1.505-1.159,2.966-1.93,4.383l-0.969-0.523c0.369-0.479,0.836-1.383,1.398-2.711
					c0.083-0.208,0.219-0.531,0.406-0.969c-0.448,0.063-0.842,0.146-1.18,0.25l-0.156-1.055c0.453-0.026,0.992-0.091,1.617-0.195
					l0.406-1.523l1.094,0.328c-0.078,0.245-0.201,0.607-0.367,1.086c0.192-0.026,0.367-0.039,0.523-0.039
					c0.338,0,0.619,0.148,0.844,0.445C268.106,29.738,268.219,30.115,268.219,30.584z M270.656,31.771
					c-0.021,0.24-0.084,0.451-0.188,0.633c-0.156,0.172-0.396,0.263-0.719,0.273c-0.073-0.005-0.305-0.021-0.695-0.047
					c0.021-0.104,0.031-0.203,0.031-0.297c0-0.219-0.047-0.438-0.141-0.656c0.156,0.026,0.307,0.039,0.453,0.039
					c0.094-0.021,0.15-0.096,0.172-0.227c-0.021-0.578-0.472-1.325-1.352-2.242l0.688-0.547
					C270.057,29.759,270.641,30.782,270.656,31.771z"/>
			</g>
			<g>
				<path fill="#FFFFFF" d="M277.906,32.178c0,0.823-0.436,1.458-1.305,1.906c-0.558,0.281-1.568,0.453-3.031,0.516
					c-0.016-0.333-0.109-0.659-0.281-0.977h0.688c0.927,0,1.646-0.159,2.156-0.477c0.422-0.26,0.638-0.57,0.648-0.93
					c0.005-0.229-0.076-0.414-0.242-0.555c-0.209-0.172-0.451-0.258-0.727-0.258c-0.475,0-0.982,0.144-1.523,0.43
					c-0.443,0.245-0.813,0.589-1.109,1.031l-0.758-0.398c0.078-1.229,0.234-2.352,0.469-3.367l1.055,0.289
					c-0.292,0.828-0.459,1.492-0.5,1.992c0.297-0.229,0.638-0.417,1.023-0.563c0.51-0.188,0.989-0.281,1.438-0.281
					c0.583,0,1.044,0.13,1.383,0.391C277.7,31.256,277.906,31.673,277.906,32.178z M276.219,28.217l-0.273,0.938
					c-0.995-0.188-1.881-0.5-2.656-0.938l0.406-0.859C274.481,27.738,275.322,28.024,276.219,28.217z"/>
			</g>
			<g>
				<path fill="#FFFFFF" d="M285.75,34.178c-0.823,0.088-1.558,0.13-2.203,0.125c-1.401-0.011-2.37-0.177-2.906-0.5
					c-0.417-0.25-0.625-0.581-0.625-0.992c0-0.484,0.177-0.932,0.531-1.344l0.836,0.406c-0.229,0.313-0.344,0.563-0.344,0.75
					c0,0.203,0.114,0.349,0.344,0.438c0.427,0.136,1.063,0.203,1.906,0.203c0.766,0,1.552-0.067,2.359-0.203L285.75,34.178z
					 M285.031,29.561c-0.917,0.109-1.602,0.164-2.055,0.164c-0.896,0-1.675-0.106-2.336-0.32l0.25-0.93
					c0.755,0.167,1.377,0.25,1.867,0.25c0.354,0,1.083-0.063,2.188-0.188L285.031,29.561z M286.148,28.662l-0.461,0.383
					c-0.229-0.302-0.523-0.583-0.883-0.844l0.422-0.383C285.502,28.006,285.81,28.287,286.148,28.662z M286.844,28.037l-0.438,0.438
					c-0.292-0.307-0.592-0.588-0.898-0.844l0.43-0.406C286.25,27.449,286.552,27.72,286.844,28.037z"/>
			</g>
			<g>
				<path fill="#FFFFFF" d="M288.43,30.803h5.031v2.656h-1.273v0.398c0.016,0.089,0.097,0.133,0.242,0.133h1.063
					c0.12,0,0.203-0.049,0.25-0.148c0.067-0.094,0.102-0.252,0.102-0.477c0.229,0.136,0.528,0.24,0.898,0.313
					c-0.031,0.292-0.156,0.565-0.375,0.82c-0.146,0.141-0.354,0.211-0.625,0.211h-1.594c-0.245,0-0.448-0.068-0.609-0.203
					c-0.151-0.099-0.227-0.323-0.227-0.672v-0.375h-0.805c-0.172,0.412-0.427,0.706-0.766,0.883
					c-0.464,0.245-1.159,0.409-2.086,0.492c-0.073-0.271-0.188-0.552-0.344-0.844c0.808-0.021,1.356-0.086,1.648-0.195
					c0.208-0.073,0.37-0.185,0.484-0.336h-1.016V30.803z M291.148,27.607v0.594h-1.242v0.313h1.211v0.469
					c0.38-0.427,0.692-0.956,0.938-1.586l0.883,0.211c-0.104,0.224-0.203,0.433-0.297,0.625h1.852v0.789h-2.297
					c-0.141,0.214-0.281,0.398-0.422,0.555c-0.192-0.213-0.411-0.393-0.656-0.539v0.734h-1.211v0.281h1.281v0.523h-2.758v0.133
					h-0.898v-3.102H291.148z M288.43,28.514h0.656v-0.313h-0.656V28.514z M288.43,29.264h1.883v-0.242h-1.883V29.264z
					 M288.43,30.053h0.656v-0.281h-0.656V30.053z M289.313,31.576h3.25v-0.273h-3.25V31.576z M289.313,32.264h3.25V31.99h-3.25
					V32.264z M292.563,32.92v-0.273h-3.25v0.273H292.563z M291.625,29.678h2.656v0.75h-2.656V29.678z"/>
			</g>
			<g>
				<path fill="#FFFFFF" d="M295.492,27.889h6.969v0.938h-3v0.922c0.886,0.474,1.646,0.979,2.281,1.516l-0.711,0.82
					c-0.453-0.406-0.977-0.789-1.57-1.148v3.641h-1.094v-5.75h-2.875V27.889z"/>
			</g>
			<g>
				<path fill="#FFFFFF" d="M309.719,29.318c-0.396,0.125-0.979,0.289-1.75,0.492c0.411,0.724,0.911,1.294,1.5,1.711l-0.563,0.852
					c-0.489-0.297-1.151-0.445-1.984-0.445c-0.677,0-1.138,0.076-1.383,0.227c-0.203,0.12-0.305,0.287-0.305,0.5
					c0,0.172,0.146,0.344,0.438,0.516c0.344,0.214,0.974,0.32,1.891,0.32c0.386,0,0.93-0.039,1.633-0.117l0.031,0.984
					c-0.724,0.109-1.214,0.164-1.469,0.164c-1.433-0.021-2.411-0.229-2.938-0.625c-0.427-0.328-0.641-0.721-0.641-1.18
					c0-0.479,0.211-0.872,0.633-1.18c0.438-0.313,1.073-0.469,1.906-0.469c0.308,0,0.641,0.037,1,0.109
					c-0.276-0.333-0.542-0.727-0.797-1.18c-0.823,0.089-1.356,0.133-1.602,0.133c-0.229,0-0.653-0.031-1.273-0.094l0.055-0.992
					c0.37,0.031,0.776,0.06,1.219,0.086c0.489-0.026,0.864-0.047,1.125-0.063c-0.151-0.344-0.308-0.76-0.469-1.25l1.086-0.188
					c0.109,0.417,0.261,0.833,0.453,1.25c0.495-0.104,1.136-0.292,1.922-0.563L309.719,29.318z"/>
			</g>
			<g>
				<path fill="#FFFFFF" d="M314.609,32.428c-0.219,0.583-0.398,0.992-0.539,1.227c-0.234,0.297-0.474,0.461-0.719,0.492
					c-0.328-0.031-0.62-0.299-0.875-0.805c-0.349-0.729-0.523-1.544-0.523-2.445c0-0.953,0.104-1.846,0.313-2.68l1.086,0.289
					c-0.266,0.833-0.398,1.641-0.398,2.422c0,0.531,0.05,1.013,0.148,1.445c0.063,0.255,0.146,0.388,0.25,0.398
					c0.089-0.01,0.245-0.331,0.469-0.961C314.081,32.107,314.344,32.313,314.609,32.428z M318.406,32.678l-1.094,0.32
					c-0.183-1.458-0.659-2.813-1.43-4.063l0.836-0.375C317.558,29.743,318.12,31.115,318.406,32.678z"/>
			</g>
		</g>
	</g>
</g>
</svg>
