<?xml version="1.0" encoding="utf-8"?>
<!-- Generator: Adobe Illustrator 12.0.0, SVG Export Plug-In . SVG Version: 6.00 Build 51448)  -->
<!DOCTYPE svg PUBLIC "-//W3C//DTD SVG 1.1//EN" "http://www.w3.org/Graphics/SVG/1.1/DTD/svg11.dtd" [
	<!ENTITY ns_svg "http://www.w3.org/2000/svg">
	<!ENTITY ns_xlink "http://www.w3.org/1999/xlink">
]>
<svg  version="1.1" id="レイヤー_1" xmlns="&ns_svg;" xmlns:xlink="&ns_xlink;" width="494.842" height="184.654"
	 viewBox="0 0 494.842 184.654" overflow="visible" enable-background="new 0 0 494.842 184.654" xml:space="preserve">
<g>
	<g>
		<g>
			<path fill="#FFFFFF" d="M229.511,14.465c-0.144,0.315-0.444,0.645-0.902,0.988c-0.487,0.315-0.816,0.788-0.988,1.418
				c-3.037,9.195-7.677,16.171-13.922,20.926l-0.688-0.73c4.641-6.216,7.72-13.292,9.238-21.227
				c0.229-1.203,0.344-2.148,0.344-2.836c-0.058-0.974-0.831-1.905-2.32-2.793l0.301-0.859c1.833,0.258,3.724,0.945,5.672,2.063
				C228.25,12.589,229.339,13.605,229.511,14.465z M249.19,32.684c0,2.435-1.031,3.695-3.094,3.781
				c-1.146-0.086-1.934-1.346-2.363-3.781c-1.748-8.852-5.285-16.414-10.613-22.688l0.773-0.645c4.182,3.18,7.462,6.503,9.84,9.969
				C247.371,24.563,249.19,29.017,249.19,32.684z M246.784,12.617c-0.115,1.175-0.63,1.791-1.547,1.848
				c-0.659-0.057-1.347-0.544-2.063-1.461c-1.347-2.148-2.822-3.667-4.426-4.555l0.129-0.816c1.776,0.229,3.452,0.759,5.027,1.59
				C245.681,10.082,246.641,11.214,246.784,12.617z M250.394,8.621c0,1.089-0.516,1.662-1.547,1.719
				c-0.659,0.029-1.347-0.473-2.063-1.504c-1.318-1.575-2.908-2.778-4.77-3.609l0.129-0.859c1.747,0,3.409,0.287,4.984,0.859
				C249.161,5.914,250.25,7.046,250.394,8.621z"/>
		</g>
		<g>
			<path fill="#FFFFFF" d="M291.48,22.543c0,0.802-0.459,1.203-1.375,1.203c-0.115,0-1.018-0.043-2.707-0.129
				c-1.748-0.114-3.538-0.172-5.371-0.172c-12.433,0-19.336,0.501-20.711,1.504c-0.602,0.373-1.061,0.587-1.375,0.645
				c-0.831-0.057-1.633-0.559-2.406-1.504c-1.289-1.575-2.32-3.624-3.094-6.145l1.031-0.258c0.716,1.719,1.904,2.65,3.566,2.793
				l26.469-1.16c0.859-0.229,1.489-0.344,1.891-0.344c0.688,0,1.719,0.573,3.094,1.719C291.15,21.211,291.48,21.827,291.48,22.543z"
				/>
		</g>
		<g>
			<path fill="#FFFFFF" d="M333.531,20.953c-0.057,0.945-0.372,1.418-0.945,1.418c-1.002,0-2.535-0.143-4.598-0.43
				c-2.033-0.315-3.58-0.473-4.641-0.473h-5.672c-0.344,6.044-1.26,10.055-2.748,12.031c-2.662,3.552-7.689,6.13-15.08,7.734
				l-0.344-1.031c5.042-1.604,8.522-3.938,10.441-7.004c1.49-2.349,2.363-6.13,2.621-11.344c-2.005,0.144-3.838,0.315-5.5,0.516
				c-3.322,0.458-5.313,0.988-5.973,1.59c-0.544,0.401-0.959,0.602-1.246,0.602c-0.773,0-1.518-0.616-2.234-1.848
				c-1.174-2.034-1.919-3.81-2.234-5.328l1.031-0.301c0.773,1.49,1.805,2.234,3.094,2.234c3.008,0,7.42-0.286,13.234-0.859v-7.563
				l-13.879,0.688l-0.258-1.246c8.107-0.859,16.628-2.965,25.563-6.316l3.395,3.438c0.516,0.573,0.831,1.031,0.945,1.375
				c-0.114,0.458-0.357,0.688-0.73,0.688c-0.286,0-0.615-0.057-0.988-0.172c-0.688-0.086-1.06-0.129-1.117-0.129
				c-0.086,0-0.83,0.101-2.234,0.301c-1.317,0.229-3.236,0.501-5.758,0.816v7.906c0.945,0,3.295-0.1,7.047-0.301
				c1.719-0.172,2.793-0.358,3.223-0.559c0.659-0.458,1.117-0.688,1.375-0.688c0.315,0,1.232,0.688,2.75,2.063
				C332.987,19.65,333.475,20.38,333.531,20.953z"/>
		</g>
		<g>
			<path fill="#FFFFFF" d="M370.03,21.469c0,0.516-0.501,0.816-1.504,0.902c-0.63,0.086-1.39,0.616-2.277,1.59
				c-1.862,1.633-4.211,3.552-7.047,5.758l-0.645-0.645c1.547-2.377,3.137-5.17,4.77-8.379c-3.953,0.745-7.262,1.533-9.926,2.363
				c1.862,8.422,3.165,13.736,3.91,15.941c0.058,0.544,0.2,1.231,0.43,2.063c-0.114,0.802-0.544,1.26-1.289,1.375
				c-0.945-0.115-1.919-0.458-2.922-1.031c-0.773-0.602-1.16-1.175-1.16-1.719v-0.859c-0.086-1.174-0.43-3.509-1.031-7.004
				l-1.719-7.734c-2.979,0.716-4.612,1.332-4.898,1.848c-0.544,0.602-0.96,0.902-1.246,0.902c-0.544-0.086-1.347-0.759-2.406-2.02
				c-1.06-1.317-1.762-2.879-2.105-4.684l0.902-0.172c0.516,1.175,1.246,1.762,2.191,1.762c1.805,0,4.097-0.286,6.875-0.859
				l-1.375-5.543c-0.344-1.489-1.489-2.263-3.438-2.32v-0.945l1.934-0.172c1.547,0,2.965,0.201,4.254,0.602
				c1.575,0.373,2.449,0.816,2.621,1.332c0,0.172-0.187,0.43-0.559,0.773c-0.372,0.287-0.487,0.759-0.344,1.418l0.902,4.125
				l10.613-1.676l1.375-1.762l4.254,3.652C369.744,20.81,370.03,21.183,370.03,21.469z"/>
		</g>
		<g>
			<path fill="#FFFFFF" d="M390.658,11.414c0,0.287-0.186,0.559-0.559,0.816c-0.314,0.258-0.473,0.788-0.473,1.59v3.266
				c0,5.271-0.672,9.482-2.016,12.633c-1.688,3.839-5.41,7.448-11.168,10.828l-0.688-0.73c3.008-2.606,5.143-5.228,6.402-7.863
				c1.834-3.781,2.75-8.866,2.75-15.254v-4.082c0-2.177-0.916-3.38-2.75-3.609l0.086-1.031c1.49,0,3.279,0.416,5.367,1.246
				C389.528,9.91,390.544,10.641,390.658,11.414z M414.846,17.945c-1.805,5.042-3.795,9.038-5.973,11.988
				c-2.177,2.894-4.755,5.515-7.734,7.863c-0.859,0.544-1.317,1.131-1.375,1.762c-0.086,0.659-0.314,0.988-0.688,0.988
				c-0.458,0-0.988-0.344-1.59-1.031l-3.223-3.824l1.762-0.773l-0.172-25.91c0-2.148-1.103-3.438-3.309-3.867l0.344-1.117
				c1.805,0.144,3.682,0.602,5.629,1.375c2.148,0.831,3.309,1.647,3.48,2.449c0,0.144-0.215,0.473-0.645,0.988
				c-0.458,0.43-0.701,1.117-0.73,2.063l-0.387,21.398c5.1-3.409,9.711-8.379,13.836-14.91L414.846,17.945z"/>
		</g>
		<g>
			<path fill="#FFFFFF" d="M212.504,57.52c2.778,0.315,4.727,0.96,5.844,1.934c0.773,0.716,1.174,1.504,1.203,2.363
				c0,2.177-0.974,3.266-2.922,3.266c-0.602,0-1.06-0.616-1.375-1.848c-0.602-2.148-1.676-3.752-3.223-4.813L212.504,57.52z
				 M225.094,52.535l1.031,0.559l-6.918,22.73c-0.086,0.315-0.129,0.788-0.129,1.418c0,0.63,0.215,1.647,0.645,3.051
				c0.344,1.003,0.516,1.848,0.516,2.535c-0.029,2.177-0.931,3.266-2.707,3.266c-1.805,0-2.736-1.089-2.793-3.266
				c0-0.688,0.186-1.532,0.559-2.535c0.401-1.403,0.616-2.42,0.645-3.051c-0.029-0.888-0.416-1.704-1.16-2.449
				c-0.315-0.372-1.132-0.673-2.449-0.902v-1.074h3.609L225.094,52.535z M215.125,47.938c3.008,0.287,5.127,0.945,6.359,1.977
				c0.859,0.745,1.317,1.562,1.375,2.449c0,2.177-0.988,3.266-2.965,3.266c-0.688,0-1.218-0.63-1.59-1.891
				c-0.688-2.206-1.934-3.867-3.738-4.984L215.125,47.938z M231.066,75.266l4.297,2.922c0.487,0.344,0.73,0.745,0.73,1.203
				c0,0.43-0.745,0.645-2.234,0.645c-3.896,2.778-8.25,4.97-13.063,6.574l-0.559-1.074C224.821,82.47,228.431,79.047,231.066,75.266
				z M247.738,51.875c-5.5,0.544-10.871,0.96-16.113,1.246v7.348h12.347l2.793-3.266l4.297,3.266v1.162h-6.531v11.745h1.16
				l2.621-3.266l4.297,3.266v1.156h-31.297l-0.516-1.156h6.016V49.297l5.027,2.363c5.213-1.174,9.94-2.664,14.18-4.469l3.48,3.051
				c0.572,0.401,0.859,0.831,0.859,1.289c0,0.43-0.301,0.645-0.902,0.645L247.738,51.875z M231.625,73.375h8.094v-11.75h-8.094
				V73.375z M238.629,75.781c4.784,0.831,8.278,2.163,10.484,3.996c1.547,1.175,2.349,2.649,2.406,4.426
				c-0.144,1.489-0.932,2.234-2.363,2.234c-0.859,0-1.604-0.516-2.234-1.547c-2.234-3.609-5.171-6.359-8.809-8.25L238.629,75.781z"
				/>
		</g>
		<g>
			<path fill="#FFFFFF" d="M268.464,53.738l3.781,2.793v1.156h-6.875v6.23c2.148,0.344,3.695,1.003,4.641,1.977
				c0.058,0.086,0.144,0.172,0.258,0.258c1.117-3.151,1.962-6.202,2.535-9.152c0.516-2.492,0.96-5.571,1.332-9.238l5.758,1.805
				c0.487,0.115,0.73,0.416,0.73,0.902c0,0.544-0.63,1.017-1.891,1.418c-1.117,3.81-2.177,6.646-3.18,8.508
				c-1.317,2.607-2.864,4.884-4.641,6.832c0.172,0.43,0.272,0.874,0.301,1.332c0,1.948-0.859,2.922-2.578,2.922
				c-0.659,0-1.132-0.659-1.418-1.977c-0.372-1.547-0.988-2.807-1.848-3.781v19.98l-4.844,0.73V70.621
				c-1.633,3.123-3.409,5.572-5.328,7.348l-0.344-1.16c2.177-4.87,3.968-11.243,5.371-19.121h-4.855l-0.516-1.156h5.672V46.52
				l5.574,0.645c0.888,0.115,1.332,0.373,1.332,0.773c0,0.458-0.688,0.859-2.063,1.203v7.391h0.645L268.464,53.738z M278.245,60.828
				l5.93,1.805c0.516,0.172,0.773,0.473,0.773,0.902c0,0.458-0.759,0.874-2.277,1.246c-2.606,6.56-5.042,11.573-7.305,15.039
				l11.258-0.387c-1.031-2.406-2.563-4.669-4.598-6.789l0.473-0.816c3.839,1.776,6.688,3.767,8.551,5.973
				c1.433,1.862,2.148,3.595,2.148,5.199c0,1.948-0.802,2.922-2.406,2.922c-1.403,0-2.378-0.917-2.922-2.75
				c-0.2-0.859-0.444-1.69-0.73-2.492c-3.208,0.802-8.179,1.977-14.91,3.523c-0.229,1.002-0.53,1.504-0.902,1.504
				c-0.516,0-0.931-0.315-1.246-0.945l-2.191-4.727l5.414-0.172C275.137,75.137,276.784,68.792,278.245,60.828z M283.745,47.766
				h0.988c0.917,3.781,2.263,6.976,4.039,9.582c1.633,2.435,3.839,4.555,6.617,6.359l-0.129,1.074
				c-2.005,0.258-3.495,1.404-4.469,3.438c-1.862-2.206-3.337-4.841-4.426-7.906C285.249,57.162,284.375,52.979,283.745,47.766z"/>
		</g>
		<g>
			<path fill="#FFFFFF" d="M336.029,68.949c0,0.688-0.415,1.074-1.246,1.16c-0.057,0-0.501-0.028-1.332-0.086
				c-0.83-0.057-1.618-0.086-2.363-0.086h-4.211c-1.031,0-3.337,0.172-6.918,0.516c0.602,4.698,1.218,8.708,1.848,12.031
				c0.086,0.602,0.129,1.117,0.129,1.547c0,1.031-0.387,1.547-1.16,1.547c-1.088,0-2.148-0.344-3.18-1.031
				c-1.117-0.802-1.676-1.719-1.676-2.75c0-0.315,0.086-0.888,0.258-1.719c0.086-0.716,0.086-1.977,0-3.781
				c-0.172-1.862-0.357-3.681-0.559-5.457c-1.891,0.344-3.781,0.673-5.672,0.988c-2.807,0.573-4.469,1.103-4.984,1.59
				c-0.773,0.688-1.274,1.031-1.504,1.031c-1.117,0-2.248-0.888-3.395-2.664c-0.859-1.346-1.489-2.735-1.891-4.168l0.816-0.43
				c0.545,1.289,1.748,2.005,3.609,2.148c0.773-0.143,5.014-0.716,12.719-1.719l-0.902-7.047c-4.641,0.43-7.434,0.645-8.379,0.645
				c-2.406,0-4.411-1.575-6.016-4.727l0.902-0.602c1.146,1.289,2.564,1.934,4.254,1.934c2.436,0,5.343-0.272,8.723-0.816
				l-0.688-4.555c-0.344-2.406-1.604-3.652-3.781-3.738l0.215-0.988l1.891-0.215c1.69,0,3.28,0.229,4.77,0.688
				c1.748,0.544,2.65,1.117,2.707,1.719c0,0.229-0.157,0.587-0.473,1.074c-0.314,0.373-0.473,0.917-0.473,1.633l0.344,3.867
				c4.297-0.745,7.019-1.461,8.164-2.148c0.459-0.344,0.816-0.516,1.074-0.516c0.344,0,1.074,0.43,2.191,1.289
				c0.945,0.659,1.461,1.318,1.547,1.977c-0.086,0.573-0.544,1.003-1.375,1.289L318.67,59.84l0.859,7.219
				c6.445-0.602,10.055-1.188,10.828-1.762c0.487-0.401,0.874-0.602,1.16-0.602c0.43,0,1.418,0.673,2.965,2.02
				C335.514,67.632,336.029,68.376,336.029,68.949z"/>
		</g>
		<g>
			<path fill="#FFFFFF" d="M372.588,65.469c0,0.516-0.502,0.816-1.504,0.902c-0.631,0.086-1.391,0.616-2.277,1.59
				c-1.863,1.633-4.211,3.552-7.047,5.758l-0.645-0.645c1.547-2.377,3.137-5.17,4.77-8.379c-3.953,0.745-7.262,1.533-9.926,2.363
				c1.861,8.422,3.164,13.736,3.91,15.941c0.057,0.544,0.199,1.231,0.43,2.063c-0.115,0.802-0.545,1.26-1.289,1.375
				c-0.945-0.115-1.92-0.458-2.922-1.031c-0.773-0.602-1.16-1.175-1.16-1.719v-0.859c-0.086-1.174-0.43-3.509-1.031-7.004
				l-1.719-7.734c-2.98,0.716-4.613,1.332-4.898,1.848c-0.545,0.602-0.961,0.902-1.246,0.902c-0.545-0.086-1.348-0.759-2.406-2.02
				c-1.061-1.317-1.762-2.879-2.105-4.684l0.902-0.172c0.516,1.175,1.246,1.762,2.191,1.762c1.805,0,4.096-0.286,6.875-0.859
				l-1.375-5.543c-0.344-1.489-1.49-2.263-3.438-2.32v-0.945l1.934-0.172c1.547,0,2.965,0.201,4.254,0.602
				c1.574,0.373,2.449,0.816,2.621,1.332c0,0.172-0.188,0.43-0.559,0.773c-0.373,0.287-0.488,0.759-0.344,1.418l0.902,4.125
				l10.613-1.676l1.375-1.762l4.254,3.652C372.301,64.81,372.588,65.183,372.588,65.469z"/>
		</g>
		<g>
			<path fill="#FFFFFF" d="M414.354,57.949c-3.008,7.019-6.947,12.447-11.816,16.285c-3.496,2.808-7.85,5.457-13.063,7.949
				c-0.602,0.172-0.988,0.501-1.16,0.988c-0.459,0.688-0.803,1.031-1.031,1.031c-0.918-0.086-2.02-0.759-3.309-2.02
				c-1.777-1.891-2.908-3.724-3.395-5.5l1.031-0.387c0.859,1.318,1.947,1.991,3.266,2.02c0.486,0.086,1.332-0.129,2.535-0.645
				c10.77-4.354,19.521-11.1,26.254-20.238L414.354,57.949z M393.943,58.379c-0.115,1.69-1.047,2.593-2.793,2.707
				c-0.832-0.114-1.619-0.702-2.363-1.762c-2.779-4.039-5.344-6.431-7.691-7.176l0.215-0.859c3.408,0.086,6.244,0.659,8.508,1.719
				C392.453,54.211,393.828,56.001,393.943,58.379z"/>
		</g>
		<g>
			<path fill="#FFFFFF" d="M435.029,58.465c-0.144,0.315-0.444,0.645-0.902,0.988c-0.487,0.315-0.816,0.788-0.988,1.418
				c-3.037,9.195-7.678,16.171-13.922,20.926l-0.688-0.73c4.641-6.216,7.72-13.292,9.238-21.227
				c0.229-1.203,0.344-2.148,0.344-2.836c-0.058-0.974-0.831-1.905-2.32-2.793l0.301-0.859c1.833,0.258,3.724,0.945,5.672,2.063
				C433.769,56.589,434.857,57.605,435.029,58.465z M454.709,76.684c0,2.435-1.031,3.695-3.094,3.781
				c-1.146-0.086-1.934-1.346-2.363-3.781c-1.748-8.852-5.285-16.414-10.613-22.688l0.773-0.645c4.182,3.18,7.462,6.503,9.84,9.969
				C452.89,68.563,454.709,73.017,454.709,76.684z M455.01,54.211c0,1.289-0.444,2.363-1.332,3.223
				c-0.831,0.63-1.862,0.974-3.094,1.031c-1.232-0.057-2.206-0.458-2.922-1.203c-0.917-0.917-1.375-1.934-1.375-3.051
				c0-1.375,0.443-2.449,1.332-3.223c0.888-0.831,1.876-1.246,2.965-1.246c1.231,0,2.277,0.416,3.137,1.246
				C454.58,51.791,455.01,52.865,455.01,54.211z M453.033,54.211c0-0.831-0.301-1.461-0.902-1.891
				c-0.545-0.315-1.061-0.473-1.547-0.473c-0.631,0-1.175,0.215-1.633,0.645c-0.401,0.516-0.602,1.089-0.602,1.719
				c0,0.659,0.215,1.218,0.645,1.676c0.516,0.487,1.103,0.73,1.762,0.73c0.544,0,1.031-0.258,1.461-0.773
				C452.761,55.357,453.033,54.813,453.033,54.211z"/>
		</g>
		<g>
			<path fill="#FFFFFF" d="M494.842,80.465c-0.172,2.034-1.203,3.108-3.094,3.223c-1.175-0.115-2.249-1.246-3.223-3.395
				c-1.977-4.211-4.612-7.706-7.906-10.484c-2.779,2.836-5.07,4.999-6.875,6.488c-3.381,2.836-7.949,5.472-13.707,7.906
				l-0.516-1.031c6.33-3.781,11.301-8.063,14.91-12.848c2.119-2.75,4.182-6.073,6.188-9.969c0.458-0.888,1.26-2.592,2.406-5.113
				c-2.922,0.201-6.059,0.616-9.41,1.246c-2.006,0.344-3.338,0.788-3.996,1.332c-0.602,0.373-0.988,0.587-1.16,0.645
				c-1.003-0.114-2.02-1.203-3.051-3.266c-0.917-1.747-1.447-3.237-1.59-4.469l0.859-0.258c0.773,1.604,2.134,2.449,4.082,2.535
				c1.432-0.086,4.311-0.272,8.637-0.559l6.617-0.473l1.59-1.504l4.254,3.523c0.486,0.43,0.73,0.845,0.73,1.246
				c0,0.373-0.301,0.645-0.902,0.816c-0.545,0.115-0.988,0.172-1.332,0.172c-0.545,1.175-1.533,3.18-2.965,6.016
				c-1.232,2.263-2.607,4.426-4.125,6.488c3.008,1.404,4.97,2.392,5.887,2.965C492.191,74.822,494.756,77.744,494.842,80.465z"/>
		</g>
	</g>
</g>
<g>
	<path fill="#FFFFFF" d="M22.723,46.701v-0.55h-1.471v0.55h-6.674l-0.552,0.552v4.287h1.164v-3.735h3.735
		c0.123,0.612,0.123,1.837-0.856,2.693l0.735,0.858c1.285-1.102,1.408-2.693,1.285-3.612h3.37c-0.123,0.919-0.062,2.449,1.285,3.553
		l0.734-0.858c-0.979-0.858-0.979-2.083-0.856-2.695h4.226v3.735h1.164v-4.287l-0.552-0.55L22.723,46.701z M18.925,53.561v-1.164
		h-4.776v2.391c0,0.245,0.062,0.612,0.368,0.979c0.429,0.55,1.225,0.796,2.327,0.796h2.082v-1.164h-2.082
		c-0.919,0-1.287-0.246-1.41-0.367V54.97h3.553v-1.102h-3.674v-0.308H18.925z M14.76,57.115l-0.55,0.55v6.003h1.164v-5.453h13.228
		v5.392h1.164v-5.941l-0.55-0.55H14.76z"/>
	<path fill="#FFFFFF" d="M18.68,60.665v-0.673h6.615v0.673H18.68z M27.009,60.236v2.083h-4.347v-0.49h3.184l0.552-0.55v-1.837
		l-0.552-0.553h-7.777l-0.552,0.489v1.839l0.552,0.552h3.368v0.488h-4.472v-2.633h-1.164v3.245l0.552,0.552h5.083v0.49h-4.778v1.164
		h5.39l0.552-0.551v-1.104h4.899l0.552-0.552v-3.245h-1.164L27.009,60.236 M21.987,53.624c0.796,0,1.287,0.366,1.287,0.612
		s-0.49,0.612-1.287,0.612c-0.794,0-1.285-0.366-1.285-0.612C20.64,53.989,21.192,53.624,21.987,53.624z M19.538,56.563h1.164
		c0-0.246,0.491-0.611,1.285-0.611c0.796,0,1.287,0.365,1.287,0.611h1.164c0-0.429-0.244-0.857-0.612-1.164
		c0.368-0.306,0.612-0.735,0.612-1.164s-0.244-0.858-0.612-1.164c0.368-0.306,0.612-0.735,0.612-1.164h-1.164
		c0,0.246-0.49,0.611-1.287,0.611c-0.794,0-1.285-0.365-1.285-0.611h-1.164c0,0.429,0.244,0.857,0.612,1.164
		c-0.368,0.306-0.612,0.735-0.612,1.164s0.244,0.858,0.612,1.164C19.721,55.705,19.538,56.072,19.538,56.563 M29.765,52.396h-4.714
		v1.164h3.612v0.308h-3.612v1.164h3.551v0.062c-0.122,0.123-0.489,0.367-1.408,0.367H25.11v1.164h2.083
		c1.102,0,1.898-0.244,2.327-0.796c0.306-0.368,0.368-0.796,0.368-0.981v-0.06C29.765,54.664,29.765,52.396,29.765,52.396z"/>
	<path fill="#FFFFFF" d="M34.481,71.813c-4.716-1.227-5.146-4.289-10.902-3.247l-2.633,0.491c-1.593-1.654-2.878-3.124-6.615-3.124
		h-3.124c-0.429-0.979-0.856-1.837-1.593-2.571c-1.96-1.898-7.409-2.206-7.717-2.206c-0.183-0.551-0.306-1.103-0.429-1.654
		c3.002-1.593,7.901-4.715,12.004-8.269v-0.917C9.8,53.254,4.839,55.767,1.102,57.42c-0.121-0.796-0.121-1.654-0.121-2.45
		c0-11.575,9.431-20.946,21.006-20.946c9.677,0,17.884,6.615,20.273,15.557c-1.103-0.796-2.266-1.775-3.307-2.816H37.79
		c-4.166-4.228-7.534-9.373-7.534-9.373h-1.592l-0.368,0.858l-0.49-0.858h-1.898l-0.489,0.858l-0.308-0.858H23.52
		c0,0-2.145,4.349-5.941,8.821h0.858c3.368-4.166,5.328-8.269,5.328-8.269h0.979l0.308,0.917l-0.429,0.737h0.55l0.858-1.654h1.531
		l0.735,1.654h0.796l-0.429-0.737l0.306-0.917h1.042c0,0,2.389,4.593,6.615,9.615h1.041c1.531,1.716,3.247,3.491,5.145,5.083
		c0.062,0.796,0.121,1.531,0.121,2.328C42.933,61.891,39.626,68.017,34.481,71.813z M31.419,73.712
		c-5.757-0.552-8.146-2.327-9.859-4.043c5.144-0.611,5.572,2.573,10.717,3.553C32.033,73.406,31.725,73.589,31.419,73.712
		 M28.051,75.12c0,0-8.392-0.306-12.677-3.676c-2.206-1.714-3.124-3.307-3.799-4.654c7.534,0.308,4.593,6.981,17.884,7.84
		C28.969,74.814,28.542,74.936,28.051,75.12 M21.987,75.978c-9.125,0-16.965-5.88-19.842-14.087c0,0,3.43,0.185,4.899,2.45
		c1.47,2.266,2.451,5.205,6.982,8.022c4.532,2.818,10.044,3.063,11.943,3.247C24.683,75.854,23.335,75.978,21.987,75.978
		 M21.987,33.043C9.861,33.043,0,42.904,0,54.97c0,12.127,9.861,21.987,21.987,21.987c12.127,0,21.927-9.859,21.927-21.987
		C43.914,42.904,34.052,33.043,21.987,33.043 M95.85,38.619c-0.123-0.123-0.185-0.246-0.185-0.492c0-0.245,0.123-0.366,0.185-0.489
		c0.121-0.123,0.244-0.183,0.489-0.183h7.167c0.244,0,0.429,0.06,0.55,0.183c0.185,0.123,0.246,0.367,0.246,0.552
		c0,0.366-0.185,0.671-0.614,0.979c-0.367,0.245-0.856,0.491-1.531,0.735c-0.489,0.122-0.612,0.185-0.673,0.245
		c-0.55,0.185-0.673,0.306-0.673,0.306v0.063h5.267c-0.062,0.06-0.429,1.223-0.429,1.285h-4.837v2.143
		c0,0.552-0.123,0.919-0.367,1.164c-0.246,0.246-0.673,0.369-1.226,0.369c-0.367,0-0.857-0.062-1.408-0.123
		c-0.552-0.123-1.042-0.246-1.41-0.368c-0.183-0.062-0.306-0.123-0.429-0.244c-0.183-0.185-0.183-0.306-0.183-0.429
		c0-0.185,0.062-0.369,0.183-0.429c0.062-0.062,0.185-0.123,0.429-0.123c0.062,0,0.246,0,1.042,0.246
		c0.55,0.122,1.103,0.245,1.531,0.245c0.367,0,0.489-0.062,0.489-0.123c0,0,0.123-0.122,0.123-0.55v-1.654h-5.083
		c-0.183,0-0.368-0.062-0.491-0.185c-0.06-0.06-0.183-0.244-0.183-0.489c0-0.246,0.123-0.369,0.183-0.49
		c0.062-0.062,0.246-0.185,0.491-0.185h5.083v-0.306c0-0.429,0.367-0.796,1.102-1.041h0.062c0.367-0.123,0.735-0.246,1.041-0.369
		v-0.06h-5.328C96.094,38.74,95.971,38.679,95.85,38.619L95.85,38.619z"/>
	<path fill="#FFFFFF" d="M97.87,35.434h1.96l-0.121-0.185l-0.552-0.673c-0.429-0.491-0.49-0.675-0.49-0.858
		c0-0.123,0.062-0.246,0.185-0.429c0.183-0.183,0.306-0.183,0.429-0.183c0.183,0,0.368,0.06,0.612,0.244
		c0.185,0.122,0.429,0.368,0.796,0.735c0.246,0.245,0.367,0.429,0.49,0.55c0.123,0.185,0.123,0.308,0.123,0.492v0.183h0.735
		c0.429-0.367,0.856-0.796,1.225-1.225c0.612-0.735,0.856-0.858,1.041-0.858c0.183,0,0.367,0.062,0.55,0.185
		c0.123,0.123,0.185,0.306,0.185,0.489c0,0.185-0.123,0.429-0.429,0.735c-0.123,0.185-0.306,0.369-0.612,0.613l-0.062,0.062h0.917
		c0.308,0,0.552,0.123,0.796,0.306c0.246,0.183,0.308,0.49,0.308,0.796v1.898c-0.062,0-1.225,0.429-1.348,0.49v-1.96
		c0-0.062,0-0.185-0.062-0.244c0,0.121-0.121,0.121-0.183,0.121h-8.759c-0.122,0-0.183,0-0.245,0.062c0,0-0.062,0.062-0.062,0.246
		v1.652c0,0.123-0.062,0.306-0.244,0.429c-0.123,0.123-0.306,0.183-0.429,0.183c-0.185,0-0.306-0.06-0.429-0.122
		c-0.123-0.123-0.244-0.244-0.244-0.429v-2.206c0-0.366,0.121-0.671,0.306-0.856c0.183-0.185,0.491-0.245,0.917-0.245h1.104
		l-0.308-0.306c-0.796-0.798-0.856-0.981-0.856-1.104c0-0.183,0.06-0.306,0.183-0.429s0.306-0.183,0.429-0.183
		c0.244,0,0.552,0.183,1.041,0.552l0.062,0.06l0.244,0.246c0.491,0.429,0.737,0.735,0.737,0.979v0.122L97.87,35.434 M80.17,36.903
		c-0.123-0.123-0.183-0.306-0.183-0.49s0.06-0.368,0.183-0.491s0.306-0.183,0.49-0.183h4.716v-1.716
		c0-0.183,0.062-0.367,0.244-0.489c0.123-0.123,0.306-0.185,0.491-0.185c0.183,0,0.367,0.062,0.49,0.185
		c0.122,0.122,0.183,0.306,0.183,0.489v1.716h5.451c-0.062,0.06-0.49,1.346-0.49,1.346h-4.837v0.062
		c0.306,0.919,0.673,1.898,1.285,2.756c0.737,1.164,2.268,2.756,2.328,2.818c0.246,0.244,0.857,0.794,1.348,1.224
		c0.306,0.308,0.612,0.552,0.673,0.613c-0.122,0.062-1.593,0.613-1.654,0.613c-0.367-0.308-1.347-1.287-1.775-1.715
		c-0.735-0.735-1.347-1.531-1.837-2.389c-0.367-0.613-0.673-1.225-0.981-1.898l-0.06-0.062v0.062
		c-0.246,0.796-0.614,1.47-1.042,2.143c-0.55,0.858-1.347,1.715-2.266,2.512c-0.491,0.429-0.979,0.796-1.347,1.041
		c-0.552,0.368-0.796,0.429-0.919,0.429c-0.185,0-0.306-0.062-0.429-0.185c-0.123-0.122-0.185-0.245-0.185-0.429
		c0-0.242,0.185-0.488,1.104-1.1c0.611-0.429,1.164-0.919,1.652-1.348c0.734-0.735,1.348-1.531,1.777-2.449
		c0.368-0.798,0.612-1.656,0.796-2.574v-0.062h-4.655C80.417,37.086,80.293,37.026,80.17,36.903z M132.106,45.049l0.185,0.183
		l1.652-0.612c-0.183-0.183-2.266-1.96-2.756-2.45c-0.489-0.489-1.531-1.775-2.082-2.695c-0.49-0.919-0.796-1.777-0.858-2.449V34.27
		c0-0.123-0.062-0.306-0.244-0.429c-0.123-0.123-0.308-0.185-0.49-0.185c-0.185,0-0.306,0.062-0.491,0.185
		c-0.183,0.123-0.244,0.306-0.244,0.429v2.205c0,0.734-0.185,1.531-0.429,2.45c-0.306,0.917-0.673,1.714-1.164,2.387
		c-0.613,0.919-1.654,1.777-2.941,2.573l-0.121,0.06c-0.185,0.123-0.306,0.185-0.367,0.308c-0.123,0.121-0.123,0.244-0.123,0.367
		c0,0.183,0.062,0.306,0.185,0.429c0.121,0.123,0.244,0.183,0.427,0.183c0.185,0,0.369-0.06,0.552-0.123
		c0.185-0.122,0.49-0.245,0.796-0.489c0.429-0.246,0.796-0.552,1.164-0.796c0.367-0.308,0.673-0.55,0.919-0.858
		c0.488-0.55,0.917-1.164,1.285-1.837c0.308-0.552,0.552-1.164,0.796-1.898c0.185,0.489,0.429,1.041,0.675,1.531
		c0.368,0.673,0.735,1.285,1.224,1.775C130.331,43.273,131.495,44.559,132.106,45.049z M62.594,33.78h-8.33
		c-1.531,0-1.531,1.164-1.531,1.285v8.881c0,0.185,0.062,1.287,1.531,1.287h8.33c1.531,0,1.531-1.164,1.531-1.287v-8.94
		C64.185,34.82,64.063,33.78,62.594,33.78z M62.777,43.21c0,0.429-0.062,0.675-0.612,0.675h-7.534c-0.49,0-0.611-0.246-0.611-0.675
		v-7.532c0-0.429,0.062-0.673,0.611-0.673h7.596c0.489,0,0.612,0.244,0.612,0.673v7.532H62.777z M54.508,36.475
		c0,0.611,0.614,0.611,1.042,0.611h2.143v1.533h-1.898c-0.491,0-1.041,0-1.041,0.611c0,0.612,0.612,0.612,1.041,0.612h1.898v1.898
		h-2.266c-0.49,0-1.041,0-1.041,0.675c0,0.611,0.55,0.611,1.041,0.611h6.43l0.49-1.287h-0.979c0.062-0.06,0.245-0.183,0.245-0.489
		c0-0.246-0.306-0.734-0.491-0.98c-0.121-0.123-0.244-0.368-0.612-0.368c-0.306,0-0.611,0.185-0.611,0.614
		c0,0.244,0.611,1.1,0.734,1.164h-1.592v-1.898h2.51l0.429-1.227h-2.939v-1.47h2.756l0.488-1.287h-6.674
		C55.122,35.863,54.508,35.863,54.508,36.475z M67.737,36.534h9.615l0.49-1.347h-4.776v-0.796c0-0.673,0-1.041-0.796-1.041
		c-0.736,0-0.736,0.491-0.736,1.041v0.796h-3.735c-0.49,0-1.041,0-1.041,0.675C66.697,36.534,67.187,36.534,67.737,36.534z
		 M69.085,37.392c-0.246,0-0.796,0.185-0.796,0.675c0,0.123,0,0.183,0.183,0.673c0.429,1.042,0.796,2.449,0.919,2.877
		c0.429,1.533,0.49,1.777,0.979,1.777c0.062,0,0.675,0,0.796-0.55V42.66c0-0.244-0.489-2.206-1.103-3.799
		C69.759,37.821,69.515,37.392,69.085,37.392z M74.414,43.885c1.469-3.368,1.837-5.451,1.837-5.758c0-0.612-0.429-0.795-0.735-0.795
		c-0.55,0-0.612,0.245-0.796,1.041c-0.306,1.287-0.735,3-1.837,5.451H67.37c-0.55,0-1.041,0-1.041,0.673
		c0,0.675,0.491,0.675,1.041,0.675h10.35l0.491-1.41h-3.797V43.885z M110.241,39.107c0.308,0,0.675-0.246,0.613-0.673
		c-0.062-0.368-0.185-0.429-1.102-1.164c-0.919-0.736-1.042-0.796-1.287-0.796c-0.429,0-0.612,0.367-0.612,0.611
		c0,0.185,0.122,0.306,0.183,0.429c0.123,0.123,0.919,0.675,1.041,0.796C109.936,39.046,109.997,39.107,110.241,39.107z
		 M109.936,35.555c0.613,0.552,0.675,0.552,0.857,0.552c0.306,0,0.612-0.308,0.612-0.673c0-0.552-1.652-1.777-2.204-1.838
		c-0.245,0-0.612,0.123-0.612,0.612c0,0.123,0.062,0.308,0.183,0.429C108.895,34.82,109.752,35.434,109.936,35.555z M117.531,40.577
		c-0.246,0-0.613,0.246-0.613,0.675c0,0.122,0.062,0.306,0.429,0.918c0.245,0.49,0.368,0.675,0.614,1.225
		c-0.737,0.121-1.96,0.306-3.92,0.429c0.488-1.471,0.796-3.062,0.917-4.041h4.41l0.429-1.227h-3.614v-2.021h2.756l0.49-1.285h-3.247
		v-0.857c0-0.55,0-1.041-0.735-1.041c-0.673,0-0.673,0.55-0.673,1.041v0.857h-2.021c-0.49,0-1.041,0-1.041,0.614
		c0,0.612,0.55,0.612,1.041,0.612h2.021v2.021h-2.389c-0.49,0-1.041,0-1.041,0.611c0,0.612,0.612,0.612,1.041,0.612h1.225
		c-0.185,1.287-0.613,2.879-1.102,4.104c-0.735,0-1.287,0-1.287,0.673c0,0.062,0,0.675,0.735,0.675c0.919,0,3.858-0.185,6.43-0.734
		c0.062,0.242,0.123,0.427,0.368,1.041l1.164-0.429c-0.306-1.287-1.102-2.939-1.285-3.368
		C118.143,40.883,117.898,40.577,117.531,40.577z M110.549,40.454c-0.429,0-0.552,0.429-0.613,0.613
		c-0.429,1.285-1.226,2.572-1.652,3.247c-0.246,0.365-0.308,0.429-0.308,0.611c0,0.429,0.367,0.675,0.675,0.675
		c0.306,0,0.489-0.123,1.041-0.981c0.491-0.796,1.47-2.633,1.47-3.553C111.222,40.946,111.161,40.454,110.549,40.454z
		 M167.384,64.525v-0.063c0-0.06,0.244-0.365,1.592-0.734l1.593-0.488c1.652-0.553,2.816-1.104,3.674-1.716
		c0.981-0.735,1.47-1.531,1.47-2.388c0-0.552-0.183-1.042-0.612-1.409c-0.368-0.368-0.858-0.552-1.47-0.552h-17.026
		c-0.491,0-0.919,0.123-1.164,0.369c-0.185,0.183-0.49,0.55-0.49,1.164c0,0.489,0.123,0.918,0.429,1.164
		c0.306,0.306,0.673,0.429,1.226,0.429h12.739c-0.735,0.306-1.593,0.611-2.512,0.918l-0.121,0.062
		c-1.777,0.55-2.756,1.407-2.756,2.512v0.671h-12.004c-0.614,0-0.981,0.246-1.164,0.43c-0.185,0.185-0.429,0.552-0.429,1.163
		c0,0.613,0.245,0.981,0.491,1.164c0.306,0.246,0.673,0.429,1.164,0.429h12.004v3.92c0,1.041-0.185,1.287-0.185,1.287
		s-0.244,0.183-1.102,0.183c-1.041,0-2.266-0.183-3.614-0.489c-2.021-0.49-2.389-0.552-2.571-0.552
		c-0.552,0-0.858,0.183-1.041,0.367c-0.185,0.185-0.429,0.491-0.429,1.043c0,0.244,0.062,0.671,0.489,1.101
		c0.246,0.308,0.613,0.492,1.104,0.675c0.917,0.306,2.02,0.611,3.368,0.857c1.347,0.244,2.51,0.366,3.368,0.366
		c1.348,0,2.327-0.307,3-0.856c0.675-0.613,0.981-1.593,0.981-2.878v-4.962h11.452L180,64.525H167.384z"/>
	<path fill="#FFFFFF" d="M151.583,61.156c0.306,0.244,0.673,0.367,1.103,0.367c0.429,0,0.796-0.123,1.164-0.367
		c0.49-0.368,0.55-0.797,0.55-1.103v-3.858c0-0.367,0.062-0.49,0.062-0.55c0.062,0,0.185-0.063,0.49-0.063h20.946
		c0.244,0,0.429,0.063,0.49,0.123c0.06,0.062,0.121,0.246,0.121,0.49v4.839l3.37-1.227v-4.655c0-0.735-0.308-1.408-0.796-1.898
		c-0.552-0.489-1.225-0.794-1.96-0.794h-2.021c0.612-0.552,1.041-1.042,1.408-1.41c0.675-0.796,0.981-1.347,0.981-1.837
		c0-0.491-0.185-0.979-0.49-1.285c-0.368-0.369-0.796-0.492-1.287-0.492c-0.489,0-1.103,0.369-2.572,2.083
		c-0.919,1.102-1.96,2.143-2.939,3h-1.531c0.06-0.123,0.06-0.244,0.06-0.365c0-0.429-0.121-0.798-0.367-1.227
		c-0.183-0.366-0.55-0.794-1.102-1.347c-0.796-0.858-1.47-1.469-1.898-1.775c-0.55-0.429-1.041-0.613-1.47-0.613
		c-0.244,0-0.673,0.062-1.102,0.49c-0.429,0.368-0.49,0.796-0.49,1.102c0,0.368,0.185,0.858,1.225,2.021l1.287,1.531
		c0,0,0.121,0.183,0.183,0.244h-4.531c0-0.121,0.062-0.244,0.062-0.367c0-0.673-0.552-1.408-1.777-2.45c0,0-0.55-0.489-0.612-0.489
		l-0.123-0.123c-1.164-0.981-1.898-1.408-2.51-1.408c-0.429,0-0.796,0.122-1.164,0.427c-0.308,0.308-0.49,0.675-0.49,1.104
		c0,0.367,0.183,0.858,2.081,2.756l0.552,0.55h-2.389c-1.041,0-1.775,0.185-2.327,0.614c-0.55,0.429-0.796,1.164-0.796,2.081V60.3
		C150.97,60.482,151.216,60.85,151.583,61.156z M143.743,75.426l4.103-1.47c-0.306-0.367-3.98-3.553-4.899-4.47
		c-0.858-0.92-3.92-4.226-5.513-6.738c-1.347-2.206-2.327-4.41-3-6.614h11.392l1.224-3.43h-13.045v-4.041
		c0-0.429-0.183-0.858-0.55-1.227c-0.308-0.306-0.796-0.489-1.226-0.489c-0.49,0-0.919,0.123-1.287,0.429
		c-0.367,0.306-0.552,0.735-0.552,1.223v4.043h-11.146c-0.49,0-0.858,0.183-1.225,0.491c-0.306,0.306-0.489,0.735-0.489,1.225
		c0,0.489,0.183,0.917,0.489,1.224c0.308,0.306,0.735,0.49,1.225,0.49h10.902c-0.306,2.143-0.919,4.228-1.837,6.063
		c-0.98,2.083-2.389,4.043-4.164,5.759c-1.104,1.103-2.45,2.204-3.92,3.245c-2.145,1.532-2.573,2.204-2.573,2.756
		c0,0.429,0.123,0.797,0.429,1.104c0.306,0.306,0.673,0.488,1.102,0.488c0.308,0,0.919-0.123,2.268-0.98
		c0.917-0.612,2.02-1.408,3.245-2.449c2.266-1.898,4.164-3.92,5.512-5.939c0.979-1.533,1.837-3.248,2.451-5.084
		c0.673,1.593,1.469,3.122,2.387,4.532c1.225,1.958,2.694,3.92,4.41,5.695C140.497,72.302,143.009,74.753,143.743,75.426
		L143.743,75.426z M76.129,60.3h-2.512v-3.064h2.512V60.3z M76.129,66.729h-2.512v-3.246h2.512V66.729 M72.209,54.174h-2.45
		c0.123-0.306,0.244-0.673,0.367-1.041c0.185-0.552,0.368-1.164,0.552-1.837h3.674c-0.062,0.183-0.245,0.366-0.491,0.794
		C73.494,52.704,72.882,53.377,72.209,54.174 M81.58,60.3h-2.268v-3.185c0-0.981-0.244-1.716-0.673-2.145
		c-0.429-0.489-1.164-0.735-2.083-0.735h-0.427c0.489-0.552,0.856-1.041,1.164-1.531c0.55-0.857,0.796-1.531,0.796-2.143
		c0-0.675-0.246-1.227-0.675-1.654c-0.429-0.429-1.041-0.613-1.714-0.613h-4.41c-0.062-0.366-0.183-0.673-0.429-0.917
		c-0.183-0.185-0.55-0.429-1.164-0.429c-1.347,0-1.714,1.898-1.837,2.51l-0.244,1.104c-0.308,1.347-0.737,2.51-1.164,3.551
		c-0.367,0.858-0.796,1.654-1.287,2.327h-4.716v-0.857h3.858c0.246,0,0.673-0.06,1.041-0.489c0.246-0.306,0.429-0.675,0.429-1.041
		c0-0.369-0.121-0.735-0.429-1.042c-0.245-0.306-0.612-0.429-1.041-0.429h-3.858v-0.919h4.288c0.429,0,0.735-0.183,1.041-0.489
		c0.246-0.306,0.367-0.612,0.367-1.041c0-0.429-0.121-0.735-0.427-1.042c-0.246-0.245-0.614-0.427-0.981-0.427h-4.288v-0.369
		c0-0.429-0.183-0.794-0.429-1.041c-0.183-0.183-0.55-0.429-1.102-0.429c-0.429,0-0.796,0.123-1.102,0.429
		c-0.429,0.367-0.491,0.796-0.491,1.041v0.369h-4.287c-0.368,0-0.735,0.183-1.041,0.489c-0.245,0.306-0.368,0.612-0.368,1.041
		c0,0.369,0.123,0.735,0.368,0.981c0.244,0.244,0.611,0.429,0.979,0.429h4.287v0.917h-3.858c-0.55,0-0.856,0.246-1.041,0.429
		c-0.185,0.185-0.367,0.49-0.367,1.041c0,0.429,0.123,0.735,0.429,1.042c0.306,0.306,0.612,0.429,1.041,0.429h3.858v0.856h-4.837
		c-0.367,0-0.735,0.185-1.042,0.429c-0.244,0.306-0.429,0.613-0.429,1.042c0,0.367,0.123,0.734,0.429,1.04
		c0.368,0.368,0.735,0.43,0.981,0.43h13.168c0.979,0,1.898-0.674,2.756-2.083h2.02v3.062h-3.674c-0.429,0-0.796,0.185-1.041,0.429
		c-0.308,0.307-0.429,0.676-0.429,1.104s0.122,0.794,0.429,1.163c0.367,0.43,0.796,0.551,1.102,0.551h3.674v3.246h-3.124
		c-0.429,0-0.796,0.184-1.103,0.489c-0.244,0.306-0.429,0.675-0.429,1.104s0.123,0.858,0.429,1.103
		c0.185,0.183,0.552,0.427,1.103,0.427h3.124v2.635c0,0.491-0.122,0.612-0.122,0.612s-0.123,0.062-0.367,0.062
		c-0.308,0-0.675-0.062-1.164-0.183c-0.737-0.185-0.981-0.246-1.164-0.246c-0.552,0-0.919,0.246-1.104,0.429
		c-0.183,0.183-0.427,0.552-0.427,1.102c0,0.491,0.244,1.164,1.285,1.654c0.673,0.306,1.531,0.429,2.633,0.429
		c1.226,0,2.145-0.246,2.695-0.734c0.614-0.49,0.919-1.349,0.919-2.45v-3.309h2.941c0.979,0,1.652-0.183,2.081-0.671
		c0.429-0.43,0.673-1.104,0.673-2.083v-3.614h1.104L81.58,60.3"/>
	<path fill="#FFFFFF" d="M52.917,75.12c0,0.429,0.183,0.796,0.489,1.042c0.308,0.243,0.675,0.366,1.102,0.366
		c0.429,0,0.796-0.123,1.104-0.366c0.306-0.246,0.489-0.613,0.489-1.042v-3.676h4.043l1.102-3.063h-5.145v-1.1h4.104l1.041-3.003
		h-5.145v-1.04h5.574v9.247c0,0.428-0.123,0.551-0.123,0.551s-0.183,0.123-0.612,0.123c-0.429,0-0.919-0.062-1.531-0.246
		c-0.981-0.243-1.164-0.306-1.348-0.306c-0.429,0-0.796,0.123-1.041,0.429c-0.185,0.185-0.368,0.49-0.368,1.04
		c0,0.492,0.245,1.228,1.531,1.716c0.796,0.306,1.775,0.49,3,0.49s2.145-0.244,2.695-0.734c0.613-0.55,0.919-1.349,0.919-2.694
		V62.687c0-0.552-0.245-1.223-0.735-1.652c-0.49-0.492-1.102-0.734-1.898-0.734h-6.37c-0.858,0-1.593,0.242-2.082,0.672
		c-0.552,0.492-0.796,1.104-0.796,3.125V75.12z M106.444,70.649c0.675-0.552,1.042-1.286,1.042-2.327v-6.432
		c0-0.427-0.185-0.856-0.491-1.103c-0.306-0.246-0.673-0.429-1.164-0.429c-0.429,0-0.858,0.123-1.164,0.429
		c-0.306,0.307-0.49,0.676-0.49,1.103v5.757c0,0.246-0.062,0.429-0.123,0.552c-0.06,0.062-0.245,0.123-0.427,0.123h-8.698
		c-0.552,0-0.735-0.123-0.796-0.123c-0.062-0.062-0.123-0.246-0.123-0.49v-5.757c0-0.429-0.183-0.857-0.489-1.103
		c-0.308-0.244-0.675-0.429-1.102-0.429c-0.429,0-0.858,0.121-1.164,0.429c-0.369,0.307-0.552,0.674-0.552,1.164v6.491
		c0,0.981,0.306,1.716,0.919,2.267c0.612,0.49,1.408,0.796,2.449,0.796h9.738C104.975,71.385,105.833,71.139,106.444,70.649z"/>
	<path fill="#FFFFFF" d="M111.957,48.663c-0.612-0.552-1.47-0.798-2.572-0.798H88.868c-1.042,0-1.839,0.306-2.512,0.857
		c-0.612,0.552-0.979,1.349-0.979,2.268v23.824c0,0.306,0.121,0.673,0.55,1.04c0.306,0.244,0.675,0.367,1.102,0.367
		c0.429,0,0.796-0.123,1.104-0.367c0.489-0.367,0.55-0.796,0.55-1.04V51.847c0-0.306,0.062-0.55,0.185-0.614
		c0.062-0.06,0.244-0.183,0.917-0.183h18.498c0.917,0,1.102,0.183,1.164,0.183c0.06,0.063,0.121,0.246,0.121,0.614v18.374
		c0,1.041-0.183,1.775-0.612,2.081c-0.246,0.185-0.98,0.553-2.817,0.553c-0.735,0-1.593-0.062-2.51-0.184
		c-1.471-0.185-1.593-0.185-1.654-0.185c-0.552,0-0.919,0.245-1.102,0.428c-0.185,0.185-0.429,0.552-0.429,1.104
		c0,0.797,0.611,1.408,1.837,1.716c0.98,0.244,2.327,0.365,4.287,0.365c2.327,0,3.92-0.429,4.899-1.284
		c0.981-0.858,1.471-2.328,1.471-4.35V50.99C112.938,50.01,112.63,49.213,111.957,48.663z"/>
	<path fill="#FFFFFF" d="M100.749,59.073h7.35l1.164-3.122h-3.797c0.183-0.246,0.429-0.491,0.612-0.735
		c0.246-0.308,0.429-0.614,0.613-0.981c0.121-0.246,0.244-0.552,0.244-0.858V53.01c-0.062-0.368-0.244-0.735-0.552-1.041
		c-0.306-0.308-0.735-0.491-1.224-0.491h-0.367c-0.367,0.062-0.736,0.306-1.287,1.102c-0.123,0.123-0.185,0.245-0.306,0.429
		c-0.185,0.244-0.367,0.613-0.613,0.979c-0.429,0.675-0.858,1.348-1.285,1.962h-4.595c-0.673-1.47-1.224-2.451-1.652-3.002
		c-0.613-0.794-1.225-1.224-1.898-1.224c-0.613,0-0.981,0.245-1.164,0.429c-0.185,0.183-0.429,0.55-0.429,1.164
		c0,0.366,0.183,0.794,0.979,2.02c0.123,0.185,0.306,0.429,0.429,0.614h-2.327c-0.429,0-0.796,0.121-1.103,0.429
		c-0.306,0.306-0.429,0.671-0.429,1.101c0,0.429,0.123,0.798,0.429,1.104c0.368,0.429,0.796,0.489,1.103,0.489h6.799v9.249
		l3.307-1.225V59.073z"/>
</g>
<g>
	<g>
		<g>
			<path fill="#FFFFFF" d="M217.701,100.843c-0.06-0.888-0.696-1.368-1.836-1.368c-0.924,0-1.512,0.42-1.512,1.08
				c0,0.637,0.372,0.889,1.656,1.141l1.368,0.264c1.62,0.312,2.316,1.031,2.316,2.412c0,1.775-1.332,2.832-3.588,2.832
				c-2.232,0-3.516-1.021-3.624-2.893h1.752c0.06,0.936,0.744,1.452,1.968,1.452c1.092,0,1.764-0.444,1.764-1.176
				c0-0.708-0.444-1.044-1.644-1.272l-1.224-0.24c-1.776-0.336-2.46-0.996-2.46-2.352c0-1.704,1.212-2.688,3.312-2.688
				c1.356,0,3.432,0.42,3.432,2.808H217.701z"/>
		</g>
		<g>
			<path fill="#FFFFFF" d="M223.928,101.767c-0.756,0-1.296,0.528-1.296,1.272v3.888h-1.68v-8.748h1.68v3.204
				c0.468-0.708,1.068-1.044,1.896-1.044c0.924,0,2.112,0.444,2.112,2.243v4.345h-1.68v-3.96
				C224.96,102.271,224.708,101.767,223.928,101.767z"/>
		</g>
		<g>
			<path fill="#FFFFFF" d="M229.94,99.679h-1.68v-1.5h1.68V99.679z M229.94,106.927h-1.68v-6.479h1.68V106.927z"/>
		</g>
		<g>
			<path fill="#FFFFFF" d="M236.396,101.803l-3.18,3.768h3.288v1.356h-5.364v-1.356l3.204-3.768h-2.988v-1.355h5.04V101.803z"/>
		</g>
		<g>
			<path fill="#FFFFFF" d="M241.76,106.927v-0.769c-0.48,0.721-1.068,1.045-1.944,1.045c-1.38,0-2.172-0.816-2.172-2.244v-4.512
				h1.68v4.164c0,0.779,0.36,1.164,1.08,1.164c0.816,0,1.356-0.505,1.356-1.272v-4.056h1.68v6.479H241.76z"/>
		</g>
		<g>
			<path fill="#FFFFFF" d="M251.108,103.818c0,2.076-1.236,3.385-3.204,3.385c-1.992,0-3.204-1.297-3.204-3.433
				c0-2.124,1.212-3.432,3.192-3.432C249.921,100.339,251.108,101.623,251.108,103.818z M246.38,103.771
				c0,1.236,0.612,2.076,1.524,2.076c0.899,0,1.524-0.84,1.524-2.052c0-1.271-0.601-2.1-1.524-2.1
				C246.992,101.695,246.38,102.535,246.38,103.771z"/>
		</g>
		<g>
			<path fill="#FFFFFF" d="M256.172,100.447h1.908l-2.207,2.447l2.363,4.032h-1.968l-1.548-2.856l-0.672,0.732v2.124h-1.681v-8.748
				h1.681v4.788L256.172,100.447z"/>
		</g>
		<g>
			<path fill="#FFFFFF" d="M258.836,105.259c0-1.164,0.625-1.824,1.908-2.04l0.672-0.12c0.553-0.084,1.344-0.12,1.344-0.756
				c0-0.433-0.323-0.647-0.971-0.647c-0.828,0-1.104,0.215-1.188,0.887h-1.62c0.107-1.5,1.02-2.243,2.771-2.243
				s2.652,0.672,2.652,1.991v3.601c0,0.336,0.084,0.517,0.385,0.792v0.204h-1.824c-0.156-0.192-0.192-0.312-0.192-0.647
				c-0.588,0.611-1.248,0.924-1.968,0.924C259.629,107.203,258.836,106.423,258.836,105.259z M262.76,103.867
				c-0.191,0.096-0.264,0.119-0.707,0.203l-0.576,0.108c-0.696,0.144-0.96,0.384-0.96,0.888c0,0.48,0.348,0.78,0.911,0.78
				c0.853,0,1.332-0.552,1.332-1.524V103.867z"/>
		</g>
		<g>
			<path fill="#FFFFFF" d="M269.444,104.107v-5.929h1.8v5.929c0,1.055,0.54,1.56,1.668,1.56c1.129,0,1.668-0.505,1.668-1.56v-5.929
				h1.801v5.929c0,2.471-1.992,3.096-3.469,3.096C271.437,107.203,269.444,106.578,269.444,104.107z"/>
		</g>
		<g>
			<path fill="#FFFFFF" d="M279.801,100.447v0.936c0.479-0.721,1.067-1.044,1.943-1.044c1.381,0,2.172,0.815,2.172,2.243v4.345
				h-1.68v-3.996c0-0.769-0.359-1.164-1.08-1.164c-0.816,0-1.355,0.504-1.355,1.272v3.888h-1.681v-6.479H279.801z"/>
		</g>
		<g>
			<path fill="#FFFFFF" d="M287.217,99.679h-1.681v-1.5h1.681V99.679z M287.217,106.927h-1.681v-6.479h1.681V106.927z"/>
		</g>
		<g>
			<path fill="#FFFFFF" d="M290.444,106.927l-2.269-6.479h1.776l1.403,4.739l1.309-4.739h1.775l-2.231,6.479H290.444z"/>
		</g>
		<g>
			<path fill="#FFFFFF" d="M301.076,103.927c0,0.084,0,0.144-0.012,0.288h-4.344c0.035,0.876,0.215,1.704,1.344,1.704
				c0.611,0,1.08-0.3,1.283-0.816h1.656c-0.371,1.272-1.548,2.101-3,2.101c-1.836,0-2.964-1.272-2.964-3.349
				c0-2.172,1.14-3.516,3-3.516C299.336,100.339,301.076,101.059,301.076,103.927z M298.016,101.623
				c-0.744,0-1.164,0.492-1.271,1.476h2.58C299.252,102.15,298.796,101.623,298.016,101.623z"/>
		</g>
		<g>
			<path fill="#FFFFFF" d="M304.016,100.447v1.271c0.36-0.876,1.033-1.38,1.801-1.38c0.048,0,0.107,0,0.203,0.012v1.704
				c-0.228-0.036-0.348-0.048-0.527-0.048c-0.984,0-1.477,0.491-1.477,1.476v3.444h-1.68v-6.479H304.016z"/>
		</g>
		<g>
			<path fill="#FFFFFF" d="M309.584,105.883c0.78,0,1.248-0.24,1.248-0.637c0-0.264-0.144-0.396-0.564-0.527l-2.004-0.624
				c-0.371-0.12-1.416-0.324-1.416-1.597c0-1.332,1.021-2.159,2.664-2.159c1.74,0,2.797,0.827,2.82,2.196h-1.619
				c-0.013-0.588-0.408-0.877-1.213-0.877c-0.588,0-0.972,0.24-0.972,0.601c0,0.265,0.12,0.36,0.588,0.504l2.124,0.612
				c0.852,0.252,1.271,0.791,1.271,1.632c0,0.899-0.563,2.196-2.832,2.196c-1.967,0-3.012-0.744-3.06-2.16h1.644
				C308.36,105.486,308.528,105.883,309.584,105.883z"/>
		</g>
		<g>
			<path fill="#FFFFFF" d="M315.452,99.679h-1.681v-1.5h1.681V99.679z M315.452,106.927h-1.681v-6.479h1.681V106.927z"/>
		</g>
		<g>
			<path fill="#FFFFFF" d="M319.988,101.695h-0.936v3.527c0,0.576,0.107,0.708,0.551,0.708c0.121,0,0.217-0.012,0.385-0.036v1.176
				c-0.301,0.097-0.6,0.133-0.973,0.133c-1.104,0-1.644-0.504-1.644-1.524v-3.983h-0.828v-1.117h0.828v-1.739h1.681v1.739h0.936
				V101.695z"/>
		</g>
		<g>
			<path fill="#FFFFFF" d="M322.881,107.191l-2.412-6.744h1.848l1.428,4.715l1.344-4.715h1.729l-2.664,7.668
				c-0.156,0.443-0.324,1.439-2.16,1.439c-0.204,0-0.348-0.012-0.6-0.048v-1.261c0.215,0.061,0.312,0.072,0.443,0.072
				c0.588,0,1.045-0.468,1.045-1.08V107.191z"/>
		</g>
		<g>
			<path fill="#FFFFFF" d="M333.464,106.927l-2.952-8.748h1.813l1.943,6.588l1.908-6.588h1.813l-3,8.748H333.464z"/>
		</g>
		<g>
			<path fill="#FFFFFF" d="M340.748,99.679h-1.68v-1.5h1.68V99.679z M340.748,106.927h-1.68v-6.479h1.68V106.927z"/>
		</g>
		<g>
			<path fill="#FFFFFF" d="M344.048,100.447v1.271c0.36-0.876,1.032-1.38,1.8-1.38c0.049,0,0.108,0,0.204,0.012v1.704
				c-0.228-0.036-0.348-0.048-0.528-0.048c-0.983,0-1.476,0.491-1.476,1.476v3.444h-1.681v-6.479H344.048z"/>
		</g>
		<g>
			<path fill="#FFFFFF" d="M349.988,101.695h-0.936v3.527c0,0.576,0.107,0.708,0.551,0.708c0.121,0,0.217-0.012,0.385-0.036v1.176
				c-0.301,0.097-0.6,0.133-0.973,0.133c-1.104,0-1.644-0.504-1.644-1.524v-3.983h-0.828v-1.117h0.828v-1.739h1.681v1.739h0.936
				V101.695z"/>
		</g>
		<g>
			<path fill="#FFFFFF" d="M355.244,106.927v-0.769c-0.48,0.721-1.068,1.045-1.943,1.045c-1.381,0-2.173-0.816-2.173-2.244v-4.512
				h1.681v4.164c0,0.779,0.359,1.164,1.08,1.164c0.815,0,1.355-0.505,1.355-1.272v-4.056h1.68v6.479H355.244z"/>
		</g>
		<g>
			<path fill="#FFFFFF" d="M358.184,105.259c0-1.164,0.625-1.824,1.908-2.04l0.672-0.12c0.553-0.084,1.344-0.12,1.344-0.756
				c0-0.433-0.323-0.647-0.971-0.647c-0.828,0-1.104,0.215-1.188,0.887h-1.62c0.107-1.5,1.02-2.243,2.771-2.243
				s2.652,0.672,2.652,1.991v3.601c0,0.336,0.084,0.517,0.385,0.792v0.204h-1.824c-0.156-0.192-0.192-0.312-0.192-0.647
				c-0.588,0.611-1.248,0.924-1.968,0.924C358.977,107.203,358.184,106.423,358.184,105.259z M362.107,103.867
				c-0.191,0.096-0.264,0.119-0.707,0.203l-0.576,0.108c-0.696,0.144-0.96,0.384-0.96,0.888c0,0.48,0.348,0.78,0.911,0.78
				c0.853,0,1.332-0.552,1.332-1.524V103.867z"/>
		</g>
		<g>
			<path fill="#FFFFFF" d="M366.956,106.927h-1.681v-8.748h1.681V106.927z"/>
		</g>
		<g>
			<path fill="#FFFFFF" d="M373.832,102.955v3.972h-1.801v-8.748h1.801v3.276h3.455v-3.276h1.813v8.748h-1.8v-3.972H373.832z"/>
		</g>
		<g>
			<path fill="#FFFFFF" d="M380.539,105.259c0-1.164,0.625-1.824,1.908-2.04l0.672-0.12c0.553-0.084,1.344-0.12,1.344-0.756
				c0-0.433-0.323-0.647-0.971-0.647c-0.828,0-1.104,0.215-1.188,0.887h-1.62c0.107-1.5,1.02-2.243,2.771-2.243
				s2.652,0.672,2.652,1.991v3.601c0,0.336,0.084,0.517,0.385,0.792v0.204h-1.824c-0.156-0.192-0.192-0.312-0.192-0.647
				c-0.588,0.611-1.248,0.924-1.968,0.924C381.332,107.203,380.539,106.423,380.539,105.259z M384.463,103.867
				c-0.191,0.096-0.264,0.119-0.707,0.203l-0.576,0.108c-0.696,0.144-0.96,0.384-0.96,0.888c0,0.48,0.348,0.78,0.911,0.78
				c0.853,0,1.332-0.552,1.332-1.524V103.867z"/>
		</g>
		<g>
			<path fill="#FFFFFF" d="M389.3,100.447v0.803c0.552-0.659,1.032-0.911,1.776-0.911c0.803,0,1.451,0.348,1.764,0.96
				c0.504-0.672,1.08-0.96,1.896-0.96c1.295,0,2.063,0.743,2.063,2.004v4.584h-1.681v-4.319c0-0.517-0.348-0.841-0.912-0.841
				c-0.719,0-1.151,0.479-1.151,1.272v3.888h-1.681v-4.319c0-0.517-0.348-0.841-0.912-0.841c-0.719,0-1.151,0.479-1.151,1.272v3.888
				h-1.681v-6.479H389.3z"/>
		</g>
		<g>
			<path fill="#FFFFFF" d="M398.06,105.259c0-1.164,0.624-1.824,1.908-2.04l0.672-0.12c0.552-0.084,1.344-0.12,1.344-0.756
				c0-0.433-0.323-0.647-0.972-0.647c-0.828,0-1.104,0.215-1.188,0.887h-1.621c0.108-1.5,1.021-2.243,2.772-2.243
				s2.651,0.672,2.651,1.991v3.601c0,0.336,0.084,0.517,0.385,0.792v0.204h-1.824c-0.156-0.192-0.191-0.312-0.191-0.647
				c-0.588,0.611-1.248,0.924-1.969,0.924C398.852,107.203,398.06,106.423,398.06,105.259z M401.983,103.867
				c-0.192,0.096-0.264,0.119-0.708,0.203l-0.576,0.108c-0.695,0.144-0.959,0.384-0.959,0.888c0,0.48,0.348,0.78,0.912,0.78
				c0.852,0,1.331-0.552,1.331-1.524V103.867z"/>
		</g>
		<g>
			<path fill="#FFFFFF" d="M406.82,100.447v0.803c0.551-0.659,1.031-0.911,1.775-0.911c0.804,0,1.451,0.348,1.764,0.96
				c0.504-0.672,1.08-0.96,1.896-0.96c1.296,0,2.064,0.743,2.064,2.004v4.584h-1.681v-4.319c0-0.517-0.349-0.841-0.912-0.841
				c-0.72,0-1.151,0.479-1.151,1.272v3.888h-1.681v-4.319c0-0.517-0.349-0.841-0.912-0.841c-0.72,0-1.151,0.479-1.151,1.272v3.888
				h-1.681v-6.479H406.82z"/>
		</g>
		<g>
			<path fill="#FFFFFF" d="M415.58,105.259c0-1.164,0.623-1.824,1.908-2.04l0.672-0.12c0.551-0.084,1.344-0.12,1.344-0.756
				c0-0.433-0.324-0.647-0.973-0.647c-0.828,0-1.104,0.215-1.188,0.887h-1.62c0.108-1.5,1.021-2.243,2.772-2.243
				s2.651,0.672,2.651,1.991v3.601c0,0.336,0.084,0.517,0.384,0.792v0.204h-1.824c-0.155-0.192-0.191-0.312-0.191-0.647
				c-0.588,0.611-1.248,0.924-1.968,0.924C416.371,107.203,415.58,106.423,415.58,105.259z M419.504,103.867
				c-0.192,0.096-0.264,0.119-0.709,0.203l-0.575,0.108c-0.696,0.144-0.96,0.384-0.96,0.888c0,0.48,0.348,0.78,0.912,0.78
				c0.852,0,1.332-0.552,1.332-1.524V103.867z"/>
		</g>
		<g>
			<path fill="#FFFFFF" d="M425.588,101.695h-0.936v3.527c0,0.576,0.107,0.708,0.551,0.708c0.121,0,0.217-0.012,0.385-0.036v1.176
				c-0.301,0.097-0.6,0.133-0.973,0.133c-1.104,0-1.644-0.504-1.644-1.524v-3.983h-0.828v-1.117h0.828v-1.739h1.681v1.739h0.936
				V101.695z"/>
		</g>
		<g>
			<path fill="#FFFFFF" d="M429.271,105.883c0.78,0,1.248-0.24,1.248-0.637c0-0.264-0.144-0.396-0.564-0.527l-2.004-0.624
				c-0.371-0.12-1.416-0.324-1.416-1.597c0-1.332,1.021-2.159,2.664-2.159c1.74,0,2.797,0.827,2.82,2.196H430.4
				c-0.013-0.588-0.408-0.877-1.213-0.877c-0.588,0-0.972,0.24-0.972,0.601c0,0.265,0.12,0.36,0.588,0.504l2.124,0.612
				c0.852,0.252,1.271,0.791,1.271,1.632c0,0.899-0.563,2.196-2.832,2.196c-1.967,0-3.012-0.744-3.06-2.16h1.644
				C428.048,105.486,428.216,105.883,429.271,105.883z"/>
		</g>
		<g>
			<path fill="#FFFFFF" d="M437.516,106.927v-0.769c-0.48,0.721-1.068,1.045-1.943,1.045c-1.381,0-2.173-0.816-2.173-2.244v-4.512
				h1.681v4.164c0,0.779,0.359,1.164,1.08,1.164c0.815,0,1.355-0.505,1.355-1.272v-4.056h1.68v6.479H437.516z"/>
		</g>
		<g>
			<path fill="#FFFFFF" d="M447.859,99.57c-1.416,0-2.268,1.152-2.268,3.084c0,1.908,0.816,3.037,2.207,3.037
				c1.117,0,1.824-0.637,1.933-1.752h1.752c-0.108,2.004-1.56,3.264-3.731,3.264c-2.437,0-3.961-1.764-3.961-4.572
				c0-2.832,1.537-4.596,4.008-4.596c2.041,0,3.492,1.14,3.648,3.107h-1.716C449.636,100.699,449.359,99.57,447.859,99.57z"/>
		</g>
		<g>
			<path fill="#FFFFFF" d="M452.443,105.259c0-1.164,0.624-1.824,1.908-2.04l0.672-0.12c0.552-0.084,1.344-0.12,1.344-0.756
				c0-0.433-0.324-0.647-0.972-0.647c-0.828,0-1.104,0.215-1.188,0.887h-1.619c0.107-1.5,1.02-2.243,2.771-2.243
				s2.652,0.672,2.652,1.991v3.601c0,0.336,0.084,0.517,0.384,0.792v0.204h-1.824c-0.155-0.192-0.192-0.312-0.192-0.647
				c-0.588,0.611-1.248,0.924-1.967,0.924C453.235,107.203,452.443,106.423,452.443,105.259z M456.367,103.867
				c-0.191,0.096-0.264,0.119-0.708,0.203l-0.575,0.108c-0.697,0.144-0.961,0.384-0.961,0.888c0,0.48,0.348,0.78,0.912,0.78
				c0.852,0,1.332-0.552,1.332-1.524V103.867z"/>
		</g>
		<g>
			<path fill="#FFFFFF" d="M461.203,100.447v0.803c0.553-0.659,1.032-0.911,1.776-0.911c0.804,0,1.452,0.348,1.765,0.96
				c0.504-0.672,1.079-0.96,1.896-0.96c1.296,0,2.063,0.743,2.063,2.004v4.584h-1.68v-4.319c0-0.517-0.348-0.841-0.912-0.841
				c-0.72,0-1.152,0.479-1.152,1.272v3.888h-1.68v-4.319c0-0.517-0.348-0.841-0.912-0.841c-0.72,0-1.152,0.479-1.152,1.272v3.888
				h-1.68v-6.479H461.203z"/>
		</g>
		<g>
			<path fill="#FFFFFF" d="M476.455,103.783c0,1.968-1.152,3.432-2.711,3.432c-0.816,0-1.393-0.336-1.801-1.057v3.385h-1.68v-9.096
				h1.68v0.959c0.408-0.72,0.984-1.067,1.801-1.067C475.424,100.339,476.455,101.875,476.455,103.783z M471.943,103.783
				c0,1.211,0.576,2.027,1.416,2.027c0.828,0,1.416-0.828,1.416-2.004c0-1.236-0.564-2.064-1.416-2.064
				C472.52,101.742,471.943,102.57,471.943,103.783z"/>
		</g>
		<g>
			<path fill="#FFFFFF" d="M481.832,106.927v-0.769c-0.48,0.721-1.068,1.045-1.945,1.045c-1.379,0-2.172-0.816-2.172-2.244v-4.512
				h1.68v4.164c0,0.779,0.361,1.164,1.08,1.164c0.816,0,1.357-0.505,1.357-1.272v-4.056h1.68v6.479H481.832z"/>
		</g>
		<g>
			<path fill="#FFFFFF" d="M487.615,105.883c0.779,0,1.248-0.24,1.248-0.637c0-0.264-0.145-0.396-0.564-0.527l-2.004-0.624
				c-0.373-0.12-1.416-0.324-1.416-1.597c0-1.332,1.02-2.159,2.664-2.159c1.74,0,2.795,0.827,2.82,2.196h-1.621
				c-0.012-0.588-0.408-0.877-1.211-0.877c-0.588,0-0.973,0.24-0.973,0.601c0,0.265,0.119,0.36,0.588,0.504l2.125,0.612
				c0.852,0.252,1.271,0.791,1.271,1.632c0,0.899-0.564,2.196-2.832,2.196c-1.969,0-3.012-0.744-3.061-2.16h1.645
				C486.391,105.486,486.559,105.883,487.615,105.883z"/>
		</g>
	</g>
</g>
<line fill="none" stroke="#FFFFFF" stroke-width="2" x1="197" y1="0" x2="197" y2="110"/>
<g>
	<path fill="#FFFFFF" d="M146.358,149.5h8.625v2.133h-8.625V149.5z M151.679,165.977h-1.969v1.242h-2.508v-8.273h7.031v6.305
		c1.266-0.625,2.172-1.305,2.719-2.039c0.688-0.891,1.031-2.211,1.031-3.961v-1.43h2.602v1.43c0,2.328-0.43,4.109-1.289,5.344
		c-0.734,1.063-1.867,2.063-3.398,3c-0.453-0.844-1.008-1.547-1.664-2.109v1.266h-2.555V165.977z M147.46,146.313h6.68v2.25h-6.68
		V146.313z M147.46,152.594h6.68v2.039h-6.68V152.594z M147.46,155.664h6.68v2.063h-6.68V155.664z M151.679,161.406h-1.969v2.32
		h1.969V161.406z M165.577,156.883h-8.531v2.367h-2.555v-4.43h13.617v4.43h-2.531V156.883z M155.452,147.789h4.5v-2.063h2.695v2.063
		h5.156v2.273h-5.156v1.5h3.586v2.227h-9.68v-2.227h3.398v-1.5h-4.5V147.789z M161.897,157.82h2.555v6.492
		c0.047,0.297,0.297,0.445,0.75,0.445h0.094c0.328,0,0.578-0.148,0.75-0.445c0.188-0.297,0.281-0.805,0.281-1.523
		c0.625,0.422,1.461,0.734,2.508,0.938c-0.094,0.984-0.438,1.891-1.031,2.719c-0.375,0.453-0.93,0.68-1.664,0.68h-1.781
		c-0.719,0-1.32-0.219-1.805-0.656c-0.438-0.328-0.656-1.047-0.656-2.156V157.82z"/>
	<path fill="#FFFFFF" d="M198.483,159.125l-1.617,2.977c-0.219-0.188-1.242-0.781-3.07-1.781c-1.109,3.266-3.852,5.633-8.227,7.102
		c-0.188-1.109-0.688-2.086-1.5-2.93c3.781-0.813,6.047-2.578,6.797-5.297c-1.906-0.844-3.586-1.281-5.039-1.313
		c-2.094,4.25-4.266,6.375-6.516,6.375c-0.953,0-1.664-0.313-2.133-0.938c-0.5-0.625-0.75-1.344-0.75-2.156
		c0-1.828,0.766-3.328,2.297-4.5c1.328-1,3.086-1.57,5.273-1.711c0.734-1.891,1.414-3.664,2.039-5.32
		c-1.781,0.406-3.875,0.727-6.281,0.961V147.5c3.984-0.125,6.547-0.469,7.688-1.031l2.625,1.875c-0.844,1.359-1.844,3.664-3,6.914
		c1.516,0.234,3.016,0.586,4.5,1.055c0.172-1.219,0.258-2.617,0.258-4.195l3.305,0.258c-0.203,1.75-0.398,3.406-0.586,4.969
		C195.687,157.719,196.999,158.313,198.483,159.125z M182.757,157.672c-1.188,0.063-2.156,0.5-2.906,1.313
		c-0.547,0.625-0.82,1.164-0.82,1.617c0,0.516,0.242,0.797,0.727,0.844c0.406-0.047,1-0.617,1.781-1.711
		C181.757,159.375,182.163,158.688,182.757,157.672z"/>
	<path fill="#FFFFFF" d="M206.897,154.375h5.273v8.086c0.641,0.516,1.266,0.891,1.875,1.125c1.031,0.375,2.273,0.617,3.727,0.727
		h10.805c-0.563,0.859-0.875,1.758-0.938,2.695h-9.867c-2.781-0.172-4.961-0.977-6.539-2.414l-3.492,3l-1.664-2.836l3.281-2.016
		v-5.648h-2.461V154.375z M209.265,145.914c1.406,0.781,2.617,1.719,3.633,2.813l-1.477,2.25c-1.266-1.109-2.523-2.039-3.773-2.789
		L209.265,145.914z M218.71,150.695l1.359,0.68c-0.078-0.75-0.117-1.539-0.117-2.367h-5.18v-2.695h8.063
		c0,3.031,0.18,5.461,0.539,7.289c0.375,1.531,1.008,2.883,1.898,4.055c0.828,1.297,1.953,2.383,3.375,3.258
		c-0.984,0.703-1.664,1.586-2.039,2.648c-1.047-0.688-2.055-1.656-3.023-2.906c-1.234-1.516-2.133-3.164-2.695-4.945
		c-0.172-0.547-0.32-1.102-0.445-1.664c-1.625,3.422-3.633,6.438-6.023,9.047c-0.453-0.781-1.109-1.508-1.969-2.18
		C214.937,158.07,217.022,154.664,218.71,150.695z"/>
	<path fill="#FFFFFF" d="M258.483,159.125l-1.617,2.977c-0.219-0.188-1.242-0.781-3.07-1.781c-1.109,3.266-3.852,5.633-8.227,7.102
		c-0.188-1.109-0.688-2.086-1.5-2.93c3.781-0.813,6.047-2.578,6.797-5.297c-1.906-0.844-3.586-1.281-5.039-1.313
		c-2.094,4.25-4.266,6.375-6.516,6.375c-0.953,0-1.664-0.313-2.133-0.938c-0.5-0.625-0.75-1.344-0.75-2.156
		c0-1.828,0.766-3.328,2.297-4.5c1.328-1,3.086-1.57,5.273-1.711c0.734-1.891,1.414-3.664,2.039-5.32
		c-1.781,0.406-3.875,0.727-6.281,0.961V147.5c3.984-0.125,6.547-0.469,7.688-1.031l2.625,1.875c-0.844,1.359-1.844,3.664-3,6.914
		c1.516,0.234,3.016,0.586,4.5,1.055c0.172-1.219,0.258-2.617,0.258-4.195l3.305,0.258c-0.203,1.75-0.398,3.406-0.586,4.969
		C255.687,157.719,256.999,158.313,258.483,159.125z M242.757,157.672c-1.188,0.063-2.156,0.5-2.906,1.313
		c-0.547,0.625-0.82,1.164-0.82,1.617c0,0.516,0.242,0.797,0.727,0.844c0.406-0.047,1-0.617,1.781-1.711
		C241.757,159.375,242.163,158.688,242.757,157.672z"/>
	<path fill="#FFFFFF" d="M283.866,159.344h-5.156v7.969h-2.906v-7.969h-4.852v1.313h-2.906v-10.992h7.758v-3.938h2.906v3.938h8.063
		v10.711h-2.906V159.344z M275.804,156.625v-4.313h-4.852v4.313H275.804z M283.866,152.313h-5.156v4.313h5.156V152.313z"/>
	<path fill="#FFFFFF" d="M317.147,150.594c-1.391,0-3.227,0.086-5.508,0.258c-3.406,2.031-5.109,4.477-5.109,7.336
		c0,2.984,2.445,4.695,7.336,5.133l-0.07,3.258c-6.859-0.719-10.289-3.438-10.289-8.156c0-2.547,1.117-4.938,3.352-7.172
		c-3.172,0.234-6.5,0.672-9.984,1.313l-0.188-3.188c7.25-0.578,14.016-1.203,20.297-1.875L317.147,150.594z M316.069,155.82
		l-1.523,1.242c-0.797-1.109-1.633-2.055-2.508-2.836l1.383-1.219C314.312,153.758,315.194,154.695,316.069,155.82z
		 M318.296,154.063l-1.5,1.313c-0.719-0.984-1.555-1.922-2.508-2.813l1.477-1.195C316.687,152.18,317.53,153.078,318.296,154.063z"
		/>
	<path fill="#FFFFFF" d="M347.546,151.859c-1.938,0-4.445,0.047-7.523,0.141c-0.031,0.922-0.047,2.469-0.047,4.641
		c0,0.391-0.039,0.766-0.117,1.125c0.188,0.984,0.281,1.867,0.281,2.648c-0.016,1.953-0.922,3.563-2.719,4.828
		c-1.25,0.844-2.961,1.57-5.133,2.18c-0.5-1.281-1.055-2.258-1.664-2.93c3.297-0.344,5.383-1.273,6.258-2.789
		c-0.5,0.188-1,0.273-1.5,0.258c-1.234-0.016-2.203-0.422-2.906-1.219c-0.734-0.781-1.102-1.805-1.102-3.07
		c0-1.375,0.359-2.484,1.078-3.328c0.688-0.891,1.664-1.336,2.93-1.336c0.594,0,1.141,0.125,1.641,0.375v-1.242
		c-2.813,0.141-6.07,0.344-9.773,0.609v-3.023c2.391-0.047,5.148-0.156,8.273-0.328l1.523-0.07v-3.234h3.211
		c-0.094,0.516-0.156,1.539-0.188,3.07c3.016-0.125,5.508-0.188,7.477-0.188V151.859z M336.952,156.734
		c-0.297-0.813-0.695-1.219-1.195-1.219c-0.625,0-1.094,0.219-1.406,0.656c-0.328,0.375-0.492,0.875-0.492,1.5
		c0,0.5,0.133,0.938,0.398,1.313c0.281,0.469,0.656,0.719,1.125,0.75c0.563-0.016,0.969-0.375,1.219-1.078
		C336.741,158.313,336.858,157.672,336.952,156.734z"/>
</g>
<g>
	<path fill="#FFFFFF" d="M193.409,177.276v7.056h-2.1v-10.206h2.156l4.046,6.944v-6.944h2.1v10.206h-2.1L193.409,177.276z"/>
	<path fill="#FFFFFF" d="M206.191,173.958c2.954,0,4.928,2.17,4.928,5.418c0,2.926-1.848,5.278-4.914,5.278
		c-2.996,0-4.914-2.24-4.914-5.349C201.291,176.198,203.223,173.958,206.191,173.958z M203.391,179.306
		c0,2.143,1.12,3.557,2.814,3.557c1.68,0,2.814-1.414,2.814-3.5c0-2.212-1.092-3.612-2.814-3.612
		C204.511,175.75,203.391,177.164,203.391,179.306z"/>
	<path fill="#FFFFFF" d="M220.106,184.332l-1.708-7.966l-1.666,7.966h-1.89l-2.884-10.206h2.226l1.582,7.645l1.582-7.645h2.072
		l1.652,7.658l1.526-7.658h2.226l-2.828,10.206H220.106z"/>
	<path fill="#FFFFFF" d="M232.217,182.582h4.886v1.75h-6.986v-10.206h2.1V182.582z"/>
	<path fill="#FFFFFF" d="M243.123,173.958c2.954,0,4.928,2.17,4.928,5.418c0,2.926-1.848,5.278-4.914,5.278
		c-2.996,0-4.914-2.24-4.914-5.349C238.223,176.198,240.155,173.958,243.123,173.958z M240.323,179.306
		c0,2.143,1.12,3.557,2.814,3.557c1.68,0,2.814-1.414,2.814-3.5c0-2.212-1.092-3.612-2.814-3.612
		C241.442,175.75,240.323,177.164,240.323,179.306z"/>
	<path fill="#FFFFFF" d="M251.578,182.274l-0.687,2.058h-2.141l3.625-10.206h2.324l3.528,10.206h-2.156l-0.672-2.058H251.578z
		 M253.496,176.534l-1.329,3.99h2.659L253.496,176.534z"/>
	<path fill="#FFFFFF" d="M259.488,174.126h3.989c1.568,0,2.535,0.351,3.221,1.176c0.813,0.966,1.246,2.353,1.246,3.92
		c0,1.582-0.434,2.969-1.246,3.92c-0.686,0.826-1.666,1.19-3.221,1.19h-3.989V174.126z M263.478,182.582
		c1.582,0,2.367-1.106,2.367-3.346c0-2.254-0.785-3.36-2.367-3.36h-1.889v6.706H263.478z"/>
	<path fill="#FFFFFF" d="M271.725,184.332h-2.101v-10.206h2.101V184.332z"/>
	<path fill="#FFFFFF" d="M276.064,177.276v7.056h-2.101v-10.206h2.156l4.046,6.944v-6.944h2.101v10.206h-2.101L276.064,177.276z"/>
	<path fill="#FFFFFF" d="M288.902,175.722c-1.778,0-2.856,1.33-2.856,3.528c0,2.1,1.219,3.584,2.912,3.584
		c0.518,0,2.408-0.336,2.59-2.268h-2.324v-1.75h4.088v5.516h-1.26l-0.252-1.344c-0.783,1.147-1.707,1.638-3.08,1.638
		c-2.758,0-4.773-2.254-4.773-5.348c0-3.179,2.002-5.349,4.941-5.349c2.465,0,4.172,1.33,4.424,3.431h-1.973
		C291.044,176.492,290.358,175.722,288.902,175.722z"/>
	<path fill="#FFFFFF" d="M296.952,184.332h-2.1v-2.044h2.1V184.332z"/>
	<path fill="#FFFFFF" d="M300.452,184.332h-2.1v-2.044h2.1V184.332z"/>
	<path fill="#FFFFFF" d="M303.952,184.332h-2.1v-2.044h2.1V184.332z"/>
</g>
</svg>
