<?xml version="1.0" encoding="utf-8"?>
<!-- Generator: Adobe Illustrator 12.0.0, SVG Export Plug-In . SVG Version: 6.00 Build 51448)  -->
<!DOCTYPE svg PUBLIC "-//W3C//DTD SVG 1.1//EN" "http://www.w3.org/Graphics/SVG/1.1/DTD/svg11.dtd" [
	<!ENTITY ns_svg "http://www.w3.org/2000/svg">
	<!ENTITY ns_xlink "http://www.w3.org/1999/xlink">
]>
<svg  version="1.1" id="レイヤー_1" xmlns="&ns_svg;" xmlns:xlink="&ns_xlink;" width="264" height="60" viewBox="0 0 264 60"
	 overflow="visible" enable-background="new 0 0 264 60" xml:space="preserve">
<g>
	<rect fill="#345CAA" width="264" height="60"/>
	<g>
		<g opacity="0.3">
			<path fill="#221815" d="M118.845,11.543c-0.069,0.151-0.213,0.31-0.433,0.475c-0.234,0.151-0.392,0.378-0.475,0.681
				c-1.458,4.414-3.685,7.762-6.682,10.044l-0.33-0.351c2.228-2.984,3.706-6.38,4.434-10.189c0.11-0.578,0.165-1.031,0.165-1.361
				c-0.027-0.467-0.399-0.914-1.114-1.34l0.145-0.413c0.88,0.124,1.787,0.454,2.723,0.99
				C118.24,10.643,118.763,11.131,118.845,11.543z M128.291,20.288c0,1.169-0.494,1.774-1.484,1.815
				c-0.551-0.041-0.928-0.646-1.135-1.815c-0.839-4.249-2.537-7.879-5.094-10.89l0.371-0.309c2.008,1.526,3.583,3.121,4.723,4.785
				C127.418,16.39,128.291,18.528,128.291,20.288z M127.137,10.656c-0.055,0.564-0.303,0.859-0.742,0.887
				c-0.316-0.027-0.646-0.261-0.99-0.701c-0.646-1.031-1.355-1.76-2.125-2.186l0.063-0.392c0.852,0.11,1.656,0.365,2.412,0.763
				C126.607,9.439,127.067,9.982,127.137,10.656z M128.869,8.738c0,0.522-0.248,0.797-0.742,0.825
				c-0.316,0.014-0.646-0.227-0.99-0.722c-0.633-0.756-1.396-1.333-2.289-1.732l0.061-0.413c0.84,0,1.637,0.138,2.393,0.413
				C128.277,7.439,128.8,7.982,128.869,8.738z"/>
			<path fill="#221815" d="M148.591,15.42c0,0.385-0.221,0.578-0.66,0.578c-0.056,0-0.488-0.021-1.3-0.062
				c-0.839-0.055-1.697-0.083-2.578-0.083c-5.967,0-9.281,0.241-9.941,0.722c-0.288,0.179-0.508,0.282-0.66,0.309
				c-0.398-0.027-0.783-0.268-1.154-0.722c-0.619-0.756-1.113-1.739-1.484-2.949l0.494-0.124c0.344,0.825,0.914,1.272,1.712,1.341
				l12.705-0.557c0.413-0.11,0.715-0.165,0.907-0.165c0.33,0,0.825,0.275,1.485,0.825C148.432,14.781,148.591,15.077,148.591,15.42z
				"/>
			<path fill="#221815" d="M168.775,14.658c-0.027,0.454-0.18,0.68-0.454,0.68c-0.481,0-1.217-0.068-2.207-0.206
				c-0.976-0.151-1.718-0.227-2.228-0.227h-2.723c-0.164,2.901-0.604,4.827-1.318,5.775c-1.278,1.705-3.691,2.942-7.238,3.712
				l-0.166-0.495c2.42-0.77,4.092-1.891,5.012-3.362c0.716-1.127,1.135-2.942,1.259-5.445c-0.962,0.069-1.843,0.151-2.64,0.247
				c-1.596,0.22-2.551,0.475-2.867,0.763c-0.262,0.193-0.461,0.289-0.598,0.289c-0.371,0-0.729-0.296-1.073-0.887
				c-0.563-0.976-0.921-1.829-1.072-2.557l0.495-0.145c0.371,0.715,0.866,1.072,1.484,1.072c1.444,0,3.563-0.137,6.354-0.412v-3.63
				l-6.662,0.33l-0.124-0.598c3.892-0.413,7.981-1.423,12.271-3.032l1.629,1.65c0.248,0.275,0.398,0.495,0.453,0.66
				c-0.055,0.22-0.171,0.33-0.35,0.33c-0.138,0-0.296-0.027-0.475-0.083c-0.33-0.042-0.509-0.062-0.537-0.062
				c-0.041,0-0.398,0.048-1.072,0.145c-0.632,0.11-1.553,0.241-2.764,0.392v3.795c0.454,0,1.582-0.048,3.383-0.144
				c0.825-0.083,1.341-0.172,1.547-0.268c0.316-0.22,0.536-0.33,0.66-0.33c0.151,0,0.592,0.33,1.32,0.99
				C168.514,14.032,168.748,14.383,168.775,14.658z"/>
			<path fill="#221815" d="M186.295,14.905c0,0.248-0.24,0.392-0.723,0.433c-0.302,0.042-0.666,0.296-1.093,0.763
				c-0.894,0.784-2.021,1.705-3.382,2.764l-0.311-0.31c0.743-1.141,1.506-2.482,2.29-4.022c-1.897,0.358-3.485,0.736-4.765,1.134
				c0.895,4.042,1.52,6.593,1.877,7.652c0.027,0.261,0.096,0.591,0.207,0.99c-0.056,0.385-0.262,0.605-0.619,0.66
				c-0.454-0.055-0.922-0.22-1.402-0.495c-0.371-0.289-0.557-0.564-0.557-0.825v-0.413c-0.042-0.563-0.207-1.684-0.496-3.362
				l-0.824-3.712c-1.431,0.344-2.215,0.64-2.352,0.887c-0.262,0.289-0.461,0.433-0.598,0.433c-0.262-0.041-0.646-0.364-1.156-0.969
				c-0.508-0.632-0.845-1.382-1.01-2.248l0.434-0.083c0.247,0.564,0.598,0.846,1.051,0.846c0.867,0,1.967-0.137,3.301-0.413
				l-0.66-2.661c-0.165-0.715-0.715-1.086-1.65-1.114v-0.454l0.928-0.083c0.743,0,1.424,0.096,2.043,0.289
				c0.756,0.179,1.176,0.392,1.258,0.64c0,0.083-0.09,0.206-0.268,0.371c-0.18,0.138-0.234,0.364-0.166,0.681l0.434,1.98
				l5.094-0.804l0.66-0.846l2.042,1.753C186.157,14.589,186.295,14.768,186.295,14.905z"/>
			<path fill="#221815" d="M196.195,10.079c0,0.138-0.088,0.268-0.268,0.392c-0.15,0.124-0.227,0.378-0.227,0.763v1.567
				c0,2.53-0.322,4.551-0.968,6.064c-0.81,1.842-2.597,3.575-5.36,5.197l-0.33-0.351c1.443-1.251,2.469-2.509,3.072-3.774
				c0.881-1.815,1.32-4.255,1.32-7.322v-1.959c0-1.045-0.439-1.623-1.32-1.732l0.042-0.495c0.716,0,1.574,0.2,2.576,0.598
				C195.654,9.357,196.141,9.708,196.195,10.079z M207.807,13.214c-0.867,2.42-1.822,4.338-2.867,5.754
				c-1.045,1.389-2.283,2.647-3.713,3.774c-0.412,0.261-0.633,0.543-0.66,0.845c-0.041,0.316-0.15,0.475-0.33,0.475
				c-0.22,0-0.475-0.165-0.763-0.495l-1.547-1.835l0.845-0.371l-0.082-12.437c0-1.031-0.529-1.65-1.588-1.856l0.165-0.536
				c0.866,0.069,1.767,0.289,2.702,0.66c1.031,0.399,1.588,0.791,1.67,1.175c0,0.069-0.103,0.227-0.309,0.475
				c-0.221,0.206-0.337,0.536-0.352,0.99l-0.186,10.271c2.448-1.636,4.662-4.022,6.642-7.157L207.807,13.214z"/>
			<path fill="#221815" d="M110.682,32.209c1.334,0.151,2.269,0.461,2.805,0.929c0.371,0.344,0.564,0.722,0.578,1.134
				c0,1.046-0.468,1.568-1.402,1.568c-0.289,0-0.509-0.296-0.66-0.888c-0.289-1.031-0.805-1.801-1.547-2.31L110.682,32.209z
				 M116.725,29.817l0.495,0.268l-3.321,10.911c-0.042,0.151-0.062,0.378-0.062,0.68c0,0.304,0.103,0.791,0.31,1.465
				c0.165,0.481,0.248,0.887,0.248,1.217c-0.014,1.045-0.447,1.567-1.299,1.567c-0.867,0-1.313-0.522-1.341-1.567
				c0-0.33,0.089-0.735,0.268-1.217c0.192-0.674,0.295-1.161,0.31-1.465c-0.014-0.426-0.2-0.817-0.557-1.175
				c-0.151-0.179-0.543-0.323-1.175-0.434v-0.516h1.732L116.725,29.817z M111.94,27.61c1.444,0.138,2.461,0.454,3.053,0.949
				c0.412,0.358,0.632,0.75,0.66,1.176c0,1.045-0.474,1.567-1.423,1.567c-0.33,0-0.584-0.302-0.763-0.907
				c-0.33-1.059-0.928-1.856-1.794-2.393L111.94,27.61z M119.592,40.728l2.063,1.402c0.234,0.165,0.351,0.357,0.351,0.577
				c0,0.207-0.357,0.31-1.072,0.31c-1.87,1.334-3.96,2.386-6.27,3.156l-0.268-0.516C116.594,44.186,118.327,42.543,119.592,40.728z
				 M127.594,29.5c-2.639,0.261-5.217,0.461-7.734,0.598v3.527h5.927l1.34-1.567l2.063,1.567v0.558h-3.135v5.638h0.557l1.259-1.567
				l2.063,1.567v0.555H114.91l-0.248-0.555h2.887V28.263l2.413,1.134c2.502-0.564,4.771-1.279,6.807-2.145l1.67,1.464
				c0.275,0.192,0.413,0.399,0.413,0.619c0,0.206-0.145,0.31-0.433,0.31L127.594,29.5z M119.86,39.82h3.885V34.18h-3.885V39.82z
				 M123.222,40.975c2.296,0.399,3.974,1.039,5.032,1.919c0.743,0.563,1.128,1.271,1.155,2.124
				c-0.069,0.715-0.446,1.072-1.134,1.072c-0.413,0-0.771-0.247-1.072-0.742c-1.073-1.732-2.482-3.053-4.229-3.96L123.222,40.975z"
				/>
			<path fill="#221815" d="M137.543,30.395l1.814,1.341v0.555h-3.3v2.99c1.031,0.165,1.774,0.481,2.228,0.949
				c0.027,0.041,0.068,0.082,0.123,0.124c0.537-1.513,0.942-2.977,1.218-4.394c0.247-1.196,0.46-2.674,0.64-4.435l2.764,0.867
				c0.233,0.055,0.35,0.199,0.35,0.433c0,0.261-0.302,0.488-0.906,0.681c-0.537,1.828-1.045,3.19-1.527,4.084
				c-0.632,1.251-1.375,2.344-2.227,3.279c0.082,0.206,0.131,0.419,0.145,0.639c0,0.936-0.413,1.402-1.238,1.402
				c-0.316,0-0.543-0.315-0.681-0.948c-0.179-0.742-0.474-1.348-0.887-1.815v9.591l-2.325,0.351v-7.59
				c-0.783,1.499-1.637,2.675-2.557,3.527l-0.166-0.558c1.045-2.337,1.904-5.396,2.578-9.178h-2.33l-0.248-0.555h2.723v-4.806
				l2.676,0.31c0.426,0.055,0.64,0.179,0.64,0.371c0,0.22-0.33,0.413-0.99,0.578v3.548h0.31L137.543,30.395z M142.238,33.798
				l2.846,0.866c0.248,0.082,0.371,0.227,0.371,0.433c0,0.221-0.364,0.42-1.094,0.599c-1.25,3.148-2.42,5.555-3.506,7.219
				l5.404-0.186c-0.495-1.155-1.23-2.241-2.207-3.259l0.227-0.393c1.843,0.853,3.211,1.809,4.104,2.867
				c0.688,0.894,1.031,1.726,1.031,2.496c0,0.935-0.385,1.402-1.155,1.402c-0.674,0-1.141-0.44-1.402-1.32
				c-0.096-0.412-0.213-0.811-0.351-1.196c-1.54,0.386-3.926,0.949-7.157,1.691c-0.109,0.48-0.254,0.722-0.433,0.722
				c-0.247,0-0.446-0.151-0.599-0.454l-1.051-2.269l2.598-0.082C140.746,40.666,141.537,37.62,142.238,33.798z M144.877,27.527
				h0.475c0.44,1.815,1.086,3.349,1.939,4.6c0.783,1.169,1.842,2.187,3.176,3.053l-0.062,0.516
				c-0.962,0.123-1.678,0.674-2.146,1.649c-0.894-1.059-1.602-2.323-2.124-3.795C145.6,32.038,145.18,30.03,144.877,27.527z"/>
			<path fill="#221815" d="M169.975,37.695c0,0.33-0.199,0.516-0.599,0.558c-0.027,0-0.241-0.014-0.64-0.042
				c-0.398-0.027-0.776-0.041-1.135-0.041h-2.021c-0.495,0-1.603,0.083-3.321,0.248c0.289,2.255,0.585,4.18,0.887,5.774
				c0.042,0.289,0.063,0.536,0.063,0.742c0,0.495-0.186,0.743-0.557,0.743c-0.522,0-1.031-0.165-1.526-0.495
				c-0.536-0.386-0.804-0.825-0.804-1.32c0-0.15,0.041-0.426,0.123-0.825c0.041-0.343,0.041-0.948,0-1.814
				c-0.082-0.894-0.172-1.767-0.268-2.619c-0.908,0.165-1.815,0.323-2.723,0.474c-1.348,0.275-2.146,0.53-2.393,0.764
				c-0.371,0.33-0.611,0.495-0.723,0.495c-0.535,0-1.078-0.427-1.629-1.279c-0.412-0.646-0.715-1.313-0.908-2l0.393-0.207
				c0.262,0.619,0.839,0.963,1.732,1.031c0.371-0.068,2.406-0.343,6.105-0.824l-0.434-3.383c-2.228,0.206-3.568,0.31-4.021,0.31
				c-1.155,0-2.117-0.757-2.888-2.269l0.433-0.289c0.551,0.618,1.231,0.928,2.043,0.928c1.168,0,2.564-0.13,4.186-0.392l-0.33-2.187
				c-0.164-1.155-0.77-1.753-1.814-1.794l0.104-0.475l0.907-0.103c0.812,0,1.575,0.11,2.29,0.33
				c0.838,0.261,1.271,0.536,1.299,0.825c0,0.11-0.076,0.282-0.227,0.516c-0.151,0.179-0.227,0.44-0.227,0.784l0.164,1.857
				c2.063-0.357,3.369-0.701,3.919-1.031c0.22-0.166,0.392-0.248,0.516-0.248c0.165,0,0.516,0.207,1.052,0.619
				c0.454,0.316,0.701,0.633,0.742,0.948c-0.041,0.275-0.261,0.481-0.66,0.619l-5.444,0.701l0.413,3.465
				c3.094-0.289,4.826-0.57,5.197-0.846c0.233-0.192,0.419-0.289,0.557-0.289c0.206,0,0.681,0.324,1.423,0.97
				C169.727,37.063,169.975,37.421,169.975,37.695z"/>
			<path fill="#221815" d="M187.521,36.025c0,0.247-0.24,0.392-0.721,0.433c-0.303,0.041-0.668,0.296-1.094,0.764
				c-0.895,0.783-2.021,1.705-3.383,2.764l-0.309-0.31c0.742-1.141,1.506-2.481,2.289-4.022c-1.897,0.358-3.486,0.736-4.764,1.135
				c0.893,4.043,1.518,6.594,1.876,7.652c0.027,0.261,0.096,0.591,0.206,0.989c-0.055,0.385-0.262,0.605-0.618,0.66
				c-0.454-0.055-0.922-0.22-1.403-0.495c-0.371-0.288-0.557-0.563-0.557-0.825v-0.412c-0.041-0.563-0.206-1.685-0.494-3.361
				l-0.826-3.713c-1.43,0.344-2.214,0.64-2.351,0.887c-0.262,0.289-0.462,0.434-0.599,0.434c-0.262-0.042-0.646-0.364-1.154-0.97
				c-0.51-0.633-0.846-1.382-1.011-2.248l0.433-0.083c0.248,0.564,0.599,0.846,1.053,0.846c0.865,0,1.965-0.137,3.3-0.412
				l-0.66-2.661c-0.165-0.715-0.716-1.086-1.649-1.113v-0.454l0.928-0.082c0.742,0,1.423,0.097,2.041,0.289
				c0.756,0.179,1.176,0.392,1.259,0.639c0,0.083-0.09,0.206-0.269,0.371c-0.179,0.139-0.234,0.365-0.164,0.681l0.433,1.98
				l5.095-0.805l0.66-0.846l2.041,1.753C187.385,35.709,187.521,35.888,187.521,36.025z"/>
			<path fill="#221815" d="M207.57,32.416c-1.444,3.368-3.336,5.975-5.672,7.816c-1.679,1.348-3.769,2.619-6.271,3.815
				c-0.289,0.083-0.475,0.241-0.558,0.475c-0.22,0.33-0.385,0.495-0.494,0.495c-0.441-0.041-0.97-0.365-1.588-0.97
				c-0.854-0.907-1.396-1.787-1.63-2.64l0.495-0.186c0.412,0.633,0.935,0.956,1.567,0.969c0.233,0.042,0.64-0.062,1.217-0.309
				c5.169-2.09,9.37-5.328,12.603-9.715L207.57,32.416z M197.773,32.622c-0.057,0.812-0.503,1.244-1.342,1.299
				c-0.398-0.055-0.777-0.336-1.134-0.846c-1.334-1.938-2.565-3.086-3.692-3.444l0.104-0.413c1.637,0.041,2.997,0.316,4.084,0.825
				C197.058,30.621,197.717,31.48,197.773,32.622z"/>
			<path fill="#221815" d="M217.494,32.663c-0.068,0.151-0.213,0.31-0.434,0.475c-0.233,0.151-0.392,0.378-0.475,0.681
				c-1.457,4.413-3.685,7.762-6.682,10.044l-0.33-0.351c2.228-2.983,3.705-6.38,4.434-10.188c0.11-0.577,0.166-1.031,0.166-1.361
				c-0.027-0.468-0.399-0.915-1.114-1.341l0.145-0.412c0.88,0.124,1.787,0.453,2.723,0.99
				C216.889,31.763,217.412,32.251,217.494,32.663z M226.94,41.408c0,1.169-0.495,1.773-1.485,1.814
				c-0.551-0.041-0.928-0.646-1.135-1.814c-0.838-4.249-2.536-7.879-5.094-10.891l0.371-0.309c2.008,1.526,3.582,3.121,4.723,4.785
				C226.066,37.51,226.94,39.648,226.94,41.408z M227.084,30.621c0,0.619-0.213,1.135-0.639,1.547
				c-0.398,0.303-0.895,0.468-1.484,0.495c-0.592-0.027-1.06-0.22-1.403-0.577c-0.44-0.44-0.659-0.928-0.659-1.465
				c0-0.66,0.213-1.175,0.639-1.547c0.426-0.398,0.9-0.598,1.424-0.598c0.59,0,1.092,0.2,1.505,0.598
				C226.879,29.459,227.084,29.975,227.084,30.621z M226.136,30.621c0-0.398-0.144-0.701-0.433-0.907
				c-0.262-0.151-0.51-0.227-0.742-0.227c-0.303,0-0.564,0.103-0.784,0.31c-0.192,0.248-0.289,0.522-0.289,0.825
				c0,0.316,0.103,0.584,0.31,0.805c0.248,0.233,0.529,0.351,0.846,0.351c0.261,0,0.494-0.124,0.701-0.372
				C226.006,31.172,226.136,30.91,226.136,30.621z"/>
			<path fill="#221815" d="M246.204,43.223c-0.083,0.977-0.577,1.492-1.485,1.547c-0.563-0.055-1.079-0.598-1.547-1.629
				c-0.948-2.021-2.213-3.698-3.795-5.032c-1.334,1.361-2.434,2.399-3.3,3.114c-1.622,1.361-3.815,2.626-6.579,3.795l-0.248-0.495
				c3.039-1.815,5.425-3.87,7.157-6.167c1.017-1.32,2.007-2.914,2.97-4.785c0.221-0.426,0.605-1.244,1.155-2.454
				c-1.402,0.097-2.908,0.296-4.517,0.599c-0.963,0.164-1.603,0.378-1.918,0.639c-0.289,0.18-0.475,0.282-0.557,0.31
				c-0.482-0.055-0.971-0.577-1.465-1.567c-0.44-0.839-0.695-1.554-0.764-2.145l0.412-0.124c0.372,0.771,1.025,1.176,1.96,1.217
				c0.688-0.042,2.069-0.131,4.146-0.269l3.176-0.227l0.764-0.722l2.042,1.691c0.233,0.207,0.351,0.406,0.351,0.599
				c0,0.179-0.145,0.31-0.434,0.392c-0.262,0.056-0.474,0.083-0.639,0.083c-0.262,0.563-0.736,1.526-1.424,2.888
				c-0.591,1.086-1.251,2.124-1.979,3.114c1.444,0.674,2.386,1.148,2.825,1.423C244.932,40.515,246.162,41.917,246.204,43.223z"/>
		</g>
		<g>
			<g>
				<g>
					<path fill="#FFFFFF" d="M117.845,10.543c-0.069,0.151-0.213,0.31-0.433,0.475c-0.234,0.151-0.392,0.378-0.475,0.681
						c-1.458,4.414-3.685,7.762-6.682,10.044l-0.33-0.351c2.228-2.984,3.706-6.38,4.434-10.189c0.11-0.578,0.165-1.031,0.165-1.361
						c-0.027-0.467-0.399-0.914-1.114-1.34l0.145-0.413c0.88,0.124,1.787,0.454,2.723,0.99
						C117.24,9.643,117.763,10.131,117.845,10.543z M127.291,19.288c0,1.169-0.494,1.774-1.484,1.815
						c-0.551-0.041-0.928-0.646-1.135-1.815c-0.839-4.249-2.537-7.879-5.094-10.89l0.371-0.309c2.008,1.526,3.583,3.121,4.723,4.785
						C126.418,15.39,127.291,17.528,127.291,19.288z M126.137,9.656c-0.055,0.564-0.303,0.859-0.742,0.887
						c-0.316-0.027-0.646-0.261-0.99-0.701c-0.646-1.031-1.355-1.76-2.125-2.186l0.063-0.392c0.852,0.11,1.656,0.365,2.412,0.763
						C125.607,8.439,126.067,8.982,126.137,9.656z M127.869,7.738c0,0.522-0.248,0.797-0.742,0.825
						c-0.316,0.014-0.646-0.227-0.99-0.722c-0.633-0.756-1.396-1.333-2.289-1.732l0.061-0.413c0.84,0,1.637,0.138,2.393,0.413
						C127.277,6.439,127.8,6.982,127.869,7.738z"/>
				</g>
				<g>
					<path fill="#FFFFFF" d="M147.591,14.42c0,0.385-0.221,0.578-0.66,0.578c-0.056,0-0.488-0.021-1.3-0.062
						c-0.839-0.055-1.697-0.083-2.578-0.083c-5.967,0-9.281,0.241-9.941,0.722c-0.288,0.179-0.508,0.282-0.66,0.309
						c-0.398-0.027-0.783-0.268-1.154-0.722c-0.619-0.756-1.113-1.739-1.484-2.949l0.494-0.124c0.344,0.825,0.914,1.272,1.712,1.341
						l12.705-0.557c0.413-0.11,0.715-0.165,0.907-0.165c0.33,0,0.825,0.275,1.485,0.825
						C147.432,13.781,147.591,14.077,147.591,14.42z"/>
				</g>
				<g>
					<path fill="#FFFFFF" d="M167.775,13.658c-0.027,0.454-0.18,0.68-0.454,0.68c-0.481,0-1.217-0.068-2.207-0.206
						c-0.976-0.151-1.718-0.227-2.228-0.227h-2.723c-0.164,2.901-0.604,4.827-1.318,5.775c-1.278,1.705-3.691,2.942-7.238,3.712
						l-0.166-0.495c2.42-0.77,4.092-1.891,5.012-3.362c0.716-1.127,1.135-2.942,1.259-5.445c-0.962,0.069-1.843,0.151-2.64,0.247
						c-1.596,0.22-2.551,0.475-2.867,0.763c-0.262,0.193-0.461,0.289-0.598,0.289c-0.371,0-0.729-0.296-1.073-0.887
						c-0.563-0.976-0.921-1.829-1.072-2.557l0.495-0.145c0.371,0.715,0.866,1.072,1.484,1.072c1.444,0,3.563-0.137,6.354-0.412
						v-3.63l-6.662,0.33l-0.124-0.598c3.892-0.413,7.981-1.423,12.271-3.032l1.629,1.65c0.248,0.275,0.398,0.495,0.453,0.66
						c-0.055,0.22-0.171,0.33-0.35,0.33c-0.138,0-0.296-0.027-0.475-0.083c-0.33-0.042-0.509-0.062-0.537-0.062
						c-0.041,0-0.398,0.048-1.072,0.145c-0.632,0.11-1.553,0.241-2.764,0.392v3.795c0.454,0,1.582-0.048,3.383-0.144
						c0.825-0.083,1.341-0.172,1.547-0.268c0.316-0.22,0.536-0.33,0.66-0.33c0.151,0,0.592,0.33,1.32,0.99
						C167.514,13.032,167.748,13.383,167.775,13.658z"/>
				</g>
				<g>
					<path fill="#FFFFFF" d="M185.295,13.905c0,0.248-0.24,0.392-0.723,0.433c-0.302,0.042-0.666,0.296-1.093,0.763
						c-0.894,0.784-2.021,1.705-3.382,2.764l-0.311-0.31c0.743-1.141,1.506-2.482,2.29-4.022c-1.897,0.358-3.485,0.736-4.765,1.134
						c0.895,4.042,1.52,6.593,1.877,7.652c0.027,0.261,0.096,0.591,0.207,0.99c-0.056,0.385-0.262,0.605-0.619,0.66
						c-0.454-0.055-0.922-0.22-1.402-0.495c-0.371-0.289-0.557-0.564-0.557-0.825v-0.413c-0.042-0.563-0.207-1.684-0.496-3.362
						l-0.824-3.712c-1.431,0.344-2.215,0.64-2.352,0.887c-0.262,0.289-0.461,0.433-0.598,0.433
						c-0.262-0.041-0.646-0.364-1.156-0.969c-0.508-0.632-0.845-1.382-1.01-2.248l0.434-0.083c0.247,0.564,0.598,0.846,1.051,0.846
						c0.867,0,1.967-0.137,3.301-0.413l-0.66-2.661c-0.165-0.715-0.715-1.086-1.65-1.114V9.388l0.928-0.083
						c0.743,0,1.424,0.096,2.043,0.289c0.756,0.179,1.176,0.392,1.258,0.64c0,0.083-0.09,0.206-0.268,0.371
						c-0.18,0.138-0.234,0.364-0.166,0.681l0.434,1.98l5.094-0.804l0.66-0.846l2.042,1.753
						C185.157,13.589,185.295,13.768,185.295,13.905z"/>
				</g>
				<g>
					<path fill="#FFFFFF" d="M195.195,9.079c0,0.138-0.088,0.268-0.268,0.392c-0.15,0.124-0.227,0.378-0.227,0.763v1.567
						c0,2.53-0.322,4.551-0.968,6.064c-0.81,1.842-2.597,3.575-5.36,5.197l-0.33-0.351c1.443-1.251,2.469-2.509,3.072-3.774
						c0.881-1.815,1.32-4.255,1.32-7.322V9.656c0-1.045-0.439-1.623-1.32-1.732l0.042-0.495c0.716,0,1.574,0.2,2.576,0.598
						C194.654,8.357,195.141,8.708,195.195,9.079z M206.807,12.214c-0.867,2.42-1.822,4.338-2.867,5.754
						c-1.045,1.389-2.283,2.647-3.713,3.774c-0.412,0.261-0.633,0.543-0.66,0.845c-0.041,0.316-0.15,0.475-0.33,0.475
						c-0.22,0-0.475-0.165-0.763-0.495l-1.547-1.835l0.845-0.371l-0.082-12.437c0-1.031-0.529-1.65-1.588-1.856l0.165-0.536
						c0.866,0.069,1.767,0.289,2.702,0.66c1.031,0.399,1.588,0.791,1.67,1.175c0,0.069-0.103,0.227-0.309,0.475
						c-0.221,0.206-0.337,0.536-0.352,0.99l-0.186,10.271c2.448-1.636,4.662-4.022,6.642-7.157L206.807,12.214z"/>
				</g>
				<g>
					<path fill="#FFFFFF" d="M109.682,31.209c1.334,0.151,2.269,0.461,2.805,0.929c0.371,0.344,0.564,0.722,0.578,1.134
						c0,1.046-0.468,1.568-1.402,1.568c-0.289,0-0.509-0.296-0.66-0.888c-0.289-1.031-0.805-1.801-1.547-2.31L109.682,31.209z
						 M115.725,28.817l0.495,0.268l-3.321,10.911c-0.042,0.151-0.062,0.378-0.062,0.68c0,0.304,0.103,0.791,0.31,1.465
						c0.165,0.481,0.248,0.887,0.248,1.217c-0.014,1.045-0.447,1.567-1.299,1.567c-0.867,0-1.313-0.522-1.341-1.567
						c0-0.33,0.089-0.735,0.268-1.217c0.192-0.674,0.295-1.161,0.31-1.465c-0.014-0.426-0.2-0.817-0.557-1.175
						c-0.151-0.179-0.543-0.323-1.175-0.434v-0.516h1.732L115.725,28.817z M110.94,26.61c1.444,0.138,2.461,0.454,3.053,0.949
						c0.412,0.358,0.632,0.75,0.66,1.176c0,1.045-0.474,1.567-1.423,1.567c-0.33,0-0.584-0.302-0.763-0.907
						c-0.33-1.059-0.928-1.856-1.794-2.393L110.94,26.61z M118.592,39.728l2.063,1.402c0.234,0.165,0.351,0.357,0.351,0.577
						c0,0.207-0.357,0.31-1.072,0.31c-1.87,1.334-3.96,2.386-6.27,3.156l-0.268-0.516C115.594,43.186,117.327,41.543,118.592,39.728
						z M126.594,28.5c-2.639,0.261-5.217,0.461-7.734,0.598v3.527h5.927l1.34-1.567l2.063,1.567v0.558h-3.135v5.638h0.557
						l1.259-1.567l2.063,1.567v0.555H113.91l-0.248-0.555h2.887V27.263l2.413,1.134c2.502-0.564,4.771-1.279,6.807-2.145l1.67,1.464
						c0.275,0.192,0.413,0.399,0.413,0.619c0,0.206-0.145,0.31-0.433,0.31L126.594,28.5z M118.86,38.82h3.885V33.18h-3.885V38.82z
						 M122.222,39.975c2.296,0.399,3.974,1.039,5.032,1.919c0.743,0.563,1.128,1.271,1.155,2.124
						c-0.069,0.715-0.446,1.072-1.134,1.072c-0.413,0-0.771-0.247-1.072-0.742c-1.073-1.732-2.482-3.053-4.229-3.96L122.222,39.975z
						"/>
				</g>
				<g>
					<path fill="#FFFFFF" d="M136.543,29.395l1.814,1.341v0.555h-3.3v2.99c1.031,0.165,1.774,0.481,2.228,0.949
						c0.027,0.041,0.068,0.082,0.123,0.124c0.537-1.513,0.942-2.977,1.218-4.394c0.247-1.196,0.46-2.674,0.64-4.435l2.764,0.867
						c0.233,0.055,0.35,0.199,0.35,0.433c0,0.261-0.302,0.488-0.906,0.681c-0.537,1.829-1.045,3.19-1.527,4.084
						c-0.632,1.251-1.375,2.344-2.227,3.279c0.082,0.206,0.131,0.419,0.145,0.639c0,0.936-0.413,1.402-1.238,1.402
						c-0.316,0-0.543-0.315-0.681-0.948c-0.179-0.742-0.474-1.348-0.887-1.815v9.591l-2.325,0.351v-7.59
						c-0.783,1.499-1.637,2.675-2.557,3.527l-0.166-0.558c1.045-2.337,1.904-5.396,2.578-9.178h-2.33l-0.248-0.555h2.723v-4.806
						l2.676,0.31c0.426,0.055,0.64,0.179,0.64,0.371c0,0.22-0.33,0.413-0.99,0.578v3.548h0.31L136.543,29.395z M141.238,32.798
						l2.846,0.866c0.248,0.082,0.371,0.227,0.371,0.433c0,0.221-0.364,0.42-1.094,0.599c-1.25,3.148-2.42,5.555-3.506,7.219
						l5.404-0.186c-0.495-1.155-1.23-2.241-2.207-3.259l0.227-0.393c1.843,0.853,3.211,1.809,4.104,2.867
						c0.688,0.894,1.031,1.726,1.031,2.496c0,0.935-0.385,1.402-1.155,1.402c-0.674,0-1.141-0.44-1.402-1.32
						c-0.096-0.412-0.213-0.811-0.351-1.196c-1.54,0.386-3.926,0.949-7.157,1.691c-0.109,0.48-0.254,0.722-0.433,0.722
						c-0.247,0-0.446-0.151-0.599-0.454l-1.051-2.269l2.598-0.082C139.746,39.666,140.537,36.62,141.238,32.798z M143.877,26.527
						h0.475c0.44,1.815,1.086,3.349,1.939,4.6c0.783,1.169,1.842,2.187,3.176,3.053l-0.062,0.516
						c-0.962,0.123-1.678,0.674-2.146,1.649c-0.894-1.059-1.602-2.323-2.124-3.795C144.6,31.038,144.18,29.03,143.877,26.527z"/>
				</g>
				<g>
					<path fill="#FFFFFF" d="M168.975,36.695c0,0.33-0.199,0.516-0.599,0.558c-0.027,0-0.241-0.014-0.64-0.042
						c-0.398-0.027-0.776-0.041-1.135-0.041h-2.021c-0.495,0-1.603,0.083-3.321,0.248c0.289,2.255,0.585,4.18,0.887,5.774
						c0.042,0.289,0.063,0.536,0.063,0.742c0,0.495-0.186,0.743-0.557,0.743c-0.522,0-1.031-0.165-1.526-0.495
						c-0.536-0.386-0.804-0.825-0.804-1.32c0-0.15,0.041-0.426,0.123-0.825c0.041-0.343,0.041-0.948,0-1.814
						c-0.082-0.894-0.172-1.767-0.268-2.619c-0.908,0.165-1.815,0.323-2.723,0.474c-1.348,0.275-2.146,0.53-2.393,0.764
						c-0.371,0.33-0.611,0.495-0.723,0.495c-0.535,0-1.078-0.427-1.629-1.279c-0.412-0.646-0.715-1.313-0.908-2l0.393-0.207
						c0.262,0.619,0.839,0.963,1.732,1.031c0.371-0.068,2.406-0.343,6.105-0.824l-0.434-3.383c-2.228,0.206-3.568,0.31-4.021,0.31
						c-1.155,0-2.117-0.757-2.888-2.269l0.433-0.289c0.551,0.618,1.231,0.928,2.043,0.928c1.168,0,2.564-0.13,4.186-0.392
						l-0.33-2.187c-0.164-1.155-0.77-1.753-1.814-1.794l0.104-0.475l0.907-0.103c0.812,0,1.575,0.11,2.29,0.33
						c0.838,0.261,1.271,0.536,1.299,0.825c0,0.11-0.076,0.282-0.227,0.516c-0.151,0.179-0.227,0.44-0.227,0.784l0.164,1.857
						c2.063-0.357,3.369-0.702,3.919-1.032c0.22-0.165,0.392-0.248,0.516-0.248c0.165,0,0.516,0.207,1.052,0.619
						c0.454,0.316,0.701,0.633,0.742,0.949c-0.041,0.275-0.261,0.481-0.66,0.619l-5.444,0.701l0.413,3.465
						c3.094-0.289,4.826-0.57,5.197-0.846c0.233-0.192,0.419-0.289,0.557-0.289c0.206,0,0.681,0.324,1.423,0.97
						C168.727,36.063,168.975,36.421,168.975,36.695z"/>
				</g>
				<g>
					<path fill="#FFFFFF" d="M186.521,35.025c0,0.247-0.24,0.392-0.721,0.433c-0.303,0.041-0.668,0.296-1.094,0.764
						c-0.895,0.783-2.021,1.705-3.383,2.764l-0.309-0.31c0.742-1.141,1.506-2.481,2.289-4.022c-1.897,0.358-3.486,0.736-4.764,1.135
						c0.893,4.043,1.518,6.594,1.876,7.652c0.027,0.261,0.096,0.591,0.206,0.989c-0.055,0.385-0.262,0.605-0.618,0.66
						c-0.454-0.055-0.922-0.22-1.403-0.495c-0.371-0.288-0.557-0.563-0.557-0.825v-0.412c-0.041-0.563-0.206-1.685-0.494-3.361
						l-0.826-3.713c-1.43,0.344-2.214,0.64-2.351,0.887c-0.262,0.289-0.462,0.434-0.599,0.434c-0.262-0.042-0.646-0.364-1.154-0.97
						c-0.51-0.633-0.846-1.382-1.011-2.248l0.433-0.083c0.248,0.564,0.599,0.846,1.053,0.846c0.865,0,1.965-0.137,3.3-0.412
						l-0.66-2.661c-0.165-0.715-0.716-1.086-1.649-1.113v-0.454l0.928-0.082c0.742,0,1.423,0.097,2.041,0.289
						c0.756,0.179,1.176,0.392,1.259,0.639c0,0.083-0.09,0.206-0.269,0.371c-0.179,0.139-0.234,0.365-0.164,0.681l0.433,1.98
						l5.095-0.805l0.66-0.846l2.041,1.753C186.385,34.709,186.521,34.888,186.521,35.025z"/>
				</g>
				<g>
					<path fill="#FFFFFF" d="M206.57,31.416c-1.444,3.368-3.336,5.975-5.672,7.816c-1.679,1.348-3.769,2.619-6.271,3.815
						c-0.289,0.083-0.475,0.241-0.558,0.475c-0.22,0.33-0.385,0.495-0.494,0.495c-0.441-0.041-0.97-0.365-1.588-0.97
						c-0.854-0.907-1.396-1.787-1.63-2.64l0.495-0.186c0.412,0.633,0.935,0.956,1.567,0.969c0.233,0.042,0.64-0.062,1.217-0.309
						c5.169-2.09,9.37-5.328,12.603-9.715L206.57,31.416z M196.773,31.622c-0.057,0.812-0.503,1.244-1.342,1.299
						c-0.398-0.055-0.777-0.336-1.134-0.846c-1.334-1.938-2.565-3.086-3.692-3.444l0.104-0.413c1.637,0.041,2.997,0.316,4.084,0.825
						C196.058,29.621,196.717,30.481,196.773,31.622z"/>
				</g>
				<g>
					<path fill="#FFFFFF" d="M216.494,31.663c-0.068,0.151-0.213,0.31-0.434,0.475c-0.233,0.151-0.392,0.378-0.475,0.681
						c-1.457,4.413-3.685,7.762-6.682,10.044l-0.33-0.351c2.228-2.983,3.705-6.38,4.434-10.188c0.11-0.577,0.166-1.031,0.166-1.361
						c-0.027-0.467-0.399-0.915-1.114-1.341l0.145-0.412c0.88,0.124,1.787,0.454,2.723,0.99
						C215.889,30.763,216.412,31.251,216.494,31.663z M225.94,40.408c0,1.169-0.495,1.773-1.485,1.814
						c-0.551-0.041-0.928-0.646-1.135-1.814c-0.838-4.249-2.536-7.879-5.094-10.89l0.371-0.309c2.008,1.526,3.582,3.121,4.723,4.785
						C225.066,36.51,225.94,38.648,225.94,40.408z M226.084,29.621c0,0.619-0.213,1.135-0.639,1.547
						c-0.398,0.303-0.895,0.468-1.484,0.495c-0.592-0.027-1.06-0.22-1.403-0.577c-0.44-0.44-0.659-0.928-0.659-1.465
						c0-0.66,0.213-1.175,0.639-1.547c0.426-0.398,0.9-0.598,1.424-0.598c0.59,0,1.092,0.2,1.505,0.598
						C225.879,28.459,226.084,28.975,226.084,29.621z M225.136,29.621c0-0.398-0.144-0.701-0.433-0.907
						c-0.262-0.151-0.51-0.227-0.742-0.227c-0.303,0-0.564,0.103-0.784,0.31c-0.192,0.248-0.289,0.522-0.289,0.825
						c0,0.316,0.103,0.584,0.31,0.805c0.248,0.233,0.529,0.351,0.846,0.351c0.261,0,0.494-0.124,0.701-0.372
						C225.006,30.171,225.136,29.91,225.136,29.621z"/>
				</g>
				<g>
					<path fill="#FFFFFF" d="M245.204,42.223c-0.083,0.977-0.577,1.492-1.485,1.547c-0.563-0.055-1.079-0.598-1.547-1.629
						c-0.948-2.021-2.213-3.698-3.795-5.032c-1.334,1.361-2.434,2.399-3.3,3.114c-1.622,1.361-3.815,2.626-6.579,3.795l-0.248-0.495
						c3.039-1.815,5.425-3.87,7.157-6.167c1.017-1.32,2.007-2.914,2.97-4.785c0.221-0.426,0.605-1.244,1.155-2.454
						c-1.402,0.096-2.908,0.296-4.517,0.599c-0.963,0.164-1.603,0.378-1.918,0.639c-0.289,0.18-0.475,0.282-0.557,0.31
						c-0.482-0.055-0.971-0.577-1.465-1.567c-0.44-0.839-0.695-1.554-0.764-2.145l0.412-0.124c0.372,0.771,1.025,1.176,1.96,1.217
						c0.688-0.042,2.069-0.131,4.146-0.269l3.176-0.227l0.764-0.722l2.042,1.691c0.233,0.207,0.351,0.406,0.351,0.598
						c0,0.179-0.145,0.31-0.434,0.392c-0.262,0.056-0.474,0.083-0.639,0.083c-0.262,0.563-0.736,1.526-1.424,2.888
						c-0.591,1.086-1.251,2.124-1.979,3.114c1.444,0.674,2.386,1.148,2.825,1.423C243.932,39.515,245.162,40.917,245.204,42.223z"/>
				</g>
			</g>
		</g>
	</g>
	<g>
		<g opacity="0.3">
			<path fill="#221815" d="M19.587,27.017v-0.264h-0.706v0.264h-3.204l-0.265,0.265v2.058h0.559v-1.793h1.793
				c0.059,0.294,0.059,0.882-0.411,1.292l0.353,0.412c0.617-0.529,0.676-1.292,0.617-1.734h1.618
				c-0.059,0.441-0.03,1.175,0.617,1.705l0.353-0.412c-0.47-0.412-0.47-1-0.411-1.293h2.028v1.793h0.559v-2.058l-0.265-0.264
				L19.587,27.017z M17.764,30.309V29.75h-2.292v1.148c0,0.117,0.03,0.293,0.177,0.47c0.206,0.264,0.588,0.382,1.117,0.382h0.999
				v-0.559h-0.999c-0.441,0-0.618-0.118-0.677-0.176v-0.029h1.706v-0.53H16.03v-0.147H17.764z M15.765,32.016l-0.264,0.264v2.881
				h0.559v-2.617h6.349v2.588h0.559v-2.852l-0.264-0.264H15.765z"/>
			<path fill="#221815" d="M17.646,33.719v-0.322h3.175v0.322H17.646z M21.644,33.514v1h-2.086v-0.235h1.528l0.265-0.265v-0.881
				l-0.265-0.266h-3.733l-0.265,0.234v0.883l0.265,0.265h1.617v0.234h-2.146V33.22h-0.559v1.558l0.265,0.266h2.44v0.234h-2.293v0.56
				h2.587l0.265-0.265v-0.529h2.352l0.265-0.266V33.22h-0.559L21.644,33.514 M19.234,30.339c0.382,0,0.617,0.175,0.617,0.293
				s-0.235,0.294-0.617,0.294c-0.381,0-0.617-0.176-0.617-0.294C18.587,30.515,18.853,30.339,19.234,30.339z M18.058,31.75h0.559
				c0-0.118,0.236-0.293,0.617-0.293c0.382,0,0.617,0.175,0.617,0.293h0.559c0-0.206-0.117-0.412-0.293-0.559
				c0.176-0.146,0.293-0.353,0.293-0.559c0-0.206-0.117-0.412-0.293-0.559c0.176-0.146,0.293-0.353,0.293-0.558h-0.559
				c0,0.118-0.235,0.293-0.617,0.293c-0.381,0-0.617-0.175-0.617-0.293h-0.559c0,0.206,0.117,0.412,0.294,0.558
				c-0.177,0.147-0.294,0.353-0.294,0.559c0,0.206,0.117,0.412,0.294,0.559C18.146,31.338,18.058,31.515,18.058,31.75 M22.967,29.75
				h-2.263v0.559h1.734v0.147h-1.734v0.559h1.704v0.029c-0.058,0.059-0.234,0.176-0.676,0.176h-1v0.559h1
				c0.529,0,0.911-0.117,1.117-0.382c0.147-0.177,0.177-0.382,0.177-0.471v-0.028C22.967,30.839,22.967,29.75,22.967,29.75z"/>
			<path fill="#221815" d="M25.231,39.07c-2.264-0.589-2.47-2.059-5.233-1.559l-1.264,0.236c-0.765-0.795-1.381-1.5-3.175-1.5H14.06
				c-0.206-0.47-0.411-0.882-0.765-1.234c-0.941-0.911-3.557-1.059-3.704-1.059c-0.088-0.265-0.147-0.529-0.206-0.794
				c1.441-0.765,3.793-2.263,5.762-3.969v-0.44c-1.764,1.411-4.145,2.617-5.938,3.41c-0.058-0.382-0.058-0.793-0.058-1.175
				c0-5.557,4.527-10.055,10.083-10.055c4.645,0,8.584,3.175,9.731,7.467c-0.529-0.382-1.088-0.852-1.587-1.352h-0.559
				c-2-2.029-3.616-4.499-3.616-4.499h-0.764l-0.177,0.412l-0.235-0.412h-0.911l-0.234,0.412l-0.148-0.412h-0.764
				c0,0-1.029,2.087-2.852,4.234h0.412c1.617-2,2.557-3.969,2.557-3.969h0.47l0.148,0.44l-0.206,0.354h0.264l0.412-0.794h0.735
				l0.353,0.794h0.382l-0.206-0.354l0.146-0.44h0.5c0,0,1.146,2.205,3.175,4.615h0.5c0.735,0.824,1.559,1.676,2.47,2.44
				c0.03,0.382,0.058,0.735,0.058,1.118C29.288,34.308,27.701,37.248,25.231,39.07z M23.761,39.981
				c-2.763-0.265-3.91-1.117-4.732-1.94c2.469-0.293,2.674,1.235,5.144,1.705C24.056,39.835,23.908,39.923,23.761,39.981
				 M22.145,40.657c0,0-4.028-0.146-6.085-1.764c-1.059-0.823-1.5-1.588-1.823-2.234c3.616,0.147,2.205,3.352,8.584,3.763
				C22.585,40.511,22.38,40.569,22.145,40.657 M19.234,41.069c-4.38,0-8.144-2.822-9.524-6.762c0,0,1.646,0.089,2.352,1.176
				c0.705,1.088,1.176,2.499,3.351,3.851c2.175,1.354,4.821,1.471,5.732,1.559C20.528,41.01,19.881,41.069,19.234,41.069
				 M19.234,20.46c-5.82,0-10.554,4.733-10.554,10.526c0,5.82,4.733,10.553,10.554,10.553c5.821,0,10.524-4.732,10.524-10.553
				C29.758,25.194,25.025,20.46,19.234,20.46 M54.688,23.137c-0.059-0.059-0.088-0.118-0.088-0.236c0-0.117,0.059-0.175,0.088-0.234
				c0.058-0.059,0.117-0.088,0.235-0.088h3.44c0.117,0,0.206,0.029,0.264,0.088c0.088,0.059,0.118,0.176,0.118,0.265
				c0,0.176-0.088,0.322-0.294,0.47c-0.176,0.118-0.411,0.236-0.735,0.353c-0.234,0.058-0.293,0.088-0.323,0.117
				c-0.264,0.089-0.323,0.147-0.323,0.147v0.03h2.528c-0.03,0.029-0.206,0.587-0.206,0.617h-2.322v1.029
				c0,0.265-0.059,0.441-0.176,0.559c-0.118,0.118-0.323,0.177-0.588,0.177c-0.176,0-0.412-0.03-0.676-0.059
				c-0.265-0.059-0.5-0.118-0.677-0.177c-0.088-0.029-0.147-0.059-0.206-0.117c-0.087-0.088-0.087-0.146-0.087-0.206
				c0-0.089,0.029-0.177,0.087-0.206c0.03-0.03,0.089-0.059,0.206-0.059c0.03,0,0.118,0,0.5,0.118
				c0.264,0.058,0.529,0.117,0.735,0.117c0.176,0,0.234-0.029,0.234-0.059c0,0,0.059-0.058,0.059-0.264v-0.794h-2.44
				c-0.088,0-0.177-0.029-0.236-0.088c-0.028-0.029-0.087-0.117-0.087-0.235c0-0.118,0.059-0.177,0.087-0.235
				c0.03-0.029,0.118-0.088,0.236-0.088h2.44V23.93c0-0.206,0.176-0.382,0.529-0.5h0.03c0.176-0.059,0.353-0.118,0.5-0.177v-0.029
				h-2.557C54.805,23.195,54.746,23.166,54.688,23.137L54.688,23.137z"/>
			<path fill="#221815" d="M55.657,21.608h0.941L56.54,21.52l-0.265-0.323c-0.206-0.236-0.235-0.324-0.235-0.412
				c0-0.059,0.03-0.118,0.089-0.206c0.087-0.087,0.146-0.087,0.206-0.087c0.088,0,0.177,0.028,0.294,0.117
				c0.088,0.058,0.206,0.176,0.382,0.353c0.118,0.118,0.176,0.206,0.235,0.264c0.059,0.089,0.059,0.148,0.059,0.236v0.087h0.353
				c0.206-0.176,0.411-0.382,0.588-0.588c0.294-0.353,0.411-0.412,0.5-0.412c0.088,0,0.176,0.029,0.264,0.088
				c0.059,0.059,0.088,0.147,0.088,0.235c0,0.088-0.059,0.206-0.206,0.353c-0.059,0.089-0.147,0.177-0.294,0.294l-0.029,0.029h0.44
				c0.147,0,0.265,0.059,0.382,0.147c0.118,0.088,0.147,0.235,0.147,0.382v0.912c-0.029,0-0.588,0.206-0.647,0.235v-0.94
				c0-0.03,0-0.089-0.03-0.117c0,0.058-0.058,0.058-0.087,0.058H54.57c-0.058,0-0.088,0-0.117,0.029c0,0-0.03,0.03-0.03,0.118v0.793
				c0,0.059-0.029,0.146-0.117,0.206c-0.059,0.059-0.146,0.088-0.206,0.088c-0.089,0-0.147-0.029-0.206-0.059
				c-0.059-0.059-0.117-0.117-0.117-0.206v-1.059c0-0.175,0.058-0.322,0.146-0.411c0.088-0.089,0.236-0.118,0.44-0.118h0.53
				l-0.148-0.146c-0.382-0.383-0.411-0.471-0.411-0.53c0-0.088,0.028-0.147,0.087-0.206s0.147-0.088,0.206-0.088
				c0.117,0,0.265,0.088,0.5,0.265l0.03,0.029l0.117,0.118c0.235,0.206,0.354,0.353,0.354,0.47v0.059L55.657,21.608 M47.162,22.313
				c-0.059-0.059-0.088-0.146-0.088-0.235c0-0.088,0.029-0.176,0.088-0.235s0.147-0.088,0.235-0.088h2.264v-0.823
				c0-0.088,0.029-0.176,0.117-0.235c0.059-0.059,0.147-0.088,0.235-0.088c0.088,0,0.176,0.029,0.235,0.088
				c0.058,0.059,0.088,0.147,0.088,0.235v0.823h2.616c-0.029,0.029-0.235,0.646-0.235,0.646h-2.322v0.029
				c0.146,0.441,0.323,0.911,0.617,1.323c0.354,0.559,1.088,1.323,1.117,1.353c0.118,0.117,0.412,0.381,0.647,0.587
				c0.147,0.147,0.294,0.265,0.323,0.294c-0.058,0.029-0.765,0.294-0.794,0.294c-0.176-0.148-0.646-0.618-0.852-0.824
				c-0.353-0.353-0.646-0.735-0.882-1.146c-0.176-0.294-0.323-0.588-0.471-0.912l-0.029-0.029v0.029
				c-0.118,0.382-0.294,0.706-0.5,1.029c-0.264,0.412-0.646,0.823-1.087,1.206c-0.235,0.206-0.47,0.382-0.646,0.5
				c-0.265,0.177-0.382,0.206-0.441,0.206c-0.088,0-0.146-0.029-0.206-0.088c-0.059-0.059-0.089-0.118-0.089-0.206
				c0-0.116,0.089-0.234,0.53-0.528c0.293-0.206,0.559-0.441,0.793-0.647c0.353-0.353,0.647-0.735,0.853-1.175
				c0.176-0.383,0.293-0.795,0.382-1.235v-0.03h-2.234C47.28,22.401,47.221,22.373,47.162,22.313z M72.091,26.224l0.088,0.088
				l0.793-0.294c-0.087-0.087-1.087-0.941-1.323-1.176c-0.234-0.235-0.735-0.853-0.999-1.294c-0.235-0.441-0.382-0.853-0.412-1.175
				V21.05c0-0.059-0.03-0.147-0.117-0.206c-0.059-0.059-0.148-0.088-0.235-0.088c-0.089,0-0.147,0.029-0.236,0.088
				c-0.087,0.059-0.117,0.147-0.117,0.206v1.058c0,0.353-0.088,0.735-0.206,1.176c-0.146,0.44-0.323,0.823-0.558,1.146
				c-0.294,0.441-0.794,0.853-1.412,1.235l-0.058,0.029c-0.088,0.059-0.146,0.088-0.176,0.147c-0.059,0.058-0.059,0.117-0.059,0.176
				c0,0.088,0.029,0.147,0.088,0.206c0.058,0.059,0.117,0.088,0.205,0.088c0.089,0,0.177-0.029,0.265-0.059
				c0.089-0.059,0.235-0.118,0.382-0.235c0.206-0.118,0.382-0.265,0.559-0.382c0.176-0.147,0.323-0.264,0.441-0.412
				c0.234-0.264,0.44-0.559,0.617-0.882c0.147-0.265,0.265-0.559,0.382-0.911c0.088,0.234,0.206,0.5,0.324,0.735
				c0.176,0.323,0.353,0.617,0.587,0.852C71.239,25.371,71.798,25.988,72.091,26.224z M38.725,20.814h-3.999
				c-0.735,0-0.735,0.559-0.735,0.617v4.263c0,0.088,0.029,0.618,0.735,0.618h3.999c0.735,0,0.735-0.559,0.735-0.618v-4.292
				C39.489,21.314,39.431,20.814,38.725,20.814z M38.813,25.341c0,0.206-0.03,0.324-0.294,0.324h-3.616
				c-0.235,0-0.293-0.118-0.293-0.324v-3.615c0-0.206,0.029-0.323,0.293-0.323h3.646c0.234,0,0.293,0.117,0.293,0.323v3.615H38.813z
				 M34.844,22.108c0,0.293,0.294,0.293,0.5,0.293h1.029v0.736h-0.912c-0.235,0-0.5,0-0.5,0.293s0.293,0.293,0.5,0.293h0.912v0.912
				h-1.088c-0.235,0-0.5,0-0.5,0.324c0,0.293,0.264,0.293,0.5,0.293h3.086l0.235-0.617h-0.47c0.03-0.029,0.118-0.088,0.118-0.235
				c0-0.118-0.147-0.353-0.235-0.471c-0.058-0.059-0.117-0.176-0.294-0.176c-0.146,0-0.293,0.088-0.293,0.294
				c0,0.117,0.293,0.528,0.353,0.559H37.02v-0.911h1.205l0.206-0.589H37.02v-0.706h1.323l0.234-0.618h-3.204
				C35.138,21.814,34.844,21.814,34.844,22.108z M41.194,22.136h4.615l0.235-0.646h-2.292v-0.382c0-0.323,0-0.5-0.382-0.5
				c-0.353,0-0.353,0.235-0.353,0.5v0.382h-1.793c-0.235,0-0.5,0-0.5,0.324C40.694,22.136,40.93,22.136,41.194,22.136z
				 M41.841,22.548c-0.118,0-0.382,0.088-0.382,0.324c0,0.059,0,0.088,0.088,0.323c0.206,0.5,0.382,1.175,0.441,1.381
				c0.206,0.735,0.235,0.853,0.47,0.853c0.029,0,0.324,0,0.382-0.264v-0.089c0-0.117-0.235-1.059-0.529-1.823
				C42.164,22.754,42.047,22.548,41.841,22.548z M44.398,25.665c0.705-1.617,0.882-2.616,0.882-2.764
				c0-0.293-0.206-0.381-0.353-0.381c-0.264,0-0.294,0.117-0.382,0.5c-0.147,0.618-0.353,1.44-0.882,2.616h-2.646
				c-0.264,0-0.5,0-0.5,0.323c0,0.324,0.235,0.324,0.5,0.324h4.968l0.236-0.677h-1.823V25.665z M61.596,23.372
				c0.148,0,0.324-0.118,0.294-0.323c-0.029-0.177-0.088-0.206-0.529-0.559c-0.441-0.354-0.5-0.382-0.618-0.382
				c-0.206,0-0.294,0.176-0.294,0.293c0,0.088,0.059,0.147,0.088,0.206c0.059,0.059,0.441,0.324,0.5,0.382
				C61.449,23.342,61.479,23.372,61.596,23.372z M61.449,21.667c0.294,0.265,0.324,0.265,0.412,0.265
				c0.147,0,0.293-0.147,0.293-0.323c0-0.265-0.793-0.853-1.058-0.882c-0.117,0-0.293,0.059-0.293,0.294
				c0,0.059,0.029,0.147,0.087,0.206C60.949,21.314,61.361,21.608,61.449,21.667z M65.095,24.077c-0.118,0-0.294,0.118-0.294,0.324
				c0,0.059,0.03,0.147,0.206,0.441c0.117,0.235,0.176,0.324,0.294,0.588c-0.354,0.058-0.941,0.146-1.881,0.206
				c0.234-0.706,0.382-1.47,0.44-1.939h2.117l0.206-0.589h-1.735v-0.971h1.323l0.235-0.617h-1.558v-0.412c0-0.264,0-0.5-0.353-0.5
				c-0.323,0-0.323,0.264-0.323,0.5v0.412h-0.97c-0.235,0-0.5,0-0.5,0.294c0,0.294,0.264,0.294,0.5,0.294h0.97v0.97h-1.146
				c-0.235,0-0.5,0-0.5,0.293s0.294,0.293,0.5,0.293h0.588c-0.089,0.618-0.294,1.382-0.529,1.97c-0.353,0-0.618,0-0.618,0.323
				c0,0.03,0,0.324,0.353,0.324c0.441,0,1.852-0.089,3.086-0.353c0.029,0.116,0.059,0.205,0.176,0.5l0.559-0.206
				c-0.147-0.618-0.529-1.411-0.617-1.617C65.389,24.224,65.271,24.077,65.095,24.077z M61.744,24.018
				c-0.206,0-0.265,0.206-0.294,0.294c-0.206,0.617-0.588,1.234-0.793,1.559c-0.118,0.175-0.147,0.206-0.147,0.293
				c0,0.206,0.176,0.324,0.324,0.324c0.147,0,0.235-0.059,0.5-0.471c0.236-0.382,0.706-1.264,0.706-1.705
				C62.066,24.254,62.037,24.018,61.744,24.018z M89.024,35.572v-0.03c0-0.029,0.117-0.176,0.764-0.353l0.765-0.234
				c0.793-0.266,1.352-0.53,1.764-0.824c0.471-0.353,0.705-0.734,0.705-1.146c0-0.265-0.088-0.5-0.293-0.677
				c-0.176-0.176-0.412-0.266-0.706-0.266h-8.172c-0.235,0-0.441,0.06-0.559,0.178c-0.089,0.088-0.235,0.265-0.235,0.559
				c0,0.235,0.059,0.44,0.206,0.559c0.147,0.146,0.323,0.206,0.588,0.206h6.115c-0.353,0.146-0.765,0.293-1.206,0.44l-0.058,0.029
				c-0.853,0.265-1.323,0.676-1.323,1.206v0.322h-5.762c-0.294,0-0.471,0.118-0.559,0.206c-0.088,0.089-0.206,0.265-0.206,0.559
				s0.118,0.471,0.236,0.559c0.146,0.118,0.323,0.205,0.559,0.205h5.762v1.882c0,0.5-0.088,0.618-0.088,0.618
				s-0.117,0.088-0.529,0.088c-0.5,0-1.087-0.088-1.735-0.235c-0.97-0.235-1.146-0.265-1.234-0.265c-0.265,0-0.412,0.088-0.5,0.176
				c-0.088,0.089-0.206,0.236-0.206,0.501c0,0.117,0.029,0.322,0.234,0.528c0.118,0.147,0.294,0.236,0.53,0.324
				c0.44,0.146,0.969,0.293,1.616,0.411c0.646,0.117,1.205,0.176,1.617,0.176c0.647,0,1.117-0.147,1.44-0.411
				c0.324-0.294,0.471-0.765,0.471-1.381v-2.382h5.497l0.559-1.528H89.024z"/>
			<path fill="#221815" d="M81.44,33.955c0.147,0.117,0.323,0.176,0.529,0.176c0.206,0,0.382-0.059,0.558-0.176
				c0.235-0.177,0.264-0.383,0.264-0.529v-1.852c0-0.177,0.03-0.236,0.03-0.265c0.029,0,0.088-0.03,0.235-0.03h10.054
				c0.117,0,0.206,0.03,0.235,0.059c0.028,0.03,0.058,0.119,0.058,0.236v2.322l1.618-0.589v-2.234c0-0.353-0.148-0.676-0.382-0.911
				c-0.265-0.234-0.588-0.381-0.941-0.381h-0.97c0.293-0.265,0.5-0.5,0.676-0.677c0.324-0.382,0.471-0.646,0.471-0.881
				c0-0.236-0.088-0.47-0.235-0.617c-0.176-0.177-0.382-0.236-0.618-0.236c-0.234,0-0.529,0.177-1.234,1
				c-0.441,0.529-0.94,1.029-1.411,1.44h-0.735c0.028-0.059,0.028-0.117,0.028-0.175c0-0.206-0.058-0.383-0.176-0.589
				c-0.087-0.175-0.264-0.381-0.529-0.646c-0.382-0.412-0.706-0.705-0.911-0.852c-0.264-0.206-0.5-0.294-0.706-0.294
				c-0.117,0-0.323,0.03-0.529,0.235c-0.206,0.177-0.235,0.382-0.235,0.529c0,0.176,0.088,0.412,0.588,0.97l0.618,0.735
				c0,0,0.058,0.088,0.087,0.117h-2.175c0-0.058,0.03-0.117,0.03-0.176c0-0.323-0.265-0.676-0.854-1.176
				c0,0-0.264-0.234-0.293-0.234l-0.059-0.059c-0.559-0.471-0.911-0.676-1.205-0.676c-0.206,0-0.382,0.058-0.559,0.205
				c-0.147,0.147-0.235,0.324-0.235,0.53c0,0.176,0.088,0.412,0.999,1.323l0.265,0.264h-1.147c-0.499,0-0.852,0.089-1.117,0.294
				c-0.264,0.206-0.382,0.558-0.382,1v2.411C81.146,33.632,81.264,33.808,81.44,33.955z M77.677,40.805l1.969-0.706
				c-0.147-0.176-1.91-1.705-2.351-2.146c-0.412-0.441-1.882-2.028-2.646-3.234c-0.646-1.059-1.117-2.116-1.44-3.175h5.468
				l0.587-1.646h-6.261v-1.939c0-0.206-0.088-0.412-0.264-0.589c-0.147-0.146-0.382-0.234-0.588-0.234
				c-0.235,0-0.441,0.059-0.618,0.206c-0.176,0.146-0.265,0.353-0.265,0.587v1.941h-5.35c-0.235,0-0.412,0.088-0.588,0.235
				c-0.147,0.146-0.235,0.353-0.235,0.587c0,0.235,0.088,0.441,0.235,0.588c0.147,0.146,0.353,0.235,0.588,0.235h5.233
				c-0.147,1.028-0.441,2.029-0.882,2.91c-0.471,1-1.146,1.94-1.999,2.764c-0.53,0.529-1.176,1.059-1.882,1.558
				c-1.029,0.736-1.235,1.059-1.235,1.323c0,0.206,0.059,0.383,0.206,0.53c0.147,0.146,0.323,0.234,0.529,0.234
				c0.148,0,0.441-0.06,1.089-0.471c0.44-0.294,0.969-0.676,1.558-1.176c1.087-0.911,1.999-1.882,2.646-2.851
				c0.47-0.736,0.882-1.56,1.176-2.44c0.323,0.765,0.706,1.498,1.146,2.176c0.588,0.939,1.293,1.881,2.117,2.733
				C76.118,39.305,77.324,40.481,77.677,40.805L77.677,40.805z M45.222,33.544h-1.206v-1.471h1.206V33.544z M45.222,36.63h-1.206
				v-1.558h1.206V36.63 M43.34,30.604h-1.176c0.059-0.147,0.117-0.323,0.176-0.5c0.089-0.265,0.177-0.559,0.265-0.882h1.764
				c-0.03,0.088-0.118,0.176-0.236,0.381C43.957,29.898,43.664,30.221,43.34,30.604 M47.838,33.544H46.75v-1.528
				c0-0.472-0.117-0.824-0.323-1.029c-0.206-0.235-0.559-0.354-1-0.354h-0.205c0.235-0.265,0.411-0.5,0.559-0.735
				c0.264-0.412,0.382-0.735,0.382-1.028c0-0.324-0.118-0.589-0.324-0.794c-0.206-0.206-0.5-0.294-0.823-0.294h-2.117
				c-0.03-0.176-0.088-0.323-0.206-0.44c-0.088-0.089-0.264-0.206-0.559-0.206c-0.646,0-0.823,0.911-0.882,1.205l-0.117,0.53
				c-0.147,0.646-0.354,1.205-0.559,1.705c-0.176,0.412-0.382,0.794-0.618,1.117h-2.264v-0.412h1.852c0.118,0,0.323-0.029,0.5-0.234
				c0.118-0.146,0.206-0.324,0.206-0.5c0-0.177-0.058-0.353-0.206-0.5c-0.118-0.147-0.293-0.206-0.5-0.206h-1.852v-0.441h2.058
				c0.206,0,0.353-0.088,0.499-0.235c0.118-0.147,0.176-0.293,0.176-0.5s-0.058-0.353-0.205-0.5
				c-0.118-0.118-0.295-0.205-0.471-0.205h-2.058v-0.177c0-0.206-0.088-0.381-0.206-0.5c-0.087-0.088-0.264-0.206-0.529-0.206
				c-0.206,0-0.382,0.059-0.529,0.206c-0.206,0.176-0.235,0.382-0.235,0.5v0.177h-2.058c-0.177,0-0.353,0.087-0.5,0.234
				c-0.118,0.147-0.177,0.293-0.177,0.5c0,0.177,0.059,0.353,0.177,0.471c0.117,0.117,0.293,0.206,0.47,0.206h2.058v0.44h-1.852
				c-0.264,0-0.411,0.118-0.5,0.206c-0.089,0.088-0.176,0.235-0.176,0.499c0,0.206,0.059,0.353,0.206,0.501
				c0.147,0.146,0.294,0.205,0.5,0.205h1.852v0.411h-2.322c-0.176,0-0.353,0.089-0.5,0.206c-0.117,0.146-0.206,0.295-0.206,0.5
				c0,0.177,0.059,0.353,0.206,0.5c0.176,0.177,0.353,0.206,0.471,0.206h6.321c0.47,0,0.911-0.323,1.323-1.001h0.97v1.471h-1.764
				c-0.206,0-0.382,0.088-0.5,0.205c-0.147,0.147-0.206,0.325-0.206,0.53c0,0.206,0.059,0.382,0.206,0.559
				c0.176,0.206,0.382,0.265,0.529,0.265h1.763v1.558h-1.499c-0.206,0-0.382,0.089-0.529,0.235
				c-0.117,0.146-0.206,0.323-0.206,0.529s0.059,0.412,0.206,0.529c0.088,0.088,0.265,0.205,0.529,0.205h1.499v1.265
				c0,0.235-0.058,0.294-0.058,0.294s-0.059,0.029-0.176,0.029c-0.148,0-0.324-0.029-0.559-0.088
				c-0.354-0.088-0.471-0.118-0.559-0.118c-0.265,0-0.441,0.118-0.53,0.206c-0.088,0.088-0.205,0.265-0.205,0.529
				c0,0.235,0.117,0.559,0.617,0.794c0.323,0.146,0.735,0.205,1.264,0.205c0.588,0,1.029-0.118,1.293-0.353
				c0.295-0.235,0.441-0.646,0.441-1.176v-1.588h1.412c0.47,0,0.793-0.088,0.999-0.322c0.206-0.206,0.323-0.53,0.323-1v-1.734h0.53
				L47.838,33.544"/>
			<path fill="#221815" d="M34.08,40.657c0,0.206,0.088,0.383,0.235,0.501c0.147,0.116,0.324,0.176,0.529,0.176
				c0.206,0,0.382-0.06,0.53-0.176c0.147-0.118,0.235-0.295,0.235-0.501v-1.764h1.94l0.529-1.471h-2.47v-0.527h1.97l0.5-1.441h-2.47
				v-0.499h2.675v4.438c0,0.205-0.059,0.265-0.059,0.265s-0.088,0.059-0.293,0.059c-0.206,0-0.441-0.029-0.735-0.118
				c-0.471-0.116-0.559-0.146-0.647-0.146c-0.206,0-0.382,0.059-0.499,0.206c-0.089,0.088-0.177,0.235-0.177,0.499
				c0,0.236,0.118,0.589,0.735,0.823c0.382,0.146,0.853,0.235,1.44,0.235s1.029-0.117,1.293-0.353
				c0.294-0.264,0.441-0.647,0.441-1.293v-4.881c0-0.265-0.117-0.587-0.353-0.793c-0.235-0.236-0.529-0.353-0.912-0.353h-3.058
				c-0.412,0-0.764,0.116-0.999,0.322c-0.265,0.236-0.382,0.53-0.382,1.5V40.657z M59.773,38.512c0.324-0.265,0.5-0.617,0.5-1.117
				v-3.087c0-0.205-0.088-0.411-0.235-0.529c-0.146-0.118-0.323-0.206-0.559-0.206c-0.206,0-0.412,0.06-0.559,0.206
				c-0.146,0.147-0.235,0.324-0.235,0.529v2.763c0,0.118-0.029,0.206-0.059,0.266c-0.029,0.029-0.118,0.059-0.205,0.059h-4.175
				c-0.265,0-0.353-0.059-0.382-0.059c-0.029-0.03-0.059-0.118-0.059-0.235v-2.764c0-0.206-0.087-0.411-0.234-0.529
				c-0.147-0.117-0.324-0.206-0.529-0.206c-0.206,0-0.412,0.059-0.559,0.206c-0.177,0.147-0.265,0.323-0.265,0.559v3.116
				c0,0.471,0.147,0.823,0.441,1.088c0.293,0.235,0.676,0.382,1.175,0.382h4.674C59.068,38.864,59.479,38.746,59.773,38.512z"/>
			<path fill="#221815" d="M62.419,27.958c-0.294-0.265-0.706-0.383-1.234-0.383h-9.848c-0.5,0-0.883,0.147-1.206,0.412
				c-0.293,0.265-0.47,0.647-0.47,1.088v11.436c0,0.146,0.058,0.323,0.264,0.499c0.146,0.117,0.324,0.177,0.529,0.177
				c0.206,0,0.382-0.06,0.53-0.177c0.235-0.176,0.264-0.382,0.264-0.499V29.486c0-0.147,0.03-0.264,0.089-0.294
				c0.029-0.029,0.117-0.088,0.44-0.088h8.878c0.44,0,0.529,0.088,0.559,0.088c0.029,0.03,0.058,0.118,0.058,0.294v8.819
				c0,0.5-0.087,0.853-0.293,0.999c-0.118,0.089-0.471,0.266-1.353,0.266c-0.353,0-0.765-0.029-1.205-0.088
				c-0.707-0.089-0.765-0.089-0.794-0.089c-0.265,0-0.441,0.117-0.529,0.205c-0.089,0.089-0.206,0.265-0.206,0.53
				c0,0.382,0.293,0.676,0.882,0.823c0.471,0.117,1.117,0.175,2.058,0.175c1.117,0,1.881-0.205,2.351-0.616
				c0.471-0.412,0.707-1.117,0.707-2.088v-9.348C62.89,28.604,62.742,28.223,62.419,27.958z"/>
			<path fill="#221815" d="M57.04,32.955h3.528l0.559-1.498h-1.823c0.088-0.119,0.206-0.236,0.294-0.354
				c0.118-0.147,0.206-0.295,0.294-0.471c0.058-0.118,0.117-0.265,0.117-0.412v-0.176c-0.03-0.176-0.117-0.353-0.265-0.5
				c-0.146-0.147-0.353-0.235-0.587-0.235H58.98c-0.176,0.029-0.353,0.147-0.617,0.529c-0.059,0.059-0.089,0.118-0.147,0.206
				c-0.089,0.117-0.176,0.294-0.294,0.47c-0.206,0.324-0.412,0.647-0.617,0.942h-2.205c-0.323-0.706-0.587-1.177-0.793-1.441
				c-0.294-0.381-0.588-0.587-0.911-0.587c-0.294,0-0.471,0.117-0.559,0.206c-0.088,0.087-0.206,0.264-0.206,0.558
				c0,0.176,0.088,0.382,0.47,0.97c0.059,0.088,0.147,0.206,0.206,0.295h-1.117c-0.206,0-0.382,0.058-0.529,0.205
				c-0.146,0.146-0.206,0.322-0.206,0.528s0.059,0.383,0.206,0.53c0.176,0.205,0.382,0.234,0.529,0.234h3.263v4.439l1.587-0.588
				V32.955z"/>
		</g>
		<g>
			<g>
				<path fill="#FFFFFF" d="M18.587,26.017v-0.264h-0.706v0.264h-3.204l-0.265,0.265v2.058h0.559v-1.793h1.793
					c0.059,0.294,0.059,0.882-0.411,1.292l0.353,0.412c0.617-0.529,0.676-1.292,0.617-1.734h1.618
					c-0.059,0.441-0.03,1.175,0.617,1.705l0.353-0.412c-0.47-0.412-0.47-1-0.411-1.293h2.028v1.793h0.559v-2.058l-0.265-0.264
					L18.587,26.017z M16.764,29.309V28.75h-2.292v1.147c0,0.117,0.03,0.293,0.177,0.47c0.206,0.264,0.588,0.382,1.117,0.382h0.999
					v-0.559h-0.999c-0.441,0-0.618-0.118-0.677-0.176v-0.029h1.706v-0.529H15.03v-0.147H16.764z M14.765,31.016l-0.264,0.264v2.881
					h0.559v-2.617h6.349v2.588h0.559v-2.852l-0.264-0.264H14.765z"/>
				<path fill="#FFFFFF" d="M16.646,32.719v-0.322h3.175v0.322H16.646z M20.644,32.514v1h-2.086v-0.235h1.528l0.265-0.265v-0.881
					l-0.265-0.266h-3.733l-0.265,0.234v0.883l0.265,0.265h1.617v0.234h-2.146V32.22h-0.559v1.558l0.265,0.266h2.44v0.234h-2.293
					v0.56h2.587l0.265-0.265v-0.529h2.352l0.265-0.266V32.22h-0.559L20.644,32.514 M18.234,29.339c0.382,0,0.617,0.175,0.617,0.293
					s-0.235,0.294-0.617,0.294c-0.381,0-0.617-0.176-0.617-0.294C17.587,29.515,17.853,29.339,18.234,29.339z M17.058,30.75h0.559
					c0-0.118,0.236-0.293,0.617-0.293c0.382,0,0.617,0.175,0.617,0.293h0.559c0-0.206-0.117-0.412-0.293-0.559
					c0.176-0.146,0.293-0.353,0.293-0.559c0-0.206-0.117-0.412-0.293-0.559c0.176-0.146,0.293-0.353,0.293-0.558h-0.559
					c0,0.118-0.235,0.293-0.617,0.293c-0.381,0-0.617-0.175-0.617-0.293h-0.559c0,0.206,0.117,0.412,0.294,0.558
					c-0.177,0.147-0.294,0.353-0.294,0.559c0,0.206,0.117,0.412,0.294,0.559C17.146,30.338,17.058,30.515,17.058,30.75
					 M21.967,28.75h-2.263v0.559h1.734v0.147h-1.734v0.559h1.704v0.03c-0.058,0.059-0.234,0.176-0.676,0.176h-1v0.558h1
					c0.529,0,0.911-0.117,1.117-0.382c0.147-0.176,0.177-0.382,0.177-0.471v-0.029C21.967,29.839,21.967,28.75,21.967,28.75z"/>
				<path fill="#FFFFFF" d="M24.231,38.07c-2.264-0.589-2.47-2.059-5.233-1.559l-1.264,0.236c-0.765-0.795-1.381-1.5-3.175-1.5
					H13.06c-0.206-0.47-0.411-0.882-0.765-1.234c-0.941-0.911-3.557-1.059-3.704-1.059c-0.088-0.265-0.147-0.529-0.206-0.794
					c1.441-0.765,3.793-2.263,5.762-3.969v-0.44c-1.764,1.411-4.145,2.617-5.938,3.41c-0.058-0.382-0.058-0.793-0.058-1.175
					c0-5.556,4.527-10.054,10.083-10.054c4.645,0,8.584,3.175,9.731,7.467c-0.529-0.382-1.088-0.852-1.587-1.352h-0.559
					c-2-2.029-3.616-4.499-3.616-4.499h-0.764l-0.177,0.412l-0.235-0.412h-0.911l-0.234,0.412l-0.148-0.412h-0.764
					c0,0-1.029,2.087-2.852,4.234h0.412c1.617-2,2.557-3.969,2.557-3.969h0.47l0.148,0.44l-0.206,0.354h0.264l0.412-0.794h0.735
					l0.353,0.794h0.382l-0.206-0.354l0.146-0.44h0.5c0,0,1.146,2.205,3.175,4.615h0.5c0.735,0.824,1.559,1.676,2.47,2.44
					c0.03,0.382,0.058,0.735,0.058,1.117C28.288,33.308,26.701,36.248,24.231,38.07z M22.761,38.981
					c-2.763-0.265-3.91-1.117-4.732-1.94c2.469-0.293,2.674,1.235,5.144,1.705C23.056,38.835,22.908,38.923,22.761,38.981
					 M21.145,39.657c0,0-4.028-0.146-6.085-1.764c-1.059-0.823-1.5-1.588-1.823-2.234c3.616,0.147,2.205,3.352,8.584,3.763
					C21.585,39.511,21.38,39.569,21.145,39.657 M18.234,40.069c-4.38,0-8.144-2.822-9.524-6.762c0,0,1.646,0.089,2.352,1.176
					c0.705,1.088,1.176,2.499,3.351,3.851c2.175,1.354,4.821,1.471,5.732,1.559C19.528,40.01,18.881,40.069,18.234,40.069
					 M18.234,19.46c-5.82,0-10.554,4.733-10.554,10.525c0,5.821,4.733,10.553,10.554,10.553c5.821,0,10.524-4.732,10.524-10.553
					C28.758,24.194,24.025,19.46,18.234,19.46 M53.688,22.137c-0.059-0.059-0.088-0.118-0.088-0.236
					c0-0.117,0.059-0.175,0.088-0.234c0.058-0.059,0.117-0.088,0.235-0.088h3.44c0.117,0,0.206,0.029,0.264,0.088
					c0.088,0.059,0.118,0.176,0.118,0.265c0,0.176-0.088,0.322-0.294,0.47c-0.176,0.118-0.411,0.236-0.735,0.353
					c-0.234,0.058-0.293,0.088-0.323,0.117c-0.264,0.089-0.323,0.147-0.323,0.147v0.03h2.528c-0.03,0.029-0.206,0.587-0.206,0.617
					h-2.322v1.029c0,0.265-0.059,0.441-0.176,0.559c-0.118,0.118-0.323,0.177-0.588,0.177c-0.176,0-0.412-0.03-0.676-0.059
					c-0.265-0.059-0.5-0.118-0.677-0.177c-0.088-0.029-0.147-0.059-0.206-0.117c-0.087-0.088-0.087-0.146-0.087-0.206
					c0-0.089,0.029-0.177,0.087-0.206c0.03-0.03,0.089-0.059,0.206-0.059c0.03,0,0.118,0,0.5,0.118
					c0.264,0.058,0.529,0.117,0.735,0.117c0.176,0,0.234-0.029,0.234-0.059c0,0,0.059-0.058,0.059-0.264v-0.794h-2.44
					c-0.088,0-0.177-0.029-0.236-0.088c-0.028-0.029-0.087-0.117-0.087-0.235c0-0.118,0.059-0.177,0.087-0.235
					c0.03-0.029,0.118-0.088,0.236-0.088h2.44V22.93c0-0.206,0.176-0.382,0.529-0.5h0.03c0.176-0.059,0.353-0.118,0.5-0.177v-0.029
					h-2.557C53.805,22.195,53.746,22.166,53.688,22.137L53.688,22.137z"/>
				<path fill="#FFFFFF" d="M54.657,20.608h0.941L55.54,20.52l-0.265-0.323c-0.206-0.236-0.235-0.324-0.235-0.412
					c0-0.059,0.03-0.118,0.089-0.206c0.087-0.087,0.146-0.087,0.206-0.087c0.088,0,0.177,0.028,0.294,0.117
					c0.088,0.058,0.206,0.176,0.382,0.353c0.118,0.118,0.176,0.206,0.235,0.264c0.059,0.089,0.059,0.148,0.059,0.236v0.087h0.353
					c0.206-0.176,0.411-0.382,0.588-0.588c0.294-0.353,0.411-0.412,0.5-0.412c0.088,0,0.176,0.029,0.264,0.088
					c0.059,0.059,0.088,0.147,0.088,0.235c0,0.088-0.059,0.206-0.206,0.353c-0.059,0.089-0.147,0.177-0.294,0.294l-0.029,0.029h0.44
					c0.147,0,0.265,0.059,0.382,0.147c0.118,0.088,0.147,0.235,0.147,0.382v0.912c-0.029,0-0.588,0.206-0.647,0.235v-0.94
					c0-0.03,0-0.089-0.03-0.117c0,0.058-0.058,0.058-0.087,0.058H53.57c-0.058,0-0.088,0-0.117,0.029c0,0-0.03,0.03-0.03,0.118
					v0.793c0,0.059-0.029,0.146-0.117,0.206c-0.059,0.059-0.146,0.088-0.206,0.088c-0.089,0-0.147-0.029-0.206-0.059
					c-0.059-0.059-0.117-0.117-0.117-0.206v-1.059c0-0.175,0.058-0.322,0.146-0.411c0.088-0.089,0.236-0.118,0.44-0.118h0.53
					l-0.148-0.146c-0.382-0.383-0.411-0.471-0.411-0.53c0-0.088,0.028-0.147,0.087-0.206s0.147-0.088,0.206-0.088
					c0.117,0,0.265,0.088,0.5,0.265l0.03,0.029l0.117,0.118c0.235,0.206,0.354,0.353,0.354,0.47v0.059L54.657,20.608 M46.162,21.313
					c-0.059-0.059-0.088-0.146-0.088-0.235c0-0.088,0.029-0.176,0.088-0.235s0.147-0.088,0.235-0.088h2.264v-0.823
					c0-0.088,0.029-0.176,0.117-0.235c0.059-0.059,0.147-0.088,0.235-0.088c0.088,0,0.176,0.029,0.235,0.088
					c0.058,0.059,0.088,0.147,0.088,0.235v0.823h2.616c-0.029,0.029-0.235,0.646-0.235,0.646h-2.322v0.029
					c0.146,0.441,0.323,0.911,0.617,1.323c0.354,0.559,1.088,1.323,1.117,1.353c0.118,0.117,0.412,0.381,0.647,0.587
					c0.147,0.147,0.294,0.265,0.323,0.294c-0.058,0.029-0.765,0.294-0.794,0.294c-0.176-0.148-0.646-0.618-0.852-0.824
					c-0.353-0.353-0.646-0.735-0.882-1.146c-0.176-0.294-0.323-0.588-0.471-0.912l-0.029-0.029v0.029
					c-0.118,0.382-0.294,0.706-0.5,1.029c-0.264,0.412-0.646,0.823-1.087,1.206c-0.235,0.206-0.47,0.382-0.646,0.5
					c-0.265,0.177-0.382,0.206-0.441,0.206c-0.088,0-0.146-0.029-0.206-0.088c-0.059-0.059-0.089-0.118-0.089-0.206
					c0-0.116,0.089-0.234,0.53-0.528c0.293-0.206,0.559-0.441,0.793-0.647c0.353-0.353,0.647-0.735,0.853-1.175
					c0.176-0.383,0.293-0.795,0.382-1.235v-0.03h-2.234C46.28,21.401,46.221,21.373,46.162,21.313z M71.091,25.224l0.088,0.088
					l0.793-0.294c-0.087-0.087-1.087-0.941-1.323-1.176c-0.234-0.235-0.735-0.853-0.999-1.294c-0.235-0.441-0.382-0.853-0.412-1.175
					V20.05c0-0.059-0.03-0.147-0.117-0.206c-0.059-0.059-0.148-0.088-0.235-0.088c-0.089,0-0.147,0.029-0.236,0.088
					c-0.087,0.059-0.117,0.147-0.117,0.206v1.058c0,0.353-0.088,0.735-0.206,1.176c-0.146,0.44-0.323,0.823-0.558,1.146
					c-0.294,0.441-0.794,0.853-1.412,1.235l-0.058,0.029c-0.088,0.059-0.146,0.088-0.176,0.147
					c-0.059,0.058-0.059,0.117-0.059,0.176c0,0.088,0.029,0.147,0.088,0.206c0.058,0.059,0.117,0.088,0.205,0.088
					c0.089,0,0.177-0.029,0.265-0.059c0.089-0.059,0.235-0.118,0.382-0.235c0.206-0.118,0.382-0.265,0.559-0.382
					c0.176-0.147,0.323-0.264,0.441-0.412c0.234-0.264,0.44-0.559,0.617-0.882c0.147-0.265,0.265-0.559,0.382-0.911
					c0.088,0.234,0.206,0.5,0.324,0.735c0.176,0.323,0.353,0.617,0.587,0.852C70.239,24.371,70.798,24.988,71.091,25.224z
					 M37.725,19.814h-3.999c-0.735,0-0.735,0.559-0.735,0.617v4.263c0,0.088,0.029,0.618,0.735,0.618h3.999
					c0.735,0,0.735-0.559,0.735-0.618v-4.292C38.489,20.314,38.431,19.814,37.725,19.814z M37.813,24.341
					c0,0.206-0.03,0.324-0.294,0.324h-3.616c-0.235,0-0.293-0.118-0.293-0.324v-3.615c0-0.206,0.029-0.323,0.293-0.323h3.646
					c0.234,0,0.293,0.117,0.293,0.323v3.615H37.813z M33.844,21.108c0,0.293,0.294,0.293,0.5,0.293h1.029v0.736h-0.912
					c-0.235,0-0.5,0-0.5,0.293s0.293,0.293,0.5,0.293h0.912v0.912h-1.088c-0.235,0-0.5,0-0.5,0.324c0,0.293,0.264,0.293,0.5,0.293
					h3.086l0.235-0.617h-0.47c0.03-0.029,0.118-0.088,0.118-0.235c0-0.118-0.147-0.353-0.235-0.471
					c-0.058-0.059-0.117-0.176-0.294-0.176c-0.146,0-0.293,0.088-0.293,0.294c0,0.117,0.293,0.528,0.353,0.559H36.02v-0.911h1.205
					l0.206-0.589H36.02v-0.706h1.323l0.234-0.618h-3.204C34.138,20.814,33.844,20.814,33.844,21.108z M40.194,21.136h4.615
					l0.235-0.646h-2.292v-0.382c0-0.323,0-0.5-0.382-0.5c-0.353,0-0.353,0.235-0.353,0.5v0.382h-1.793c-0.235,0-0.5,0-0.5,0.324
					C39.694,21.136,39.93,21.136,40.194,21.136z M40.841,21.548c-0.118,0-0.382,0.088-0.382,0.324c0,0.059,0,0.088,0.088,0.323
					c0.206,0.5,0.382,1.175,0.441,1.381c0.206,0.735,0.235,0.853,0.47,0.853c0.029,0,0.324,0,0.382-0.264v-0.089
					c0-0.117-0.235-1.059-0.529-1.823C41.164,21.754,41.047,21.548,40.841,21.548z M43.398,24.665
					c0.705-1.617,0.882-2.616,0.882-2.764c0-0.293-0.206-0.381-0.353-0.381c-0.264,0-0.294,0.117-0.382,0.5
					c-0.147,0.618-0.353,1.44-0.882,2.616h-2.646c-0.264,0-0.5,0-0.5,0.323c0,0.324,0.235,0.324,0.5,0.324h4.968l0.236-0.677h-1.823
					V24.665z M60.596,22.372c0.148,0,0.324-0.118,0.294-0.323c-0.029-0.177-0.088-0.206-0.529-0.559
					c-0.441-0.354-0.5-0.382-0.618-0.382c-0.206,0-0.294,0.176-0.294,0.293c0,0.088,0.059,0.147,0.088,0.206
					c0.059,0.059,0.441,0.324,0.5,0.382C60.449,22.342,60.479,22.372,60.596,22.372z M60.449,20.667
					c0.294,0.265,0.324,0.265,0.412,0.265c0.147,0,0.293-0.147,0.293-0.323c0-0.265-0.793-0.853-1.058-0.882
					c-0.117,0-0.293,0.059-0.293,0.294c0,0.059,0.029,0.147,0.087,0.206C59.949,20.314,60.361,20.608,60.449,20.667z M64.095,23.077
					c-0.118,0-0.294,0.118-0.294,0.324c0,0.059,0.03,0.147,0.206,0.441c0.117,0.235,0.176,0.324,0.294,0.588
					c-0.354,0.058-0.941,0.146-1.881,0.206c0.234-0.706,0.382-1.47,0.44-1.939h2.117l0.206-0.589h-1.735v-0.971h1.323l0.235-0.617
					h-1.558v-0.412c0-0.264,0-0.5-0.353-0.5c-0.323,0-0.323,0.264-0.323,0.5v0.412h-0.97c-0.235,0-0.5,0-0.5,0.294
					c0,0.294,0.264,0.294,0.5,0.294h0.97v0.97h-1.146c-0.235,0-0.5,0-0.5,0.293s0.294,0.293,0.5,0.293h0.588
					c-0.089,0.618-0.294,1.382-0.529,1.97c-0.353,0-0.618,0-0.618,0.323c0,0.03,0,0.324,0.353,0.324
					c0.441,0,1.852-0.089,3.086-0.353c0.029,0.116,0.059,0.205,0.176,0.5l0.559-0.206c-0.147-0.618-0.529-1.411-0.617-1.617
					C64.389,23.224,64.271,23.077,64.095,23.077z M60.744,23.018c-0.206,0-0.265,0.206-0.294,0.294
					c-0.206,0.617-0.588,1.234-0.793,1.559c-0.118,0.175-0.147,0.206-0.147,0.293c0,0.206,0.176,0.324,0.324,0.324
					c0.147,0,0.235-0.059,0.5-0.471c0.236-0.382,0.706-1.264,0.706-1.705C61.066,23.254,61.037,23.018,60.744,23.018z
					 M88.024,34.572v-0.03c0-0.029,0.117-0.176,0.764-0.353l0.765-0.234c0.793-0.266,1.352-0.53,1.764-0.824
					c0.471-0.353,0.705-0.734,0.705-1.146c0-0.265-0.088-0.5-0.293-0.677c-0.176-0.176-0.412-0.266-0.706-0.266h-8.172
					c-0.235,0-0.441,0.06-0.559,0.178c-0.089,0.088-0.235,0.265-0.235,0.559c0,0.235,0.059,0.44,0.206,0.559
					c0.147,0.146,0.323,0.206,0.588,0.206h6.115c-0.353,0.146-0.765,0.293-1.206,0.44l-0.058,0.029
					c-0.853,0.265-1.323,0.676-1.323,1.206v0.322h-5.762c-0.294,0-0.471,0.118-0.559,0.206c-0.088,0.089-0.206,0.265-0.206,0.559
					s0.118,0.471,0.236,0.559c0.146,0.118,0.323,0.205,0.559,0.205h5.762v1.882c0,0.5-0.088,0.618-0.088,0.618
					s-0.117,0.088-0.529,0.088c-0.5,0-1.087-0.088-1.735-0.235c-0.97-0.235-1.146-0.265-1.234-0.265c-0.265,0-0.412,0.088-0.5,0.176
					c-0.088,0.089-0.206,0.236-0.206,0.501c0,0.117,0.029,0.322,0.234,0.528c0.118,0.147,0.294,0.236,0.53,0.324
					c0.44,0.146,0.969,0.293,1.616,0.411c0.646,0.117,1.205,0.176,1.617,0.176c0.647,0,1.117-0.147,1.44-0.411
					c0.324-0.294,0.471-0.765,0.471-1.381v-2.382h5.497l0.559-1.528H88.024z"/>
				<path fill="#FFFFFF" d="M80.44,32.955c0.147,0.117,0.323,0.176,0.529,0.176c0.206,0,0.382-0.059,0.558-0.176
					c0.235-0.177,0.264-0.383,0.264-0.529v-1.852c0-0.177,0.03-0.236,0.03-0.265c0.029,0,0.088-0.03,0.235-0.03h10.054
					c0.117,0,0.206,0.03,0.235,0.059c0.028,0.03,0.058,0.118,0.058,0.236v2.322l1.618-0.589v-2.234c0-0.353-0.148-0.676-0.382-0.911
					c-0.265-0.234-0.588-0.381-0.941-0.381h-0.97c0.293-0.265,0.5-0.5,0.676-0.677c0.324-0.382,0.471-0.646,0.471-0.881
					c0-0.236-0.088-0.47-0.235-0.617c-0.176-0.177-0.382-0.236-0.618-0.236c-0.234,0-0.529,0.177-1.234,1
					c-0.441,0.529-0.94,1.029-1.411,1.44h-0.735c0.028-0.059,0.028-0.117,0.028-0.175c0-0.206-0.058-0.383-0.176-0.589
					c-0.087-0.175-0.264-0.381-0.529-0.646c-0.382-0.412-0.706-0.705-0.911-0.852c-0.264-0.206-0.5-0.294-0.706-0.294
					c-0.117,0-0.323,0.03-0.529,0.235c-0.206,0.177-0.235,0.382-0.235,0.529c0,0.176,0.088,0.412,0.588,0.97l0.618,0.735
					c0,0,0.058,0.088,0.087,0.117h-2.175c0-0.058,0.03-0.117,0.03-0.176c0-0.323-0.265-0.676-0.854-1.176
					c0,0-0.264-0.234-0.293-0.234l-0.059-0.059c-0.559-0.471-0.911-0.676-1.205-0.676c-0.206,0-0.382,0.058-0.559,0.205
					c-0.147,0.147-0.235,0.324-0.235,0.53c0,0.176,0.088,0.412,0.999,1.323l0.265,0.264h-1.147c-0.499,0-0.852,0.089-1.117,0.294
					c-0.264,0.206-0.382,0.559-0.382,0.999v2.412C80.146,32.632,80.264,32.808,80.44,32.955z M76.677,39.805l1.969-0.706
					c-0.147-0.176-1.91-1.705-2.351-2.146c-0.412-0.441-1.882-2.028-2.646-3.234c-0.646-1.059-1.117-2.116-1.44-3.175h5.468
					l0.587-1.646h-6.261v-1.939c0-0.206-0.088-0.412-0.264-0.589c-0.147-0.146-0.382-0.234-0.588-0.234
					c-0.235,0-0.441,0.059-0.618,0.206c-0.176,0.146-0.265,0.353-0.265,0.587v1.941h-5.35c-0.235,0-0.412,0.088-0.588,0.235
					c-0.147,0.146-0.235,0.353-0.235,0.588c0,0.235,0.088,0.44,0.235,0.587c0.147,0.147,0.353,0.235,0.588,0.235h5.233
					c-0.147,1.028-0.441,2.029-0.882,2.91c-0.471,1-1.146,1.94-1.999,2.764c-0.53,0.529-1.176,1.059-1.882,1.558
					c-1.029,0.736-1.235,1.059-1.235,1.323c0,0.206,0.059,0.383,0.206,0.53c0.147,0.146,0.323,0.234,0.529,0.234
					c0.148,0,0.441-0.06,1.089-0.471c0.44-0.294,0.969-0.676,1.558-1.176c1.087-0.911,1.999-1.882,2.646-2.851
					c0.47-0.736,0.882-1.56,1.176-2.44c0.323,0.765,0.706,1.498,1.146,2.176c0.588,0.939,1.293,1.881,2.117,2.733
					C75.118,38.305,76.324,39.481,76.677,39.805L76.677,39.805z M44.222,32.544h-1.206v-1.471h1.206V32.544z M44.222,35.63h-1.206
					v-1.558h1.206V35.63 M42.34,29.604h-1.176c0.059-0.147,0.117-0.323,0.176-0.5c0.089-0.265,0.177-0.559,0.265-0.882h1.764
					c-0.03,0.088-0.118,0.176-0.236,0.381C42.957,28.898,42.664,29.221,42.34,29.604 M46.838,32.544H45.75v-1.528
					c0-0.472-0.117-0.824-0.323-1.03c-0.206-0.235-0.559-0.353-1-0.353h-0.205c0.235-0.265,0.411-0.5,0.559-0.735
					c0.264-0.412,0.382-0.735,0.382-1.028c0-0.324-0.118-0.589-0.324-0.794c-0.206-0.206-0.5-0.294-0.823-0.294h-2.117
					c-0.03-0.176-0.088-0.323-0.206-0.44c-0.088-0.089-0.264-0.206-0.559-0.206c-0.646,0-0.823,0.911-0.882,1.205l-0.117,0.53
					c-0.147,0.646-0.354,1.205-0.559,1.704c-0.176,0.412-0.382,0.794-0.618,1.118h-2.264v-0.412h1.852
					c0.118,0,0.323-0.029,0.5-0.234c0.118-0.147,0.206-0.324,0.206-0.5c0-0.177-0.058-0.353-0.206-0.5
					c-0.118-0.147-0.293-0.206-0.5-0.206h-1.852v-0.441h2.058c0.206,0,0.353-0.088,0.499-0.235c0.118-0.147,0.176-0.293,0.176-0.5
					s-0.058-0.353-0.205-0.5c-0.118-0.118-0.295-0.205-0.471-0.205h-2.058v-0.177c0-0.206-0.088-0.381-0.206-0.5
					c-0.087-0.088-0.264-0.206-0.529-0.206c-0.206,0-0.382,0.059-0.529,0.206c-0.206,0.176-0.235,0.382-0.235,0.5v0.177h-2.058
					c-0.177,0-0.353,0.087-0.5,0.234c-0.118,0.147-0.177,0.293-0.177,0.5c0,0.177,0.059,0.353,0.177,0.471
					c0.117,0.117,0.293,0.206,0.47,0.206h2.058v0.44h-1.852c-0.264,0-0.411,0.118-0.5,0.206c-0.089,0.088-0.176,0.235-0.176,0.499
					c0,0.206,0.059,0.353,0.206,0.5c0.147,0.147,0.294,0.206,0.5,0.206h1.852v0.411h-2.322c-0.176,0-0.353,0.089-0.5,0.206
					c-0.117,0.146-0.206,0.295-0.206,0.5c0,0.177,0.059,0.353,0.206,0.5c0.176,0.177,0.353,0.206,0.471,0.206h6.321
					c0.47,0,0.911-0.323,1.323-1.001h0.97v1.471h-1.764c-0.206,0-0.382,0.088-0.5,0.205c-0.147,0.147-0.206,0.325-0.206,0.53
					c0,0.206,0.059,0.382,0.206,0.559c0.176,0.206,0.382,0.265,0.529,0.265h1.763v1.558h-1.499c-0.206,0-0.382,0.089-0.529,0.235
					c-0.117,0.146-0.206,0.323-0.206,0.529s0.059,0.412,0.206,0.529c0.088,0.088,0.265,0.205,0.529,0.205h1.499v1.265
					c0,0.235-0.058,0.294-0.058,0.294s-0.059,0.029-0.176,0.029c-0.148,0-0.324-0.029-0.559-0.088
					c-0.354-0.088-0.471-0.118-0.559-0.118c-0.265,0-0.441,0.118-0.53,0.206c-0.088,0.088-0.205,0.265-0.205,0.529
					c0,0.235,0.117,0.559,0.617,0.794c0.323,0.146,0.735,0.205,1.264,0.205c0.588,0,1.029-0.118,1.293-0.353
					c0.295-0.235,0.441-0.646,0.441-1.176v-1.588h1.412c0.47,0,0.793-0.088,0.999-0.322c0.206-0.206,0.323-0.53,0.323-1v-1.734h0.53
					L46.838,32.544"/>
				<path fill="#FFFFFF" d="M33.08,39.657c0,0.206,0.088,0.383,0.235,0.501c0.147,0.116,0.324,0.176,0.529,0.176
					c0.206,0,0.382-0.06,0.53-0.176c0.147-0.118,0.235-0.295,0.235-0.501v-1.764h1.94l0.529-1.471h-2.47v-0.527h1.97l0.5-1.441
					h-2.47v-0.499h2.675v4.438c0,0.205-0.059,0.265-0.059,0.265s-0.088,0.059-0.293,0.059c-0.206,0-0.441-0.029-0.735-0.118
					c-0.471-0.116-0.559-0.146-0.647-0.146c-0.206,0-0.382,0.059-0.499,0.206c-0.089,0.088-0.177,0.235-0.177,0.499
					c0,0.236,0.118,0.589,0.735,0.823c0.382,0.146,0.853,0.235,1.44,0.235s1.029-0.117,1.293-0.353
					c0.294-0.264,0.441-0.647,0.441-1.293v-4.881c0-0.265-0.117-0.587-0.353-0.793c-0.235-0.236-0.529-0.353-0.912-0.353h-3.058
					c-0.412,0-0.764,0.116-0.999,0.322c-0.265,0.236-0.382,0.53-0.382,1.5V39.657z M58.773,37.512c0.324-0.265,0.5-0.617,0.5-1.117
					v-3.087c0-0.205-0.088-0.411-0.235-0.529c-0.146-0.118-0.323-0.206-0.559-0.206c-0.206,0-0.412,0.06-0.559,0.206
					c-0.146,0.147-0.235,0.324-0.235,0.529v2.763c0,0.118-0.029,0.206-0.059,0.266c-0.029,0.029-0.118,0.059-0.205,0.059h-4.175
					c-0.265,0-0.353-0.059-0.382-0.059c-0.029-0.03-0.059-0.118-0.059-0.235v-2.764c0-0.206-0.087-0.411-0.234-0.529
					c-0.147-0.117-0.324-0.206-0.529-0.206c-0.206,0-0.412,0.059-0.559,0.206c-0.177,0.147-0.265,0.323-0.265,0.559v3.116
					c0,0.471,0.147,0.823,0.441,1.088c0.293,0.235,0.676,0.382,1.175,0.382h4.674C58.068,37.864,58.479,37.746,58.773,37.512z"/>
				<path fill="#FFFFFF" d="M61.419,26.958c-0.294-0.265-0.706-0.383-1.234-0.383h-9.848c-0.5,0-0.883,0.147-1.206,0.412
					c-0.293,0.265-0.47,0.647-0.47,1.088v11.436c0,0.146,0.058,0.323,0.264,0.499c0.146,0.117,0.324,0.177,0.529,0.177
					c0.206,0,0.382-0.06,0.53-0.177c0.235-0.176,0.264-0.382,0.264-0.499V28.486c0-0.147,0.03-0.264,0.089-0.294
					c0.029-0.029,0.117-0.088,0.44-0.088h8.878c0.44,0,0.529,0.088,0.559,0.088c0.029,0.03,0.058,0.118,0.058,0.294v8.819
					c0,0.5-0.087,0.853-0.293,0.999c-0.118,0.089-0.471,0.266-1.353,0.266c-0.353,0-0.765-0.029-1.205-0.088
					c-0.707-0.089-0.765-0.089-0.794-0.089c-0.265,0-0.441,0.117-0.529,0.205c-0.089,0.089-0.206,0.265-0.206,0.53
					c0,0.382,0.293,0.676,0.882,0.823c0.471,0.117,1.117,0.175,2.058,0.175c1.117,0,1.881-0.205,2.351-0.616
					c0.471-0.412,0.707-1.117,0.707-2.088v-9.348C61.89,27.604,61.742,27.223,61.419,26.958z"/>
				<path fill="#FFFFFF" d="M56.04,31.955h3.528l0.559-1.499h-1.823c0.088-0.118,0.206-0.235,0.294-0.353
					c0.118-0.148,0.206-0.295,0.294-0.471c0.058-0.118,0.117-0.265,0.117-0.412v-0.176c-0.03-0.176-0.117-0.353-0.265-0.5
					c-0.146-0.147-0.353-0.235-0.587-0.235H57.98c-0.176,0.029-0.353,0.147-0.617,0.529c-0.059,0.059-0.089,0.118-0.147,0.206
					c-0.089,0.117-0.176,0.294-0.294,0.47c-0.206,0.324-0.412,0.647-0.617,0.942h-2.205c-0.323-0.706-0.587-1.176-0.793-1.441
					c-0.294-0.381-0.588-0.587-0.911-0.587c-0.294,0-0.471,0.117-0.559,0.206c-0.088,0.087-0.206,0.264-0.206,0.558
					c0,0.176,0.088,0.381,0.47,0.97c0.059,0.088,0.147,0.206,0.206,0.294h-1.117c-0.206,0-0.382,0.058-0.529,0.206
					c-0.146,0.146-0.206,0.322-0.206,0.528s0.059,0.383,0.206,0.53c0.176,0.205,0.382,0.234,0.529,0.234h3.263v4.439l1.587-0.588
					V31.955z"/>
			</g>
		</g>
	</g>
	<g>
		<g opacity="0.3">
			<path fill="#221815" d="M113.176,53.005c-0.029-0.427-0.334-0.657-0.881-0.657c-0.443,0-0.726,0.202-0.726,0.519
				c0,0.306,0.179,0.427,0.794,0.548l0.657,0.126c0.778,0.149,1.112,0.495,1.112,1.158c0,0.853-0.639,1.359-1.722,1.359
				c-1.071,0-1.688-0.49-1.74-1.389h0.841c0.029,0.449,0.357,0.697,0.945,0.697c0.524,0,0.846-0.214,0.846-0.564
				c0-0.34-0.213-0.501-0.789-0.61l-0.587-0.116c-0.853-0.161-1.181-0.478-1.181-1.128c0-0.818,0.582-1.29,1.59-1.29
				c0.651,0,1.647,0.201,1.647,1.348H113.176z"/>
			<path fill="#221815" d="M116.166,53.448c-0.363,0-0.622,0.253-0.622,0.61v1.866h-0.807v-4.199h0.807v1.538
				c0.225-0.34,0.513-0.501,0.91-0.501c0.444,0,1.014,0.213,1.014,1.077v2.085h-0.806v-1.9
				C116.661,53.689,116.54,53.448,116.166,53.448z"/>
			<path fill="#221815" d="M119.051,52.445h-0.806v-0.72h0.806V52.445z M119.051,55.925h-0.806v-3.11h0.806V55.925z"/>
			<path fill="#221815" d="M122.15,53.465l-1.526,1.809h1.578v0.651h-2.575v-0.651l1.538-1.809h-1.434v-0.65h2.419V53.465z"/>
			<path fill="#221815" d="M124.725,55.925v-0.369c-0.23,0.347-0.512,0.502-0.933,0.502c-0.663,0-1.043-0.392-1.043-1.077v-2.166
				h0.807v1.999c0,0.374,0.173,0.559,0.519,0.559c0.392,0,0.65-0.242,0.65-0.61v-1.947h0.807v3.11H124.725z"/>
			<path fill="#221815" d="M129.212,54.433c0,0.997-0.593,1.625-1.538,1.625c-0.956,0-1.537-0.623-1.537-1.647
				c0-1.02,0.581-1.647,1.531-1.647C128.642,52.763,129.212,53.379,129.212,54.433z M126.942,54.41c0,0.593,0.294,0.996,0.731,0.996
				c0.432,0,0.732-0.403,0.732-0.984c0-0.61-0.289-1.008-0.732-1.008C127.236,53.414,126.942,53.816,126.942,54.41z"/>
			<path fill="#221815" d="M131.643,52.814h0.916l-1.06,1.175l1.134,1.936h-0.943l-0.744-1.371l-0.322,0.352v1.02h-0.807v-4.199
				h0.807v2.299L131.643,52.814z"/>
			<path fill="#221815" d="M132.922,55.124c0-0.559,0.299-0.875,0.916-0.979l0.322-0.058c0.265-0.04,0.645-0.058,0.645-0.362
				c0-0.208-0.155-0.311-0.466-0.311c-0.397,0-0.53,0.103-0.571,0.426h-0.777c0.052-0.721,0.49-1.077,1.33-1.077
				c0.842,0,1.273,0.322,1.273,0.956v1.728c0,0.162,0.041,0.248,0.186,0.381v0.098h-0.876c-0.075-0.093-0.093-0.149-0.093-0.311
				c-0.281,0.293-0.599,0.443-0.944,0.443C133.302,56.058,132.922,55.683,132.922,55.124z M134.805,54.456
				c-0.092,0.046-0.127,0.058-0.34,0.098l-0.275,0.052c-0.335,0.069-0.461,0.185-0.461,0.427c0,0.23,0.166,0.374,0.438,0.374
				c0.408,0,0.639-0.265,0.639-0.731V54.456z"/>
			<path fill="#221815" d="M138.014,54.571v-2.846h0.863v2.846c0,0.507,0.26,0.749,0.801,0.749c0.542,0,0.801-0.242,0.801-0.749
				v-2.846h0.864v2.846c0,1.187-0.956,1.486-1.665,1.486C138.97,56.058,138.014,55.758,138.014,54.571z"/>
			<path fill="#221815" d="M142.984,52.814v0.449c0.23-0.346,0.512-0.501,0.933-0.501c0.663,0,1.042,0.392,1.042,1.077v2.085h-0.806
				v-1.918c0-0.369-0.173-0.559-0.519-0.559c-0.392,0-0.65,0.241-0.65,0.61v1.866h-0.807v-3.11H142.984z"/>
			<path fill="#221815" d="M146.544,52.445h-0.807v-0.72h0.807V52.445z M146.544,55.925h-0.807v-3.11h0.807V55.925z"/>
			<path fill="#221815" d="M148.094,55.925l-1.09-3.11h0.854l0.674,2.275l0.627-2.275h0.853l-1.071,3.11H148.094z"/>
			<path fill="#221815" d="M153.197,54.484c0,0.041,0,0.069-0.006,0.139h-2.086c0.018,0.421,0.104,0.818,0.646,0.818
				c0.294,0,0.519-0.145,0.616-0.393h0.795c-0.178,0.611-0.743,1.009-1.44,1.009c-0.881,0-1.423-0.611-1.423-1.607
				c0-1.043,0.547-1.688,1.44-1.688C152.361,52.763,153.197,53.108,153.197,54.484z M151.728,53.379
				c-0.357,0-0.559,0.236-0.61,0.708h1.238C152.32,53.632,152.102,53.379,151.728,53.379z"/>
			<path fill="#221815" d="M154.607,52.814v0.61c0.173-0.42,0.496-0.662,0.864-0.662c0.022,0,0.052,0,0.098,0.006v0.817
				c-0.109-0.017-0.167-0.022-0.253-0.022c-0.473,0-0.709,0.235-0.709,0.708v1.653h-0.807v-3.11H154.607z"/>
			<path fill="#221815" d="M157.28,55.424c0.374,0,0.599-0.115,0.599-0.306c0-0.127-0.068-0.189-0.271-0.253l-0.962-0.3
				c-0.178-0.058-0.68-0.155-0.68-0.767c0-0.639,0.49-1.036,1.279-1.036c0.835,0,1.342,0.397,1.354,1.054h-0.777
				c-0.006-0.281-0.195-0.421-0.582-0.421c-0.282,0-0.467,0.116-0.467,0.289c0,0.127,0.058,0.173,0.282,0.241l1.02,0.294
				c0.409,0.121,0.61,0.38,0.61,0.783c0,0.432-0.271,1.055-1.359,1.055c-0.943,0-1.445-0.357-1.469-1.037h0.789
				C156.693,55.233,156.773,55.424,157.28,55.424z"/>
			<path fill="#221815" d="M160.098,52.445h-0.807v-0.72h0.807V52.445z M160.098,55.925h-0.807v-3.11h0.807V55.925z"/>
			<path fill="#221815" d="M162.274,53.414h-0.449v1.692c0,0.277,0.052,0.34,0.265,0.34c0.059,0,0.104-0.005,0.185-0.017v0.564
				c-0.145,0.046-0.288,0.063-0.467,0.063c-0.53,0-0.789-0.242-0.789-0.731v-1.912h-0.397v-0.536h0.397v-0.835h0.807v0.835h0.449
				V53.414z"/>
			<path fill="#221815" d="M163.662,56.052l-1.157-3.237h0.888l0.685,2.264l0.646-2.264h0.829l-1.278,3.681
				c-0.075,0.213-0.156,0.691-1.037,0.691c-0.098,0-0.167-0.006-0.288-0.023v-0.604c0.104,0.028,0.149,0.034,0.213,0.034
				c0.282,0,0.501-0.225,0.501-0.519V56.052z"/>
			<path fill="#221815" d="M168.742,55.925l-1.416-4.199h0.869l0.934,3.162l0.916-3.162h0.869l-1.439,4.199H168.742z"/>
			<path fill="#221815" d="M172.239,52.445h-0.807v-0.72h0.807V52.445z M172.239,55.925h-0.807v-3.11h0.807V55.925z"/>
			<path fill="#221815" d="M173.822,52.814v0.61c0.174-0.42,0.496-0.662,0.865-0.662c0.023,0,0.051,0,0.098,0.006v0.817
				c-0.109-0.017-0.167-0.022-0.254-0.022c-0.473,0-0.709,0.235-0.709,0.708v1.653h-0.807v-3.11H173.822z"/>
			<path fill="#221815" d="M176.674,53.414h-0.449v1.692c0,0.277,0.053,0.34,0.266,0.34c0.058,0,0.104-0.005,0.184-0.017v0.564
				c-0.145,0.046-0.287,0.063-0.467,0.063c-0.529,0-0.789-0.242-0.789-0.731v-1.912h-0.396v-0.536h0.396v-0.835h0.807v0.835h0.449
				V53.414z"/>
			<path fill="#221815" d="M179.197,55.925v-0.369c-0.23,0.347-0.513,0.502-0.934,0.502c-0.662,0-1.043-0.392-1.043-1.077v-2.166
				h0.808v1.999c0,0.374,0.173,0.559,0.519,0.559c0.391,0,0.65-0.242,0.65-0.61v-1.947h0.807v3.11H179.197z"/>
			<path fill="#221815" d="M180.607,55.124c0-0.559,0.301-0.875,0.916-0.979l0.323-0.058c0.265-0.04,0.646-0.058,0.646-0.362
				c0-0.208-0.156-0.311-0.467-0.311c-0.397,0-0.529,0.103-0.57,0.426h-0.777c0.051-0.721,0.489-1.077,1.33-1.077
				s1.273,0.322,1.273,0.956v1.728c0,0.162,0.04,0.248,0.185,0.381v0.098h-0.876c-0.074-0.093-0.092-0.149-0.092-0.311
				c-0.283,0.293-0.6,0.443-0.945,0.443C180.988,56.058,180.607,55.683,180.607,55.124z M182.492,54.456
				c-0.092,0.046-0.127,0.058-0.34,0.098l-0.277,0.052c-0.334,0.069-0.46,0.185-0.46,0.427c0,0.23,0.167,0.374,0.437,0.374
				c0.41,0,0.641-0.265,0.641-0.731V54.456z"/>
			<path fill="#221815" d="M184.818,55.925h-0.807v-4.199h0.807V55.925z"/>
			<path fill="#221815" d="M188.119,54.019v1.906h-0.864v-4.199h0.864v1.573h1.658v-1.573h0.871v4.199h-0.865v-1.906H188.119z"/>
			<path fill="#221815" d="M191.339,55.124c0-0.559,0.3-0.875,0.916-0.979l0.322-0.058c0.265-0.04,0.646-0.058,0.646-0.362
				c0-0.208-0.156-0.311-0.467-0.311c-0.396,0-0.529,0.103-0.57,0.426h-0.777c0.051-0.721,0.489-1.077,1.33-1.077
				c0.842,0,1.273,0.322,1.273,0.956v1.728c0,0.162,0.04,0.248,0.185,0.381v0.098h-0.876c-0.074-0.093-0.092-0.149-0.092-0.311
				c-0.282,0.293-0.6,0.443-0.945,0.443C191.719,56.058,191.339,55.683,191.339,55.124z M193.223,54.456
				c-0.092,0.046-0.127,0.058-0.34,0.098l-0.276,0.052c-0.335,0.069-0.461,0.185-0.461,0.427c0,0.23,0.167,0.374,0.438,0.374
				c0.409,0,0.64-0.265,0.64-0.731V54.456z"/>
			<path fill="#221815" d="M195.544,52.814V53.2c0.265-0.316,0.495-0.438,0.853-0.438c0.385,0,0.697,0.167,0.847,0.461
				c0.241-0.322,0.519-0.461,0.91-0.461c0.622,0,0.991,0.356,0.991,0.962v2.2h-0.807v-2.073c0-0.248-0.168-0.403-0.438-0.403
				c-0.345,0-0.553,0.229-0.553,0.61v1.866h-0.807v-2.073c0-0.248-0.167-0.403-0.438-0.403c-0.344,0-0.553,0.229-0.553,0.61v1.866
				h-0.807v-3.11H195.544z"/>
			<path fill="#221815" d="M199.748,55.124c0-0.559,0.301-0.875,0.916-0.979l0.322-0.058c0.266-0.04,0.646-0.058,0.646-0.362
				c0-0.208-0.155-0.311-0.466-0.311c-0.398,0-0.53,0.103-0.57,0.426h-0.778c0.052-0.721,0.489-1.077,1.331-1.077
				c0.841,0,1.272,0.322,1.272,0.956v1.728c0,0.162,0.04,0.248,0.185,0.381v0.098h-0.875c-0.076-0.093-0.092-0.149-0.092-0.311
				c-0.283,0.293-0.6,0.443-0.945,0.443C200.129,56.058,199.748,55.683,199.748,55.124z M201.632,54.456
				c-0.093,0.046-0.126,0.058-0.34,0.098l-0.276,0.052c-0.334,0.069-0.461,0.185-0.461,0.427c0,0.23,0.168,0.374,0.438,0.374
				c0.409,0,0.639-0.265,0.639-0.731V54.456z"/>
			<path fill="#221815" d="M203.953,52.814V53.2c0.266-0.316,0.496-0.438,0.854-0.438c0.385,0,0.695,0.167,0.846,0.461
				c0.242-0.322,0.519-0.461,0.91-0.461c0.623,0,0.991,0.356,0.991,0.962v2.2h-0.807v-2.073c0-0.248-0.167-0.403-0.438-0.403
				c-0.345,0-0.553,0.229-0.553,0.61v1.866h-0.807v-2.073c0-0.248-0.166-0.403-0.438-0.403c-0.346,0-0.553,0.229-0.553,0.61v1.866
				h-0.807v-3.11H203.953z"/>
			<path fill="#221815" d="M208.158,55.124c0-0.559,0.299-0.875,0.916-0.979l0.322-0.058c0.265-0.04,0.646-0.058,0.646-0.362
				c0-0.208-0.155-0.311-0.467-0.311c-0.397,0-0.53,0.103-0.57,0.426h-0.777c0.052-0.721,0.489-1.077,1.331-1.077
				c0.84,0,1.271,0.322,1.271,0.956v1.728c0,0.162,0.041,0.248,0.186,0.381v0.098h-0.877c-0.074-0.093-0.092-0.149-0.092-0.311
				c-0.281,0.293-0.599,0.443-0.943,0.443C208.538,56.058,208.158,55.683,208.158,55.124z M210.042,54.456
				c-0.093,0.046-0.126,0.058-0.341,0.098l-0.275,0.052c-0.334,0.069-0.461,0.185-0.461,0.427c0,0.23,0.166,0.374,0.438,0.374
				c0.408,0,0.64-0.265,0.64-0.731V54.456z"/>
			<path fill="#221815" d="M212.963,53.414h-0.449v1.692c0,0.277,0.051,0.34,0.264,0.34c0.059,0,0.104-0.005,0.186-0.017v0.564
				c-0.145,0.046-0.289,0.063-0.468,0.063c-0.529,0-0.788-0.242-0.788-0.731v-1.912h-0.398v-0.536h0.398v-0.835h0.807v0.835h0.449
				V53.414z"/>
			<path fill="#221815" d="M214.73,55.424c0.375,0,0.6-0.115,0.6-0.306c0-0.127-0.07-0.189-0.271-0.253l-0.962-0.3
				c-0.179-0.058-0.68-0.155-0.68-0.767c0-0.639,0.489-1.036,1.278-1.036c0.836,0,1.343,0.397,1.354,1.054h-0.777
				c-0.006-0.281-0.195-0.421-0.582-0.421c-0.281,0-0.466,0.116-0.466,0.289c0,0.127,0.058,0.173,0.282,0.241l1.02,0.294
				c0.408,0.121,0.61,0.38,0.61,0.783c0,0.432-0.271,1.055-1.359,1.055c-0.944,0-1.446-0.357-1.469-1.037h0.789
				C214.143,55.233,214.224,55.424,214.73,55.424z"/>
			<path fill="#221815" d="M218.688,55.925v-0.369c-0.23,0.347-0.513,0.502-0.933,0.502c-0.663,0-1.043-0.392-1.043-1.077v-2.166
				h0.807v1.999c0,0.374,0.173,0.559,0.519,0.559c0.391,0,0.65-0.242,0.65-0.61v-1.947h0.807v3.11H218.688z"/>
			<path fill="#221815" d="M223.652,52.394c-0.68,0-1.088,0.554-1.088,1.48c0,0.916,0.392,1.458,1.059,1.458
				c0.537,0,0.876-0.306,0.928-0.841h0.842c-0.053,0.962-0.749,1.566-1.791,1.566c-1.17,0-1.902-0.847-1.902-2.194
				c0-1.359,0.738-2.206,1.924-2.206c0.98,0,1.677,0.547,1.752,1.491h-0.824C224.506,52.936,224.373,52.394,223.652,52.394z"/>
			<path fill="#221815" d="M225.854,55.124c0-0.559,0.299-0.875,0.915-0.979l0.323-0.058c0.264-0.04,0.645-0.058,0.645-0.362
				c0-0.208-0.156-0.311-0.467-0.311c-0.396,0-0.529,0.103-0.57,0.426h-0.777c0.052-0.721,0.49-1.077,1.33-1.077
				c0.842,0,1.273,0.322,1.273,0.956v1.728c0,0.162,0.041,0.248,0.185,0.381v0.098h-0.876c-0.074-0.093-0.092-0.149-0.092-0.311
				c-0.283,0.293-0.6,0.443-0.944,0.443C226.232,56.058,225.854,55.683,225.854,55.124z M227.736,54.456
				c-0.092,0.046-0.127,0.058-0.34,0.098l-0.276,0.052c-0.335,0.069-0.461,0.185-0.461,0.427c0,0.23,0.167,0.374,0.438,0.374
				c0.409,0,0.64-0.265,0.64-0.731V54.456z"/>
			<path fill="#221815" d="M230.058,52.814V53.2c0.265-0.316,0.495-0.438,0.853-0.438c0.386,0,0.697,0.167,0.848,0.461
				c0.241-0.322,0.518-0.461,0.909-0.461c0.622,0,0.991,0.356,0.991,0.962v2.2h-0.807v-2.073c0-0.248-0.167-0.403-0.438-0.403
				c-0.346,0-0.554,0.229-0.554,0.61v1.866h-0.806v-2.073c0-0.248-0.168-0.403-0.438-0.403c-0.345,0-0.554,0.229-0.554,0.61v1.866
				h-0.806v-3.11H230.058z"/>
			<path fill="#221815" d="M237.379,54.416c0,0.944-0.554,1.647-1.302,1.647c-0.392,0-0.669-0.161-0.864-0.508v1.625h-0.807v-4.366
				h0.807v0.461c0.195-0.346,0.473-0.513,0.864-0.513C236.883,52.763,237.379,53.5,237.379,54.416z M235.213,54.416
				c0,0.581,0.276,0.973,0.68,0.973c0.397,0,0.68-0.397,0.68-0.962c0-0.593-0.271-0.99-0.68-0.99
				C235.489,53.437,235.213,53.834,235.213,54.416z"/>
			<path fill="#221815" d="M239.959,55.925v-0.369c-0.23,0.347-0.512,0.502-0.934,0.502c-0.662,0-1.043-0.392-1.043-1.077v-2.166
				h0.807v1.999c0,0.374,0.174,0.559,0.519,0.559c0.392,0,0.651-0.242,0.651-0.61v-1.947h0.807v3.11H239.959z"/>
			<path fill="#221815" d="M242.735,55.424c0.374,0,0.599-0.115,0.599-0.306c0-0.127-0.068-0.189-0.271-0.253l-0.962-0.3
				c-0.18-0.058-0.68-0.155-0.68-0.767c0-0.639,0.489-1.036,1.279-1.036c0.835,0,1.341,0.397,1.354,1.054h-0.778
				c-0.006-0.281-0.196-0.421-0.581-0.421c-0.283,0-0.467,0.116-0.467,0.289c0,0.127,0.057,0.173,0.281,0.241l1.021,0.294
				c0.409,0.121,0.61,0.38,0.61,0.783c0,0.432-0.271,1.055-1.359,1.055c-0.945,0-1.445-0.357-1.469-1.037h0.789
				C242.147,55.233,242.229,55.424,242.735,55.424z"/>
		</g>
		<g>
			<g>
				<g>
					<path fill="#FFFFFF" d="M112.176,52.005c-0.029-0.427-0.334-0.657-0.881-0.657c-0.443,0-0.726,0.202-0.726,0.519
						c0,0.306,0.179,0.427,0.794,0.548l0.657,0.126c0.778,0.149,1.112,0.495,1.112,1.158c0,0.853-0.639,1.359-1.722,1.359
						c-1.071,0-1.688-0.49-1.74-1.389h0.841c0.029,0.449,0.357,0.697,0.945,0.697c0.524,0,0.846-0.214,0.846-0.564
						c0-0.34-0.213-0.501-0.789-0.61l-0.587-0.116c-0.853-0.161-1.181-0.478-1.181-1.128c0-0.818,0.582-1.29,1.59-1.29
						c0.651,0,1.647,0.201,1.647,1.348H112.176z"/>
				</g>
				<g>
					<path fill="#FFFFFF" d="M115.166,52.448c-0.363,0-0.622,0.253-0.622,0.61v1.866h-0.807v-4.199h0.807v1.538
						c0.225-0.34,0.513-0.501,0.91-0.501c0.444,0,1.014,0.213,1.014,1.077v2.085h-0.806v-1.9
						C115.661,52.689,115.54,52.448,115.166,52.448z"/>
				</g>
				<g>
					<path fill="#FFFFFF" d="M118.051,51.445h-0.806v-0.72h0.806V51.445z M118.051,54.925h-0.806v-3.11h0.806V54.925z"/>
				</g>
				<g>
					<path fill="#FFFFFF" d="M121.15,52.465l-1.526,1.809h1.578v0.651h-2.575v-0.651l1.538-1.809h-1.434v-0.65h2.419V52.465z"/>
				</g>
				<g>
					<path fill="#FFFFFF" d="M123.725,54.925v-0.369c-0.23,0.347-0.512,0.502-0.933,0.502c-0.663,0-1.043-0.392-1.043-1.077v-2.166
						h0.807v1.999c0,0.374,0.173,0.559,0.519,0.559c0.392,0,0.65-0.242,0.65-0.61v-1.947h0.807v3.11H123.725z"/>
				</g>
				<g>
					<path fill="#FFFFFF" d="M128.212,53.433c0,0.997-0.593,1.625-1.538,1.625c-0.956,0-1.537-0.623-1.537-1.647
						c0-1.02,0.581-1.647,1.531-1.647C127.642,51.763,128.212,52.379,128.212,53.433z M125.942,53.41
						c0,0.593,0.294,0.996,0.731,0.996c0.432,0,0.732-0.403,0.732-0.984c0-0.61-0.289-1.008-0.732-1.008
						C126.236,52.414,125.942,52.816,125.942,53.41z"/>
				</g>
				<g>
					<path fill="#FFFFFF" d="M130.643,51.814h0.916l-1.06,1.175l1.134,1.936h-0.943l-0.744-1.371l-0.322,0.352v1.02h-0.807v-4.199
						h0.807v2.299L130.643,51.814z"/>
				</g>
				<g>
					<path fill="#FFFFFF" d="M131.922,54.124c0-0.559,0.299-0.875,0.916-0.979l0.322-0.058c0.265-0.04,0.645-0.058,0.645-0.362
						c0-0.208-0.155-0.311-0.466-0.311c-0.397,0-0.53,0.103-0.571,0.426h-0.777c0.052-0.721,0.49-1.077,1.33-1.077
						c0.842,0,1.273,0.322,1.273,0.956v1.728c0,0.162,0.041,0.248,0.186,0.381v0.098h-0.876c-0.075-0.093-0.093-0.149-0.093-0.311
						c-0.281,0.293-0.599,0.443-0.944,0.443C132.302,55.058,131.922,54.683,131.922,54.124z M133.805,53.456
						c-0.092,0.046-0.127,0.058-0.34,0.098l-0.275,0.052c-0.335,0.069-0.461,0.185-0.461,0.427c0,0.23,0.166,0.374,0.438,0.374
						c0.408,0,0.639-0.265,0.639-0.731V53.456z"/>
				</g>
				<g>
					<path fill="#FFFFFF" d="M137.014,53.571v-2.846h0.863v2.846c0,0.507,0.26,0.749,0.801,0.749c0.542,0,0.801-0.242,0.801-0.749
						v-2.846h0.864v2.846c0,1.187-0.956,1.486-1.665,1.486C137.97,55.058,137.014,54.758,137.014,53.571z"/>
				</g>
				<g>
					<path fill="#FFFFFF" d="M141.984,51.814v0.449c0.23-0.346,0.512-0.501,0.933-0.501c0.663,0,1.042,0.392,1.042,1.077v2.085
						h-0.806v-1.918c0-0.369-0.173-0.559-0.519-0.559c-0.392,0-0.65,0.241-0.65,0.61v1.866h-0.807v-3.11H141.984z"/>
				</g>
				<g>
					<path fill="#FFFFFF" d="M145.544,51.445h-0.807v-0.72h0.807V51.445z M145.544,54.925h-0.807v-3.11h0.807V54.925z"/>
				</g>
				<g>
					<path fill="#FFFFFF" d="M147.094,54.925l-1.09-3.11h0.854l0.674,2.275l0.627-2.275h0.853l-1.071,3.11H147.094z"/>
				</g>
				<g>
					<path fill="#FFFFFF" d="M152.197,53.484c0,0.041,0,0.069-0.006,0.139h-2.086c0.018,0.421,0.104,0.818,0.646,0.818
						c0.294,0,0.519-0.145,0.616-0.393h0.795c-0.178,0.611-0.743,1.009-1.44,1.009c-0.881,0-1.423-0.611-1.423-1.607
						c0-1.043,0.547-1.688,1.44-1.688C151.361,51.763,152.197,52.108,152.197,53.484z M150.728,52.379
						c-0.357,0-0.559,0.236-0.61,0.708h1.238C151.32,52.632,151.102,52.379,150.728,52.379z"/>
				</g>
				<g>
					<path fill="#FFFFFF" d="M153.607,51.814v0.61c0.173-0.42,0.496-0.662,0.864-0.662c0.022,0,0.052,0,0.098,0.006v0.817
						c-0.109-0.017-0.167-0.022-0.253-0.022c-0.473,0-0.709,0.235-0.709,0.708v1.653h-0.807v-3.11H153.607z"/>
				</g>
				<g>
					<path fill="#FFFFFF" d="M156.28,54.424c0.374,0,0.599-0.115,0.599-0.306c0-0.127-0.068-0.189-0.271-0.253l-0.962-0.3
						c-0.178-0.058-0.68-0.155-0.68-0.767c0-0.639,0.49-1.036,1.279-1.036c0.835,0,1.342,0.397,1.354,1.054h-0.777
						c-0.006-0.281-0.195-0.421-0.582-0.421c-0.282,0-0.467,0.116-0.467,0.289c0,0.127,0.058,0.173,0.282,0.241l1.02,0.294
						c0.409,0.121,0.61,0.38,0.61,0.783c0,0.432-0.271,1.055-1.359,1.055c-0.943,0-1.445-0.357-1.469-1.037h0.789
						C155.693,54.233,155.773,54.424,156.28,54.424z"/>
				</g>
				<g>
					<path fill="#FFFFFF" d="M159.098,51.445h-0.807v-0.72h0.807V51.445z M159.098,54.925h-0.807v-3.11h0.807V54.925z"/>
				</g>
				<g>
					<path fill="#FFFFFF" d="M161.274,52.414h-0.449v1.692c0,0.277,0.052,0.34,0.265,0.34c0.059,0,0.104-0.005,0.185-0.017v0.564
						c-0.145,0.046-0.288,0.063-0.467,0.063c-0.53,0-0.789-0.242-0.789-0.731v-1.912h-0.397v-0.536h0.397v-0.835h0.807v0.835h0.449
						V52.414z"/>
				</g>
				<g>
					<path fill="#FFFFFF" d="M162.662,55.052l-1.157-3.237h0.888l0.685,2.264l0.646-2.264h0.829l-1.278,3.681
						c-0.075,0.213-0.156,0.691-1.037,0.691c-0.098,0-0.167-0.006-0.288-0.023v-0.604c0.104,0.028,0.149,0.034,0.213,0.034
						c0.282,0,0.501-0.225,0.501-0.519V55.052z"/>
				</g>
				<g>
					<path fill="#FFFFFF" d="M167.742,54.925l-1.416-4.199h0.869l0.934,3.162l0.916-3.162h0.869l-1.439,4.199H167.742z"/>
				</g>
				<g>
					<path fill="#FFFFFF" d="M171.239,51.445h-0.807v-0.72h0.807V51.445z M171.239,54.925h-0.807v-3.11h0.807V54.925z"/>
				</g>
				<g>
					<path fill="#FFFFFF" d="M172.822,51.814v0.61c0.174-0.42,0.496-0.662,0.865-0.662c0.023,0,0.051,0,0.098,0.006v0.817
						c-0.109-0.017-0.167-0.022-0.254-0.022c-0.473,0-0.709,0.235-0.709,0.708v1.653h-0.807v-3.11H172.822z"/>
				</g>
				<g>
					<path fill="#FFFFFF" d="M175.674,52.414h-0.449v1.692c0,0.277,0.053,0.34,0.266,0.34c0.058,0,0.104-0.005,0.184-0.017v0.564
						c-0.145,0.046-0.287,0.063-0.467,0.063c-0.529,0-0.789-0.242-0.789-0.731v-1.912h-0.396v-0.536h0.396v-0.835h0.807v0.835h0.449
						V52.414z"/>
				</g>
				<g>
					<path fill="#FFFFFF" d="M178.197,54.925v-0.369c-0.23,0.347-0.513,0.502-0.934,0.502c-0.662,0-1.043-0.392-1.043-1.077v-2.166
						h0.808v1.999c0,0.374,0.173,0.559,0.519,0.559c0.391,0,0.65-0.242,0.65-0.61v-1.947h0.807v3.11H178.197z"/>
				</g>
				<g>
					<path fill="#FFFFFF" d="M179.607,54.124c0-0.559,0.301-0.875,0.916-0.979l0.323-0.058c0.265-0.04,0.646-0.058,0.646-0.362
						c0-0.208-0.156-0.311-0.467-0.311c-0.397,0-0.529,0.103-0.57,0.426h-0.777c0.051-0.721,0.489-1.077,1.33-1.077
						s1.273,0.322,1.273,0.956v1.728c0,0.162,0.04,0.248,0.185,0.381v0.098h-0.876c-0.074-0.093-0.092-0.149-0.092-0.311
						c-0.283,0.293-0.6,0.443-0.945,0.443C179.988,55.058,179.607,54.683,179.607,54.124z M181.492,53.456
						c-0.092,0.046-0.127,0.058-0.34,0.098l-0.277,0.052c-0.334,0.069-0.46,0.185-0.46,0.427c0,0.23,0.167,0.374,0.437,0.374
						c0.41,0,0.641-0.265,0.641-0.731V53.456z"/>
				</g>
				<g>
					<path fill="#FFFFFF" d="M183.818,54.925h-0.807v-4.199h0.807V54.925z"/>
				</g>
				<g>
					<path fill="#FFFFFF" d="M187.119,53.019v1.906h-0.864v-4.199h0.864v1.573h1.658v-1.573h0.871v4.199h-0.865v-1.906H187.119z"/>
				</g>
				<g>
					<path fill="#FFFFFF" d="M190.339,54.124c0-0.559,0.3-0.875,0.916-0.979l0.322-0.058c0.265-0.04,0.646-0.058,0.646-0.362
						c0-0.208-0.156-0.311-0.467-0.311c-0.396,0-0.529,0.103-0.57,0.426h-0.777c0.051-0.721,0.489-1.077,1.33-1.077
						c0.842,0,1.273,0.322,1.273,0.956v1.728c0,0.162,0.04,0.248,0.185,0.381v0.098h-0.876c-0.074-0.093-0.092-0.149-0.092-0.311
						c-0.282,0.293-0.6,0.443-0.945,0.443C190.719,55.058,190.339,54.683,190.339,54.124z M192.223,53.456
						c-0.092,0.046-0.127,0.058-0.34,0.098l-0.276,0.052c-0.335,0.069-0.461,0.185-0.461,0.427c0,0.23,0.167,0.374,0.438,0.374
						c0.409,0,0.64-0.265,0.64-0.731V53.456z"/>
				</g>
				<g>
					<path fill="#FFFFFF" d="M194.544,51.814V52.2c0.265-0.316,0.495-0.438,0.853-0.438c0.385,0,0.697,0.167,0.847,0.461
						c0.241-0.322,0.519-0.461,0.91-0.461c0.622,0,0.991,0.356,0.991,0.962v2.2h-0.807v-2.073c0-0.248-0.168-0.403-0.438-0.403
						c-0.345,0-0.553,0.229-0.553,0.61v1.866h-0.807v-2.073c0-0.248-0.167-0.403-0.438-0.403c-0.344,0-0.553,0.229-0.553,0.61v1.866
						h-0.807v-3.11H194.544z"/>
				</g>
				<g>
					<path fill="#FFFFFF" d="M198.748,54.124c0-0.559,0.301-0.875,0.916-0.979l0.322-0.058c0.266-0.04,0.646-0.058,0.646-0.362
						c0-0.208-0.155-0.311-0.466-0.311c-0.398,0-0.53,0.103-0.57,0.426h-0.778c0.052-0.721,0.489-1.077,1.331-1.077
						c0.841,0,1.272,0.322,1.272,0.956v1.728c0,0.162,0.04,0.248,0.185,0.381v0.098h-0.875c-0.076-0.093-0.092-0.149-0.092-0.311
						c-0.283,0.293-0.6,0.443-0.945,0.443C199.129,55.058,198.748,54.683,198.748,54.124z M200.632,53.456
						c-0.093,0.046-0.126,0.058-0.34,0.098l-0.276,0.052c-0.334,0.069-0.461,0.185-0.461,0.427c0,0.23,0.168,0.374,0.438,0.374
						c0.409,0,0.639-0.265,0.639-0.731V53.456z"/>
				</g>
				<g>
					<path fill="#FFFFFF" d="M202.953,51.814V52.2c0.266-0.316,0.496-0.438,0.854-0.438c0.385,0,0.695,0.167,0.846,0.461
						c0.242-0.322,0.519-0.461,0.91-0.461c0.623,0,0.991,0.356,0.991,0.962v2.2h-0.807v-2.073c0-0.248-0.167-0.403-0.438-0.403
						c-0.345,0-0.553,0.229-0.553,0.61v1.866h-0.807v-2.073c0-0.248-0.166-0.403-0.438-0.403c-0.346,0-0.553,0.229-0.553,0.61v1.866
						h-0.807v-3.11H202.953z"/>
				</g>
				<g>
					<path fill="#FFFFFF" d="M207.158,54.124c0-0.559,0.299-0.875,0.916-0.979l0.322-0.058c0.265-0.04,0.646-0.058,0.646-0.362
						c0-0.208-0.155-0.311-0.467-0.311c-0.397,0-0.53,0.103-0.57,0.426h-0.777c0.052-0.721,0.489-1.077,1.331-1.077
						c0.84,0,1.271,0.322,1.271,0.956v1.728c0,0.162,0.041,0.248,0.186,0.381v0.098h-0.877c-0.074-0.093-0.092-0.149-0.092-0.311
						c-0.281,0.293-0.599,0.443-0.943,0.443C207.538,55.058,207.158,54.683,207.158,54.124z M209.042,53.456
						c-0.093,0.046-0.126,0.058-0.341,0.098l-0.275,0.052c-0.334,0.069-0.461,0.185-0.461,0.427c0,0.23,0.166,0.374,0.438,0.374
						c0.408,0,0.64-0.265,0.64-0.731V53.456z"/>
				</g>
				<g>
					<path fill="#FFFFFF" d="M211.963,52.414h-0.449v1.692c0,0.277,0.051,0.34,0.264,0.34c0.059,0,0.104-0.005,0.186-0.017v0.564
						c-0.145,0.046-0.289,0.063-0.468,0.063c-0.529,0-0.788-0.242-0.788-0.731v-1.912h-0.398v-0.536h0.398v-0.835h0.807v0.835h0.449
						V52.414z"/>
				</g>
				<g>
					<path fill="#FFFFFF" d="M213.73,54.424c0.375,0,0.6-0.115,0.6-0.306c0-0.127-0.07-0.189-0.271-0.253l-0.962-0.3
						c-0.179-0.058-0.68-0.155-0.68-0.767c0-0.639,0.489-1.036,1.278-1.036c0.836,0,1.343,0.397,1.354,1.054h-0.777
						c-0.006-0.281-0.195-0.421-0.582-0.421c-0.281,0-0.466,0.116-0.466,0.289c0,0.127,0.058,0.173,0.282,0.241l1.02,0.294
						c0.408,0.121,0.61,0.38,0.61,0.783c0,0.432-0.271,1.055-1.359,1.055c-0.944,0-1.446-0.357-1.469-1.037h0.789
						C213.143,54.233,213.224,54.424,213.73,54.424z"/>
				</g>
				<g>
					<path fill="#FFFFFF" d="M217.688,54.925v-0.369c-0.23,0.347-0.513,0.502-0.933,0.502c-0.663,0-1.043-0.392-1.043-1.077v-2.166
						h0.807v1.999c0,0.374,0.173,0.559,0.519,0.559c0.391,0,0.65-0.242,0.65-0.61v-1.947h0.807v3.11H217.688z"/>
				</g>
				<g>
					<path fill="#FFFFFF" d="M222.652,51.394c-0.68,0-1.088,0.554-1.088,1.48c0,0.916,0.392,1.458,1.059,1.458
						c0.537,0,0.876-0.306,0.928-0.841h0.842c-0.053,0.962-0.749,1.566-1.791,1.566c-1.17,0-1.902-0.847-1.902-2.194
						c0-1.359,0.738-2.206,1.924-2.206c0.98,0,1.677,0.547,1.752,1.491h-0.824C223.506,51.936,223.373,51.394,222.652,51.394z"/>
				</g>
				<g>
					<path fill="#FFFFFF" d="M224.854,54.124c0-0.559,0.299-0.875,0.915-0.979l0.323-0.058c0.264-0.04,0.645-0.058,0.645-0.362
						c0-0.208-0.156-0.311-0.467-0.311c-0.396,0-0.529,0.103-0.57,0.426h-0.777c0.052-0.721,0.49-1.077,1.33-1.077
						c0.842,0,1.273,0.322,1.273,0.956v1.728c0,0.162,0.041,0.248,0.185,0.381v0.098h-0.876c-0.074-0.093-0.092-0.149-0.092-0.311
						c-0.283,0.293-0.6,0.443-0.944,0.443C225.232,55.058,224.854,54.683,224.854,54.124z M226.736,53.456
						c-0.092,0.046-0.127,0.058-0.34,0.098l-0.276,0.052c-0.335,0.069-0.461,0.185-0.461,0.427c0,0.23,0.167,0.374,0.438,0.374
						c0.409,0,0.64-0.265,0.64-0.731V53.456z"/>
				</g>
				<g>
					<path fill="#FFFFFF" d="M229.058,51.814V52.2c0.265-0.316,0.495-0.438,0.853-0.438c0.386,0,0.697,0.167,0.848,0.461
						c0.241-0.322,0.518-0.461,0.909-0.461c0.622,0,0.991,0.356,0.991,0.962v2.2h-0.807v-2.073c0-0.248-0.167-0.403-0.438-0.403
						c-0.346,0-0.554,0.229-0.554,0.61v1.866h-0.806v-2.073c0-0.248-0.168-0.403-0.438-0.403c-0.345,0-0.554,0.229-0.554,0.61v1.866
						h-0.806v-3.11H229.058z"/>
				</g>
				<g>
					<path fill="#FFFFFF" d="M236.379,53.416c0,0.944-0.554,1.647-1.302,1.647c-0.392,0-0.669-0.161-0.864-0.508v1.625h-0.807
						v-4.366h0.807v0.461c0.195-0.346,0.473-0.513,0.864-0.513C235.883,51.763,236.379,52.5,236.379,53.416z M234.213,53.416
						c0,0.581,0.276,0.973,0.68,0.973c0.397,0,0.68-0.397,0.68-0.962c0-0.593-0.271-0.99-0.68-0.99
						C234.489,52.437,234.213,52.834,234.213,53.416z"/>
				</g>
				<g>
					<path fill="#FFFFFF" d="M238.959,54.925v-0.369c-0.23,0.347-0.512,0.502-0.934,0.502c-0.662,0-1.043-0.392-1.043-1.077v-2.166
						h0.807v1.999c0,0.374,0.174,0.559,0.519,0.559c0.392,0,0.651-0.242,0.651-0.61v-1.947h0.807v3.11H238.959z"/>
				</g>
				<g>
					<path fill="#FFFFFF" d="M241.735,54.424c0.374,0,0.599-0.115,0.599-0.306c0-0.127-0.068-0.189-0.271-0.253l-0.962-0.3
						c-0.18-0.058-0.68-0.155-0.68-0.767c0-0.639,0.489-1.036,1.279-1.036c0.835,0,1.341,0.397,1.354,1.054h-0.778
						c-0.006-0.281-0.196-0.421-0.581-0.421c-0.283,0-0.467,0.116-0.467,0.289c0,0.127,0.057,0.173,0.281,0.241l1.021,0.294
						c0.409,0.121,0.61,0.38,0.61,0.783c0,0.432-0.271,1.055-1.359,1.055c-0.945,0-1.445-0.357-1.469-1.037h0.789
						C241.147,54.233,241.229,54.424,241.735,54.424z"/>
				</g>
			</g>
		</g>
	</g>
	<g>
		<g opacity="0.3">
			<line fill="none" stroke="#221815" x1="103.24" y1="4.6" x2="103.24" y2="57.4"/>
		</g>
		<g>
			<line fill="none" stroke="#FFFFFF" x1="102.24" y1="3.6" x2="102.24" y2="56.4"/>
		</g>
	</g>
</g>
</svg>
