<?xml version="1.0" encoding="utf-8"?>
<!-- Generator: Adobe Illustrator 12.0.0, SVG Export Plug-In . SVG Version: 6.00 Build 51448)  -->
<!DOCTYPE svg PUBLIC "-//W3C//DTD SVG 1.1//EN" "http://www.w3.org/Graphics/SVG/1.1/DTD/svg11.dtd" [
	<!ENTITY ns_svg "http://www.w3.org/2000/svg">
	<!ENTITY ns_xlink "http://www.w3.org/1999/xlink">
]>
<svg  version="1.1" id="レイヤー_1" xmlns="&ns_svg;" xmlns:xlink="&ns_xlink;" width="184.453" height="45"
	 viewBox="0 0 184.453 45" overflow="visible" enable-background="new 0 0 184.453 45" xml:space="preserve">
<g>
	<path fill="#515C6B" d="M23.286,13.996v-0.563h-1.508v0.563h-6.84l-0.565,0.565v4.394h1.192v-3.828h3.828
		c0.126,0.627,0.126,1.882-0.877,2.759l0.753,0.879c1.317-1.129,1.443-2.76,1.317-3.702h3.453c-0.126,0.942-0.063,2.509,1.317,3.641
		l0.752-0.879c-1.003-0.879-1.003-2.134-0.877-2.762h4.33v3.828h1.192v-4.394l-0.565-0.564L23.286,13.996z M19.393,21.025v-1.193
		h-4.895v2.45c0,0.25,0.063,0.627,0.376,1.004c0.439,0.564,1.256,0.816,2.385,0.816h2.133v-1.193H17.26
		c-0.942,0-1.319-0.252-1.445-0.376v-0.063h3.641V21.34h-3.765v-0.315H19.393z M15.125,24.667l-0.564,0.563v6.152h1.193v-5.588
		h13.555v5.524h1.192V25.23l-0.564-0.563H15.125z"/>
	<path fill="#515C6B" d="M19.143,28.306v-0.689h6.778v0.689H19.143z M27.677,27.865v2.136h-4.455v-0.503h3.262l0.566-0.563v-1.883
		l-0.566-0.565h-7.969l-0.565,0.5v1.885l0.565,0.565h3.451v0.501h-4.583v-2.698h-1.192v3.325l0.565,0.565h5.209v0.503h-4.896v1.192
		h5.522l0.566-0.564V31.13h5.02l0.566-0.565v-3.325h-1.192L27.677,27.865 M22.531,21.09c0.816,0,1.318,0.374,1.318,0.626
		s-0.502,0.627-1.318,0.627c-0.814,0-1.317-0.375-1.317-0.627C21.151,21.464,21.717,21.09,22.531,21.09z M20.021,24.102h1.192
		c0-0.252,0.503-0.626,1.317-0.626c0.816,0,1.318,0.375,1.318,0.626h1.192c0-0.439-0.25-0.879-0.627-1.193
		c0.376-0.313,0.627-0.753,0.627-1.192s-0.25-0.879-0.627-1.192c0.376-0.313,0.627-0.753,0.627-1.192h-1.192
		c0,0.252-0.502,0.627-1.318,0.627c-0.814,0-1.317-0.375-1.317-0.627h-1.192c0,0.439,0.25,0.879,0.627,1.192
		c-0.377,0.313-0.627,0.753-0.627,1.192s0.25,0.879,0.627,1.192C20.209,23.222,20.021,23.6,20.021,24.102 M30.501,19.832H25.67
		v1.193h3.702v0.315H25.67v1.192h3.639v0.063c-0.125,0.126-0.501,0.376-1.443,0.376h-2.135v1.192h2.135
		c1.129,0,1.945-0.25,2.385-0.815c0.313-0.377,0.376-0.816,0.376-1.005v-0.062C30.501,22.156,30.501,19.832,30.501,19.832z"/>
	<path fill="#515C6B" d="M35.334,39.729c-4.833-1.258-5.272-4.396-11.172-3.327l-2.698,0.502c-1.632-1.694-2.949-3.2-6.778-3.2
		h-3.201c-0.439-1.003-0.877-1.883-1.632-2.636c-2.008-1.945-7.592-2.26-7.908-2.26c-0.187-0.564-0.313-1.13-0.439-1.695
		c3.076-1.633,8.097-4.832,12.301-8.473V17.7c-3.765,3.012-8.848,5.586-12.677,7.281c-0.125-0.816-0.125-1.695-0.125-2.511
		c0-11.861,9.664-21.464,21.525-21.464c9.916,0,18.326,6.778,20.774,15.941c-1.13-0.816-2.322-1.819-3.388-2.886h-1.193
		c-4.269-4.332-7.72-9.604-7.72-9.604h-1.632l-0.376,0.879l-0.502-0.879h-1.945l-0.501,0.879l-0.315-0.879h-1.63
		c0,0-2.198,4.457-6.089,9.039h0.879c3.451-4.269,5.459-8.473,5.459-8.473h1.004l0.315,0.94l-0.439,0.754h0.563l0.879-1.695h1.569
		l0.753,1.695h0.816l-0.439-0.754l0.313-0.94h1.068c0,0,2.448,4.707,6.779,9.853h1.066c1.569,1.758,3.327,3.577,5.273,5.209
		c0.063,0.816,0.124,1.569,0.124,2.385C43.995,29.561,40.606,35.839,35.334,39.729z M32.196,41.675
		c-5.899-0.565-8.347-2.385-10.104-4.144c5.271-0.627,5.71,2.638,10.982,3.641C32.825,41.361,32.51,41.548,32.196,41.675
		 M28.745,43.117c0,0-8.6-0.313-12.991-3.767c-2.261-1.756-3.201-3.388-3.893-4.77c7.72,0.315,4.707,7.155,18.326,8.034
		C29.686,42.805,29.248,42.929,28.745,43.117 M22.531,43.997c-9.351,0-17.384-6.025-20.333-14.437c0,0,3.514,0.189,5.02,2.512
		s2.511,5.333,7.155,8.221c4.644,2.889,10.292,3.139,12.238,3.327C25.294,43.871,23.912,43.997,22.531,43.997 M22.531,0
		C10.105,0,0,10.105,0,22.469C0,34.896,10.105,45,22.531,45C34.958,45,45,34.896,45,22.469C45,10.105,34.895,0,22.531,0
		 M98.221,5.714c-0.126-0.126-0.188-0.252-0.188-0.504c0-0.25,0.126-0.375,0.188-0.501c0.125-0.126,0.251-0.188,0.501-0.188h7.345
		c0.25,0,0.439,0.062,0.563,0.188c0.189,0.126,0.253,0.376,0.253,0.566c0,0.374-0.189,0.688-0.629,1.003
		c-0.376,0.25-0.877,0.502-1.569,0.753c-0.5,0.125-0.627,0.189-0.689,0.25c-0.564,0.189-0.69,0.313-0.69,0.313v0.065h5.396
		c-0.063,0.062-0.438,1.254-0.438,1.316h-4.958v2.196c0,0.565-0.126,0.941-0.376,1.192c-0.252,0.252-0.689,0.378-1.256,0.378
		c-0.377,0-0.879-0.063-1.441-0.126c-0.566-0.126-1.068-0.252-1.445-0.376c-0.188-0.063-0.313-0.126-0.439-0.25
		c-0.188-0.189-0.188-0.313-0.188-0.439c0-0.189,0.063-0.378,0.188-0.439c0.063-0.063,0.189-0.126,0.439-0.126
		c0.063,0,0.252,0,1.068,0.252c0.563,0.124,1.129,0.25,1.568,0.25c0.377,0,0.501-0.063,0.501-0.126c0,0,0.126-0.124,0.126-0.564
		V9.102H96.84c-0.188,0-0.377-0.063-0.503-0.189c-0.062-0.062-0.188-0.25-0.188-0.501c0-0.252,0.126-0.378,0.188-0.502
		c0.063-0.063,0.252-0.189,0.503-0.189h5.209V7.407c0-0.439,0.377-0.816,1.129-1.067h0.063c0.378-0.126,0.754-0.252,1.067-0.378
		V5.901h-5.46C98.472,5.838,98.346,5.775,98.221,5.714L98.221,5.714z"/>
	<path fill="#515C6B" d="M100.291,2.45h2.009l-0.125-0.189l-0.565-0.689c-0.439-0.502-0.502-0.691-0.502-0.879
		c0-0.126,0.063-0.252,0.188-0.439c0.188-0.187,0.314-0.187,0.439-0.187c0.188,0,0.377,0.061,0.628,0.25
		c0.189,0.125,0.439,0.376,0.815,0.753c0.252,0.25,0.377,0.439,0.503,0.563c0.126,0.189,0.126,0.315,0.126,0.505v0.187h0.753
		c0.44-0.376,0.878-0.816,1.256-1.255c0.628-0.753,0.877-0.879,1.066-0.879c0.187,0,0.376,0.063,0.563,0.189
		c0.126,0.126,0.189,0.313,0.189,0.501c0,0.189-0.126,0.439-0.439,0.752c-0.127,0.189-0.313,0.378-0.627,0.628l-0.063,0.063h0.939
		c0.316,0,0.566,0.126,0.816,0.313c0.252,0.188,0.314,0.502,0.314,0.816v1.945c-0.063,0-1.255,0.439-1.381,0.502V3.893
		c0-0.063,0-0.189-0.064-0.25c0,0.125-0.123,0.125-0.186,0.125h-8.977c-0.125,0-0.188,0-0.25,0.063c0,0-0.063,0.063-0.063,0.252
		v1.693c0,0.125-0.064,0.313-0.252,0.439c-0.125,0.126-0.313,0.188-0.438,0.188c-0.19,0-0.313-0.062-0.44-0.125
		c-0.126-0.126-0.25-0.25-0.25-0.439v-2.26c0-0.375,0.124-0.688,0.313-0.877c0.187-0.189,0.503-0.25,0.94-0.25h1.132l-0.315-0.313
		c-0.816-0.818-0.878-1.005-0.878-1.131c0-0.188,0.062-0.314,0.188-0.44c0.125-0.126,0.313-0.187,0.438-0.187
		c0.251,0,0.566,0.187,1.067,0.565l0.063,0.062l0.25,0.252c0.503,0.439,0.756,0.753,0.756,1.003v0.125L100.291,2.45 M82.153,3.956
		c-0.126-0.125-0.188-0.313-0.188-0.502s0.062-0.376,0.188-0.502s0.313-0.188,0.503-0.188h4.833V1.005
		c0-0.188,0.063-0.376,0.25-0.501c0.126-0.126,0.313-0.189,0.503-0.189c0.188,0,0.377,0.063,0.502,0.189
		c0.125,0.125,0.188,0.313,0.188,0.501v1.758h5.586c-0.063,0.062-0.502,1.38-0.502,1.38h-4.957v0.063
		c0.313,0.942,0.689,1.945,1.316,2.824c0.754,1.192,2.323,2.825,2.385,2.888c0.252,0.25,0.879,0.814,1.381,1.254
		c0.314,0.315,0.627,0.565,0.689,0.628c-0.123,0.063-1.631,0.628-1.693,0.628c-0.377-0.315-1.381-1.318-1.82-1.758
		c-0.752-0.753-1.379-1.569-1.882-2.448c-0.376-0.628-0.69-1.255-1.005-1.945l-0.062-0.063v0.063
		c-0.253,0.816-0.629,1.506-1.068,2.196c-0.563,0.879-1.38,1.758-2.321,2.574c-0.503,0.439-1.004,0.816-1.381,1.066
		c-0.564,0.377-0.815,0.44-0.941,0.44c-0.189,0-0.313-0.063-0.439-0.189c-0.127-0.125-0.189-0.251-0.189-0.439
		c0-0.249,0.189-0.501,1.131-1.128c0.627-0.439,1.193-0.942,1.693-1.381c0.753-0.753,1.382-1.569,1.821-2.509
		c0.377-0.818,0.627-1.697,0.816-2.637V4.206h-4.771C82.406,4.143,82.279,4.082,82.153,3.956z M135.375,12.303l0.188,0.188
		l1.693-0.626c-0.188-0.188-2.322-2.009-2.824-2.511c-0.501-0.501-1.569-1.819-2.133-2.762c-0.503-0.942-0.815-1.821-0.879-2.509
		V1.257c0-0.126-0.063-0.313-0.251-0.439c-0.126-0.126-0.314-0.189-0.502-0.189c-0.189,0-0.313,0.063-0.502,0.189
		c-0.188,0.126-0.251,0.313-0.251,0.439v2.259c0,0.753-0.189,1.569-0.44,2.511c-0.313,0.94-0.689,1.756-1.192,2.446
		c-0.628,0.942-1.694,1.821-3.013,2.637l-0.125,0.062c-0.188,0.126-0.313,0.189-0.376,0.315c-0.126,0.125-0.126,0.25-0.126,0.377
		c0,0.187,0.063,0.313,0.189,0.439c0.124,0.126,0.25,0.188,0.438,0.188c0.189,0,0.379-0.062,0.564-0.126
		c0.19-0.125,0.504-0.251,0.816-0.5c0.439-0.252,0.816-0.566,1.193-0.816c0.376-0.315,0.689-0.564,0.941-0.879
		c0.502-0.563,0.94-1.192,1.317-1.882c0.315-0.565,0.565-1.192,0.815-1.946c0.189,0.501,0.439,1.067,0.692,1.569
		c0.376,0.689,0.753,1.317,1.253,1.819C133.555,10.483,134.747,11.8,135.375,12.303z M64.142,0.755h-8.536
		c-1.569,0-1.569,1.192-1.569,1.316v9.101c0,0.189,0.063,1.318,1.569,1.318h8.536c1.569,0,1.569-1.192,1.569-1.318V2.01
		C65.772,1.821,65.648,0.755,64.142,0.755z M64.33,10.418c0,0.44-0.063,0.692-0.627,0.692h-7.72c-0.502,0-0.627-0.252-0.627-0.692
		V2.7c0-0.44,0.063-0.69,0.627-0.69h7.784c0.5,0,0.626,0.25,0.626,0.69v7.718H64.33z M55.856,3.516c0,0.627,0.629,0.627,1.068,0.627
		h2.196v1.571h-1.946c-0.502,0-1.066,0-1.066,0.626c0,0.627,0.627,0.627,1.066,0.627h1.946v1.945h-2.322
		c-0.502,0-1.066,0-1.066,0.691c0,0.627,0.563,0.627,1.066,0.627h6.589l0.502-1.318h-1.003c0.063-0.062,0.25-0.188,0.25-0.501
		c0-0.252-0.313-0.753-0.502-1.005c-0.125-0.126-0.25-0.377-0.627-0.377c-0.313,0-0.626,0.189-0.626,0.629
		c0,0.25,0.626,1.128,0.752,1.192h-1.632V6.906h2.572l0.439-1.258h-3.012V4.143h2.825l0.5-1.318h-6.839
		C56.485,2.889,55.856,2.889,55.856,3.516z M69.413,3.578h9.853l0.503-1.38h-4.894V1.382c0-0.69,0-1.067-0.816-1.067
		c-0.754,0-0.754,0.503-0.754,1.067v0.816h-3.828c-0.502,0-1.066,0-1.066,0.691C68.347,3.578,68.849,3.578,69.413,3.578z
		 M70.794,4.457c-0.252,0-0.816,0.189-0.816,0.692c0,0.126,0,0.187,0.188,0.689c0.439,1.068,0.816,2.509,0.942,2.949
		c0.439,1.57,0.502,1.821,1.003,1.821c0.063,0,0.692,0,0.816-0.564V9.855c0-0.25-0.501-2.261-1.13-3.893
		C71.484,4.896,71.234,4.457,70.794,4.457z M76.254,11.11c1.506-3.451,1.882-5.585,1.882-5.901c0-0.627-0.44-0.814-0.753-0.814
		c-0.564,0-0.627,0.25-0.816,1.066c-0.313,1.318-0.753,3.075-1.882,5.586h-5.649c-0.564,0-1.067,0-1.067,0.69
		c0,0.691,0.503,0.691,1.067,0.691h10.606l0.502-1.444h-3.89V11.11z M112.968,6.214c0.315,0,0.692-0.252,0.63-0.689
		c-0.064-0.376-0.19-0.44-1.131-1.193c-0.941-0.754-1.066-0.816-1.318-0.816c-0.438,0-0.627,0.376-0.627,0.627
		c0,0.189,0.125,0.313,0.188,0.439c0.126,0.126,0.942,0.692,1.065,0.816C112.654,6.151,112.719,6.214,112.968,6.214z M112.654,2.574
		c0.629,0.565,0.692,0.565,0.879,0.565c0.314,0,0.627-0.315,0.627-0.69c0-0.565-1.693-1.821-2.258-1.884
		c-0.25,0-0.628,0.126-0.628,0.627c0,0.126,0.063,0.315,0.188,0.439C111.589,1.821,112.467,2.45,112.654,2.574z M120.438,7.721
		c-0.252,0-0.628,0.252-0.628,0.691c0,0.124,0.063,0.313,0.438,0.94c0.251,0.502,0.377,0.691,0.629,1.255
		c-0.754,0.125-2.008,0.313-4.016,0.439c0.5-1.508,0.815-3.138,0.939-4.141h4.52l0.439-1.258h-3.703V3.578h2.824l0.503-1.317h-3.327
		V1.382c0-0.564,0-1.067-0.753-1.067c-0.689,0-0.689,0.564-0.689,1.067V2.26h-2.071c-0.504,0-1.066,0-1.066,0.629
		c0,0.627,0.563,0.627,1.066,0.627h2.071v2.072h-2.449c-0.502,0-1.065,0-1.065,0.626c0,0.627,0.627,0.627,1.065,0.627h1.257
		c-0.189,1.318-0.629,2.951-1.131,4.206c-0.752,0-1.318,0-1.318,0.69c0,0.063,0,0.691,0.754,0.691c0.942,0,3.953-0.189,6.589-0.753
		c0.063,0.249,0.126,0.438,0.376,1.066l1.193-0.439c-0.314-1.318-1.13-3.011-1.317-3.451C121.065,8.034,120.814,7.721,120.438,7.721
		z M113.283,7.594c-0.439,0-0.564,0.439-0.629,0.628c-0.439,1.317-1.254,2.636-1.692,3.327c-0.252,0.375-0.315,0.439-0.315,0.627
		c0,0.439,0.376,0.691,0.691,0.691c0.314,0,0.501-0.126,1.066-1.004c0.504-0.816,1.506-2.699,1.506-3.641
		C113.973,8.099,113.91,7.594,113.283,7.594z M171.525,32.261v-0.064c0-0.062,0.25-0.375,1.631-0.753l1.632-0.501
		c1.693-0.565,2.886-1.131,3.765-1.758c1.006-0.753,1.507-1.568,1.507-2.446c0-0.565-0.188-1.068-0.627-1.444
		c-0.376-0.376-0.88-0.565-1.506-0.565h-17.447c-0.503,0-0.942,0.126-1.192,0.378c-0.189,0.188-0.504,0.563-0.504,1.192
		c0,0.501,0.127,0.94,0.441,1.192c0.313,0.313,0.688,0.439,1.255,0.439h13.054c-0.753,0.313-1.632,0.627-2.574,0.94l-0.124,0.063
		c-1.821,0.563-2.824,1.442-2.824,2.574v0.688H155.71c-0.628,0-1.006,0.252-1.192,0.439c-0.189,0.189-0.44,0.566-0.44,1.192
		c0,0.629,0.251,1.005,0.503,1.192c0.313,0.253,0.689,0.439,1.192,0.439h12.301v4.018c0,1.065-0.188,1.318-0.188,1.318
		s-0.25,0.188-1.131,0.188c-1.065,0-2.32-0.188-3.703-0.501c-2.07-0.503-2.447-0.565-2.635-0.565c-0.565,0-0.879,0.187-1.066,0.376
		c-0.189,0.189-0.439,0.503-0.439,1.068c0,0.25,0.063,0.688,0.501,1.127c0.252,0.316,0.628,0.505,1.131,0.693
		c0.94,0.313,2.069,0.626,3.452,0.878c1.379,0.25,2.571,0.375,3.451,0.375c1.381,0,2.385-0.313,3.074-0.877
		c0.692-0.629,1.006-1.632,1.006-2.949v-5.085h11.734l1.193-3.263H171.525z"/>
	<path fill="#515C6B" d="M155.334,28.809c0.313,0.25,0.688,0.376,1.129,0.376c0.439,0,0.816-0.126,1.191-0.376
		c0.504-0.377,0.564-0.816,0.564-1.13v-3.954c0-0.376,0.063-0.502,0.063-0.564c0.063,0,0.189-0.064,0.502-0.064h21.465
		c0.251,0,0.439,0.064,0.503,0.126c0.061,0.063,0.125,0.253,0.125,0.502v4.959l3.452-1.258v-4.769c0-0.753-0.314-1.443-0.815-1.945
		c-0.565-0.501-1.256-0.814-2.009-0.814h-2.071c0.627-0.566,1.066-1.068,1.443-1.445c0.691-0.815,1.005-1.379,1.005-1.882
		c0-0.503-0.189-1.003-0.503-1.316c-0.377-0.379-0.816-0.505-1.318-0.505c-0.501,0-1.129,0.378-2.636,2.134
		c-0.942,1.129-2.008,2.196-3.012,3.075h-1.569c0.062-0.126,0.062-0.25,0.062-0.375c0-0.439-0.124-0.817-0.376-1.257
		c-0.188-0.374-0.564-0.814-1.13-1.379c-0.816-0.879-1.506-1.506-1.945-1.819c-0.563-0.44-1.065-0.629-1.506-0.629
		c-0.25,0-0.689,0.063-1.129,0.503c-0.44,0.376-0.503,0.816-0.503,1.129c0,0.376,0.188,0.879,1.255,2.071l1.319,1.569
		c0,0,0.124,0.188,0.187,0.25h-4.643c0-0.124,0.063-0.25,0.063-0.376c0-0.69-0.566-1.443-1.821-2.511c0,0-0.563-0.501-0.626-0.501
		l-0.127-0.126c-1.192-1.005-1.945-1.443-2.572-1.443c-0.439,0-0.816,0.125-1.191,0.438c-0.316,0.315-0.504,0.691-0.504,1.131
		c0,0.377,0.188,0.879,2.133,2.825l0.566,0.563h-2.448c-1.066,0-1.819,0.189-2.385,0.629c-0.564,0.44-0.816,1.193-0.816,2.132v5.148
		C154.704,28.118,154.956,28.494,155.334,28.809z M147.3,43.432l4.203-1.506c-0.313-0.378-4.077-3.641-5.02-4.581
		c-0.88-0.942-4.017-4.331-5.649-6.905c-1.379-2.26-2.385-4.519-3.074-6.777h11.674l1.254-3.515H137.32v-4.141
		c0-0.439-0.188-0.879-0.563-1.257c-0.315-0.313-0.817-0.501-1.256-0.501c-0.503,0-0.942,0.126-1.318,0.439
		c-0.377,0.314-0.566,0.753-0.566,1.254v4.143h-11.422c-0.503,0-0.879,0.187-1.255,0.502c-0.314,0.313-0.502,0.753-0.502,1.256
		c0,0.5,0.188,0.939,0.502,1.253c0.314,0.313,0.752,0.503,1.255,0.503h11.171c-0.313,2.195-0.941,4.331-1.881,6.212
		c-1.006,2.135-2.449,4.143-4.268,5.9c-1.132,1.13-2.511,2.26-4.018,3.326c-2.197,1.57-2.637,2.258-2.637,2.824
		c0,0.439,0.126,0.815,0.439,1.131c0.313,0.313,0.689,0.501,1.13,0.501c0.314,0,0.941-0.126,2.323-1.006
		c0.94-0.626,2.07-1.442,3.325-2.509c2.322-1.944,4.267-4.017,5.649-6.087c1.003-1.57,1.882-3.328,2.51-5.209
		c0.691,1.632,1.507,3.199,2.446,4.644c1.257,2.007,2.762,4.018,4.52,5.837C143.973,40.23,146.546,42.74,147.3,43.432L147.3,43.432z
		 M78.012,27.931h-2.574v-3.139h2.574V27.931z M78.012,34.521h-2.574v-3.327h2.574V34.521 M73.996,21.653h-2.511
		c0.126-0.313,0.25-0.69,0.376-1.066c0.189-0.566,0.376-1.192,0.566-1.882h3.765c-0.063,0.188-0.25,0.375-0.503,0.814
		C75.312,20.147,74.686,20.837,73.996,21.653 M83.598,27.931h-2.323v-3.264c0-1.005-0.25-1.758-0.689-2.198
		c-0.44-0.5-1.192-0.753-2.135-0.753h-0.438c0.502-0.565,0.878-1.066,1.193-1.569c0.563-0.879,0.815-1.569,0.815-2.195
		c0-0.692-0.252-1.258-0.691-1.696c-0.439-0.439-1.066-0.628-1.756-0.628h-4.519c-0.063-0.374-0.188-0.69-0.44-0.94
		c-0.187-0.189-0.564-0.439-1.192-0.439c-1.38,0-1.756,1.945-1.882,2.573l-0.25,1.131c-0.315,1.379-0.755,2.572-1.193,3.639
		c-0.376,0.878-0.816,1.695-1.318,2.384h-4.833v-0.878h3.954c0.252,0,0.69-0.062,1.067-0.501c0.252-0.313,0.439-0.691,0.439-1.066
		c0-0.378-0.124-0.753-0.439-1.068c-0.25-0.313-0.627-0.44-1.067-0.44h-3.954V19.08h4.394c0.439,0,0.753-0.188,1.066-0.501
		c0.252-0.313,0.376-0.626,0.376-1.066c0-0.439-0.124-0.753-0.438-1.068c-0.252-0.25-0.628-0.438-1.005-0.438h-4.394v-0.378
		c0-0.439-0.188-0.814-0.44-1.066c-0.187-0.188-0.563-0.439-1.129-0.439c-0.44,0-0.816,0.126-1.129,0.439
		c-0.439,0.376-0.502,0.816-0.502,1.066v0.378h-4.394c-0.376,0-0.753,0.187-1.066,0.5c-0.25,0.314-0.376,0.627-0.376,1.066
		c0,0.379,0.126,0.753,0.376,1.005c0.25,0.25,0.627,0.439,1.003,0.439h4.394v0.94h-3.954c-0.564,0-0.877,0.252-1.066,0.439
		c-0.189,0.189-0.376,0.502-0.376,1.066c0,0.44,0.126,0.753,0.439,1.068c0.313,0.314,0.627,0.439,1.066,0.439h3.954v0.878h-4.957
		c-0.377,0-0.753,0.189-1.068,0.439c-0.25,0.313-0.44,0.629-0.44,1.067c0,0.376,0.126,0.754,0.44,1.066
		c0.376,0.377,0.752,0.439,1.005,0.439h13.494c1.003,0,1.945-0.689,2.824-2.134h2.07v3.137h-3.765c-0.439,0-0.816,0.19-1.066,0.44
		c-0.315,0.313-0.439,0.691-0.439,1.131s0.125,0.814,0.439,1.192c0.376,0.439,0.816,0.564,1.129,0.564h3.765v3.327h-3.201
		c-0.439,0-0.816,0.187-1.13,0.5c-0.25,0.313-0.439,0.691-0.439,1.131c0,0.44,0.126,0.88,0.439,1.13
		c0.189,0.188,0.566,0.438,1.13,0.438h3.201v2.699c0,0.503-0.125,0.627-0.125,0.627s-0.126,0.063-0.376,0.063
		c-0.315,0-0.692-0.063-1.193-0.188c-0.754-0.189-1.005-0.252-1.192-0.252c-0.566,0-0.942,0.252-1.131,0.439
		c-0.188,0.187-0.438,0.565-0.438,1.129c0,0.502,0.25,1.193,1.316,1.695c0.69,0.313,1.569,0.439,2.698,0.439
		c1.255,0,2.197-0.252,2.762-0.753c0.628-0.503,0.941-1.382,0.941-2.511v-3.39h3.013c1.004,0,1.693-0.188,2.134-0.688
		c0.439-0.439,0.689-1.132,0.689-2.135v-3.703h1.132L83.598,27.931"/>
	<path fill="#515C6B" d="M54.226,43.117c0,0.44,0.188,0.816,0.501,1.068c0.315,0.249,0.692,0.375,1.129,0.375
		c0.439,0,0.816-0.126,1.131-0.375c0.313-0.252,0.5-0.628,0.5-1.068v-3.767h4.144l1.129-3.138h-5.272v-1.128h4.206l1.066-3.076
		h-5.272v-1.066h5.712v9.477c0,0.438-0.126,0.564-0.126,0.564s-0.188,0.126-0.627,0.126s-0.942-0.063-1.569-0.252
		c-1.005-0.249-1.192-0.314-1.382-0.314c-0.439,0-0.815,0.127-1.066,0.44c-0.189,0.188-0.377,0.502-0.377,1.066
		c0,0.504,0.251,1.257,1.569,1.758c0.816,0.313,1.819,0.502,3.075,0.502s2.198-0.25,2.761-0.752
		c0.629-0.564,0.942-1.382,0.942-2.762V30.377c0-0.565-0.25-1.254-0.752-1.693c-0.502-0.504-1.129-0.753-1.946-0.753h-6.528
		c-0.879,0-1.632,0.249-2.132,0.688c-0.566,0.504-0.816,1.131-0.816,3.202V43.117z M109.077,38.537
		c0.691-0.565,1.067-1.318,1.067-2.386v-6.591c0-0.438-0.188-0.877-0.502-1.129c-0.313-0.252-0.689-0.439-1.192-0.439
		c-0.438,0-0.879,0.126-1.192,0.439c-0.313,0.313-0.502,0.691-0.502,1.129v5.899c0,0.252-0.063,0.439-0.127,0.565
		c-0.061,0.063-0.25,0.126-0.438,0.126h-8.912c-0.566,0-0.754-0.126-0.816-0.126c-0.063-0.063-0.126-0.252-0.126-0.502v-5.9
		c0-0.438-0.188-0.878-0.501-1.129c-0.314-0.25-0.691-0.438-1.129-0.438c-0.439,0-0.879,0.124-1.193,0.438
		c-0.377,0.314-0.564,0.69-0.564,1.192v6.653c0,1.005,0.313,1.758,0.941,2.321c0.627,0.503,1.443,0.816,2.509,0.816h9.979
		C107.571,39.29,108.45,39.038,109.077,38.537z"/>
	<path fill="#515C6B" d="M114.727,16.006c-0.627-0.565-1.506-0.818-2.636-0.818H91.066c-1.068,0-1.885,0.313-2.574,0.879
		c-0.627,0.565-1.003,1.382-1.003,2.324v24.414c0,0.313,0.124,0.689,0.563,1.066c0.313,0.25,0.691,0.376,1.129,0.376
		c0.439,0,0.816-0.126,1.132-0.376c0.501-0.377,0.563-0.816,0.563-1.066V19.269c0-0.313,0.063-0.564,0.189-0.628
		c0.063-0.062,0.25-0.188,0.94-0.188h18.955c0.94,0,1.129,0.188,1.192,0.188c0.061,0.064,0.125,0.252,0.125,0.628v18.829
		c0,1.066-0.188,1.819-0.627,2.133c-0.252,0.188-1.006,0.565-2.889,0.565c-0.752,0-1.633-0.063-2.572-0.188
		c-1.508-0.189-1.632-0.189-1.694-0.189c-0.565,0-0.942,0.251-1.13,0.438c-0.189,0.188-0.439,0.564-0.439,1.131
		c0,0.816,0.627,1.443,1.883,1.758c1.005,0.251,2.385,0.375,4.393,0.375c2.386,0,4.018-0.44,5.021-1.316
		c1.004-0.879,1.507-2.386,1.507-4.457V18.391C115.731,17.386,115.417,16.57,114.727,16.006z"/>
	<path fill="#515C6B" d="M103.24,26.673h7.532l1.192-3.198h-3.891c0.188-0.253,0.439-0.503,0.626-0.753
		c0.253-0.315,0.44-0.629,0.629-1.005c0.125-0.252,0.251-0.565,0.251-0.879v-0.376c-0.063-0.376-0.251-0.753-0.565-1.066
		c-0.314-0.315-0.753-0.502-1.253-0.502h-0.378c-0.376,0.063-0.755,0.313-1.317,1.129c-0.127,0.126-0.189,0.25-0.314,0.44
		c-0.188,0.25-0.376,0.629-0.628,1.003c-0.44,0.692-0.879,1.382-1.317,2.011h-4.709c-0.688-1.506-1.254-2.512-1.693-3.077
		c-0.629-0.814-1.255-1.253-1.945-1.253c-0.629,0-1.004,0.25-1.191,0.439c-0.189,0.188-0.439,0.564-0.439,1.192
		c0,0.375,0.188,0.815,1.002,2.07c0.127,0.188,0.314,0.439,0.44,0.629h-2.385c-0.439,0-0.816,0.125-1.13,0.439
		c-0.313,0.313-0.439,0.688-0.439,1.128c0,0.438,0.127,0.817,0.439,1.131c0.377,0.439,0.816,0.5,1.13,0.5h6.968v9.479l3.387-1.255
		V26.673z"/>
</g>
</svg>
